<?xml version="1.0" encoding="UTF-8" standalone="no"?><svg xmlns="http://www.w3.org/2000/svg" xmlns:xlink="http://www.w3.org/1999/xlink" contentScriptType="application/ecmascript" contentStyleType="text/css" height="350px" preserveAspectRatio="none" style="width:685px;height:350px;" version="1.1" viewBox="0 0 685 350" width="685px" zoomAndPan="magnify"><defs/><g><rect fill="#FFFFFF" height="29.1328" style="stroke: #383838; stroke-width: 1.0;" width="10" x="271.5" y="113.2969"/><rect fill="#FFFFFF" height="44.1328" style="stroke: #383838; stroke-width: 1.0;" width="10" x="271.5" y="171.5625"/><rect fill="#FFFFFF" height="44.1328" style="stroke: #383838; stroke-width: 1.0;" width="10" x="271.5" y="287.0938"/><rect fill="#FFFFFF" height="71.3984" style="stroke: #383838; stroke-width: 1.0;" width="10" x="469.5" y="215.6953"/><line style="stroke: #383838; stroke-width: 1.0; stroke-dasharray: 5.0,5.0;" x1="34" x2="34" y1="82.2969" y2="349.4922"/><line style="stroke: #383838; stroke-width: 1.0; stroke-dasharray: 5.0,5.0;" x1="276.5" x2="276.5" y1="82.2969" y2="349.4922"/><line style="stroke: #383838; stroke-width: 1.0; stroke-dasharray: 5.0,5.0;" x1="474" x2="474" y1="82.2969" y2="349.4922"/><text fill="#000000" font-family="sans-serif" font-size="14" lengthAdjust="spacingAndGlyphs" textLength="47" x="8" y="78.9951">Utente</text><ellipse cx="34.5" cy="13" fill="#F8F8F8" rx="8" ry="8" style="stroke: #383838; stroke-width: 2.0;"/><path d="M34.5,21 L34.5,48 M21.5,29 L47.5,29 M34.5,48 L21.5,63 M34.5,48 L47.5,63 " fill="#F8F8F8" style="stroke: #383838; stroke-width: 2.0;"/><rect fill="#F8F8F8" height="30.2969" style="stroke: #383838; stroke-width: 1.5;" width="28" x="262.5" y="51"/><text fill="#000000" font-family="sans-serif" font-size="14" lengthAdjust="spacingAndGlyphs" textLength="14" x="269.5" y="70.9951">UI</text><rect fill="#F8F8F8" height="30.2969" style="stroke: #383838; stroke-width: 1.5;" width="71" x="439" y="51"/><text fill="#000000" font-family="sans-serif" font-size="14" lengthAdjust="spacingAndGlyphs" textLength="57" x="446" y="70.9951">Sistema</text><rect fill="#FFFFFF" height="29.1328" style="stroke: #383838; stroke-width: 1.0;" width="10" x="271.5" y="113.2969"/><rect fill="#FFFFFF" height="44.1328" style="stroke: #383838; stroke-width: 1.0;" width="10" x="271.5" y="171.5625"/><rect fill="#FFFFFF" height="44.1328" style="stroke: #383838; stroke-width: 1.0;" width="10" x="271.5" y="287.0938"/><rect fill="#FFFFFF" height="71.3984" style="stroke: #383838; stroke-width: 1.0;" width="10" x="469.5" y="215.6953"/><polygon fill="#383838" points="259.5,109.2969,269.5,113.2969,259.5,117.2969,263.5,113.2969" style="stroke: #383838; stroke-width: 1.0;"/><line style="stroke: #383838; stroke-width: 1.0;" x1="34.5" x2="265.5" y1="113.2969" y2="113.2969"/><text fill="#000000" font-family="sans-serif" font-size="13" font-weight="bold" lengthAdjust="spacingAndGlyphs" textLength="9" x="78" y="108.3638">1</text><text fill="#000000" font-family="sans-serif" font-size="13" lengthAdjust="spacingAndGlyphs" textLength="137" x="91" y="108.3638">Seleziona l'elemento</text><polygon fill="#383838" points="45.5,138.4297,35.5,142.4297,45.5,146.4297,41.5,142.4297" style="stroke: #383838; stroke-width: 1.0;"/><line style="stroke: #383838; stroke-width: 1.0; stroke-dasharray: 2.0,2.0;" x1="39.5" x2="275.5" y1="142.4297" y2="142.4297"/><text fill="#000000" font-family="sans-serif" font-size="13" font-weight="bold" lengthAdjust="spacingAndGlyphs" textLength="9" x="78.5" y="137.4966">2</text><text fill="#000000" font-family="sans-serif" font-size="13" lengthAdjust="spacingAndGlyphs" textLength="141" x="91.5" y="137.4966">Elemento selezionato</text><polygon fill="#383838" points="259.5,167.5625,269.5,171.5625,259.5,175.5625,263.5,171.5625" style="stroke: #383838; stroke-width: 1.0;"/><line style="stroke: #383838; stroke-width: 1.0;" x1="34.5" x2="265.5" y1="171.5625" y2="171.5625"/><text fill="#000000" font-family="sans-serif" font-size="13" font-weight="bold" lengthAdjust="spacingAndGlyphs" textLength="9" x="44" y="166.6294">3</text><text fill="#000000" font-family="sans-serif" font-size="13" lengthAdjust="spacingAndGlyphs" textLength="205" x="57" y="166.6294">Invia comando di cancellazione</text><polygon fill="#383838" points="457.5,211.6953,467.5,215.6953,457.5,219.6953,461.5,215.6953" style="stroke: #383838; stroke-width: 1.0;"/><line style="stroke: #383838; stroke-width: 1.0;" x1="276.5" x2="463.5" y1="215.6953" y2="215.6953"/><text fill="#000000" font-family="sans-serif" font-size="13" font-weight="bold" lengthAdjust="spacingAndGlyphs" textLength="9" x="305.5" y="203.3286">4</text><text fill="#000000" font-family="sans-serif" font-size="13" lengthAdjust="spacingAndGlyphs" textLength="122" x="318.5" y="195.7622">Inoltra comando di</text><text fill="#000000" font-family="sans-serif" font-size="13" lengthAdjust="spacingAndGlyphs" textLength="89" x="335" y="210.895">cancellazione</text><line style="stroke: #383838; stroke-width: 1.0;" x1="479.5" x2="521.5" y1="245.0938" y2="245.0938"/><line style="stroke: #383838; stroke-width: 1.0;" x1="521.5" x2="521.5" y1="245.0938" y2="258.0938"/><line style="stroke: #383838; stroke-width: 1.0;" x1="480.5" x2="521.5" y1="258.0938" y2="258.0938"/><polygon fill="#383838" points="490.5,254.0938,480.5,258.0938,490.5,262.0938,486.5,258.0938" style="stroke: #383838; stroke-width: 1.0;"/><text fill="#000000" font-family="sans-serif" font-size="13" font-weight="bold" lengthAdjust="spacingAndGlyphs" textLength="9" x="486.5" y="240.0278">5</text><text fill="#000000" font-family="sans-serif" font-size="13" lengthAdjust="spacingAndGlyphs" textLength="185" x="499.5" y="240.0278">Cancellazione dell'elemento</text><polygon fill="#383838" points="292.5,283.0938,282.5,287.0938,292.5,291.0938,288.5,287.0938" style="stroke: #383838; stroke-width: 1.0;"/><line style="stroke: #383838; stroke-width: 1.0; stroke-dasharray: 2.0,2.0;" x1="286.5" x2="473.5" y1="287.0938" y2="287.0938"/><text fill="#000000" font-family="sans-serif" font-size="13" font-weight="bold" lengthAdjust="spacingAndGlyphs" textLength="9" x="293.5" y="282.1606">6</text><text fill="#000000" font-family="sans-serif" font-size="13" lengthAdjust="spacingAndGlyphs" textLength="156" x="306.5" y="282.1606">Cancellazione avvenuta</text><polygon fill="#383838" points="45.5,327.2266,35.5,331.2266,45.5,335.2266,41.5,331.2266" style="stroke: #383838; stroke-width: 1.0;"/><line style="stroke: #383838; stroke-width: 1.0; stroke-dasharray: 2.0,2.0;" x1="39.5" x2="275.5" y1="331.2266" y2="331.2266"/><text fill="#000000" font-family="sans-serif" font-size="13" font-weight="bold" lengthAdjust="spacingAndGlyphs" textLength="9" x="64" y="318.8599">7</text><text fill="#000000" font-family="sans-serif" font-size="13" lengthAdjust="spacingAndGlyphs" textLength="119" x="102.5" y="311.2935">Mostra messaggio</text><text fill="#000000" font-family="sans-serif" font-size="13" lengthAdjust="spacingAndGlyphs" textLength="170" x="77" y="326.4263">di avvenuta cancellazione</text></g></svg>