<?xml version="1.0" encoding="UTF-8" standalone="no"?><svg xmlns="http://www.w3.org/2000/svg" xmlns:xlink="http://www.w3.org/1999/xlink" contentScriptType="application/ecmascript" contentStyleType="text/css" height="496px" preserveAspectRatio="none" style="width:664px;height:496px;" version="1.1" viewBox="0 0 664 496" width="664px" zoomAndPan="magnify"><defs/><g><rect fill="#FFFFFF" height="44.1328" style="stroke: #383838; stroke-width: 1.0;" width="10" x="325.5" y="113.2969"/><rect fill="#FFFFFF" height="29.2656" style="stroke: #383838; stroke-width: 1.0;" width="10" x="325.5" y="201.6953"/><rect fill="#FFFFFF" height="29.1328" style="stroke: #383838; stroke-width: 1.0;" width="10" x="325.5" y="317.3594"/><rect fill="#FFFFFF" height="44.2656" style="stroke: #383838; stroke-width: 1.0;" width="10" x="325.5" y="432.7578"/><rect fill="#FFFFFF" height="86.2656" style="stroke: #383838; stroke-width: 1.0;" width="10" x="506.5" y="346.4922"/><line style="stroke: #383838; stroke-width: 1.0; stroke-dasharray: 5.0,5.0;" x1="53" x2="53" y1="82.2969" y2="495.2891"/><line style="stroke: #383838; stroke-width: 1.0; stroke-dasharray: 5.0,5.0;" x1="330.5" x2="330.5" y1="82.2969" y2="495.2891"/><line style="stroke: #383838; stroke-width: 1.0; stroke-dasharray: 5.0,5.0;" x1="511" x2="511" y1="82.2969" y2="495.2891"/><text fill="#000000" font-family="sans-serif" font-size="14" lengthAdjust="spacingAndGlyphs" textLength="85" x="8" y="78.9951">Supervisore</text><ellipse cx="53.5" cy="13" fill="#F8F8F8" rx="8" ry="8" style="stroke: #383838; stroke-width: 2.0;"/><path d="M53.5,21 L53.5,48 M40.5,29 L66.5,29 M53.5,48 L40.5,63 M53.5,48 L66.5,63 " fill="#F8F8F8" style="stroke: #383838; stroke-width: 2.0;"/><rect fill="#F8F8F8" height="30.2969" style="stroke: #383838; stroke-width: 1.5;" width="28" x="316.5" y="51"/><text fill="#000000" font-family="sans-serif" font-size="14" lengthAdjust="spacingAndGlyphs" textLength="14" x="323.5" y="70.9951">UI</text><rect fill="#F8F8F8" height="30.2969" style="stroke: #383838; stroke-width: 1.5;" width="71" x="476" y="51"/><text fill="#000000" font-family="sans-serif" font-size="14" lengthAdjust="spacingAndGlyphs" textLength="57" x="483" y="70.9951">Sistema</text><rect fill="#FFFFFF" height="44.1328" style="stroke: #383838; stroke-width: 1.0;" width="10" x="325.5" y="113.2969"/><rect fill="#FFFFFF" height="29.2656" style="stroke: #383838; stroke-width: 1.0;" width="10" x="325.5" y="201.6953"/><rect fill="#FFFFFF" height="29.1328" style="stroke: #383838; stroke-width: 1.0;" width="10" x="325.5" y="317.3594"/><rect fill="#FFFFFF" height="44.2656" style="stroke: #383838; stroke-width: 1.0;" width="10" x="325.5" y="432.7578"/><rect fill="#FFFFFF" height="86.2656" style="stroke: #383838; stroke-width: 1.0;" width="10" x="506.5" y="346.4922"/><polygon fill="#383838" points="313.5,109.2969,323.5,113.2969,313.5,117.2969,317.5,113.2969" style="stroke: #383838; stroke-width: 1.0;"/><line style="stroke: #383838; stroke-width: 1.0;" x1="53.5" x2="319.5" y1="113.2969" y2="113.2969"/><text fill="#000000" font-family="sans-serif" font-size="13" font-weight="bold" lengthAdjust="spacingAndGlyphs" textLength="9" x="60.5" y="108.3638">1</text><text fill="#000000" font-family="sans-serif" font-size="13" lengthAdjust="spacingAndGlyphs" textLength="239" x="73.5" y="108.3638">Richiesta pagina "Sessioni di lavoro"</text><polygon fill="#383838" points="64.5,153.4297,54.5,157.4297,64.5,161.4297,60.5,157.4297" style="stroke: #383838; stroke-width: 1.0;"/><line style="stroke: #383838; stroke-width: 1.0; stroke-dasharray: 2.0,2.0;" x1="58.5" x2="329.5" y1="157.4297" y2="157.4297"/><text fill="#000000" font-family="sans-serif" font-size="13" font-weight="bold" lengthAdjust="spacingAndGlyphs" textLength="9" x="70.5" y="145.063">2</text><text fill="#000000" font-family="sans-serif" font-size="13" lengthAdjust="spacingAndGlyphs" textLength="185" x="83.5" y="137.4966">Visualizzazione della pagina</text><text fill="#000000" font-family="sans-serif" font-size="13" lengthAdjust="spacingAndGlyphs" textLength="127" x="83.5" y="152.6294">"Sessioni di lavoro"</text><polygon fill="#383838" points="313.5,197.6953,323.5,201.6953,313.5,205.6953,317.5,201.6953" style="stroke: #383838; stroke-width: 1.0;"/><line style="stroke: #383838; stroke-width: 1.0;" x1="53.5" x2="319.5" y1="201.6953" y2="201.6953"/><text fill="#000000" font-family="sans-serif" font-size="13" font-weight="bold" lengthAdjust="spacingAndGlyphs" textLength="9" x="60.5" y="189.3286">3</text><text fill="#000000" font-family="sans-serif" font-size="13" lengthAdjust="spacingAndGlyphs" textLength="161" x="73.5" y="181.7622">Apertura di una sessione</text><text fill="#000000" font-family="sans-serif" font-size="13" lengthAdjust="spacingAndGlyphs" textLength="121" x="73.5" y="196.895">di lavoro esistente</text><polygon fill="#383838" points="64.5,226.9609,54.5,230.9609,64.5,234.9609,60.5,230.9609" style="stroke: #383838; stroke-width: 1.0;"/><line style="stroke: #383838; stroke-width: 1.0; stroke-dasharray: 2.0,2.0;" x1="58.5" x2="329.5" y1="230.9609" y2="230.9609"/><text fill="#000000" font-family="sans-serif" font-size="13" font-weight="bold" lengthAdjust="spacingAndGlyphs" textLength="9" x="70.5" y="226.0278">4</text><text fill="#000000" font-family="sans-serif" font-size="13" lengthAdjust="spacingAndGlyphs" textLength="235" x="83.5" y="226.0278">Visualizzazione "sessione di lavoro"</text><line style="stroke: #383838; stroke-width: 1.0;" x1="53.5" x2="95.5" y1="275.3594" y2="275.3594"/><line style="stroke: #383838; stroke-width: 1.0;" x1="95.5" x2="95.5" y1="275.3594" y2="288.3594"/><line style="stroke: #383838; stroke-width: 1.0;" x1="54.5" x2="95.5" y1="288.3594" y2="288.3594"/><polygon fill="#383838" points="64.5,284.3594,54.5,288.3594,64.5,292.3594,60.5,288.3594" style="stroke: #383838; stroke-width: 1.0;"/><text fill="#000000" font-family="sans-serif" font-size="13" font-weight="bold" lengthAdjust="spacingAndGlyphs" textLength="9" x="60.5" y="262.7271">5</text><text fill="#000000" font-family="sans-serif" font-size="13" lengthAdjust="spacingAndGlyphs" textLength="141" x="73.5" y="255.1606">Selezione degli utenti</text><text fill="#000000" font-family="sans-serif" font-size="13" lengthAdjust="spacingAndGlyphs" textLength="82" x="73.5" y="270.2935">da associare</text><polygon fill="#383838" points="313.5,313.3594,323.5,317.3594,313.5,321.3594,317.5,317.3594" style="stroke: #383838; stroke-width: 1.0;"/><line style="stroke: #383838; stroke-width: 1.0;" x1="53.5" x2="319.5" y1="317.3594" y2="317.3594"/><text fill="#000000" font-family="sans-serif" font-size="13" font-weight="bold" lengthAdjust="spacingAndGlyphs" textLength="9" x="60.5" y="312.4263">6</text><text fill="#000000" font-family="sans-serif" font-size="13" lengthAdjust="spacingAndGlyphs" textLength="168" x="73.5" y="312.4263">Click sul pulsante associa</text><polygon fill="#383838" points="494.5,342.4922,504.5,346.4922,494.5,350.4922,498.5,346.4922" style="stroke: #383838; stroke-width: 1.0;"/><line style="stroke: #383838; stroke-width: 1.0;" x1="330.5" x2="500.5" y1="346.4922" y2="346.4922"/><text fill="#000000" font-family="sans-serif" font-size="13" font-weight="bold" lengthAdjust="spacingAndGlyphs" textLength="9" x="337.5" y="341.5591">7</text><text fill="#000000" font-family="sans-serif" font-size="13" lengthAdjust="spacingAndGlyphs" textLength="92" x="350.5" y="341.5591">Associa utenti</text><line style="stroke: #383838; stroke-width: 1.0;" x1="516.5" x2="558.5" y1="375.7578" y2="375.7578"/><line style="stroke: #383838; stroke-width: 1.0;" x1="558.5" x2="558.5" y1="375.7578" y2="388.7578"/><line style="stroke: #383838; stroke-width: 1.0;" x1="517.5" x2="558.5" y1="388.7578" y2="388.7578"/><polygon fill="#383838" points="527.5,384.7578,517.5,388.7578,527.5,392.7578,523.5,388.7578" style="stroke: #383838; stroke-width: 1.0;"/><text fill="#000000" font-family="sans-serif" font-size="13" font-weight="bold" lengthAdjust="spacingAndGlyphs" textLength="9" x="523.5" y="370.6919">8</text><text fill="#000000" font-family="sans-serif" font-size="13" lengthAdjust="spacingAndGlyphs" textLength="127" x="536.5" y="370.6919">Associazione utenti</text><polygon fill="#383838" points="346.5,428.7578,336.5,432.7578,346.5,436.7578,342.5,432.7578" style="stroke: #383838; stroke-width: 1.0;"/><line style="stroke: #383838; stroke-width: 1.0; stroke-dasharray: 2.0,2.0;" x1="340.5" x2="510.5" y1="432.7578" y2="432.7578"/><text fill="#000000" font-family="sans-serif" font-size="13" font-weight="bold" lengthAdjust="spacingAndGlyphs" textLength="9" x="352.5" y="420.3911">9</text><text fill="#000000" font-family="sans-serif" font-size="13" lengthAdjust="spacingAndGlyphs" textLength="139" x="365.5" y="412.8247">Notifica associazione</text><text fill="#000000" font-family="sans-serif" font-size="13" lengthAdjust="spacingAndGlyphs" textLength="74" x="365.5" y="427.9575">completata</text><polygon fill="#383838" points="64.5,473.0234,54.5,477.0234,64.5,481.0234,60.5,477.0234" style="stroke: #383838; stroke-width: 1.0;"/><line style="stroke: #383838; stroke-width: 1.0; stroke-dasharray: 2.0,2.0;" x1="58.5" x2="329.5" y1="477.0234" y2="477.0234"/><text fill="#000000" font-family="sans-serif" font-size="13" font-weight="bold" lengthAdjust="spacingAndGlyphs" textLength="18" x="70.5" y="464.6567">10</text><text fill="#000000" font-family="sans-serif" font-size="13" lengthAdjust="spacingAndGlyphs" textLength="181" x="92.5" y="457.0903">Messaggio "Utenti associati</text><text fill="#000000" font-family="sans-serif" font-size="13" lengthAdjust="spacingAndGlyphs" textLength="92" x="92.5" y="472.2231">con successo"</text></g></svg>