<?xml version="1.0" encoding="UTF-8" standalone="no"?><svg xmlns="http://www.w3.org/2000/svg" xmlns:xlink="http://www.w3.org/1999/xlink" contentScriptType="application/ecmascript" contentStyleType="text/css" height="265px" preserveAspectRatio="none" style="width:491px;height:265px;" version="1.1" viewBox="0 0 491 265" width="491px" zoomAndPan="magnify"><defs><filter height="300%" id="f14vm02" width="300%" x="-1" y="-1"><feGaussianBlur result="blurOut" stdDeviation="2.0"/><feColorMatrix in="blurOut" result="blurOut2" type="matrix" values="0 0 0 0 0 0 0 0 0 0 0 0 0 0 0 0 0 0 .4 0"/><feOffset dx="4.0" dy="4.0" in="blurOut2" result="blurOut3"/><feBlend in="SourceGraphic" in2="blurOut3" mode="normal"/></filter></defs><g><rect fill="#FFFFFF" filter="url(#f14vm02)" height="21" style="stroke: #A80036; stroke-width: 1.0;" width="10" x="29.5" y="96.2969"/><rect fill="#FFFFFF" filter="url(#f14vm02)" height="29.1328" style="stroke: #A80036; stroke-width: 1.0;" width="10" x="29.5" y="146.4297"/><rect fill="#FFFFFF" filter="url(#f14vm02)" height="9.1328" style="stroke: #A80036; stroke-width: 1.0;" width="10" x="29.5" y="246.8281"/><rect fill="#FFFFFF" filter="url(#f14vm02)" height="29.1328" style="stroke: #A80036; stroke-width: 1.0;" width="10" x="273.5" y="117.2969"/><rect fill="#FFFFFF" filter="url(#f14vm02)" height="71.2656" style="stroke: #A80036; stroke-width: 1.0;" width="10" x="273.5" y="175.5625"/><line style="stroke: #A80036; stroke-width: 1.0; stroke-dasharray: 5.0,5.0;" x1="34" x2="34" y1="86.2969" y2="264.9609"/><line style="stroke: #A80036; stroke-width: 1.0; stroke-dasharray: 5.0,5.0;" x1="278" x2="278" y1="86.2969" y2="264.9609"/><text fill="#000000" font-family="sans-serif" font-size="14" lengthAdjust="spacingAndGlyphs" textLength="47" x="8" y="82.9951">Utente</text><ellipse cx="34.5" cy="13" fill="#FEFECE" filter="url(#f14vm02)" rx="8" ry="8" style="stroke: #A80036; stroke-width: 2.0;"/><path d="M34.5,21 L34.5,48 M21.5,29 L47.5,29 M34.5,48 L21.5,63 M34.5,48 L47.5,63 " fill="#FEFECE" filter="url(#f14vm02)" style="stroke: #A80036; stroke-width: 2.0;"/><rect fill="#FEFECE" filter="url(#f14vm02)" height="30.2969" style="stroke: #A80036; stroke-width: 1.5;" width="71" x="241" y="51"/><text fill="#000000" font-family="sans-serif" font-size="14" lengthAdjust="spacingAndGlyphs" textLength="57" x="248" y="70.9951">Sistema</text><rect fill="#FFFFFF" filter="url(#f14vm02)" height="21" style="stroke: #A80036; stroke-width: 1.0;" width="10" x="29.5" y="96.2969"/><rect fill="#FFFFFF" filter="url(#f14vm02)" height="29.1328" style="stroke: #A80036; stroke-width: 1.0;" width="10" x="29.5" y="146.4297"/><rect fill="#FFFFFF" filter="url(#f14vm02)" height="9.1328" style="stroke: #A80036; stroke-width: 1.0;" width="10" x="29.5" y="246.8281"/><rect fill="#FFFFFF" filter="url(#f14vm02)" height="29.1328" style="stroke: #A80036; stroke-width: 1.0;" width="10" x="273.5" y="117.2969"/><rect fill="#FFFFFF" filter="url(#f14vm02)" height="71.2656" style="stroke: #A80036; stroke-width: 1.0;" width="10" x="273.5" y="175.5625"/><polygon fill="#A80036" points="261.5,113.2969,271.5,117.2969,261.5,121.2969,265.5,117.2969" style="stroke: #A80036; stroke-width: 1.0;"/><line style="stroke: #A80036; stroke-width: 1.0;" x1="34.5" x2="267.5" y1="117.2969" y2="117.2969"/><text fill="#000000" font-family="sans-serif" font-size="13" font-weight="bold" lengthAdjust="spacingAndGlyphs" textLength="9" x="41.5" y="112.3638">1</text><text fill="#000000" font-family="sans-serif" font-size="13" lengthAdjust="spacingAndGlyphs" textLength="160" x="54.5" y="112.3638">Richiesta pagina di login</text><polygon fill="#A80036" points="50.5,142.4297,40.5,146.4297,50.5,150.4297,46.5,146.4297" style="stroke: #A80036; stroke-width: 1.0;"/><line style="stroke: #A80036; stroke-width: 1.0; stroke-dasharray: 2.0,2.0;" x1="44.5" x2="277.5" y1="146.4297" y2="146.4297"/><text fill="#000000" font-family="sans-serif" font-size="13" font-weight="bold" lengthAdjust="spacingAndGlyphs" textLength="9" x="56.5" y="141.4966">2</text><text fill="#000000" font-family="sans-serif" font-size="13" lengthAdjust="spacingAndGlyphs" textLength="188" x="69.5" y="141.4966">Visualizzazione form di login</text><polygon fill="#A80036" points="261.5,171.5625,271.5,175.5625,261.5,179.5625,265.5,175.5625" style="stroke: #A80036; stroke-width: 1.0;"/><line style="stroke: #A80036; stroke-width: 1.0;" x1="34.5" x2="267.5" y1="175.5625" y2="175.5625"/><text fill="#000000" font-family="sans-serif" font-size="13" font-weight="bold" lengthAdjust="spacingAndGlyphs" textLength="9" x="41.5" y="170.6294">3</text><text fill="#000000" font-family="sans-serif" font-size="13" lengthAdjust="spacingAndGlyphs" textLength="153" x="54.5" y="170.6294">Inserimento credenziali</text><line style="stroke: #A80036; stroke-width: 1.0;" x1="283.5" x2="325.5" y1="204.8281" y2="204.8281"/><line style="stroke: #A80036; stroke-width: 1.0;" x1="325.5" x2="325.5" y1="204.8281" y2="217.8281"/><line style="stroke: #A80036; stroke-width: 1.0;" x1="284.5" x2="325.5" y1="217.8281" y2="217.8281"/><polygon fill="#A80036" points="294.5,213.8281,284.5,217.8281,294.5,221.8281,290.5,217.8281" style="stroke: #A80036; stroke-width: 1.0;"/><text fill="#000000" font-family="sans-serif" font-size="13" font-weight="bold" lengthAdjust="spacingAndGlyphs" textLength="9" x="290.5" y="199.7622">4</text><text fill="#000000" font-family="sans-serif" font-size="13" lengthAdjust="spacingAndGlyphs" textLength="187" x="303.5" y="199.7622">Validazione delle credenziali</text><polygon fill="#A80036" points="50.5,242.8281,40.5,246.8281,50.5,250.8281,46.5,246.8281" style="stroke: #A80036; stroke-width: 1.0;"/><line style="stroke: #A80036; stroke-width: 1.0; stroke-dasharray: 2.0,2.0;" x1="44.5" x2="277.5" y1="246.8281" y2="246.8281"/><text fill="#000000" font-family="sans-serif" font-size="13" font-weight="bold" lengthAdjust="spacingAndGlyphs" textLength="9" x="56.5" y="241.895">5</text><text fill="#000000" font-family="sans-serif" font-size="13" lengthAdjust="spacingAndGlyphs" textLength="202" x="69.5" y="241.895">Messaggio di conferma / errore</text></g></svg>