<?xml version="1.0" encoding="UTF-8" standalone="no"?><svg xmlns="http://www.w3.org/2000/svg" xmlns:xlink="http://www.w3.org/1999/xlink" contentScriptType="application/ecmascript" contentStyleType="text/css" height="526px" preserveAspectRatio="none" style="width:666px;height:526px;" version="1.1" viewBox="0 0 666 526" width="666px" zoomAndPan="magnify"><defs/><g><rect fill="#FFFFFF" height="44.1328" style="stroke: #383838; stroke-width: 1.0;" width="10" x="324.5" y="113.2969"/><rect fill="#FFFFFF" height="44.2656" style="stroke: #383838; stroke-width: 1.0;" width="10" x="324.5" y="201.6953"/><rect fill="#FFFFFF" height="44.1328" style="stroke: #383838; stroke-width: 1.0;" width="10" x="324.5" y="317.3594"/><rect fill="#FFFFFF" height="44.2656" style="stroke: #383838; stroke-width: 1.0;" width="10" x="324.5" y="463.0234"/><rect fill="#FFFFFF" height="101.5313" style="stroke: #383838; stroke-width: 1.0;" width="10" x="497.5" y="361.4922"/><line style="stroke: #383838; stroke-width: 1.0; stroke-dasharray: 5.0,5.0;" x1="53" x2="53" y1="82.2969" y2="525.5547"/><line style="stroke: #383838; stroke-width: 1.0; stroke-dasharray: 5.0,5.0;" x1="329.5" x2="329.5" y1="82.2969" y2="525.5547"/><line style="stroke: #383838; stroke-width: 1.0; stroke-dasharray: 5.0,5.0;" x1="502" x2="502" y1="82.2969" y2="525.5547"/><text fill="#000000" font-family="sans-serif" font-size="14" lengthAdjust="spacingAndGlyphs" textLength="85" x="8" y="78.9951">Supervisore</text><ellipse cx="53.5" cy="13" fill="#F8F8F8" rx="8" ry="8" style="stroke: #383838; stroke-width: 2.0;"/><path d="M53.5,21 L53.5,48 M40.5,29 L66.5,29 M53.5,48 L40.5,63 M53.5,48 L66.5,63 " fill="#F8F8F8" style="stroke: #383838; stroke-width: 2.0;"/><rect fill="#F8F8F8" height="30.2969" style="stroke: #383838; stroke-width: 1.5;" width="28" x="315.5" y="51"/><text fill="#000000" font-family="sans-serif" font-size="14" lengthAdjust="spacingAndGlyphs" textLength="14" x="322.5" y="70.9951">UI</text><rect fill="#F8F8F8" height="30.2969" style="stroke: #383838; stroke-width: 1.5;" width="71" x="467" y="51"/><text fill="#000000" font-family="sans-serif" font-size="14" lengthAdjust="spacingAndGlyphs" textLength="57" x="474" y="70.9951">Sistema</text><rect fill="#FFFFFF" height="44.1328" style="stroke: #383838; stroke-width: 1.0;" width="10" x="324.5" y="113.2969"/><rect fill="#FFFFFF" height="44.2656" style="stroke: #383838; stroke-width: 1.0;" width="10" x="324.5" y="201.6953"/><rect fill="#FFFFFF" height="44.1328" style="stroke: #383838; stroke-width: 1.0;" width="10" x="324.5" y="317.3594"/><rect fill="#FFFFFF" height="44.2656" style="stroke: #383838; stroke-width: 1.0;" width="10" x="324.5" y="463.0234"/><rect fill="#FFFFFF" height="101.5313" style="stroke: #383838; stroke-width: 1.0;" width="10" x="497.5" y="361.4922"/><polygon fill="#383838" points="312.5,109.2969,322.5,113.2969,312.5,117.2969,316.5,113.2969" style="stroke: #383838; stroke-width: 1.0;"/><line style="stroke: #383838; stroke-width: 1.0;" x1="53.5" x2="318.5" y1="113.2969" y2="113.2969"/><text fill="#000000" font-family="sans-serif" font-size="13" font-weight="bold" lengthAdjust="spacingAndGlyphs" textLength="9" x="60.5" y="108.3638">1</text><text fill="#000000" font-family="sans-serif" font-size="13" lengthAdjust="spacingAndGlyphs" textLength="239" x="73.5" y="108.3638">Richiesta pagina "Sessioni di lavoro"</text><polygon fill="#383838" points="64.5,153.4297,54.5,157.4297,64.5,161.4297,60.5,157.4297" style="stroke: #383838; stroke-width: 1.0;"/><line style="stroke: #383838; stroke-width: 1.0; stroke-dasharray: 2.0,2.0;" x1="58.5" x2="328.5" y1="157.4297" y2="157.4297"/><text fill="#000000" font-family="sans-serif" font-size="13" font-weight="bold" lengthAdjust="spacingAndGlyphs" textLength="9" x="70.5" y="145.063">2</text><text fill="#000000" font-family="sans-serif" font-size="13" lengthAdjust="spacingAndGlyphs" textLength="185" x="83.5" y="137.4966">Visualizzazione della pagina</text><text fill="#000000" font-family="sans-serif" font-size="13" lengthAdjust="spacingAndGlyphs" textLength="127" x="83.5" y="152.6294">"Sessioni di lavoro"</text><polygon fill="#383838" points="312.5,197.6953,322.5,201.6953,312.5,205.6953,316.5,201.6953" style="stroke: #383838; stroke-width: 1.0;"/><line style="stroke: #383838; stroke-width: 1.0;" x1="53.5" x2="318.5" y1="201.6953" y2="201.6953"/><text fill="#000000" font-family="sans-serif" font-size="13" font-weight="bold" lengthAdjust="spacingAndGlyphs" textLength="9" x="60.5" y="189.3286">3</text><text fill="#000000" font-family="sans-serif" font-size="13" lengthAdjust="spacingAndGlyphs" textLength="51" x="73.5" y="181.7622">Click su</text><text fill="#000000" font-family="sans-serif" font-size="13" lengthAdjust="spacingAndGlyphs" textLength="162" x="73.5" y="196.895">"crea sessione di lavoro"</text><polygon fill="#383838" points="64.5,241.9609,54.5,245.9609,64.5,249.9609,60.5,245.9609" style="stroke: #383838; stroke-width: 1.0;"/><line style="stroke: #383838; stroke-width: 1.0; stroke-dasharray: 2.0,2.0;" x1="58.5" x2="328.5" y1="245.9609" y2="245.9609"/><text fill="#000000" font-family="sans-serif" font-size="13" font-weight="bold" lengthAdjust="spacingAndGlyphs" textLength="9" x="70.5" y="233.5942">4</text><text fill="#000000" font-family="sans-serif" font-size="13" lengthAdjust="spacingAndGlyphs" textLength="136" x="83.5" y="226.0278">Visualizzazione form</text><text fill="#000000" font-family="sans-serif" font-size="13" lengthAdjust="spacingAndGlyphs" textLength="180" x="83.5" y="241.1606">" Nuova sessione di lavoro"</text><line style="stroke: #383838; stroke-width: 1.0;" x1="53.5" x2="95.5" y1="275.3594" y2="275.3594"/><line style="stroke: #383838; stroke-width: 1.0;" x1="95.5" x2="95.5" y1="275.3594" y2="288.3594"/><line style="stroke: #383838; stroke-width: 1.0;" x1="54.5" x2="95.5" y1="288.3594" y2="288.3594"/><polygon fill="#383838" points="64.5,284.3594,54.5,288.3594,64.5,292.3594,60.5,288.3594" style="stroke: #383838; stroke-width: 1.0;"/><text fill="#000000" font-family="sans-serif" font-size="13" font-weight="bold" lengthAdjust="spacingAndGlyphs" textLength="9" x="60.5" y="270.2935">5</text><text fill="#000000" font-family="sans-serif" font-size="13" lengthAdjust="spacingAndGlyphs" textLength="124" x="73.5" y="270.2935">Compilazione form</text><polygon fill="#383838" points="312.5,313.3594,322.5,317.3594,312.5,321.3594,316.5,317.3594" style="stroke: #383838; stroke-width: 1.0;"/><line style="stroke: #383838; stroke-width: 1.0;" x1="53.5" x2="318.5" y1="317.3594" y2="317.3594"/><text fill="#000000" font-family="sans-serif" font-size="13" font-weight="bold" lengthAdjust="spacingAndGlyphs" textLength="9" x="60.5" y="312.4263">6</text><text fill="#000000" font-family="sans-serif" font-size="13" lengthAdjust="spacingAndGlyphs" textLength="154" x="73.5" y="312.4263">Click sul pulsante salva</text><polygon fill="#383838" points="485.5,357.4922,495.5,361.4922,485.5,365.4922,489.5,361.4922" style="stroke: #383838; stroke-width: 1.0;"/><line style="stroke: #383838; stroke-width: 1.0;" x1="329.5" x2="491.5" y1="361.4922" y2="361.4922"/><text fill="#000000" font-family="sans-serif" font-size="13" font-weight="bold" lengthAdjust="spacingAndGlyphs" textLength="9" x="336.5" y="349.1255">7</text><text fill="#000000" font-family="sans-serif" font-size="13" lengthAdjust="spacingAndGlyphs" textLength="97" x="349.5" y="341.5591">Salva sessione</text><text fill="#000000" font-family="sans-serif" font-size="13" lengthAdjust="spacingAndGlyphs" textLength="57" x="349.5" y="356.6919">di lavoro</text><line style="stroke: #383838; stroke-width: 1.0;" x1="507.5" x2="549.5" y1="406.0234" y2="406.0234"/><line style="stroke: #383838; stroke-width: 1.0;" x1="549.5" x2="549.5" y1="406.0234" y2="419.0234"/><line style="stroke: #383838; stroke-width: 1.0;" x1="508.5" x2="549.5" y1="419.0234" y2="419.0234"/><polygon fill="#383838" points="518.5,415.0234,508.5,419.0234,518.5,423.0234,514.5,419.0234" style="stroke: #383838; stroke-width: 1.0;"/><text fill="#000000" font-family="sans-serif" font-size="13" font-weight="bold" lengthAdjust="spacingAndGlyphs" textLength="9" x="514.5" y="393.3911">8</text><text fill="#000000" font-family="sans-serif" font-size="13" lengthAdjust="spacingAndGlyphs" textLength="138" x="527.5" y="385.8247">Salvataggio sessione</text><text fill="#000000" font-family="sans-serif" font-size="13" lengthAdjust="spacingAndGlyphs" textLength="57" x="527.5" y="400.9575">di lavoro</text><polygon fill="#383838" points="345.5,459.0234,335.5,463.0234,345.5,467.0234,341.5,463.0234" style="stroke: #383838; stroke-width: 1.0;"/><line style="stroke: #383838; stroke-width: 1.0; stroke-dasharray: 2.0,2.0;" x1="339.5" x2="501.5" y1="463.0234" y2="463.0234"/><text fill="#000000" font-family="sans-serif" font-size="13" font-weight="bold" lengthAdjust="spacingAndGlyphs" textLength="9" x="351.5" y="450.6567">9</text><text fill="#000000" font-family="sans-serif" font-size="13" lengthAdjust="spacingAndGlyphs" textLength="131" x="364.5" y="443.0903">Notifica salvataggio</text><text fill="#000000" font-family="sans-serif" font-size="13" lengthAdjust="spacingAndGlyphs" textLength="74" x="364.5" y="458.2231">completato</text><polygon fill="#383838" points="64.5,503.2891,54.5,507.2891,64.5,511.2891,60.5,507.2891" style="stroke: #383838; stroke-width: 1.0;"/><line style="stroke: #383838; stroke-width: 1.0; stroke-dasharray: 2.0,2.0;" x1="58.5" x2="328.5" y1="507.2891" y2="507.2891"/><text fill="#000000" font-family="sans-serif" font-size="13" font-weight="bold" lengthAdjust="spacingAndGlyphs" textLength="18" x="70.5" y="494.9224">10</text><text fill="#000000" font-family="sans-serif" font-size="13" lengthAdjust="spacingAndGlyphs" textLength="221" x="92.5" y="487.356">Messaggio "Creazione sessione di</text><text fill="#000000" font-family="sans-serif" font-size="13" lengthAdjust="spacingAndGlyphs" textLength="125" x="92.5" y="502.4888">lavoro completata"</text></g></svg>