<?xml version="1.0" encoding="UTF-8" standalone="no"?><svg xmlns="http://www.w3.org/2000/svg" xmlns:xlink="http://www.w3.org/1999/xlink" contentScriptType="application/ecmascript" contentStyleType="text/css" height="453px" preserveAspectRatio="none" style="width:702px;height:453px;" version="1.1" viewBox="0 0 702 453" width="702px" zoomAndPan="magnify"><defs/><g><rect fill="#FFFFFF" height="29.1328" style="stroke: #383838; stroke-width: 1.0;" width="10" x="329.5" y="113.2969"/><rect fill="#FFFFFF" height="44.1328" style="stroke: #383838; stroke-width: 1.0;" width="10" x="329.5" y="171.5625"/><rect fill="#FFFFFF" height="29.1328" style="stroke: #383838; stroke-width: 1.0;" width="10" x="329.5" y="274.0938"/><rect fill="#FFFFFF" height="29.2656" style="stroke: #383838; stroke-width: 1.0;" width="10" x="329.5" y="404.625"/><rect fill="#FFFFFF" height="101.3984" style="stroke: #383838; stroke-width: 1.0;" width="10" x="539.5" y="303.2266"/><line style="stroke: #383838; stroke-width: 1.0; stroke-dasharray: 5.0,5.0;" x1="34" x2="34" y1="82.2969" y2="452.0234"/><line style="stroke: #383838; stroke-width: 1.0; stroke-dasharray: 5.0,5.0;" x1="334.5" x2="334.5" y1="82.2969" y2="452.0234"/><line style="stroke: #383838; stroke-width: 1.0; stroke-dasharray: 5.0,5.0;" x1="544" x2="544" y1="82.2969" y2="452.0234"/><text fill="#000000" font-family="sans-serif" font-size="14" lengthAdjust="spacingAndGlyphs" textLength="47" x="8" y="78.9951">Utente</text><ellipse cx="34.5" cy="13" fill="#F8F8F8" rx="8" ry="8" style="stroke: #383838; stroke-width: 2.0;"/><path d="M34.5,21 L34.5,48 M21.5,29 L47.5,29 M34.5,48 L21.5,63 M34.5,48 L47.5,63 " fill="#F8F8F8" style="stroke: #383838; stroke-width: 2.0;"/><rect fill="#F8F8F8" height="30.2969" style="stroke: #383838; stroke-width: 1.5;" width="28" x="320.5" y="51"/><text fill="#000000" font-family="sans-serif" font-size="14" lengthAdjust="spacingAndGlyphs" textLength="14" x="327.5" y="70.9951">UI</text><rect fill="#F8F8F8" height="30.2969" style="stroke: #383838; stroke-width: 1.5;" width="71" x="509" y="51"/><text fill="#000000" font-family="sans-serif" font-size="14" lengthAdjust="spacingAndGlyphs" textLength="57" x="516" y="70.9951">Sistema</text><rect fill="#FFFFFF" height="29.1328" style="stroke: #383838; stroke-width: 1.0;" width="10" x="329.5" y="113.2969"/><rect fill="#FFFFFF" height="44.1328" style="stroke: #383838; stroke-width: 1.0;" width="10" x="329.5" y="171.5625"/><rect fill="#FFFFFF" height="29.1328" style="stroke: #383838; stroke-width: 1.0;" width="10" x="329.5" y="274.0938"/><rect fill="#FFFFFF" height="29.2656" style="stroke: #383838; stroke-width: 1.0;" width="10" x="329.5" y="404.625"/><rect fill="#FFFFFF" height="101.3984" style="stroke: #383838; stroke-width: 1.0;" width="10" x="539.5" y="303.2266"/><polygon fill="#383838" points="317.5,109.2969,327.5,113.2969,317.5,117.2969,321.5,113.2969" style="stroke: #383838; stroke-width: 1.0;"/><line style="stroke: #383838; stroke-width: 1.0;" x1="34.5" x2="323.5" y1="113.2969" y2="113.2969"/><text fill="#000000" font-family="sans-serif" font-size="13" font-weight="bold" lengthAdjust="spacingAndGlyphs" textLength="9" x="96.5" y="108.3638">1</text><text fill="#000000" font-family="sans-serif" font-size="13" lengthAdjust="spacingAndGlyphs" textLength="158" x="109.5" y="108.3638">Seleziona un dispositivo</text><polygon fill="#383838" points="45.5,138.4297,35.5,142.4297,45.5,146.4297,41.5,142.4297" style="stroke: #383838; stroke-width: 1.0;"/><line style="stroke: #383838; stroke-width: 1.0; stroke-dasharray: 2.0,2.0;" x1="39.5" x2="333.5" y1="142.4297" y2="142.4297"/><text fill="#000000" font-family="sans-serif" font-size="13" font-weight="bold" lengthAdjust="spacingAndGlyphs" textLength="9" x="102" y="137.4966">2</text><text fill="#000000" font-family="sans-serif" font-size="13" lengthAdjust="spacingAndGlyphs" textLength="152" x="115" y="137.4966">Dispositivo selezionato</text><polygon fill="#383838" points="317.5,167.5625,327.5,171.5625,317.5,175.5625,321.5,171.5625" style="stroke: #383838; stroke-width: 1.0;"/><line style="stroke: #383838; stroke-width: 1.0;" x1="34.5" x2="323.5" y1="171.5625" y2="171.5625"/><text fill="#000000" font-family="sans-serif" font-size="13" font-weight="bold" lengthAdjust="spacingAndGlyphs" textLength="9" x="97" y="166.6294">3</text><text fill="#000000" font-family="sans-serif" font-size="13" lengthAdjust="spacingAndGlyphs" textLength="157" x="110" y="166.6294">Click sul tasto configura</text><polygon fill="#383838" points="45.5,211.6953,35.5,215.6953,45.5,219.6953,41.5,215.6953" style="stroke: #383838; stroke-width: 1.0;"/><line style="stroke: #383838; stroke-width: 1.0; stroke-dasharray: 2.0,2.0;" x1="39.5" x2="333.5" y1="215.6953" y2="215.6953"/><text fill="#000000" font-family="sans-serif" font-size="13" font-weight="bold" lengthAdjust="spacingAndGlyphs" textLength="9" x="105" y="203.3286">4</text><text fill="#000000" font-family="sans-serif" font-size="13" lengthAdjust="spacingAndGlyphs" textLength="146" x="118" y="195.7622">Apertura della finestra</text><text fill="#000000" font-family="sans-serif" font-size="13" lengthAdjust="spacingAndGlyphs" textLength="112" x="135" y="210.895">di configurazione</text><polygon fill="#383838" points="322.5,240.9609,332.5,244.9609,322.5,248.9609,326.5,244.9609" style="stroke: #383838; stroke-width: 1.0;"/><line style="stroke: #383838; stroke-width: 1.0;" x1="34.5" x2="328.5" y1="244.9609" y2="244.9609"/><text fill="#000000" font-family="sans-serif" font-size="13" font-weight="bold" lengthAdjust="spacingAndGlyphs" textLength="9" x="71" y="240.0278">5</text><text fill="#000000" font-family="sans-serif" font-size="13" lengthAdjust="spacingAndGlyphs" textLength="214" x="84" y="240.0278">Inserimento della configurazione</text><polygon fill="#383838" points="317.5,270.0938,327.5,274.0938,317.5,278.0938,321.5,274.0938" style="stroke: #383838; stroke-width: 1.0;"/><line style="stroke: #383838; stroke-width: 1.0;" x1="34.5" x2="323.5" y1="274.0938" y2="274.0938"/><text fill="#000000" font-family="sans-serif" font-size="13" font-weight="bold" lengthAdjust="spacingAndGlyphs" textLength="9" x="97.5" y="269.1606">6</text><text fill="#000000" font-family="sans-serif" font-size="13" lengthAdjust="spacingAndGlyphs" textLength="156" x="110.5" y="269.1606">Click sul tasto "Applica"</text><polygon fill="#383838" points="527.5,299.2266,537.5,303.2266,527.5,307.2266,531.5,303.2266" style="stroke: #383838; stroke-width: 1.0;"/><line style="stroke: #383838; stroke-width: 1.0;" x1="334.5" x2="533.5" y1="303.2266" y2="303.2266"/><text fill="#000000" font-family="sans-serif" font-size="13" font-weight="bold" lengthAdjust="spacingAndGlyphs" textLength="9" x="346.5" y="298.2935">7</text><text fill="#000000" font-family="sans-serif" font-size="13" lengthAdjust="spacingAndGlyphs" textLength="168" x="359.5" y="298.2935">Invio della configurazione</text><line style="stroke: #383838; stroke-width: 1.0;" x1="549.5" x2="591.5" y1="347.625" y2="347.625"/><line style="stroke: #383838; stroke-width: 1.0;" x1="591.5" x2="591.5" y1="347.625" y2="360.625"/><line style="stroke: #383838; stroke-width: 1.0;" x1="550.5" x2="591.5" y1="360.625" y2="360.625"/><polygon fill="#383838" points="560.5,356.625,550.5,360.625,560.5,364.625,556.5,360.625" style="stroke: #383838; stroke-width: 1.0;"/><text fill="#000000" font-family="sans-serif" font-size="13" font-weight="bold" lengthAdjust="spacingAndGlyphs" textLength="9" x="556.5" y="334.9927">8</text><text fill="#000000" font-family="sans-serif" font-size="13" lengthAdjust="spacingAndGlyphs" textLength="83" x="569.5" y="327.4263">Applicazione</text><text fill="#000000" font-family="sans-serif" font-size="13" lengthAdjust="spacingAndGlyphs" textLength="132" x="569.5" y="342.5591">della configurazione</text><polygon fill="#383838" points="350.5,400.625,340.5,404.625,350.5,408.625,346.5,404.625" style="stroke: #383838; stroke-width: 1.0;"/><line style="stroke: #383838; stroke-width: 1.0; stroke-dasharray: 2.0,2.0;" x1="344.5" x2="543.5" y1="404.625" y2="404.625"/><text fill="#000000" font-family="sans-serif" font-size="13" font-weight="bold" lengthAdjust="spacingAndGlyphs" textLength="9" x="355.5" y="392.2583">9</text><text fill="#000000" font-family="sans-serif" font-size="13" lengthAdjust="spacingAndGlyphs" textLength="67" x="415" y="384.6919">Notifica di</text><text fill="#000000" font-family="sans-serif" font-size="13" lengthAdjust="spacingAndGlyphs" textLength="160" x="368.5" y="399.8247">configurazione applicata</text><polygon fill="#383838" points="45.5,429.8906,35.5,433.8906,45.5,437.8906,41.5,433.8906" style="stroke: #383838; stroke-width: 1.0;"/><line style="stroke: #383838; stroke-width: 1.0; stroke-dasharray: 2.0,2.0;" x1="39.5" x2="333.5" y1="433.8906" y2="433.8906"/><text fill="#000000" font-family="sans-serif" font-size="13" font-weight="bold" lengthAdjust="spacingAndGlyphs" textLength="18" x="49" y="428.9575">10</text><text fill="#000000" font-family="sans-serif" font-size="13" lengthAdjust="spacingAndGlyphs" textLength="249" x="71" y="428.9575">Messaggio di configurazione applicata</text></g></svg>