<?xml version="1.0" encoding="UTF-8" standalone="no"?><svg xmlns="http://www.w3.org/2000/svg" xmlns:xlink="http://www.w3.org/1999/xlink" contentScriptType="application/ecmascript" contentStyleType="text/css" height="324px" preserveAspectRatio="none" style="width:629px;height:324px;" version="1.1" viewBox="0 0 629 324" width="629px" zoomAndPan="magnify"><defs><filter height="300%" id="f1spc88" width="300%" x="-1" y="-1"><feGaussianBlur result="blurOut" stdDeviation="2.0"/><feColorMatrix in="blurOut" result="blurOut2" type="matrix" values="0 0 0 0 0 0 0 0 0 0 0 0 0 0 0 0 0 0 .4 0"/><feOffset dx="4.0" dy="4.0" in="blurOut2" result="blurOut3"/><feBlend in="SourceGraphic" in2="blurOut3" mode="normal"/></filter></defs><g><rect fill="#FFFFFF" filter="url(#f1spc88)" height="21" style="stroke: #A80036; stroke-width: 1.0;" width="10" x="29.5" y="96.2969"/><rect fill="#FFFFFF" filter="url(#f1spc88)" height="29.1328" style="stroke: #A80036; stroke-width: 1.0;" width="10" x="29.5" y="146.4297"/><rect fill="#FFFFFF" filter="url(#f1spc88)" height="9.1328" style="stroke: #A80036; stroke-width: 1.0;" width="10" x="29.5" y="305.0938"/><rect fill="#FFFFFF" filter="url(#f1spc88)" height="29.1328" style="stroke: #A80036; stroke-width: 1.0;" width="10" x="315.5" y="117.2969"/><rect fill="#FFFFFF" filter="url(#f1spc88)" height="29.1328" style="stroke: #A80036; stroke-width: 1.0;" width="10" x="315.5" y="175.5625"/><rect fill="#FFFFFF" filter="url(#f1spc88)" height="29.1328" style="stroke: #A80036; stroke-width: 1.0;" width="10" x="315.5" y="275.9609"/><rect fill="#FFFFFF" filter="url(#f1spc88)" height="71.2656" style="stroke: #A80036; stroke-width: 1.0;" width="10" x="481.5" y="204.6953"/><line style="stroke: #A80036; stroke-width: 1.0; stroke-dasharray: 5.0,5.0;" x1="34" x2="34" y1="86.2969" y2="323.2266"/><line style="stroke: #A80036; stroke-width: 1.0; stroke-dasharray: 5.0,5.0;" x1="320.5" x2="320.5" y1="86.2969" y2="323.2266"/><line style="stroke: #A80036; stroke-width: 1.0; stroke-dasharray: 5.0,5.0;" x1="486" x2="486" y1="86.2969" y2="323.2266"/><text fill="#000000" font-family="sans-serif" font-size="14" lengthAdjust="spacingAndGlyphs" textLength="47" x="8" y="82.9951">Utente</text><ellipse cx="34.5" cy="13" fill="#FEFECE" filter="url(#f1spc88)" rx="8" ry="8" style="stroke: #A80036; stroke-width: 2.0;"/><path d="M34.5,21 L34.5,48 M21.5,29 L47.5,29 M34.5,48 L21.5,63 M34.5,48 L47.5,63 " fill="#FEFECE" filter="url(#f1spc88)" style="stroke: #A80036; stroke-width: 2.0;"/><rect fill="#FEFECE" filter="url(#f1spc88)" height="30.2969" style="stroke: #A80036; stroke-width: 1.5;" width="28" x="304.5" y="51"/><text fill="#000000" font-family="sans-serif" font-size="14" lengthAdjust="spacingAndGlyphs" textLength="14" x="311.5" y="70.9951">UI</text><rect fill="#FEFECE" filter="url(#f1spc88)" height="30.2969" style="stroke: #A80036; stroke-width: 1.5;" width="71" x="449" y="51"/><text fill="#000000" font-family="sans-serif" font-size="14" lengthAdjust="spacingAndGlyphs" textLength="57" x="456" y="70.9951">Sistema</text><rect fill="#FFFFFF" filter="url(#f1spc88)" height="21" style="stroke: #A80036; stroke-width: 1.0;" width="10" x="29.5" y="96.2969"/><rect fill="#FFFFFF" filter="url(#f1spc88)" height="29.1328" style="stroke: #A80036; stroke-width: 1.0;" width="10" x="29.5" y="146.4297"/><rect fill="#FFFFFF" filter="url(#f1spc88)" height="9.1328" style="stroke: #A80036; stroke-width: 1.0;" width="10" x="29.5" y="305.0938"/><rect fill="#FFFFFF" filter="url(#f1spc88)" height="29.1328" style="stroke: #A80036; stroke-width: 1.0;" width="10" x="315.5" y="117.2969"/><rect fill="#FFFFFF" filter="url(#f1spc88)" height="29.1328" style="stroke: #A80036; stroke-width: 1.0;" width="10" x="315.5" y="175.5625"/><rect fill="#FFFFFF" filter="url(#f1spc88)" height="29.1328" style="stroke: #A80036; stroke-width: 1.0;" width="10" x="315.5" y="275.9609"/><rect fill="#FFFFFF" filter="url(#f1spc88)" height="71.2656" style="stroke: #A80036; stroke-width: 1.0;" width="10" x="481.5" y="204.6953"/><polygon fill="#A80036" points="303.5,113.2969,313.5,117.2969,303.5,121.2969,307.5,117.2969" style="stroke: #A80036; stroke-width: 1.0;"/><line style="stroke: #A80036; stroke-width: 1.0;" x1="34.5" x2="309.5" y1="117.2969" y2="117.2969"/><text fill="#000000" font-family="sans-serif" font-size="13" font-weight="bold" lengthAdjust="spacingAndGlyphs" textLength="9" x="41.5" y="112.3638">1</text><text fill="#000000" font-family="sans-serif" font-size="13" lengthAdjust="spacingAndGlyphs" textLength="199" x="54.5" y="112.3638">Click sull'icona "Aggiungi link"</text><polygon fill="#A80036" points="50.5,142.4297,40.5,146.4297,50.5,150.4297,46.5,146.4297" style="stroke: #A80036; stroke-width: 1.0;"/><line style="stroke: #A80036; stroke-width: 1.0; stroke-dasharray: 2.0,2.0;" x1="44.5" x2="319.5" y1="146.4297" y2="146.4297"/><text fill="#000000" font-family="sans-serif" font-size="13" font-weight="bold" lengthAdjust="spacingAndGlyphs" textLength="9" x="56.5" y="141.4966">2</text><text fill="#000000" font-family="sans-serif" font-size="13" lengthAdjust="spacingAndGlyphs" textLength="145" x="69.5" y="141.4966">Modalità aggiunta link</text><polygon fill="#A80036" points="303.5,171.5625,313.5,175.5625,303.5,179.5625,307.5,175.5625" style="stroke: #A80036; stroke-width: 1.0;"/><line style="stroke: #A80036; stroke-width: 1.0;" x1="34.5" x2="309.5" y1="175.5625" y2="175.5625"/><text fill="#000000" font-family="sans-serif" font-size="13" font-weight="bold" lengthAdjust="spacingAndGlyphs" textLength="9" x="41.5" y="170.6294">3</text><text fill="#000000" font-family="sans-serif" font-size="13" lengthAdjust="spacingAndGlyphs" textLength="244" x="54.5" y="170.6294">Trascina mouse da un device all'altro</text><polygon fill="#A80036" points="469.5,200.6953,479.5,204.6953,469.5,208.6953,473.5,204.6953" style="stroke: #A80036; stroke-width: 1.0;"/><line style="stroke: #A80036; stroke-width: 1.0;" x1="320.5" x2="475.5" y1="204.6953" y2="204.6953"/><text fill="#000000" font-family="sans-serif" font-size="13" font-weight="bold" lengthAdjust="spacingAndGlyphs" textLength="9" x="327.5" y="199.7622">4</text><text fill="#000000" font-family="sans-serif" font-size="13" lengthAdjust="spacingAndGlyphs" textLength="70" x="340.5" y="199.7622">Crea il link</text><line style="stroke: #A80036; stroke-width: 1.0;" x1="491.5" x2="533.5" y1="233.9609" y2="233.9609"/><line style="stroke: #A80036; stroke-width: 1.0;" x1="533.5" x2="533.5" y1="233.9609" y2="246.9609"/><line style="stroke: #A80036; stroke-width: 1.0;" x1="492.5" x2="533.5" y1="246.9609" y2="246.9609"/><polygon fill="#A80036" points="502.5,242.9609,492.5,246.9609,502.5,250.9609,498.5,246.9609" style="stroke: #A80036; stroke-width: 1.0;"/><text fill="#000000" font-family="sans-serif" font-size="13" font-weight="bold" lengthAdjust="spacingAndGlyphs" textLength="9" x="498.5" y="228.895">5</text><text fill="#000000" font-family="sans-serif" font-size="13" lengthAdjust="spacingAndGlyphs" textLength="117" x="511.5" y="228.895">Creazione del link</text><polygon fill="#A80036" points="336.5,271.9609,326.5,275.9609,336.5,279.9609,332.5,275.9609" style="stroke: #A80036; stroke-width: 1.0;"/><line style="stroke: #A80036; stroke-width: 1.0; stroke-dasharray: 2.0,2.0;" x1="330.5" x2="485.5" y1="275.9609" y2="275.9609"/><text fill="#000000" font-family="sans-serif" font-size="13" font-weight="bold" lengthAdjust="spacingAndGlyphs" textLength="9" x="342.5" y="271.0278">6</text><text fill="#000000" font-family="sans-serif" font-size="13" lengthAdjust="spacingAndGlyphs" textLength="124" x="355.5" y="271.0278">Notifica link creato</text><polygon fill="#A80036" points="50.5,301.0938,40.5,305.0938,50.5,309.0938,46.5,305.0938" style="stroke: #A80036; stroke-width: 1.0;"/><line style="stroke: #A80036; stroke-width: 1.0; stroke-dasharray: 2.0,2.0;" x1="44.5" x2="319.5" y1="305.0938" y2="305.0938"/><text fill="#000000" font-family="sans-serif" font-size="13" font-weight="bold" lengthAdjust="spacingAndGlyphs" textLength="9" x="56.5" y="300.1606">7</text><text fill="#000000" font-family="sans-serif" font-size="13" lengthAdjust="spacingAndGlyphs" textLength="124" x="69.5" y="300.1606">Notifica link creato</text></g></svg>