<?xml version="1.0" encoding="UTF-8" standalone="no"?><svg xmlns="http://www.w3.org/2000/svg" xmlns:xlink="http://www.w3.org/1999/xlink" contentScriptType="application/ecmascript" contentStyleType="text/css" height="453px" preserveAspectRatio="none" style="width:740px;height:453px;" version="1.1" viewBox="0 0 740 453" width="740px" zoomAndPan="magnify"><defs/><g><rect fill="#FFFFFF" height="29.1328" style="stroke: #383838; stroke-width: 1.0;" width="10" x="280.5" y="113.2969"/><rect fill="#FFFFFF" height="44.1328" style="stroke: #383838; stroke-width: 1.0;" width="10" x="280.5" y="171.5625"/><rect fill="#FFFFFF" height="29.1328" style="stroke: #383838; stroke-width: 1.0;" width="10" x="280.5" y="274.0938"/><rect fill="#FFFFFF" height="44.2656" style="stroke: #383838; stroke-width: 1.0;" width="10" x="280.5" y="389.4922"/><rect fill="#FFFFFF" height="86.2656" style="stroke: #383838; stroke-width: 1.0;" width="10" x="490.5" y="303.2266"/><line style="stroke: #383838; stroke-width: 1.0; stroke-dasharray: 5.0,5.0;" x1="34" x2="34" y1="82.2969" y2="452.0234"/><line style="stroke: #383838; stroke-width: 1.0; stroke-dasharray: 5.0,5.0;" x1="285.5" x2="285.5" y1="82.2969" y2="452.0234"/><line style="stroke: #383838; stroke-width: 1.0; stroke-dasharray: 5.0,5.0;" x1="495" x2="495" y1="82.2969" y2="452.0234"/><text fill="#000000" font-family="sans-serif" font-size="14" lengthAdjust="spacingAndGlyphs" textLength="47" x="8" y="78.9951">Utente</text><ellipse cx="34.5" cy="13" fill="#F8F8F8" rx="8" ry="8" style="stroke: #383838; stroke-width: 2.0;"/><path d="M34.5,21 L34.5,48 M21.5,29 L47.5,29 M34.5,48 L21.5,63 M34.5,48 L47.5,63 " fill="#F8F8F8" style="stroke: #383838; stroke-width: 2.0;"/><rect fill="#F8F8F8" height="30.2969" style="stroke: #383838; stroke-width: 1.5;" width="28" x="271.5" y="51"/><text fill="#000000" font-family="sans-serif" font-size="14" lengthAdjust="spacingAndGlyphs" textLength="14" x="278.5" y="70.9951">UI</text><rect fill="#F8F8F8" height="30.2969" style="stroke: #383838; stroke-width: 1.5;" width="71" x="460" y="51"/><text fill="#000000" font-family="sans-serif" font-size="14" lengthAdjust="spacingAndGlyphs" textLength="57" x="467" y="70.9951">Sistema</text><rect fill="#FFFFFF" height="29.1328" style="stroke: #383838; stroke-width: 1.0;" width="10" x="280.5" y="113.2969"/><rect fill="#FFFFFF" height="44.1328" style="stroke: #383838; stroke-width: 1.0;" width="10" x="280.5" y="171.5625"/><rect fill="#FFFFFF" height="29.1328" style="stroke: #383838; stroke-width: 1.0;" width="10" x="280.5" y="274.0938"/><rect fill="#FFFFFF" height="44.2656" style="stroke: #383838; stroke-width: 1.0;" width="10" x="280.5" y="389.4922"/><rect fill="#FFFFFF" height="86.2656" style="stroke: #383838; stroke-width: 1.0;" width="10" x="490.5" y="303.2266"/><polygon fill="#383838" points="268.5,109.2969,278.5,113.2969,268.5,117.2969,272.5,113.2969" style="stroke: #383838; stroke-width: 1.0;"/><line style="stroke: #383838; stroke-width: 1.0;" x1="34.5" x2="274.5" y1="113.2969" y2="113.2969"/><text fill="#000000" font-family="sans-serif" font-size="13" font-weight="bold" lengthAdjust="spacingAndGlyphs" textLength="9" x="95.5" y="108.3638">1</text><text fill="#000000" font-family="sans-serif" font-size="13" lengthAdjust="spacingAndGlyphs" textLength="111" x="108.5" y="108.3638">Seleziona un link</text><polygon fill="#383838" points="45.5,138.4297,35.5,142.4297,45.5,146.4297,41.5,142.4297" style="stroke: #383838; stroke-width: 1.0;"/><line style="stroke: #383838; stroke-width: 1.0; stroke-dasharray: 2.0,2.0;" x1="39.5" x2="284.5" y1="142.4297" y2="142.4297"/><text fill="#000000" font-family="sans-serif" font-size="13" font-weight="bold" lengthAdjust="spacingAndGlyphs" textLength="9" x="100.5" y="137.4966">2</text><text fill="#000000" font-family="sans-serif" font-size="13" lengthAdjust="spacingAndGlyphs" textLength="106" x="113.5" y="137.4966">Link selezionato</text><polygon fill="#383838" points="268.5,167.5625,278.5,171.5625,268.5,175.5625,272.5,171.5625" style="stroke: #383838; stroke-width: 1.0;"/><line style="stroke: #383838; stroke-width: 1.0;" x1="34.5" x2="274.5" y1="171.5625" y2="171.5625"/><text fill="#000000" font-family="sans-serif" font-size="13" font-weight="bold" lengthAdjust="spacingAndGlyphs" textLength="9" x="72.5" y="166.6294">3</text><text fill="#000000" font-family="sans-serif" font-size="13" lengthAdjust="spacingAndGlyphs" textLength="157" x="85.5" y="166.6294">Click sul tasto configura</text><polygon fill="#383838" points="45.5,211.6953,35.5,215.6953,45.5,219.6953,41.5,215.6953" style="stroke: #383838; stroke-width: 1.0;"/><line style="stroke: #383838; stroke-width: 1.0; stroke-dasharray: 2.0,2.0;" x1="39.5" x2="284.5" y1="215.6953" y2="215.6953"/><text fill="#000000" font-family="sans-serif" font-size="13" font-weight="bold" lengthAdjust="spacingAndGlyphs" textLength="9" x="80.5" y="203.3286">4</text><text fill="#000000" font-family="sans-serif" font-size="13" lengthAdjust="spacingAndGlyphs" textLength="146" x="93.5" y="195.7622">Apertura della finestra</text><text fill="#000000" font-family="sans-serif" font-size="13" lengthAdjust="spacingAndGlyphs" textLength="112" x="110.5" y="210.895">di configurazione</text><polygon fill="#383838" points="273.5,240.9609,283.5,244.9609,273.5,248.9609,277.5,244.9609" style="stroke: #383838; stroke-width: 1.0;"/><line style="stroke: #383838; stroke-width: 1.0;" x1="34.5" x2="279.5" y1="244.9609" y2="244.9609"/><text fill="#000000" font-family="sans-serif" font-size="13" font-weight="bold" lengthAdjust="spacingAndGlyphs" textLength="9" x="46.5" y="240.0278">5</text><text fill="#000000" font-family="sans-serif" font-size="13" lengthAdjust="spacingAndGlyphs" textLength="214" x="59.5" y="240.0278">Inserimento della configurazione</text><polygon fill="#383838" points="268.5,270.0938,278.5,274.0938,268.5,278.0938,272.5,274.0938" style="stroke: #383838; stroke-width: 1.0;"/><line style="stroke: #383838; stroke-width: 1.0;" x1="34.5" x2="274.5" y1="274.0938" y2="274.0938"/><text fill="#000000" font-family="sans-serif" font-size="13" font-weight="bold" lengthAdjust="spacingAndGlyphs" textLength="9" x="73" y="269.1606">6</text><text fill="#000000" font-family="sans-serif" font-size="13" lengthAdjust="spacingAndGlyphs" textLength="156" x="86" y="269.1606">Click sul tasto "Applica"</text><polygon fill="#383838" points="478.5,299.2266,488.5,303.2266,478.5,307.2266,482.5,303.2266" style="stroke: #383838; stroke-width: 1.0;"/><line style="stroke: #383838; stroke-width: 1.0;" x1="285.5" x2="484.5" y1="303.2266" y2="303.2266"/><text fill="#000000" font-family="sans-serif" font-size="13" font-weight="bold" lengthAdjust="spacingAndGlyphs" textLength="9" x="297.5" y="298.2935">7</text><text fill="#000000" font-family="sans-serif" font-size="13" lengthAdjust="spacingAndGlyphs" textLength="168" x="310.5" y="298.2935">Invio della configurazione</text><line style="stroke: #383838; stroke-width: 1.0;" x1="500.5" x2="542.5" y1="332.4922" y2="332.4922"/><line style="stroke: #383838; stroke-width: 1.0;" x1="542.5" x2="542.5" y1="332.4922" y2="345.4922"/><line style="stroke: #383838; stroke-width: 1.0;" x1="501.5" x2="542.5" y1="345.4922" y2="345.4922"/><polygon fill="#383838" points="511.5,341.4922,501.5,345.4922,511.5,349.4922,507.5,345.4922" style="stroke: #383838; stroke-width: 1.0;"/><text fill="#000000" font-family="sans-serif" font-size="13" font-weight="bold" lengthAdjust="spacingAndGlyphs" textLength="9" x="507.5" y="327.4263">8</text><text fill="#000000" font-family="sans-serif" font-size="13" lengthAdjust="spacingAndGlyphs" textLength="219" x="520.5" y="327.4263">Applicazione della configurazione</text><polygon fill="#383838" points="301.5,385.4922,291.5,389.4922,301.5,393.4922,297.5,389.4922" style="stroke: #383838; stroke-width: 1.0;"/><line style="stroke: #383838; stroke-width: 1.0; stroke-dasharray: 2.0,2.0;" x1="295.5" x2="494.5" y1="389.4922" y2="389.4922"/><text fill="#000000" font-family="sans-serif" font-size="13" font-weight="bold" lengthAdjust="spacingAndGlyphs" textLength="9" x="306.5" y="377.1255">9</text><text fill="#000000" font-family="sans-serif" font-size="13" lengthAdjust="spacingAndGlyphs" textLength="67" x="366" y="369.5591">Notifica di</text><text fill="#000000" font-family="sans-serif" font-size="13" lengthAdjust="spacingAndGlyphs" textLength="160" x="319.5" y="384.6919">configurazione applicata</text><polygon fill="#383838" points="45.5,429.7578,35.5,433.7578,45.5,437.7578,41.5,433.7578" style="stroke: #383838; stroke-width: 1.0;"/><line style="stroke: #383838; stroke-width: 1.0; stroke-dasharray: 2.0,2.0;" x1="39.5" x2="284.5" y1="433.7578" y2="433.7578"/><text fill="#000000" font-family="sans-serif" font-size="13" font-weight="bold" lengthAdjust="spacingAndGlyphs" textLength="18" x="69" y="421.3911">10</text><text fill="#000000" font-family="sans-serif" font-size="13" lengthAdjust="spacingAndGlyphs" textLength="85" x="128.5" y="413.8247">Messaggio di</text><text fill="#000000" font-family="sans-serif" font-size="13" lengthAdjust="spacingAndGlyphs" textLength="160" x="91" y="428.9575">configurazione applicata</text></g></svg>