<?xml version="1.0" encoding="UTF-8" standalone="no"?><svg xmlns="http://www.w3.org/2000/svg" xmlns:xlink="http://www.w3.org/1999/xlink" contentScriptType="application/ecmascript" contentStyleType="text/css" height="324px" preserveAspectRatio="none" style="width:837px;height:324px;" version="1.1" viewBox="0 0 837 324" width="837px" zoomAndPan="magnify"><defs><filter height="300%" id="flpxk5e" width="300%" x="-1" y="-1"><feGaussianBlur result="blurOut" stdDeviation="2.0"/><feColorMatrix in="blurOut" result="blurOut2" type="matrix" values="0 0 0 0 0 0 0 0 0 0 0 0 0 0 0 0 0 0 .4 0"/><feOffset dx="4.0" dy="4.0" in="blurOut2" result="blurOut3"/><feBlend in="SourceGraphic" in2="blurOut3" mode="normal"/></filter></defs><g><rect fill="#FFFFFF" filter="url(#flpxk5e)" height="21" style="stroke: #A80036; stroke-width: 1.0;" width="10" x="29.5" y="96.2969"/><rect fill="#FFFFFF" filter="url(#flpxk5e)" height="29.1328" style="stroke: #A80036; stroke-width: 1.0;" width="10" x="29.5" y="146.4297"/><rect fill="#FFFFFF" filter="url(#flpxk5e)" height="9.1328" style="stroke: #A80036; stroke-width: 1.0;" width="10" x="29.5" y="305.0938"/><rect fill="#FFFFFF" filter="url(#flpxk5e)" height="29.1328" style="stroke: #A80036; stroke-width: 1.0;" width="10" x="364.5" y="117.2969"/><rect fill="#FFFFFF" filter="url(#flpxk5e)" height="29.1328" style="stroke: #A80036; stroke-width: 1.0;" width="10" x="364.5" y="175.5625"/><rect fill="#FFFFFF" filter="url(#flpxk5e)" height="29.1328" style="stroke: #A80036; stroke-width: 1.0;" width="10" x="364.5" y="275.9609"/><rect fill="#FFFFFF" filter="url(#flpxk5e)" height="71.2656" style="stroke: #A80036; stroke-width: 1.0;" width="10" x="621.5" y="204.6953"/><line style="stroke: #A80036; stroke-width: 1.0; stroke-dasharray: 5.0,5.0;" x1="34" x2="34" y1="86.2969" y2="323.2266"/><line style="stroke: #A80036; stroke-width: 1.0; stroke-dasharray: 5.0,5.0;" x1="369.5" x2="369.5" y1="86.2969" y2="323.2266"/><line style="stroke: #A80036; stroke-width: 1.0; stroke-dasharray: 5.0,5.0;" x1="626" x2="626" y1="86.2969" y2="323.2266"/><text fill="#000000" font-family="sans-serif" font-size="14" lengthAdjust="spacingAndGlyphs" textLength="47" x="8" y="82.9951">Utente</text><ellipse cx="34.5" cy="13" fill="#FEFECE" filter="url(#flpxk5e)" rx="8" ry="8" style="stroke: #A80036; stroke-width: 2.0;"/><path d="M34.5,21 L34.5,48 M21.5,29 L47.5,29 M34.5,48 L21.5,63 M34.5,48 L47.5,63 " fill="#FEFECE" filter="url(#flpxk5e)" style="stroke: #A80036; stroke-width: 2.0;"/><rect fill="#FEFECE" filter="url(#flpxk5e)" height="30.2969" style="stroke: #A80036; stroke-width: 1.5;" width="28" x="353.5" y="51"/><text fill="#000000" font-family="sans-serif" font-size="14" lengthAdjust="spacingAndGlyphs" textLength="14" x="360.5" y="70.9951">UI</text><rect fill="#FEFECE" filter="url(#flpxk5e)" height="30.2969" style="stroke: #A80036; stroke-width: 1.5;" width="71" x="589" y="51"/><text fill="#000000" font-family="sans-serif" font-size="14" lengthAdjust="spacingAndGlyphs" textLength="57" x="596" y="70.9951">Sistema</text><rect fill="#FFFFFF" filter="url(#flpxk5e)" height="21" style="stroke: #A80036; stroke-width: 1.0;" width="10" x="29.5" y="96.2969"/><rect fill="#FFFFFF" filter="url(#flpxk5e)" height="29.1328" style="stroke: #A80036; stroke-width: 1.0;" width="10" x="29.5" y="146.4297"/><rect fill="#FFFFFF" filter="url(#flpxk5e)" height="9.1328" style="stroke: #A80036; stroke-width: 1.0;" width="10" x="29.5" y="305.0938"/><rect fill="#FFFFFF" filter="url(#flpxk5e)" height="29.1328" style="stroke: #A80036; stroke-width: 1.0;" width="10" x="364.5" y="117.2969"/><rect fill="#FFFFFF" filter="url(#flpxk5e)" height="29.1328" style="stroke: #A80036; stroke-width: 1.0;" width="10" x="364.5" y="175.5625"/><rect fill="#FFFFFF" filter="url(#flpxk5e)" height="29.1328" style="stroke: #A80036; stroke-width: 1.0;" width="10" x="364.5" y="275.9609"/><rect fill="#FFFFFF" filter="url(#flpxk5e)" height="71.2656" style="stroke: #A80036; stroke-width: 1.0;" width="10" x="621.5" y="204.6953"/><polygon fill="#A80036" points="352.5,113.2969,362.5,117.2969,352.5,121.2969,356.5,117.2969" style="stroke: #A80036; stroke-width: 1.0;"/><line style="stroke: #A80036; stroke-width: 1.0;" x1="34.5" x2="358.5" y1="117.2969" y2="117.2969"/><text fill="#000000" font-family="sans-serif" font-size="13" font-weight="bold" lengthAdjust="spacingAndGlyphs" textLength="9" x="41.5" y="112.3638">1</text><text fill="#000000" font-family="sans-serif" font-size="13" lengthAdjust="spacingAndGlyphs" textLength="137" x="54.5" y="112.3638">Seleziona l'elemento</text><polygon fill="#A80036" points="50.5,142.4297,40.5,146.4297,50.5,150.4297,46.5,146.4297" style="stroke: #A80036; stroke-width: 1.0;"/><line style="stroke: #A80036; stroke-width: 1.0; stroke-dasharray: 2.0,2.0;" x1="44.5" x2="368.5" y1="146.4297" y2="146.4297"/><text fill="#000000" font-family="sans-serif" font-size="13" font-weight="bold" lengthAdjust="spacingAndGlyphs" textLength="9" x="56.5" y="141.4966">2</text><text fill="#000000" font-family="sans-serif" font-size="13" lengthAdjust="spacingAndGlyphs" textLength="141" x="69.5" y="141.4966">Elemento selezionato</text><polygon fill="#A80036" points="352.5,171.5625,362.5,175.5625,352.5,179.5625,356.5,175.5625" style="stroke: #A80036; stroke-width: 1.0;"/><line style="stroke: #A80036; stroke-width: 1.0;" x1="34.5" x2="358.5" y1="175.5625" y2="175.5625"/><text fill="#000000" font-family="sans-serif" font-size="13" font-weight="bold" lengthAdjust="spacingAndGlyphs" textLength="9" x="41.5" y="170.6294">3</text><text fill="#000000" font-family="sans-serif" font-size="13" lengthAdjust="spacingAndGlyphs" textLength="205" x="54.5" y="170.6294">Invia comando di cancellazione</text><polygon fill="#A80036" points="609.5,200.6953,619.5,204.6953,609.5,208.6953,613.5,204.6953" style="stroke: #A80036; stroke-width: 1.0;"/><line style="stroke: #A80036; stroke-width: 1.0;" x1="369.5" x2="615.5" y1="204.6953" y2="204.6953"/><text fill="#000000" font-family="sans-serif" font-size="13" font-weight="bold" lengthAdjust="spacingAndGlyphs" textLength="9" x="376.5" y="199.7622">4</text><text fill="#000000" font-family="sans-serif" font-size="13" lengthAdjust="spacingAndGlyphs" textLength="215" x="389.5" y="199.7622">Inoltra comando di cancellazione</text><line style="stroke: #A80036; stroke-width: 1.0;" x1="631.5" x2="673.5" y1="233.9609" y2="233.9609"/><line style="stroke: #A80036; stroke-width: 1.0;" x1="673.5" x2="673.5" y1="233.9609" y2="246.9609"/><line style="stroke: #A80036; stroke-width: 1.0;" x1="632.5" x2="673.5" y1="246.9609" y2="246.9609"/><polygon fill="#A80036" points="642.5,242.9609,632.5,246.9609,642.5,250.9609,638.5,246.9609" style="stroke: #A80036; stroke-width: 1.0;"/><text fill="#000000" font-family="sans-serif" font-size="13" font-weight="bold" lengthAdjust="spacingAndGlyphs" textLength="9" x="638.5" y="228.895">5</text><text fill="#000000" font-family="sans-serif" font-size="13" lengthAdjust="spacingAndGlyphs" textLength="185" x="651.5" y="228.895">Cancellazione dell'elemento</text><polygon fill="#A80036" points="385.5,271.9609,375.5,275.9609,385.5,279.9609,381.5,275.9609" style="stroke: #A80036; stroke-width: 1.0;"/><line style="stroke: #A80036; stroke-width: 1.0; stroke-dasharray: 2.0,2.0;" x1="379.5" x2="625.5" y1="275.9609" y2="275.9609"/><text fill="#000000" font-family="sans-serif" font-size="13" font-weight="bold" lengthAdjust="spacingAndGlyphs" textLength="9" x="391.5" y="271.0278">6</text><text fill="#000000" font-family="sans-serif" font-size="13" lengthAdjust="spacingAndGlyphs" textLength="156" x="404.5" y="271.0278">Cancellazione avvenuta</text><polygon fill="#A80036" points="50.5,301.0938,40.5,305.0938,50.5,309.0938,46.5,305.0938" style="stroke: #A80036; stroke-width: 1.0;"/><line style="stroke: #A80036; stroke-width: 1.0; stroke-dasharray: 2.0,2.0;" x1="44.5" x2="368.5" y1="305.0938" y2="305.0938"/><text fill="#000000" font-family="sans-serif" font-size="13" font-weight="bold" lengthAdjust="spacingAndGlyphs" textLength="9" x="56.5" y="300.1606">7</text><text fill="#000000" font-family="sans-serif" font-size="13" lengthAdjust="spacingAndGlyphs" textLength="293" x="69.5" y="300.1606">Mostra messaggio di cancellazione avvenuta</text></g></svg>