<?xml version="1.0" encoding="UTF-8" standalone="no"?><svg xmlns="http://www.w3.org/2000/svg" xmlns:xlink="http://www.w3.org/1999/xlink" contentScriptType="application/ecmascript" contentStyleType="text/css" height="411px" preserveAspectRatio="none" style="width:856px;height:411px;" version="1.1" viewBox="0 0 856 411" width="856px" zoomAndPan="magnify"><defs><filter height="300%" id="f06m97r" width="300%" x="-1" y="-1"><feGaussianBlur result="blurOut" stdDeviation="2.0"/><feColorMatrix in="blurOut" result="blurOut2" type="matrix" values="0 0 0 0 0 0 0 0 0 0 0 0 0 0 0 0 0 0 .4 0"/><feOffset dx="4.0" dy="4.0" in="blurOut2" result="blurOut3"/><feBlend in="SourceGraphic" in2="blurOut3" mode="normal"/></filter></defs><g><rect fill="#FFFFFF" filter="url(#f06m97r)" height="21" style="stroke: #A80036; stroke-width: 1.0;" width="10" x="29.5" y="96.2969"/><rect fill="#FFFFFF" filter="url(#f06m97r)" height="29.1328" style="stroke: #A80036; stroke-width: 1.0;" width="10" x="29.5" y="146.4297"/><rect fill="#FFFFFF" filter="url(#f06m97r)" height="58.2656" style="stroke: #A80036; stroke-width: 1.0;" width="10" x="29.5" y="204.6953"/><rect fill="#FFFFFF" filter="url(#f06m97r)" height="9.1328" style="stroke: #A80036; stroke-width: 1.0;" width="10" x="29.5" y="392.4922"/><rect fill="#FFFFFF" filter="url(#f06m97r)" height="29.1328" style="stroke: #A80036; stroke-width: 1.0;" width="10" x="333.5" y="117.2969"/><rect fill="#FFFFFF" filter="url(#f06m97r)" height="29.1328" style="stroke: #A80036; stroke-width: 1.0;" width="10" x="333.5" y="175.5625"/><rect fill="#FFFFFF" filter="url(#f06m97r)" height="29.1328" style="stroke: #A80036; stroke-width: 1.0;" width="10" x="333.5" y="262.9609"/><rect fill="#FFFFFF" filter="url(#f06m97r)" height="29.1328" style="stroke: #A80036; stroke-width: 1.0;" width="10" x="333.5" y="363.3594"/><rect fill="#FFFFFF" filter="url(#f06m97r)" height="71.2656" style="stroke: #A80036; stroke-width: 1.0;" width="10" x="606.5" y="292.0938"/><line style="stroke: #A80036; stroke-width: 1.0; stroke-dasharray: 5.0,5.0;" x1="34" x2="34" y1="86.2969" y2="410.625"/><line style="stroke: #A80036; stroke-width: 1.0; stroke-dasharray: 5.0,5.0;" x1="338.5" x2="338.5" y1="86.2969" y2="410.625"/><line style="stroke: #A80036; stroke-width: 1.0; stroke-dasharray: 5.0,5.0;" x1="611" x2="611" y1="86.2969" y2="410.625"/><text fill="#000000" font-family="sans-serif" font-size="14" lengthAdjust="spacingAndGlyphs" textLength="47" x="8" y="82.9951">Utente</text><ellipse cx="34.5" cy="13" fill="#FEFECE" filter="url(#f06m97r)" rx="8" ry="8" style="stroke: #A80036; stroke-width: 2.0;"/><path d="M34.5,21 L34.5,48 M21.5,29 L47.5,29 M34.5,48 L21.5,63 M34.5,48 L47.5,63 " fill="#FEFECE" filter="url(#f06m97r)" style="stroke: #A80036; stroke-width: 2.0;"/><rect fill="#FEFECE" filter="url(#f06m97r)" height="30.2969" style="stroke: #A80036; stroke-width: 1.5;" width="28" x="322.5" y="51"/><text fill="#000000" font-family="sans-serif" font-size="14" lengthAdjust="spacingAndGlyphs" textLength="14" x="329.5" y="70.9951">UI</text><rect fill="#FEFECE" filter="url(#f06m97r)" height="30.2969" style="stroke: #A80036; stroke-width: 1.5;" width="71" x="574" y="51"/><text fill="#000000" font-family="sans-serif" font-size="14" lengthAdjust="spacingAndGlyphs" textLength="57" x="581" y="70.9951">Sistema</text><rect fill="#FFFFFF" filter="url(#f06m97r)" height="21" style="stroke: #A80036; stroke-width: 1.0;" width="10" x="29.5" y="96.2969"/><rect fill="#FFFFFF" filter="url(#f06m97r)" height="29.1328" style="stroke: #A80036; stroke-width: 1.0;" width="10" x="29.5" y="146.4297"/><rect fill="#FFFFFF" filter="url(#f06m97r)" height="58.2656" style="stroke: #A80036; stroke-width: 1.0;" width="10" x="29.5" y="204.6953"/><rect fill="#FFFFFF" filter="url(#f06m97r)" height="9.1328" style="stroke: #A80036; stroke-width: 1.0;" width="10" x="29.5" y="392.4922"/><rect fill="#FFFFFF" filter="url(#f06m97r)" height="29.1328" style="stroke: #A80036; stroke-width: 1.0;" width="10" x="333.5" y="117.2969"/><rect fill="#FFFFFF" filter="url(#f06m97r)" height="29.1328" style="stroke: #A80036; stroke-width: 1.0;" width="10" x="333.5" y="175.5625"/><rect fill="#FFFFFF" filter="url(#f06m97r)" height="29.1328" style="stroke: #A80036; stroke-width: 1.0;" width="10" x="333.5" y="262.9609"/><rect fill="#FFFFFF" filter="url(#f06m97r)" height="29.1328" style="stroke: #A80036; stroke-width: 1.0;" width="10" x="333.5" y="363.3594"/><rect fill="#FFFFFF" filter="url(#f06m97r)" height="71.2656" style="stroke: #A80036; stroke-width: 1.0;" width="10" x="606.5" y="292.0938"/><polygon fill="#A80036" points="321.5,113.2969,331.5,117.2969,321.5,121.2969,325.5,117.2969" style="stroke: #A80036; stroke-width: 1.0;"/><line style="stroke: #A80036; stroke-width: 1.0;" x1="34.5" x2="327.5" y1="117.2969" y2="117.2969"/><text fill="#000000" font-family="sans-serif" font-size="13" font-weight="bold" lengthAdjust="spacingAndGlyphs" textLength="9" x="41.5" y="112.3638">1</text><text fill="#000000" font-family="sans-serif" font-size="13" lengthAdjust="spacingAndGlyphs" textLength="111" x="54.5" y="112.3638">Seleziona un link</text><polygon fill="#A80036" points="50.5,142.4297,40.5,146.4297,50.5,150.4297,46.5,146.4297" style="stroke: #A80036; stroke-width: 1.0;"/><line style="stroke: #A80036; stroke-width: 1.0; stroke-dasharray: 2.0,2.0;" x1="44.5" x2="337.5" y1="146.4297" y2="146.4297"/><text fill="#000000" font-family="sans-serif" font-size="13" font-weight="bold" lengthAdjust="spacingAndGlyphs" textLength="9" x="56.5" y="141.4966">2</text><text fill="#000000" font-family="sans-serif" font-size="13" lengthAdjust="spacingAndGlyphs" textLength="106" x="69.5" y="141.4966">Link selezionato</text><polygon fill="#A80036" points="321.5,171.5625,331.5,175.5625,321.5,179.5625,325.5,175.5625" style="stroke: #A80036; stroke-width: 1.0;"/><line style="stroke: #A80036; stroke-width: 1.0;" x1="34.5" x2="327.5" y1="175.5625" y2="175.5625"/><text fill="#000000" font-family="sans-serif" font-size="13" font-weight="bold" lengthAdjust="spacingAndGlyphs" textLength="9" x="41.5" y="170.6294">3</text><text fill="#000000" font-family="sans-serif" font-size="13" lengthAdjust="spacingAndGlyphs" textLength="157" x="54.5" y="170.6294">Click sul tasto configura</text><polygon fill="#A80036" points="50.5,200.6953,40.5,204.6953,50.5,208.6953,46.5,204.6953" style="stroke: #A80036; stroke-width: 1.0;"/><line style="stroke: #A80036; stroke-width: 1.0; stroke-dasharray: 2.0,2.0;" x1="44.5" x2="337.5" y1="204.6953" y2="204.6953"/><text fill="#000000" font-family="sans-serif" font-size="13" font-weight="bold" lengthAdjust="spacingAndGlyphs" textLength="9" x="56.5" y="199.7622">4</text><text fill="#000000" font-family="sans-serif" font-size="13" lengthAdjust="spacingAndGlyphs" textLength="262" x="69.5" y="199.7622">Apertura della finestra di configurazione</text><polygon fill="#A80036" points="326.5,229.8281,336.5,233.8281,326.5,237.8281,330.5,233.8281" style="stroke: #A80036; stroke-width: 1.0;"/><line style="stroke: #A80036; stroke-width: 1.0;" x1="39.5" x2="332.5" y1="233.8281" y2="233.8281"/><text fill="#000000" font-family="sans-serif" font-size="13" font-weight="bold" lengthAdjust="spacingAndGlyphs" textLength="9" x="46.5" y="228.895">5</text><text fill="#000000" font-family="sans-serif" font-size="13" lengthAdjust="spacingAndGlyphs" textLength="214" x="59.5" y="228.895">Inserimento della configurazione</text><polygon fill="#A80036" points="321.5,258.9609,331.5,262.9609,321.5,266.9609,325.5,262.9609" style="stroke: #A80036; stroke-width: 1.0;"/><line style="stroke: #A80036; stroke-width: 1.0;" x1="34.5" x2="327.5" y1="262.9609" y2="262.9609"/><text fill="#000000" font-family="sans-serif" font-size="13" font-weight="bold" lengthAdjust="spacingAndGlyphs" textLength="9" x="41.5" y="258.0278">6</text><text fill="#000000" font-family="sans-serif" font-size="13" lengthAdjust="spacingAndGlyphs" textLength="156" x="54.5" y="258.0278">Click sul tasto "Applica"</text><polygon fill="#A80036" points="594.5,288.0938,604.5,292.0938,594.5,296.0938,598.5,292.0938" style="stroke: #A80036; stroke-width: 1.0;"/><line style="stroke: #A80036; stroke-width: 1.0;" x1="338.5" x2="600.5" y1="292.0938" y2="292.0938"/><text fill="#000000" font-family="sans-serif" font-size="13" font-weight="bold" lengthAdjust="spacingAndGlyphs" textLength="9" x="345.5" y="287.1606">7</text><text fill="#000000" font-family="sans-serif" font-size="13" lengthAdjust="spacingAndGlyphs" textLength="168" x="358.5" y="287.1606">Invio della configurazione</text><line style="stroke: #A80036; stroke-width: 1.0;" x1="616.5" x2="658.5" y1="321.3594" y2="321.3594"/><line style="stroke: #A80036; stroke-width: 1.0;" x1="658.5" x2="658.5" y1="321.3594" y2="334.3594"/><line style="stroke: #A80036; stroke-width: 1.0;" x1="617.5" x2="658.5" y1="334.3594" y2="334.3594"/><polygon fill="#A80036" points="627.5,330.3594,617.5,334.3594,627.5,338.3594,623.5,334.3594" style="stroke: #A80036; stroke-width: 1.0;"/><text fill="#000000" font-family="sans-serif" font-size="13" font-weight="bold" lengthAdjust="spacingAndGlyphs" textLength="9" x="623.5" y="316.2935">8</text><text fill="#000000" font-family="sans-serif" font-size="13" lengthAdjust="spacingAndGlyphs" textLength="219" x="636.5" y="316.2935">Applicazione della configurazione</text><polygon fill="#A80036" points="354.5,359.3594,344.5,363.3594,354.5,367.3594,350.5,363.3594" style="stroke: #A80036; stroke-width: 1.0;"/><line style="stroke: #A80036; stroke-width: 1.0; stroke-dasharray: 2.0,2.0;" x1="348.5" x2="610.5" y1="363.3594" y2="363.3594"/><text fill="#000000" font-family="sans-serif" font-size="13" font-weight="bold" lengthAdjust="spacingAndGlyphs" textLength="9" x="360.5" y="358.4263">9</text><text fill="#000000" font-family="sans-serif" font-size="13" lengthAdjust="spacingAndGlyphs" textLength="231" x="373.5" y="358.4263">Notifica di configurazione applicata</text><polygon fill="#A80036" points="50.5,388.4922,40.5,392.4922,50.5,396.4922,46.5,392.4922" style="stroke: #A80036; stroke-width: 1.0;"/><line style="stroke: #A80036; stroke-width: 1.0; stroke-dasharray: 2.0,2.0;" x1="44.5" x2="337.5" y1="392.4922" y2="392.4922"/><text fill="#000000" font-family="sans-serif" font-size="13" font-weight="bold" lengthAdjust="spacingAndGlyphs" textLength="18" x="56.5" y="387.5591">10</text><text fill="#000000" font-family="sans-serif" font-size="13" lengthAdjust="spacingAndGlyphs" textLength="249" x="78.5" y="387.5591">Messaggio di configurazione applicata</text></g></svg>