<?xml version="1.0" encoding="UTF-8" standalone="no"?><svg xmlns="http://www.w3.org/2000/svg" xmlns:xlink="http://www.w3.org/1999/xlink" contentScriptType="application/ecmascript" contentStyleType="text/css" height="305px" preserveAspectRatio="none" style="width:698px;height:305px;" version="1.1" viewBox="0 0 698 305" width="698px" zoomAndPan="magnify"><defs/><g><line style="stroke: #383838; stroke-width: 1.0; stroke-dasharray: 5.0,5.0;" x1="34" x2="34" y1="82.2969" y2="304.2266"/><line style="stroke: #383838; stroke-width: 1.0; stroke-dasharray: 5.0,5.0;" x1="229.5" x2="229.5" y1="82.2969" y2="304.2266"/><line style="stroke: #383838; stroke-width: 1.0; stroke-dasharray: 5.0,5.0;" x1="429" x2="429" y1="82.2969" y2="304.2266"/><text fill="#000000" font-family="sans-serif" font-size="14" lengthAdjust="spacingAndGlyphs" textLength="47" x="8" y="78.9951">Utente</text><ellipse cx="34.5" cy="13" fill="#F8F8F8" rx="8" ry="8" style="stroke: #383838; stroke-width: 2.0;"/><path d="M34.5,21 L34.5,48 M21.5,29 L47.5,29 M34.5,48 L21.5,63 M34.5,48 L47.5,63 " fill="#F8F8F8" style="stroke: #383838; stroke-width: 2.0;"/><rect fill="#F8F8F8" height="30.2969" style="stroke: #383838; stroke-width: 1.5;" width="28" x="215.5" y="51"/><text fill="#000000" font-family="sans-serif" font-size="14" lengthAdjust="spacingAndGlyphs" textLength="14" x="222.5" y="70.9951">UI</text><rect fill="#F8F8F8" height="30.2969" style="stroke: #383838; stroke-width: 1.5;" width="71" x="394" y="51"/><text fill="#000000" font-family="sans-serif" font-size="14" lengthAdjust="spacingAndGlyphs" textLength="57" x="401" y="70.9951">Sistema</text><line style="stroke: #383838; stroke-width: 1.0;" x1="34.5" x2="76.5" y1="113.4297" y2="113.4297"/><line style="stroke: #383838; stroke-width: 1.0;" x1="76.5" x2="76.5" y1="113.4297" y2="126.4297"/><line style="stroke: #383838; stroke-width: 1.0;" x1="35.5" x2="76.5" y1="126.4297" y2="126.4297"/><polygon fill="#383838" points="45.5,122.4297,35.5,126.4297,45.5,130.4297,41.5,126.4297" style="stroke: #383838; stroke-width: 1.0;"/><text fill="#000000" font-family="sans-serif" font-size="13" font-weight="bold" lengthAdjust="spacingAndGlyphs" textLength="9" x="41.5" y="108.3638">1</text><text fill="#000000" font-family="sans-serif" font-size="13" lengthAdjust="spacingAndGlyphs" textLength="128" x="54.5" y="108.3638">Click sull'invite link</text><polygon fill="#383838" points="417.5,181.4297,427.5,185.4297,417.5,189.4297,421.5,185.4297" style="stroke: #383838; stroke-width: 1.0;"/><line style="stroke: #383838; stroke-width: 1.0;" x1="34.5" x2="423.5" y1="185.4297" y2="185.4297"/><text fill="#000000" font-family="sans-serif" font-size="13" font-weight="bold" lengthAdjust="spacingAndGlyphs" textLength="9" x="146.5" y="165.6294">2</text><text fill="#000000" font-family="sans-serif" font-size="13" lengthAdjust="spacingAndGlyphs" textLength="157" x="160" y="150.4966">Richiesta della sessione</text><text fill="#000000" font-family="sans-serif" font-size="13" lengthAdjust="spacingAndGlyphs" textLength="158" x="159.5" y="165.6294">di lavoro corrispondente</text><text fill="#000000" font-family="sans-serif" font-size="13" lengthAdjust="spacingAndGlyphs" textLength="85" x="196" y="180.7622">all'invite link</text><line style="stroke: #383838; stroke-width: 1.0;" x1="429.5" x2="471.5" y1="214.9609" y2="214.9609"/><line style="stroke: #383838; stroke-width: 1.0;" x1="471.5" x2="471.5" y1="214.9609" y2="227.9609"/><line style="stroke: #383838; stroke-width: 1.0;" x1="430.5" x2="471.5" y1="227.9609" y2="227.9609"/><polygon fill="#383838" points="440.5,223.9609,430.5,227.9609,440.5,231.9609,436.5,227.9609" style="stroke: #383838; stroke-width: 1.0;"/><text fill="#000000" font-family="sans-serif" font-size="13" font-weight="bold" lengthAdjust="spacingAndGlyphs" textLength="9" x="436.5" y="209.895">3</text><text fill="#000000" font-family="sans-serif" font-size="13" lengthAdjust="spacingAndGlyphs" textLength="248" x="449.5" y="209.895">Join dell'utente alla sessione di lavoro</text><polygon fill="#383838" points="240.5,252.9609,230.5,256.9609,240.5,260.9609,236.5,256.9609" style="stroke: #383838; stroke-width: 1.0;"/><line style="stroke: #383838; stroke-width: 1.0;" x1="234.5" x2="428.5" y1="256.9609" y2="256.9609"/><text fill="#000000" font-family="sans-serif" font-size="13" font-weight="bold" lengthAdjust="spacingAndGlyphs" textLength="9" x="241.5" y="252.0278">4</text><text fill="#000000" font-family="sans-serif" font-size="13" lengthAdjust="spacingAndGlyphs" textLength="163" x="254.5" y="252.0278">Join dell'utente avvenuto</text><polygon fill="#383838" points="45.5,282.0938,35.5,286.0938,45.5,290.0938,41.5,286.0938" style="stroke: #383838; stroke-width: 1.0;"/><line style="stroke: #383838; stroke-width: 1.0; stroke-dasharray: 2.0,2.0;" x1="39.5" x2="228.5" y1="286.0938" y2="286.0938"/><text fill="#000000" font-family="sans-serif" font-size="13" font-weight="bold" lengthAdjust="spacingAndGlyphs" textLength="9" x="46.5" y="281.1606">5</text><text fill="#000000" font-family="sans-serif" font-size="13" lengthAdjust="spacingAndGlyphs" textLength="158" x="59.5" y="281.1606">Messaggio di benvenuto</text></g></svg>