<?xml version="1.0" encoding="UTF-8" standalone="no"?><svg xmlns="http://www.w3.org/2000/svg" xmlns:xlink="http://www.w3.org/1999/xlink" contentScriptType="application/ecmascript" contentStyleType="text/css" height="366px" preserveAspectRatio="none" style="width:577px;height:366px;" version="1.1" viewBox="0 0 577 366" width="577px" zoomAndPan="magnify"><defs/><g><rect fill="#FFFFFF" height="44.1328" style="stroke: #383838; stroke-width: 1.0;" width="10" x="325.5" y="113.2969"/><rect fill="#FFFFFF" height="29.2656" style="stroke: #383838; stroke-width: 1.0;" width="10" x="325.5" y="201.6953"/><rect fill="#FFFFFF" height="29.1328" style="stroke: #383838; stroke-width: 1.0;" width="10" x="325.5" y="260.0938"/><rect fill="#FFFFFF" height="29.1328" style="stroke: #383838; stroke-width: 1.0;" width="10" x="325.5" y="318.3594"/><rect fill="#FFFFFF" height="29.1328" style="stroke: #383838; stroke-width: 1.0;" width="10" x="535.5" y="289.2266"/><line style="stroke: #383838; stroke-width: 1.0; stroke-dasharray: 5.0,5.0;" x1="53" x2="53" y1="82.2969" y2="365.625"/><line style="stroke: #383838; stroke-width: 1.0; stroke-dasharray: 5.0,5.0;" x1="330.5" x2="330.5" y1="82.2969" y2="365.625"/><line style="stroke: #383838; stroke-width: 1.0; stroke-dasharray: 5.0,5.0;" x1="540" x2="540" y1="82.2969" y2="365.625"/><text fill="#000000" font-family="sans-serif" font-size="14" lengthAdjust="spacingAndGlyphs" textLength="85" x="8" y="78.9951">Supervisore</text><ellipse cx="53.5" cy="13" fill="#F8F8F8" rx="8" ry="8" style="stroke: #383838; stroke-width: 2.0;"/><path d="M53.5,21 L53.5,48 M40.5,29 L66.5,29 M53.5,48 L40.5,63 M53.5,48 L66.5,63 " fill="#F8F8F8" style="stroke: #383838; stroke-width: 2.0;"/><rect fill="#F8F8F8" height="30.2969" style="stroke: #383838; stroke-width: 1.5;" width="28" x="316.5" y="51"/><text fill="#000000" font-family="sans-serif" font-size="14" lengthAdjust="spacingAndGlyphs" textLength="14" x="323.5" y="70.9951">UI</text><rect fill="#F8F8F8" height="30.2969" style="stroke: #383838; stroke-width: 1.5;" width="71" x="505" y="51"/><text fill="#000000" font-family="sans-serif" font-size="14" lengthAdjust="spacingAndGlyphs" textLength="57" x="512" y="70.9951">Sistema</text><rect fill="#FFFFFF" height="44.1328" style="stroke: #383838; stroke-width: 1.0;" width="10" x="325.5" y="113.2969"/><rect fill="#FFFFFF" height="29.2656" style="stroke: #383838; stroke-width: 1.0;" width="10" x="325.5" y="201.6953"/><rect fill="#FFFFFF" height="29.1328" style="stroke: #383838; stroke-width: 1.0;" width="10" x="325.5" y="260.0938"/><rect fill="#FFFFFF" height="29.1328" style="stroke: #383838; stroke-width: 1.0;" width="10" x="325.5" y="318.3594"/><rect fill="#FFFFFF" height="29.1328" style="stroke: #383838; stroke-width: 1.0;" width="10" x="535.5" y="289.2266"/><polygon fill="#383838" points="313.5,109.2969,323.5,113.2969,313.5,117.2969,317.5,113.2969" style="stroke: #383838; stroke-width: 1.0;"/><line style="stroke: #383838; stroke-width: 1.0;" x1="53.5" x2="319.5" y1="113.2969" y2="113.2969"/><text fill="#000000" font-family="sans-serif" font-size="13" font-weight="bold" lengthAdjust="spacingAndGlyphs" textLength="9" x="60.5" y="108.3638">1</text><text fill="#000000" font-family="sans-serif" font-size="13" lengthAdjust="spacingAndGlyphs" textLength="239" x="73.5" y="108.3638">Richiesta pagina "Sessioni di lavoro"</text><polygon fill="#383838" points="64.5,153.4297,54.5,157.4297,64.5,161.4297,60.5,157.4297" style="stroke: #383838; stroke-width: 1.0;"/><line style="stroke: #383838; stroke-width: 1.0; stroke-dasharray: 2.0,2.0;" x1="58.5" x2="329.5" y1="157.4297" y2="157.4297"/><text fill="#000000" font-family="sans-serif" font-size="13" font-weight="bold" lengthAdjust="spacingAndGlyphs" textLength="9" x="70.5" y="145.063">2</text><text fill="#000000" font-family="sans-serif" font-size="13" lengthAdjust="spacingAndGlyphs" textLength="185" x="83.5" y="137.4966">Visualizzazione della pagina</text><text fill="#000000" font-family="sans-serif" font-size="13" lengthAdjust="spacingAndGlyphs" textLength="127" x="83.5" y="152.6294">"Sessioni di lavoro"</text><polygon fill="#383838" points="313.5,197.6953,323.5,201.6953,313.5,205.6953,317.5,201.6953" style="stroke: #383838; stroke-width: 1.0;"/><line style="stroke: #383838; stroke-width: 1.0;" x1="53.5" x2="319.5" y1="201.6953" y2="201.6953"/><text fill="#000000" font-family="sans-serif" font-size="13" font-weight="bold" lengthAdjust="spacingAndGlyphs" textLength="9" x="60.5" y="189.3286">3</text><text fill="#000000" font-family="sans-serif" font-size="13" lengthAdjust="spacingAndGlyphs" textLength="161" x="73.5" y="181.7622">Apertura di una sessione</text><text fill="#000000" font-family="sans-serif" font-size="13" lengthAdjust="spacingAndGlyphs" textLength="121" x="73.5" y="196.895">di lavoro esistente</text><polygon fill="#383838" points="64.5,226.9609,54.5,230.9609,64.5,234.9609,60.5,230.9609" style="stroke: #383838; stroke-width: 1.0;"/><line style="stroke: #383838; stroke-width: 1.0; stroke-dasharray: 2.0,2.0;" x1="58.5" x2="329.5" y1="230.9609" y2="230.9609"/><text fill="#000000" font-family="sans-serif" font-size="13" font-weight="bold" lengthAdjust="spacingAndGlyphs" textLength="9" x="70.5" y="226.0278">4</text><text fill="#000000" font-family="sans-serif" font-size="13" lengthAdjust="spacingAndGlyphs" textLength="235" x="83.5" y="226.0278">Visualizzazione "sessione di lavoro"</text><polygon fill="#383838" points="313.5,256.0938,323.5,260.0938,313.5,264.0938,317.5,260.0938" style="stroke: #383838; stroke-width: 1.0;"/><line style="stroke: #383838; stroke-width: 1.0;" x1="53.5" x2="319.5" y1="260.0938" y2="260.0938"/><text fill="#000000" font-family="sans-serif" font-size="13" font-weight="bold" lengthAdjust="spacingAndGlyphs" textLength="9" x="60.5" y="255.1606">5</text><text fill="#000000" font-family="sans-serif" font-size="13" lengthAdjust="spacingAndGlyphs" textLength="206" x="73.5" y="255.1606">Click sul pulsante "Genera link"</text><polygon fill="#383838" points="523.5,285.2266,533.5,289.2266,523.5,293.2266,527.5,289.2266" style="stroke: #383838; stroke-width: 1.0;"/><line style="stroke: #383838; stroke-width: 1.0;" x1="330.5" x2="529.5" y1="289.2266" y2="289.2266"/><text fill="#000000" font-family="sans-serif" font-size="13" font-weight="bold" lengthAdjust="spacingAndGlyphs" textLength="9" x="337.5" y="284.2935">6</text><text fill="#000000" font-family="sans-serif" font-size="13" lengthAdjust="spacingAndGlyphs" textLength="168" x="350.5" y="284.2935">Richiedi nuovo link di join</text><polygon fill="#383838" points="346.5,314.3594,336.5,318.3594,346.5,322.3594,342.5,318.3594" style="stroke: #383838; stroke-width: 1.0;"/><line style="stroke: #383838; stroke-width: 1.0; stroke-dasharray: 2.0,2.0;" x1="340.5" x2="539.5" y1="318.3594" y2="318.3594"/><text fill="#000000" font-family="sans-serif" font-size="13" font-weight="bold" lengthAdjust="spacingAndGlyphs" textLength="9" x="352.5" y="313.4263">7</text><text fill="#000000" font-family="sans-serif" font-size="13" lengthAdjust="spacingAndGlyphs" textLength="140" x="365.5" y="313.4263">Restituisci link di join</text><polygon fill="#383838" points="64.5,343.4922,54.5,347.4922,64.5,351.4922,60.5,347.4922" style="stroke: #383838; stroke-width: 1.0;"/><line style="stroke: #383838; stroke-width: 1.0; stroke-dasharray: 2.0,2.0;" x1="58.5" x2="329.5" y1="347.4922" y2="347.4922"/><text fill="#000000" font-family="sans-serif" font-size="13" font-weight="bold" lengthAdjust="spacingAndGlyphs" textLength="9" x="70.5" y="342.5591">8</text><text fill="#000000" font-family="sans-serif" font-size="13" lengthAdjust="spacingAndGlyphs" textLength="116" x="83.5" y="342.5591">Mostra link di join</text></g></svg>