<?xml version="1.0" encoding="UTF-8" standalone="no"?><svg xmlns="http://www.w3.org/2000/svg" xmlns:xlink="http://www.w3.org/1999/xlink" contentScriptType="application/ecmascript" contentStyleType="text/css" height="368px" preserveAspectRatio="none" style="width:837px;height:368px;" version="1.1" viewBox="0 0 837 368" width="837px" zoomAndPan="magnify"><defs><filter height="300%" id="fne6ctu" width="300%" x="-1" y="-1"><feGaussianBlur result="blurOut" stdDeviation="2.0"/><feColorMatrix in="blurOut" result="blurOut2" type="matrix" values="0 0 0 0 0 0 0 0 0 0 0 0 0 0 0 0 0 0 .4 0"/><feOffset dx="4.0" dy="4.0" in="blurOut2" result="blurOut3"/><feBlend in="SourceGraphic" in2="blurOut3" mode="normal"/></filter></defs><g><rect fill="#FFFFFF" filter="url(#fne6ctu)" height="21" style="stroke: #A80036; stroke-width: 1.0;" width="10" x="29.5" y="96.2969"/><rect fill="#FFFFFF" filter="url(#fne6ctu)" height="58.2656" style="stroke: #A80036; stroke-width: 1.0;" width="10" x="29.5" y="146.4297"/><rect fill="#FFFFFF" filter="url(#fne6ctu)" height="9.1328" style="stroke: #A80036; stroke-width: 1.0;" width="10" x="29.5" y="349.3594"/><rect fill="#FFFFFF" filter="url(#fne6ctu)" height="29.1328" style="stroke: #A80036; stroke-width: 1.0;" width="10" x="383.5" y="117.2969"/><rect fill="#FFFFFF" filter="url(#fne6ctu)" height="44.1328" style="stroke: #A80036; stroke-width: 1.0;" width="10" x="383.5" y="204.6953"/><rect fill="#FFFFFF" filter="url(#fne6ctu)" height="29.1328" style="stroke: #A80036; stroke-width: 1.0;" width="10" x="383.5" y="320.2266"/><rect fill="#FFFFFF" filter="url(#fne6ctu)" height="71.3984" style="stroke: #A80036; stroke-width: 1.0;" width="10" x="626.5" y="248.8281"/><line style="stroke: #A80036; stroke-width: 1.0; stroke-dasharray: 5.0,5.0;" x1="34" x2="34" y1="86.2969" y2="367.4922"/><line style="stroke: #A80036; stroke-width: 1.0; stroke-dasharray: 5.0,5.0;" x1="388.5" x2="388.5" y1="86.2969" y2="367.4922"/><line style="stroke: #A80036; stroke-width: 1.0; stroke-dasharray: 5.0,5.0;" x1="631" x2="631" y1="86.2969" y2="367.4922"/><text fill="#000000" font-family="sans-serif" font-size="14" lengthAdjust="spacingAndGlyphs" textLength="47" x="8" y="82.9951">Utente</text><ellipse cx="34.5" cy="13" fill="#FEFECE" filter="url(#fne6ctu)" rx="8" ry="8" style="stroke: #A80036; stroke-width: 2.0;"/><path d="M34.5,21 L34.5,48 M21.5,29 L47.5,29 M34.5,48 L21.5,63 M34.5,48 L47.5,63 " fill="#FEFECE" filter="url(#fne6ctu)" style="stroke: #A80036; stroke-width: 2.0;"/><rect fill="#FEFECE" filter="url(#fne6ctu)" height="30.2969" style="stroke: #A80036; stroke-width: 1.5;" width="28" x="372.5" y="51"/><text fill="#000000" font-family="sans-serif" font-size="14" lengthAdjust="spacingAndGlyphs" textLength="14" x="379.5" y="70.9951">UI</text><rect fill="#FEFECE" filter="url(#fne6ctu)" height="30.2969" style="stroke: #A80036; stroke-width: 1.5;" width="71" x="594" y="51"/><text fill="#000000" font-family="sans-serif" font-size="14" lengthAdjust="spacingAndGlyphs" textLength="57" x="601" y="70.9951">Sistema</text><rect fill="#FFFFFF" filter="url(#fne6ctu)" height="21" style="stroke: #A80036; stroke-width: 1.0;" width="10" x="29.5" y="96.2969"/><rect fill="#FFFFFF" filter="url(#fne6ctu)" height="58.2656" style="stroke: #A80036; stroke-width: 1.0;" width="10" x="29.5" y="146.4297"/><rect fill="#FFFFFF" filter="url(#fne6ctu)" height="9.1328" style="stroke: #A80036; stroke-width: 1.0;" width="10" x="29.5" y="349.3594"/><rect fill="#FFFFFF" filter="url(#fne6ctu)" height="29.1328" style="stroke: #A80036; stroke-width: 1.0;" width="10" x="383.5" y="117.2969"/><rect fill="#FFFFFF" filter="url(#fne6ctu)" height="44.1328" style="stroke: #A80036; stroke-width: 1.0;" width="10" x="383.5" y="204.6953"/><rect fill="#FFFFFF" filter="url(#fne6ctu)" height="29.1328" style="stroke: #A80036; stroke-width: 1.0;" width="10" x="383.5" y="320.2266"/><rect fill="#FFFFFF" filter="url(#fne6ctu)" height="71.3984" style="stroke: #A80036; stroke-width: 1.0;" width="10" x="626.5" y="248.8281"/><polygon fill="#A80036" points="371.5,113.2969,381.5,117.2969,371.5,121.2969,375.5,117.2969" style="stroke: #A80036; stroke-width: 1.0;"/><line style="stroke: #A80036; stroke-width: 1.0;" x1="34.5" x2="377.5" y1="117.2969" y2="117.2969"/><text fill="#000000" font-family="sans-serif" font-size="13" font-weight="bold" lengthAdjust="spacingAndGlyphs" textLength="9" x="41.5" y="112.3638">1</text><text fill="#000000" font-family="sans-serif" font-size="13" lengthAdjust="spacingAndGlyphs" textLength="247" x="54.5" y="112.3638">1. Click sull'icona "Nuovo dispositivo"</text><polygon fill="#A80036" points="50.5,142.4297,40.5,146.4297,50.5,150.4297,46.5,146.4297" style="stroke: #A80036; stroke-width: 1.0;"/><line style="stroke: #A80036; stroke-width: 1.0; stroke-dasharray: 2.0,2.0;" x1="44.5" x2="387.5" y1="146.4297" y2="146.4297"/><text fill="#000000" font-family="sans-serif" font-size="13" font-weight="bold" lengthAdjust="spacingAndGlyphs" textLength="9" x="56.5" y="141.4966">2</text><text fill="#000000" font-family="sans-serif" font-size="13" lengthAdjust="spacingAndGlyphs" textLength="208" x="69.5" y="141.4966">2. Mostra tipologie di dispositivi</text><polygon fill="#A80036" points="376.5,171.5625,386.5,175.5625,376.5,179.5625,380.5,175.5625" style="stroke: #A80036; stroke-width: 1.0;"/><line style="stroke: #A80036; stroke-width: 1.0;" x1="39.5" x2="382.5" y1="175.5625" y2="175.5625"/><text fill="#000000" font-family="sans-serif" font-size="13" font-weight="bold" lengthAdjust="spacingAndGlyphs" textLength="9" x="46.5" y="170.6294">3</text><text fill="#000000" font-family="sans-serif" font-size="13" lengthAdjust="spacingAndGlyphs" textLength="264" x="59.5" y="170.6294">3. Click sul tipo di dispositivo desiderato</text><polygon fill="#A80036" points="371.5,200.6953,381.5,204.6953,371.5,208.6953,375.5,204.6953" style="stroke: #A80036; stroke-width: 1.0;"/><line style="stroke: #A80036; stroke-width: 1.0;" x1="34.5" x2="377.5" y1="204.6953" y2="204.6953"/><text fill="#000000" font-family="sans-serif" font-size="13" font-weight="bold" lengthAdjust="spacingAndGlyphs" textLength="9" x="41.5" y="199.7622">4</text><text fill="#000000" font-family="sans-serif" font-size="13" lengthAdjust="spacingAndGlyphs" textLength="312" x="54.5" y="199.7622">4. Click sul canvas per posizionare il dispositivo</text><polygon fill="#A80036" points="614.5,244.8281,624.5,248.8281,614.5,252.8281,618.5,248.8281" style="stroke: #A80036; stroke-width: 1.0;"/><line style="stroke: #A80036; stroke-width: 1.0;" x1="388.5" x2="620.5" y1="248.8281" y2="248.8281"/><text fill="#000000" font-family="sans-serif" font-size="13" font-weight="bold" lengthAdjust="spacingAndGlyphs" textLength="9" x="395.5" y="236.4614">5</text><text fill="#000000" font-family="sans-serif" font-size="13" lengthAdjust="spacingAndGlyphs" textLength="143" x="408.5" y="228.895">5. Richiesta creazione</text><text fill="#000000" font-family="sans-serif" font-size="13" lengthAdjust="spacingAndGlyphs" textLength="95" x="408.5" y="244.0278">del dispositivo</text><line style="stroke: #A80036; stroke-width: 1.0; stroke-dasharray: 2.0,2.0;" x1="636.5" x2="678.5" y1="278.2266" y2="278.2266"/><line style="stroke: #A80036; stroke-width: 1.0; stroke-dasharray: 2.0,2.0;" x1="678.5" x2="678.5" y1="278.2266" y2="291.2266"/><line style="stroke: #A80036; stroke-width: 1.0; stroke-dasharray: 2.0,2.0;" x1="637.5" x2="678.5" y1="291.2266" y2="291.2266"/><polygon fill="#A80036" points="647.5,287.2266,637.5,291.2266,647.5,295.2266,643.5,291.2266" style="stroke: #A80036; stroke-width: 1.0;"/><text fill="#000000" font-family="sans-serif" font-size="13" font-weight="bold" lengthAdjust="spacingAndGlyphs" textLength="9" x="643.5" y="273.1606">6</text><text fill="#000000" font-family="sans-serif" font-size="13" lengthAdjust="spacingAndGlyphs" textLength="180" x="656.5" y="273.1606">6. Creazione del dispositivo</text><polygon fill="#A80036" points="404.5,316.2266,394.5,320.2266,404.5,324.2266,400.5,320.2266" style="stroke: #A80036; stroke-width: 1.0;"/><line style="stroke: #A80036; stroke-width: 1.0; stroke-dasharray: 2.0,2.0;" x1="398.5" x2="630.5" y1="320.2266" y2="320.2266"/><text fill="#000000" font-family="sans-serif" font-size="13" font-weight="bold" lengthAdjust="spacingAndGlyphs" textLength="9" x="410.5" y="315.2935">7</text><text fill="#000000" font-family="sans-serif" font-size="13" lengthAdjust="spacingAndGlyphs" textLength="201" x="423.5" y="315.2935">7. Notifica "Dispositivo creato"</text><polygon fill="#A80036" points="50.5,345.3594,40.5,349.3594,50.5,353.3594,46.5,349.3594" style="stroke: #A80036; stroke-width: 1.0;"/><line style="stroke: #A80036; stroke-width: 1.0;" x1="44.5" x2="387.5" y1="349.3594" y2="349.3594"/><text fill="#000000" font-family="sans-serif" font-size="13" font-weight="bold" lengthAdjust="spacingAndGlyphs" textLength="9" x="56.5" y="344.4263">8</text><text fill="#000000" font-family="sans-serif" font-size="13" lengthAdjust="spacingAndGlyphs" textLength="208" x="69.5" y="344.4263">8. Mostra dispositivo sul canvas</text></g></svg>