<?xml version="1.0" encoding="UTF-8" standalone="no"?><svg xmlns="http://www.w3.org/2000/svg" xmlns:xlink="http://www.w3.org/1999/xlink" contentScriptType="application/ecmascript" contentStyleType="text/css" height="326px" preserveAspectRatio="none" style="width:578px;height:326px;" version="1.1" viewBox="0 0 578 326" width="578px" zoomAndPan="magnify"><defs><filter height="300%" id="fz7l50e" width="300%" x="-1" y="-1"><feGaussianBlur result="blurOut" stdDeviation="2.0"/><feColorMatrix in="blurOut" result="blurOut2" type="matrix" values="0 0 0 0 0 0 0 0 0 0 0 0 0 0 0 0 0 0 .4 0"/><feOffset dx="4.0" dy="4.0" in="blurOut2" result="blurOut3"/><feBlend in="SourceGraphic" in2="blurOut3" mode="normal"/></filter></defs><g><rect fill="#FFFFFF" filter="url(#fz7l50e)" height="21" style="stroke: #A80036; stroke-width: 1.0;" width="10" x="29.5" y="96.2969"/><rect fill="#FFFFFF" filter="url(#fz7l50e)" height="29.1328" style="stroke: #A80036; stroke-width: 1.0;" width="10" x="29.5" y="146.4297"/><rect fill="#FFFFFF" filter="url(#fz7l50e)" height="30" style="stroke: #A80036; stroke-width: 1.0;" width="10" x="29.5" y="276.9609"/><rect fill="#FFFFFF" filter="url(#fz7l50e)" height="29.1328" style="stroke: #A80036; stroke-width: 1.0;" width="10" x="366.5" y="117.2969"/><rect fill="#FFFFFF" filter="url(#fz7l50e)" height="140.6641" style="stroke: #A80036; stroke-width: 1.0;" width="10" x="366.5" y="175.5625"/><line style="stroke: #A80036; stroke-width: 1.0; stroke-dasharray: 5.0,5.0;" x1="34" x2="34" y1="86.2969" y2="325.2266"/><line style="stroke: #A80036; stroke-width: 1.0; stroke-dasharray: 5.0,5.0;" x1="371" x2="371" y1="86.2969" y2="325.2266"/><text fill="#000000" font-family="sans-serif" font-size="14" lengthAdjust="spacingAndGlyphs" textLength="47" x="8" y="82.9951">Utente</text><ellipse cx="34.5" cy="13" fill="#FEFECE" filter="url(#fz7l50e)" rx="8" ry="8" style="stroke: #A80036; stroke-width: 2.0;"/><path d="M34.5,21 L34.5,48 M21.5,29 L47.5,29 M34.5,48 L21.5,63 M34.5,48 L47.5,63 " fill="#FEFECE" filter="url(#fz7l50e)" style="stroke: #A80036; stroke-width: 2.0;"/><rect fill="#FEFECE" filter="url(#fz7l50e)" height="30.2969" style="stroke: #A80036; stroke-width: 1.5;" width="71" x="334" y="51"/><text fill="#000000" font-family="sans-serif" font-size="14" lengthAdjust="spacingAndGlyphs" textLength="57" x="341" y="70.9951">Sistema</text><rect fill="#FFFFFF" filter="url(#fz7l50e)" height="21" style="stroke: #A80036; stroke-width: 1.0;" width="10" x="29.5" y="96.2969"/><rect fill="#FFFFFF" filter="url(#fz7l50e)" height="29.1328" style="stroke: #A80036; stroke-width: 1.0;" width="10" x="29.5" y="146.4297"/><rect fill="#FFFFFF" filter="url(#fz7l50e)" height="30" style="stroke: #A80036; stroke-width: 1.0;" width="10" x="29.5" y="276.9609"/><rect fill="#FFFFFF" filter="url(#fz7l50e)" height="29.1328" style="stroke: #A80036; stroke-width: 1.0;" width="10" x="366.5" y="117.2969"/><rect fill="#FFFFFF" filter="url(#fz7l50e)" height="140.6641" style="stroke: #A80036; stroke-width: 1.0;" width="10" x="366.5" y="175.5625"/><polygon fill="#A80036" points="354.5,113.2969,364.5,117.2969,354.5,121.2969,358.5,117.2969" style="stroke: #A80036; stroke-width: 1.0;"/><line style="stroke: #A80036; stroke-width: 1.0;" x1="34.5" x2="360.5" y1="117.2969" y2="117.2969"/><text fill="#000000" font-family="sans-serif" font-size="13" font-weight="bold" lengthAdjust="spacingAndGlyphs" textLength="9" x="41.5" y="112.3638">1</text><text fill="#000000" font-family="sans-serif" font-size="13" lengthAdjust="spacingAndGlyphs" textLength="199" x="54.5" y="112.3638">1. Richiesta pagina "Ambienti"</text><polygon fill="#A80036" points="50.5,142.4297,40.5,146.4297,50.5,150.4297,46.5,146.4297" style="stroke: #A80036; stroke-width: 1.0;"/><line style="stroke: #A80036; stroke-width: 1.0; stroke-dasharray: 2.0,2.0;" x1="44.5" x2="370.5" y1="146.4297" y2="146.4297"/><text fill="#000000" font-family="sans-serif" font-size="13" font-weight="bold" lengthAdjust="spacingAndGlyphs" textLength="9" x="56.5" y="141.4966">2</text><text fill="#000000" font-family="sans-serif" font-size="13" lengthAdjust="spacingAndGlyphs" textLength="295" x="69.5" y="141.4966">2. Visualizzazione pagina lista degli ambienti</text><polygon fill="#A80036" points="354.5,171.5625,364.5,175.5625,354.5,179.5625,358.5,175.5625" style="stroke: #A80036; stroke-width: 1.0;"/><line style="stroke: #A80036; stroke-width: 1.0;" x1="34.5" x2="360.5" y1="175.5625" y2="175.5625"/><text fill="#000000" font-family="sans-serif" font-size="13" font-weight="bold" lengthAdjust="spacingAndGlyphs" textLength="9" x="41.5" y="170.6294">3</text><text fill="#000000" font-family="sans-serif" font-size="13" lengthAdjust="spacingAndGlyphs" textLength="184" x="54.5" y="170.6294">3. Click sull'ambiente scelto</text><line style="stroke: #A80036; stroke-width: 1.0;" x1="376.5" x2="418.5" y1="219.9609" y2="219.9609"/><line style="stroke: #A80036; stroke-width: 1.0;" x1="418.5" x2="418.5" y1="219.9609" y2="232.9609"/><line style="stroke: #A80036; stroke-width: 1.0;" x1="377.5" x2="418.5" y1="232.9609" y2="232.9609"/><polygon fill="#A80036" points="387.5,228.9609,377.5,232.9609,387.5,236.9609,383.5,232.9609" style="stroke: #A80036; stroke-width: 1.0;"/><text fill="#000000" font-family="sans-serif" font-size="13" font-weight="bold" lengthAdjust="spacingAndGlyphs" textLength="9" x="383.5" y="207.3286">4</text><text fill="#000000" font-family="sans-serif" font-size="13" lengthAdjust="spacingAndGlyphs" textLength="181" x="396.5" y="199.7622">4. Verifica della presenza di</text><text fill="#000000" font-family="sans-serif" font-size="13" lengthAdjust="spacingAndGlyphs" textLength="114" x="396.5" y="214.895">sessioni di lavoro</text><polygon fill="#A80036" points="50.5,272.9609,40.5,276.9609,50.5,280.9609,46.5,276.9609" style="stroke: #A80036; stroke-width: 1.0;"/><line style="stroke: #A80036; stroke-width: 1.0; stroke-dasharray: 2.0,2.0;" x1="44.5" x2="365.5" y1="276.9609" y2="276.9609"/><text fill="#000000" font-family="sans-serif" font-size="13" font-weight="bold" lengthAdjust="spacingAndGlyphs" textLength="9" x="56.5" y="264.5942">5</text><text fill="#000000" font-family="sans-serif" font-size="13" lengthAdjust="spacingAndGlyphs" textLength="210" x="69.5" y="257.0278">5. Visualizzazione delle sessioni</text><text fill="#000000" font-family="sans-serif" font-size="13" lengthAdjust="spacingAndGlyphs" textLength="227" x="69.5" y="272.1606">di lavoro disponibili per l'ambiente</text></g></svg>