<?xml version="1.0" encoding="UTF-8" standalone="no"?><svg xmlns="http://www.w3.org/2000/svg" xmlns:xlink="http://www.w3.org/1999/xlink" contentScriptType="application/ecmascript" contentStyleType="text/css" height="319px" preserveAspectRatio="none" style="width:784px;height:319px;" version="1.1" viewBox="0 0 784 319" width="784px" zoomAndPan="magnify"><defs/><g><!--cluster PCUtente--><polygon fill="#FFFFFF" points="14,95.5,24,85.5,239,85.5,239,249.5,229,259.5,14,259.5,14,95.5" style="stroke: #000000; stroke-width: 2.0;"/><line style="stroke: #000000; stroke-width: 2.0;" x1="229" x2="238" y1="95.5" y2="86.5"/><line style="stroke: #000000; stroke-width: 2.0;" x1="14" x2="229" y1="95.5" y2="95.5"/><line style="stroke: #000000; stroke-width: 2.0;" x1="229" x2="229" y1="95.5" y2="259.5"/><text fill="#000000" font-family="sans-serif" font-size="14" font-weight="bold" lengthAdjust="spacingAndGlyphs" textLength="75" x="85" y="111.4951">PCUtente</text><!--cluster WebBrowser--><polygon fill="#FFFFFF" points="38,143.5,48,133.5,215,133.5,215,225.5,205,235.5,38,235.5,38,143.5" style="stroke: #000000; stroke-width: 2.0;"/><line style="stroke: #000000; stroke-width: 2.0;" x1="205" x2="214" y1="143.5" y2="134.5"/><line style="stroke: #000000; stroke-width: 2.0;" x1="38" x2="205" y1="143.5" y2="143.5"/><line style="stroke: #000000; stroke-width: 2.0;" x1="205" x2="205" y1="143.5" y2="235.5"/><text fill="#000000" font-family="sans-serif" font-size="14" font-weight="bold" lengthAdjust="spacingAndGlyphs" textLength="101" x="72" y="159.4951">WebBrowser</text><!--cluster CiViElInfrastructure--><polygon fill="#FFFFFF" points="263,24.5,426,24.5,433,46.7969,783,46.7969,783,253.5,263,253.5,263,24.5" style="stroke: #000000; stroke-width: 2.0;"/><line style="stroke: #000000; stroke-width: 2.0;" x1="263" x2="433" y1="46.7969" y2="46.7969"/><text fill="#000000" font-family="sans-serif" font-size="14" font-weight="bold" lengthAdjust="spacingAndGlyphs" textLength="157" x="267" y="39.4951">CiViElInfrastructure</text><!--entity WebUI--><polygon fill="#F8F8F8" points="83,183.5,93,173.5,169,173.5,169,209.7969,159,219.7969,83,219.7969,83,183.5" style="stroke: #000000; stroke-width: 1.5;"/><line style="stroke: #000000; stroke-width: 1.5;" x1="159" x2="168" y1="183.5" y2="174.5"/><line style="stroke: #000000; stroke-width: 1.5;" x1="83" x2="159" y1="183.5" y2="183.5"/><line style="stroke: #000000; stroke-width: 1.5;" x1="159" x2="159" y1="183.5" y2="219.7969"/><text fill="#000000" font-family="sans-serif" font-size="14" lengthAdjust="spacingAndGlyphs" textLength="46" x="98" y="206.4951">WebUI</text><!--entity WebService--><polygon fill="#F8F8F8" points="279,189.5,289,179.5,404,179.5,404,215.7969,394,225.7969,279,225.7969,279,189.5" style="stroke: #000000; stroke-width: 1.5;"/><line style="stroke: #000000; stroke-width: 1.5;" x1="394" x2="403" y1="189.5" y2="180.5"/><line style="stroke: #000000; stroke-width: 1.5;" x1="279" x2="394" y1="189.5" y2="189.5"/><line style="stroke: #000000; stroke-width: 1.5;" x1="394" x2="394" y1="189.5" y2="225.7969"/><text fill="#000000" font-family="sans-serif" font-size="14" lengthAdjust="spacingAndGlyphs" textLength="85" x="294" y="212.4951">WebService</text><!--entity DAO--><rect fill="#F8F8F8" height="36.2969" style="stroke: #383838; stroke-width: 1.5;" width="52" x="507.5" y="201.5"/><rect fill="#F8F8F8" height="5" style="stroke: #383838; stroke-width: 1.5;" width="10" x="502.5" y="206.5"/><rect fill="#F8F8F8" height="5" style="stroke: #383838; stroke-width: 1.5;" width="10" x="502.5" y="227.7969"/><text fill="#000000" font-family="sans-serif" font-size="14" lengthAdjust="spacingAndGlyphs" textLength="32" x="517.5" y="224.4951">DAO</text><!--entity Database--><path d="M671,202 C671,192 715,192 715,192 C715,192 759,192 759,202 L759,227.2969 C759,237.2969 715,237.2969 715,237.2969 C715,237.2969 671,237.2969 671,227.2969 L671,202 " fill="#F8F8F8" style="stroke: #000000; stroke-width: 1.5;"/><path d="M671,202 C671,212 715,212 715,212 C715,212 759,212 759,202 " fill="none" style="stroke: #000000; stroke-width: 1.5;"/><text fill="#000000" font-family="sans-serif" font-size="14" lengthAdjust="spacingAndGlyphs" textLength="68" x="681" y="228.9951">Database</text><!--entity ContainerEngine--><rect fill="#F8F8F8" height="36.2969" style="stroke: #383838; stroke-width: 1.5;" width="139" x="464" y="130.5"/><rect fill="#F8F8F8" height="5" style="stroke: #383838; stroke-width: 1.5;" width="10" x="459" y="135.5"/><rect fill="#F8F8F8" height="5" style="stroke: #383838; stroke-width: 1.5;" width="10" x="459" y="156.7969"/><text fill="#000000" font-family="sans-serif" font-size="14" lengthAdjust="spacingAndGlyphs" textLength="119" x="474" y="153.4951">ContainerEngine</text><!--entity TerminalProxy--><rect fill="#F8F8F8" height="36.2969" style="stroke: #383838; stroke-width: 1.5;" width="123" x="472" y="59.5"/><rect fill="#F8F8F8" height="5" style="stroke: #383838; stroke-width: 1.5;" width="10" x="467" y="64.5"/><rect fill="#F8F8F8" height="5" style="stroke: #383838; stroke-width: 1.5;" width="10" x="467" y="85.7969"/><text fill="#000000" font-family="sans-serif" font-size="14" lengthAdjust="spacingAndGlyphs" textLength="103" x="482" y="82.4951">TerminalProxy</text><!--entity KernelLinux--><rect fill="#F8F8F8" height="36.2969" style="stroke: #383838; stroke-width: 1.5;" width="104" x="663" y="90.5"/><rect fill="#F8F8F8" height="5" style="stroke: #383838; stroke-width: 1.5;" width="10" x="658" y="95.5"/><rect fill="#F8F8F8" height="5" style="stroke: #383838; stroke-width: 1.5;" width="10" x="658" y="116.7969"/><text fill="#000000" font-family="sans-serif" font-size="14" lengthAdjust="spacingAndGlyphs" textLength="84" x="673" y="113.4951">KernelLinux</text><!--entity LDAPServer--><path d="M481.5,283 C481.5,273 533.5,273 533.5,273 C533.5,273 585.5,273 585.5,283 L585.5,308.2969 C585.5,318.2969 533.5,318.2969 533.5,318.2969 C533.5,318.2969 481.5,318.2969 481.5,308.2969 L481.5,283 " fill="#F8F8F8" style="stroke: #000000; stroke-width: 1.5;"/><path d="M481.5,283 C481.5,293 533.5,293 533.5,293 C533.5,293 585.5,293 585.5,283 " fill="none" style="stroke: #000000; stroke-width: 1.5;"/><text fill="#000000" font-family="sans-serif" font-size="14" lengthAdjust="spacingAndGlyphs" textLength="84" x="491.5" y="309.9951">LDAPServer</text><path d="M404.1023,208.0429 C439.1206,211.1435 480.912,214.8438 507.3311,217.183 " fill="none" style="stroke: #383838; stroke-width: 1.0;"/><path d="M559.5045,218.7836 C588.5185,217.9843 635.9561,216.6775 670.8177,215.7171 " fill="none" style="stroke: #383838; stroke-width: 1.0;"/><path d="M404.1023,184.8931 C425.0039,179.0145 448.3184,172.4573 469.3369,166.5459 " fill="none" style="stroke: #383838; stroke-width: 1.0;"/><path d="M595.2009,88.0384 C617.1932,91.7947 641.73,95.9856 662.8422,99.5915 " fill="none" style="stroke: #383838; stroke-width: 1.0;"/><path d="M603.1536,133.1494 C622.9474,128.7871 644.1587,124.1124 662.731,120.0193 " fill="none" style="stroke: #383838; stroke-width: 1.0;"/><path d="M169.0917,197.6998 C200.5359,198.5752 243.638,199.7753 278.879,200.7565 " fill="none" style="stroke: #383838; stroke-width: 1.0;"/><path d="M169.2238,183.8776 C241.8375,162.6726 388.5301,119.8348 471.909,95.4861 " fill="none" style="stroke: #383838; stroke-width: 1.0;"/><path d="M389.4544,225.7279 C419.2218,240.1465 457.2931,258.5873 486.8192,272.889 " fill="none" style="stroke: #383838; stroke-width: 1.0;"/></g></svg>