<?xml version="1.0" encoding="UTF-8" standalone="no"?><svg xmlns="http://www.w3.org/2000/svg" xmlns:xlink="http://www.w3.org/1999/xlink" contentScriptType="application/ecmascript" contentStyleType="text/css" height="656px" preserveAspectRatio="none" style="width:262px;height:656px;" version="1.1" viewBox="0 0 262 656" width="262px" zoomAndPan="magnify"><defs/><g><!--class Utente--><rect fill="#F8F8F8" height="112.0234" style="stroke: #383838; stroke-width: 1.5;" width="84" x="6" y="116"/><ellipse cx="25.95" cy="132" fill="#C2C2C2" rx="11" ry="11" style="stroke: #383838; stroke-width: 1.0;"/><path d="M28.9188,137.6406 Q28.3406,137.9375 27.7,138.0859 Q27.0594,138.2344 26.3563,138.2344 Q23.8563,138.2344 22.5359,136.5859 Q21.2156,134.9375 21.2156,131.8125 Q21.2156,128.6875 22.5359,127.0313 Q23.8563,125.375 26.3563,125.375 Q27.0594,125.375 27.7078,125.5313 Q28.3563,125.6875 28.9188,125.9844 L28.9188,128.7031 Q28.2938,128.125 27.7,127.8516 Q27.1063,127.5781 26.4813,127.5781 Q25.1375,127.5781 24.45,128.6484 Q23.7625,129.7188 23.7625,131.8125 Q23.7625,133.9063 24.45,134.9766 Q25.1375,136.0469 26.4813,136.0469 Q27.1063,136.0469 27.7,135.7734 Q28.2938,135.5 28.9188,134.9219 L28.9188,137.6406 Z "/><text fill="#000000" font-family="sans-serif" font-size="12" lengthAdjust="spacingAndGlyphs" textLength="41" x="41.05" y="136.1543">Utente</text><line style="stroke: #383838; stroke-width: 1.5;" x1="7" x2="89" y1="148" y2="148"/><text fill="#000000" font-family="sans-serif" font-size="11" lengthAdjust="spacingAndGlyphs" textLength="72" x="12" y="162.2104">Identificativo</text><text fill="#000000" font-family="sans-serif" font-size="11" lengthAdjust="spacingAndGlyphs" textLength="30" x="12" y="175.0151">Login</text><text fill="#000000" font-family="sans-serif" font-size="11" lengthAdjust="spacingAndGlyphs" textLength="54" x="12" y="187.8198">Password</text><text fill="#000000" font-family="sans-serif" font-size="11" lengthAdjust="spacingAndGlyphs" textLength="33" x="12" y="200.6245">Nome</text><text fill="#000000" font-family="sans-serif" font-size="11" lengthAdjust="spacingAndGlyphs" textLength="54" x="12" y="213.4292">Cognome</text><line style="stroke: #383838; stroke-width: 1.5;" x1="7" x2="89" y1="220.0234" y2="220.0234"/><!--class SessioneDiLavoro--><rect fill="#F8F8F8" height="73.6094" style="stroke: #383838; stroke-width: 1.5;" width="136" x="125" y="135"/><ellipse cx="140" cy="151" fill="#C2C2C2" rx="11" ry="11" style="stroke: #383838; stroke-width: 1.0;"/><path d="M142.9688,156.6406 Q142.3906,156.9375 141.75,157.0859 Q141.1094,157.2344 140.4063,157.2344 Q137.9063,157.2344 136.5859,155.5859 Q135.2656,153.9375 135.2656,150.8125 Q135.2656,147.6875 136.5859,146.0313 Q137.9063,144.375 140.4063,144.375 Q141.1094,144.375 141.7578,144.5313 Q142.4063,144.6875 142.9688,144.9844 L142.9688,147.7031 Q142.3438,147.125 141.75,146.8516 Q141.1563,146.5781 140.5313,146.5781 Q139.1875,146.5781 138.5,147.6484 Q137.8125,148.7188 137.8125,150.8125 Q137.8125,152.9063 138.5,153.9766 Q139.1875,155.0469 140.5313,155.0469 Q141.1563,155.0469 141.75,154.7734 Q142.3438,154.5 142.9688,153.9219 L142.9688,156.6406 Z "/><text fill="#000000" font-family="sans-serif" font-size="12" lengthAdjust="spacingAndGlyphs" textLength="104" x="154" y="155.1543">SessioneDiLavoro</text><line style="stroke: #383838; stroke-width: 1.5;" x1="126" x2="260" y1="167" y2="167"/><text fill="#000000" font-family="sans-serif" font-size="11" lengthAdjust="spacingAndGlyphs" textLength="72" x="131" y="181.2104">Identificativo</text><text fill="#000000" font-family="sans-serif" font-size="11" lengthAdjust="spacingAndGlyphs" textLength="86" x="131" y="194.0151">Nome sessione</text><line style="stroke: #383838; stroke-width: 1.5;" x1="126" x2="260" y1="200.6094" y2="200.6094"/><!--class InviteLink--><rect fill="#F8F8F8" height="73.6094" style="stroke: #383838; stroke-width: 1.5;" width="91" x="147.5" y="288"/><ellipse cx="162.5" cy="304" fill="#C2C2C2" rx="11" ry="11" style="stroke: #383838; stroke-width: 1.0;"/><path d="M165.4688,309.6406 Q164.8906,309.9375 164.25,310.0859 Q163.6094,310.2344 162.9063,310.2344 Q160.4063,310.2344 159.0859,308.5859 Q157.7656,306.9375 157.7656,303.8125 Q157.7656,300.6875 159.0859,299.0313 Q160.4063,297.375 162.9063,297.375 Q163.6094,297.375 164.2578,297.5313 Q164.9063,297.6875 165.4688,297.9844 L165.4688,300.7031 Q164.8438,300.125 164.25,299.8516 Q163.6563,299.5781 163.0313,299.5781 Q161.6875,299.5781 161,300.6484 Q160.3125,301.7188 160.3125,303.8125 Q160.3125,305.9063 161,306.9766 Q161.6875,308.0469 163.0313,308.0469 Q163.6563,308.0469 164.25,307.7734 Q164.8438,307.5 165.4688,306.9219 L165.4688,309.6406 Z "/><text fill="#000000" font-family="sans-serif" font-size="12" lengthAdjust="spacingAndGlyphs" textLength="59" x="176.5" y="308.1543">InviteLink</text><line style="stroke: #383838; stroke-width: 1.5;" x1="148.5" x2="237.5" y1="320" y2="320"/><text fill="#000000" font-family="sans-serif" font-size="11" lengthAdjust="spacingAndGlyphs" textLength="22" x="153.5" y="334.2104">URL</text><text fill="#000000" font-family="sans-serif" font-size="11" lengthAdjust="spacingAndGlyphs" textLength="54" x="153.5" y="347.0151">Scadenza</text><line style="stroke: #383838; stroke-width: 1.5;" x1="148.5" x2="237.5" y1="353.6094" y2="353.6094"/><!--class SupervisoreDiSessione--><rect fill="#F8F8F8" height="48" style="stroke: #383838; stroke-width: 1.5;" width="167" x="36.5" y="8"/><ellipse cx="51.5" cy="24" fill="#C2C2C2" rx="11" ry="11" style="stroke: #383838; stroke-width: 1.0;"/><path d="M54.4688,29.6406 Q53.8906,29.9375 53.25,30.0859 Q52.6094,30.2344 51.9063,30.2344 Q49.4063,30.2344 48.0859,28.5859 Q46.7656,26.9375 46.7656,23.8125 Q46.7656,20.6875 48.0859,19.0313 Q49.4063,17.375 51.9063,17.375 Q52.6094,17.375 53.2578,17.5313 Q53.9063,17.6875 54.4688,17.9844 L54.4688,20.7031 Q53.8438,20.125 53.25,19.8516 Q52.6563,19.5781 52.0313,19.5781 Q50.6875,19.5781 50,20.6484 Q49.3125,21.7188 49.3125,23.8125 Q49.3125,25.9063 50,26.9766 Q50.6875,28.0469 52.0313,28.0469 Q52.6563,28.0469 53.25,27.7734 Q53.8438,27.5 54.4688,26.9219 L54.4688,29.6406 Z "/><text fill="#000000" font-family="sans-serif" font-size="12" lengthAdjust="spacingAndGlyphs" textLength="135" x="65.5" y="28.1543">SupervisoreDiSessione</text><line style="stroke: #383838; stroke-width: 1.5;" x1="37.5" x2="202.5" y1="40" y2="40"/><line style="stroke: #383838; stroke-width: 1.5;" x1="37.5" x2="202.5" y1="48" y2="48"/><!--class Dispositivo--><rect fill="#F8F8F8" height="99.2188" style="stroke: #383838; stroke-width: 1.5;" width="97" x="13.5" y="556"/><ellipse cx="28.95" cy="572" fill="#C2C2C2" rx="11" ry="11" style="stroke: #383838; stroke-width: 1.0;"/><path d="M31.9188,577.6406 Q31.3406,577.9375 30.7,578.0859 Q30.0594,578.2344 29.3563,578.2344 Q26.8563,578.2344 25.5359,576.5859 Q24.2156,574.9375 24.2156,571.8125 Q24.2156,568.6875 25.5359,567.0313 Q26.8563,565.375 29.3563,565.375 Q30.0594,565.375 30.7078,565.5313 Q31.3563,565.6875 31.9188,565.9844 L31.9188,568.7031 Q31.2938,568.125 30.7,567.8516 Q30.1063,567.5781 29.4813,567.5781 Q28.1375,567.5781 27.45,568.6484 Q26.7625,569.7188 26.7625,571.8125 Q26.7625,573.9063 27.45,574.9766 Q28.1375,576.0469 29.4813,576.0469 Q30.1063,576.0469 30.7,575.7734 Q31.2938,575.5 31.9188,574.9219 L31.9188,577.6406 Z "/><text fill="#000000" font-family="sans-serif" font-size="12" lengthAdjust="spacingAndGlyphs" textLength="64" x="43.05" y="576.1543">Dispositivo</text><line style="stroke: #383838; stroke-width: 1.5;" x1="14.5" x2="109.5" y1="588" y2="588"/><text fill="#000000" font-family="sans-serif" font-size="11" lengthAdjust="spacingAndGlyphs" textLength="72" x="19.5" y="602.2104">Identificativo</text><text fill="#000000" font-family="sans-serif" font-size="11" lengthAdjust="spacingAndGlyphs" textLength="33" x="19.5" y="615.0151">Nome</text><text fill="#000000" font-family="sans-serif" font-size="11" lengthAdjust="spacingAndGlyphs" textLength="51" x="19.5" y="627.8198">Tipologia</text><text fill="#000000" font-family="sans-serif" font-size="11" lengthAdjust="spacingAndGlyphs" textLength="85" x="19.5" y="640.6245">Configurazione</text><line style="stroke: #383838; stroke-width: 1.5;" x1="14.5" x2="109.5" y1="647.2188" y2="647.2188"/><!--class Link--><rect fill="#F8F8F8" height="73.6094" style="stroke: #383838; stroke-width: 1.5;" width="84" x="68" y="422"/><ellipse cx="95.15" cy="438" fill="#C2C2C2" rx="11" ry="11" style="stroke: #383838; stroke-width: 1.0;"/><path d="M98.1188,443.6406 Q97.5406,443.9375 96.9,444.0859 Q96.2594,444.2344 95.5563,444.2344 Q93.0563,444.2344 91.7359,442.5859 Q90.4156,440.9375 90.4156,437.8125 Q90.4156,434.6875 91.7359,433.0313 Q93.0563,431.375 95.5563,431.375 Q96.2594,431.375 96.9078,431.5313 Q97.5563,431.6875 98.1188,431.9844 L98.1188,434.7031 Q97.4938,434.125 96.9,433.8516 Q96.3063,433.5781 95.6813,433.5781 Q94.3375,433.5781 93.65,434.6484 Q92.9625,435.7188 92.9625,437.8125 Q92.9625,439.9063 93.65,440.9766 Q94.3375,442.0469 95.6813,442.0469 Q96.3063,442.0469 96.9,441.7734 Q97.4938,441.5 98.1188,440.9219 L98.1188,443.6406 Z "/><text fill="#000000" font-family="sans-serif" font-size="12" lengthAdjust="spacingAndGlyphs" textLength="25" x="111.85" y="442.1543">Link</text><line style="stroke: #383838; stroke-width: 1.5;" x1="69" x2="151" y1="454" y2="454"/><text fill="#000000" font-family="sans-serif" font-size="11" lengthAdjust="spacingAndGlyphs" textLength="72" x="74" y="468.2104">Identificativo</text><text fill="#000000" font-family="sans-serif" font-size="11" lengthAdjust="spacingAndGlyphs" textLength="52" x="74" y="481.0151">Proprietà</text><line style="stroke: #383838; stroke-width: 1.5;" x1="69" x2="151" y1="487.6094" y2="487.6094"/><!--class Canvas--><rect fill="#F8F8F8" height="48" style="stroke: #383838; stroke-width: 1.5;" width="75" x="24.5" y="301"/><ellipse cx="39.5" cy="317" fill="#C2C2C2" rx="11" ry="11" style="stroke: #383838; stroke-width: 1.0;"/><path d="M42.4688,322.6406 Q41.8906,322.9375 41.25,323.0859 Q40.6094,323.2344 39.9063,323.2344 Q37.4063,323.2344 36.0859,321.5859 Q34.7656,319.9375 34.7656,316.8125 Q34.7656,313.6875 36.0859,312.0313 Q37.4063,310.375 39.9063,310.375 Q40.6094,310.375 41.2578,310.5313 Q41.9063,310.6875 42.4688,310.9844 L42.4688,313.7031 Q41.8438,313.125 41.25,312.8516 Q40.6563,312.5781 40.0313,312.5781 Q38.6875,312.5781 38,313.6484 Q37.3125,314.7188 37.3125,316.8125 Q37.3125,318.9063 38,319.9766 Q38.6875,321.0469 40.0313,321.0469 Q40.6563,321.0469 41.25,320.7734 Q41.8438,320.5 42.4688,319.9219 L42.4688,322.6406 Z "/><text fill="#000000" font-family="sans-serif" font-size="12" lengthAdjust="spacingAndGlyphs" textLength="43" x="53.5" y="321.1543">Canvas</text><line style="stroke: #383838; stroke-width: 1.5;" x1="25.5" x2="98.5" y1="333" y2="333"/><line style="stroke: #383838; stroke-width: 1.5;" x1="25.5" x2="98.5" y1="341" y2="341"/><path d="M161.2886,209.037 C140.049,233.8435 112.2821,266.2735 91.5142,290.5292 " fill="none" style="stroke: #383838; stroke-width: 1.0;"/><polygon fill="#383838" points="82.798,300.7092,89.7387,298.7531,90.6026,291.5939,83.6618,293.55,82.798,300.7092" style="stroke: #383838; stroke-width: 1.0;"/><text fill="#000000" font-family="sans-serif" font-size="13" lengthAdjust="spacingAndGlyphs" textLength="8" x="147.1507" y="228.8037">1</text><text fill="#000000" font-family="sans-serif" font-size="13" lengthAdjust="spacingAndGlyphs" textLength="24" x="90.7925" y="290.0433">0..n</text><path d="M58.1605,349.2399 C55.2632,368.8154 51.5342,397.1033 50,422 C47.9772,454.8266 48.2059,463.1601 50,496 C50.8311,511.2125 52.307,527.5608 53.9459,542.8649 " fill="none" style="stroke: #383838; stroke-width: 1.0;"/><polygon fill="#383838" points="55.416,555.9904,58.7232,549.5824,54.0802,544.065,50.7729,550.473,55.416,555.9904" style="stroke: #383838; stroke-width: 1.0;"/><text fill="#000000" font-family="sans-serif" font-size="13" lengthAdjust="spacingAndGlyphs" textLength="8" x="48.2496" y="369.0596">1</text><text fill="#000000" font-family="sans-serif" font-size="13" lengthAdjust="spacingAndGlyphs" textLength="24" x="28.8026" y="545.0343">0..n</text><path d="M70.6924,349.2664 C76.6883,366.0049 84.8719,388.8508 92.22,409.3642 " fill="none" style="stroke: #383838; stroke-width: 1.0;"/><polygon fill="#383838" points="96.6602,421.7598,98.4025,414.7623,92.6135,410.4627,90.8711,417.4602,96.6602,421.7598" style="stroke: #383838; stroke-width: 1.0;"/><text fill="#000000" font-family="sans-serif" font-size="13" lengthAdjust="spacingAndGlyphs" textLength="8" x="63.8362" y="369.0925">1</text><text fill="#000000" font-family="sans-serif" font-size="13" lengthAdjust="spacingAndGlyphs" textLength="24" x="68.1465" y="410.904">0..n</text><path d="M193,209.037 C193,228.7182 193,253.1981 193,274.5871 " fill="none" style="stroke: #383838; stroke-width: 1.0;"/><polygon fill="#FFFFFF" points="193,287.7737,197,281.7737,193,275.7737,189,281.7737,193,287.7737" style="stroke: #383838; stroke-width: 1.0;"/><text fill="#000000" font-family="sans-serif" font-size="13" lengthAdjust="spacingAndGlyphs" textLength="8" x="184.3125" y="228.8037">1</text><text fill="#000000" font-family="sans-serif" font-size="13" lengthAdjust="spacingAndGlyphs" textLength="24" x="166.8625" y="276.9203">0..n</text><path d="M97.7634,496.3472 C93.0951,510.5952 87.6379,527.2509 82.4128,543.1983 " fill="none" style="stroke: #383838; stroke-width: 1.0;"/><polygon fill="#FFFFFF" points="78.2917,555.7764,83.961,551.3201,82.0281,544.3729,76.3587,548.8292,78.2917,555.7764" style="stroke: #383838; stroke-width: 1.0;"/><text fill="#000000" font-family="sans-serif" font-size="13" lengthAdjust="spacingAndGlyphs" textLength="8" x="87.1757" y="515.6033">1</text><text fill="#000000" font-family="sans-serif" font-size="13" lengthAdjust="spacingAndGlyphs" textLength="8" x="72.0202" y="544.7902">2</text><path d="M132.5491,56.0669 C142.165,74.5081 155.7514,100.5644 167.609,123.3048 " fill="none" style="stroke: #383838; stroke-width: 1.0;"/><polygon fill="#FFFFFF" points="173.6219,134.8365,174.3946,127.6669,168.0737,124.1961,167.301,131.3657,173.6219,134.8365" style="stroke: #383838; stroke-width: 1.0;"/><text fill="#000000" font-family="sans-serif" font-size="13" lengthAdjust="spacingAndGlyphs" textLength="8" x="126.7398" y="76.2398">1</text><text fill="#000000" font-family="sans-serif" font-size="13" lengthAdjust="spacingAndGlyphs" textLength="23" x="145.1217" y="123.9943">0..*</text><path d="M107.6228,56.0669 C101.62,67.7389 94.0484,82.4614 86.3333,97.463 " fill="none" style="stroke: #383838; stroke-width: 1.0;"/><polygon fill="none" points="92.3192,101.1295,76.9472,115.7138,79.8692,94.7265,92.3192,101.1295" style="stroke: #383838; stroke-width: 1.0;"/><path d="M54.3367,241.2506 C56.2922,262.6219 58.3174,284.7546 59.7944,300.8965 " fill="none" style="stroke: #383838; stroke-width: 1.0;"/><polygon fill="#FFFFFF" points="53.1336,228.1028,49.697,234.4423,54.2271,240.0529,57.6637,233.7134,53.1336,228.1028" style="stroke: #383838; stroke-width: 1.0;"/><text fill="#000000" font-family="sans-serif" font-size="13" lengthAdjust="spacingAndGlyphs" textLength="8" x="45.2718" y="247.928">1</text><text fill="#000000" font-family="sans-serif" font-size="13" lengthAdjust="spacingAndGlyphs" textLength="8" x="50.2042" y="289.882">1</text></g></svg>