<?xml version="1.0" encoding="UTF-8" standalone="no"?><svg xmlns="http://www.w3.org/2000/svg" xmlns:xlink="http://www.w3.org/1999/xlink" contentScriptType="application/ecmascript" contentStyleType="text/css" height="823px" preserveAspectRatio="none" style="width:633px;height:823px;" version="1.1" viewBox="0 0 633 823" width="633px" zoomAndPan="magnify"><defs/><g><!--class Sistema--><rect fill="#F8F8F8" height="48" style="stroke: #383838; stroke-width: 1.5;" width="80" x="383.5" y="487"/><ellipse cx="398.5" cy="503" fill="#C2C2C2" rx="11" ry="11" style="stroke: #383838; stroke-width: 1.0;"/><path d="M401.4688,508.6406 Q400.8906,508.9375 400.25,509.0859 Q399.6094,509.2344 398.9063,509.2344 Q396.4063,509.2344 395.0859,507.5859 Q393.7656,505.9375 393.7656,502.8125 Q393.7656,499.6875 395.0859,498.0313 Q396.4063,496.375 398.9063,496.375 Q399.6094,496.375 400.2578,496.5313 Q400.9063,496.6875 401.4688,496.9844 L401.4688,499.7031 Q400.8438,499.125 400.25,498.8516 Q399.6563,498.5781 399.0313,498.5781 Q397.6875,498.5781 397,499.6484 Q396.3125,500.7188 396.3125,502.8125 Q396.3125,504.9063 397,505.9766 Q397.6875,507.0469 399.0313,507.0469 Q399.6563,507.0469 400.25,506.7734 Q400.8438,506.5 401.4688,505.9219 L401.4688,508.6406 Z "/><text fill="#000000" font-family="sans-serif" font-size="12" lengthAdjust="spacingAndGlyphs" textLength="48" x="412.5" y="507.1543">Sistema</text><line style="stroke: #383838; stroke-width: 1.5;" x1="384.5" x2="462.5" y1="519" y2="519"/><line style="stroke: #383838; stroke-width: 1.5;" x1="384.5" x2="462.5" y1="527" y2="527"/><!--class WebUI--><rect fill="#F8F8F8" height="112.0234" style="stroke: #383838; stroke-width: 1.5;" width="98" x="452.5" y="97.5"/><ellipse cx="479.2" cy="113.5" fill="#C2C2C2" rx="11" ry="11" style="stroke: #383838; stroke-width: 1.0;"/><path d="M482.1688,119.1406 Q481.5906,119.4375 480.95,119.5859 Q480.3094,119.7344 479.6063,119.7344 Q477.1063,119.7344 475.7859,118.0859 Q474.4656,116.4375 474.4656,113.3125 Q474.4656,110.1875 475.7859,108.5313 Q477.1063,106.875 479.6063,106.875 Q480.3094,106.875 480.9578,107.0313 Q481.6063,107.1875 482.1688,107.4844 L482.1688,110.2031 Q481.5438,109.625 480.95,109.3516 Q480.3563,109.0781 479.7313,109.0781 Q478.3875,109.0781 477.7,110.1484 Q477.0125,111.2188 477.0125,113.3125 Q477.0125,115.4063 477.7,116.4766 Q478.3875,117.5469 479.7313,117.5469 Q480.3563,117.5469 480.95,117.2734 Q481.5438,117 482.1688,116.4219 L482.1688,119.1406 Z "/><text fill="#000000" font-family="sans-serif" font-size="12" lengthAdjust="spacingAndGlyphs" textLength="40" x="495.8" y="117.6543">WebUI</text><line style="stroke: #383838; stroke-width: 1.5;" x1="453.5" x2="549.5" y1="129.5" y2="129.5"/><rect fill="none" height="6" style="stroke: #595959; stroke-width: 1.0;" width="6" x="460.5" y="138.4023"/><text fill="#000000" font-family="sans-serif" font-size="11" lengthAdjust="spacingAndGlyphs" textLength="72" x="472.5" y="143.7104">environment</text><line style="stroke: #383838; stroke-width: 1.0;" x1="453.5" x2="549.5" y1="150.3047" y2="150.3047"/><ellipse cx="463.5" cy="162.207" fill="none" rx="3" ry="3" style="stroke: #545454; stroke-width: 1.0;"/><text fill="#000000" font-family="sans-serif" font-size="11" lengthAdjust="spacingAndGlyphs" textLength="18" x="472.5" y="164.5151">get</text><ellipse cx="463.5" cy="175.0117" fill="none" rx="3" ry="3" style="stroke: #545454; stroke-width: 1.0;"/><text fill="#000000" font-family="sans-serif" font-size="11" lengthAdjust="spacingAndGlyphs" textLength="14" x="472.5" y="177.3198">do</text><ellipse cx="463.5" cy="187.8164" fill="none" rx="3" ry="3" style="stroke: #545454; stroke-width: 1.0;"/><text fill="#000000" font-family="sans-serif" font-size="11" lengthAdjust="spacingAndGlyphs" textLength="49" x="472.5" y="190.1245">populate</text><polygon fill="none" points="463.5,196.6211,459.5,202.6211,467.5,202.6211" style="stroke: #535353; stroke-width: 1.0;"/><text fill="#000000" font-family="sans-serif" font-size="11" lengthAdjust="spacingAndGlyphs" textLength="29" x="472.5" y="202.9292">show</text><!--class WebService--><rect fill="#F8F8F8" height="291.2891" style="stroke: #383838; stroke-width: 1.5;" width="146" x="271.5" y="8"/><ellipse cx="305.85" cy="24" fill="#C2C2C2" rx="11" ry="11" style="stroke: #383838; stroke-width: 1.0;"/><path d="M308.8188,29.6406 Q308.2406,29.9375 307.6,30.0859 Q306.9594,30.2344 306.2563,30.2344 Q303.7563,30.2344 302.4359,28.5859 Q301.1156,26.9375 301.1156,23.8125 Q301.1156,20.6875 302.4359,19.0313 Q303.7563,17.375 306.2563,17.375 Q306.9594,17.375 307.6078,17.5313 Q308.2563,17.6875 308.8188,17.9844 L308.8188,20.7031 Q308.1938,20.125 307.6,19.8516 Q307.0063,19.5781 306.3813,19.5781 Q305.0375,19.5781 304.35,20.6484 Q303.6625,21.7188 303.6625,23.8125 Q303.6625,25.9063 304.35,26.9766 Q305.0375,28.0469 306.3813,28.0469 Q307.0063,28.0469 307.6,27.7734 Q308.1938,27.5 308.8188,26.9219 L308.8188,29.6406 Z "/><text fill="#000000" font-family="sans-serif" font-size="12" lengthAdjust="spacingAndGlyphs" textLength="71" x="324.15" y="28.1543">WebService</text><line style="stroke: #383838; stroke-width: 1.5;" x1="272.5" x2="416.5" y1="40" y2="40"/><rect fill="none" height="6" style="stroke: #595959; stroke-width: 1.0;" width="6" x="279.5" y="48.9023"/><text fill="#000000" font-family="sans-serif" font-size="11" lengthAdjust="spacingAndGlyphs" textLength="45" x="291.5" y="54.2104">address</text><rect fill="none" height="6" style="stroke: #595959; stroke-width: 1.0;" width="6" x="279.5" y="61.707"/><text fill="#000000" font-family="sans-serif" font-size="11" lengthAdjust="spacingAndGlyphs" textLength="23" x="291.5" y="67.0151">port</text><line style="stroke: #383838; stroke-width: 1.0;" x1="272.5" x2="416.5" y1="73.6094" y2="73.6094"/><ellipse cx="282.5" cy="85.5117" fill="none" rx="3" ry="3" style="stroke: #545454; stroke-width: 1.0;"/><text fill="#000000" font-family="sans-serif" font-size="11" lengthAdjust="spacingAndGlyphs" textLength="27" x="291.5" y="87.8198">login</text><ellipse cx="282.5" cy="98.3164" fill="none" rx="3" ry="3" style="stroke: #545454; stroke-width: 1.0;"/><text fill="#000000" font-family="sans-serif" font-size="11" lengthAdjust="spacingAndGlyphs" textLength="96" x="291.5" y="100.6245">getEnvironments</text><ellipse cx="282.5" cy="111.1211" fill="none" rx="3" ry="3" style="stroke: #545454; stroke-width: 1.0;"/><text fill="#000000" font-family="sans-serif" font-size="11" lengthAdjust="spacingAndGlyphs" textLength="67" x="291.5" y="113.4292">getSessions</text><ellipse cx="282.5" cy="123.9258" fill="none" rx="3" ry="3" style="stroke: #545454; stroke-width: 1.0;"/><text fill="#000000" font-family="sans-serif" font-size="11" lengthAdjust="spacingAndGlyphs" textLength="74" x="291.5" y="126.2339">createDevice</text><ellipse cx="282.5" cy="136.7305" fill="none" rx="3" ry="3" style="stroke: #545454; stroke-width: 1.0;"/><text fill="#000000" font-family="sans-serif" font-size="11" lengthAdjust="spacingAndGlyphs" textLength="58" x="291.5" y="139.0386">createLink</text><polygon fill="none" points="282.5,145.5352,278.5,151.5352,286.5,151.5352" style="stroke: #535353; stroke-width: 1.0;"/><text fill="#000000" font-family="sans-serif" font-size="11" lengthAdjust="spacingAndGlyphs" textLength="73" x="291.5" y="151.8433">generateLink</text><ellipse cx="282.5" cy="162.3398" fill="none" rx="3" ry="3" style="stroke: #545454; stroke-width: 1.0;"/><text fill="#000000" font-family="sans-serif" font-size="11" lengthAdjust="spacingAndGlyphs" textLength="87" x="291.5" y="164.6479">deleteElements</text><ellipse cx="282.5" cy="175.1445" fill="none" rx="3" ry="3" style="stroke: #545454; stroke-width: 1.0;"/><text fill="#000000" font-family="sans-serif" font-size="11" lengthAdjust="spacingAndGlyphs" textLength="103" x="291.5" y="177.4526">sendConfiguration</text><ellipse cx="282.5" cy="187.9492" fill="none" rx="3" ry="3" style="stroke: #545454; stroke-width: 1.0;"/><text fill="#000000" font-family="sans-serif" font-size="11" lengthAdjust="spacingAndGlyphs" textLength="90" x="291.5" y="190.2573">deployTopology</text><ellipse cx="282.5" cy="200.7539" fill="none" rx="3" ry="3" style="stroke: #545454; stroke-width: 1.0;"/><text fill="#000000" font-family="sans-serif" font-size="11" lengthAdjust="spacingAndGlyphs" textLength="120" x="291.5" y="203.062">terminateExperiment</text><ellipse cx="282.5" cy="213.5586" fill="none" rx="3" ry="3" style="stroke: #545454; stroke-width: 1.0;"/><text fill="#000000" font-family="sans-serif" font-size="11" lengthAdjust="spacingAndGlyphs" textLength="85" x="291.5" y="215.8667">obtainTerminal</text><ellipse cx="282.5" cy="226.3633" fill="none" rx="3" ry="3" style="stroke: #545454; stroke-width: 1.0;"/><text fill="#000000" font-family="sans-serif" font-size="11" lengthAdjust="spacingAndGlyphs" textLength="79" x="291.5" y="228.6714">createSession</text><ellipse cx="282.5" cy="239.168" fill="none" rx="3" ry="3" style="stroke: #545454; stroke-width: 1.0;"/><text fill="#000000" font-family="sans-serif" font-size="11" lengthAdjust="spacingAndGlyphs" textLength="61" x="291.5" y="241.4761">getSession</text><ellipse cx="282.5" cy="251.9727" fill="none" rx="3" ry="3" style="stroke: #545454; stroke-width: 1.0;"/><text fill="#000000" font-family="sans-serif" font-size="11" lengthAdjust="spacingAndGlyphs" textLength="77" x="291.5" y="254.2808">retrieveUsers</text><ellipse cx="282.5" cy="264.7773" fill="none" rx="3" ry="3" style="stroke: #545454; stroke-width: 1.0;"/><text fill="#000000" font-family="sans-serif" font-size="11" lengthAdjust="spacingAndGlyphs" textLength="53" x="291.5" y="267.0854">associate</text><ellipse cx="282.5" cy="277.582" fill="none" rx="3" ry="3" style="stroke: #545454; stroke-width: 1.0;"/><text fill="#000000" font-family="sans-serif" font-size="11" lengthAdjust="spacingAndGlyphs" textLength="73" x="291.5" y="279.8901">generateLink</text><ellipse cx="282.5" cy="290.3867" fill="none" rx="3" ry="3" style="stroke: #545454; stroke-width: 1.0;"/><text fill="#000000" font-family="sans-serif" font-size="11" lengthAdjust="spacingAndGlyphs" textLength="78" x="291.5" y="292.6948">deleteSession</text><!--class TerminalProxy--><rect fill="#F8F8F8" height="112.0234" style="stroke: #383838; stroke-width: 1.5;" width="133" x="499" y="455"/><ellipse cx="521.2" cy="471" fill="#C2C2C2" rx="11" ry="11" style="stroke: #383838; stroke-width: 1.0;"/><path d="M524.1688,476.6406 Q523.5906,476.9375 522.95,477.0859 Q522.3094,477.2344 521.6063,477.2344 Q519.1063,477.2344 517.7859,475.5859 Q516.4656,473.9375 516.4656,470.8125 Q516.4656,467.6875 517.7859,466.0313 Q519.1063,464.375 521.6063,464.375 Q522.3094,464.375 522.9578,464.5313 Q523.6063,464.6875 524.1688,464.9844 L524.1688,467.7031 Q523.5438,467.125 522.95,466.8516 Q522.3563,466.5781 521.7313,466.5781 Q520.3875,466.5781 519.7,467.6484 Q519.0125,468.7188 519.0125,470.8125 Q519.0125,472.9063 519.7,473.9766 Q520.3875,475.0469 521.7313,475.0469 Q522.3563,475.0469 522.95,474.7734 Q523.5438,474.5 524.1688,473.9219 L524.1688,476.6406 Z "/><text fill="#000000" font-family="sans-serif" font-size="12" lengthAdjust="spacingAndGlyphs" textLength="85" x="536.8" y="475.1543">TerminalProxy</text><line style="stroke: #383838; stroke-width: 1.5;" x1="500" x2="631" y1="487" y2="487"/><rect fill="none" height="6" style="stroke: #595959; stroke-width: 1.0;" width="6" x="507" y="495.9023"/><text fill="#000000" font-family="sans-serif" font-size="11" lengthAdjust="spacingAndGlyphs" textLength="45" x="519" y="501.2104">address</text><rect fill="none" height="6" style="stroke: #595959; stroke-width: 1.0;" width="6" x="507" y="508.707"/><text fill="#000000" font-family="sans-serif" font-size="11" lengthAdjust="spacingAndGlyphs" textLength="23" x="519" y="514.0151">port</text><line style="stroke: #383838; stroke-width: 1.0;" x1="500" x2="631" y1="520.6094" y2="520.6094"/><ellipse cx="510" cy="532.5117" fill="none" rx="3" ry="3" style="stroke: #545454; stroke-width: 1.0;"/><text fill="#000000" font-family="sans-serif" font-size="11" lengthAdjust="spacingAndGlyphs" textLength="78" x="519" y="534.8198">openTerminal</text><polygon fill="none" points="510,541.3164,506,547.3164,514,547.3164" style="stroke: #535353; stroke-width: 1.0;"/><text fill="#000000" font-family="sans-serif" font-size="11" lengthAdjust="spacingAndGlyphs" textLength="82" x="519" y="547.6245">prepareSocket</text><polygon fill="none" points="510,554.1211,506,560.1211,514,560.1211" style="stroke: #535353; stroke-width: 1.0;"/><text fill="#000000" font-family="sans-serif" font-size="11" lengthAdjust="spacingAndGlyphs" textLength="107" x="519" y="560.4292">attachTTYToSocket</text><!--class ContainerEngine--><rect fill="#F8F8F8" height="86.4141" style="stroke: #383838; stroke-width: 1.5;" width="132" x="280.5" y="729.5"/><ellipse cx="295.5" cy="745.5" fill="#C2C2C2" rx="11" ry="11" style="stroke: #383838; stroke-width: 1.0;"/><path d="M298.4688,751.1406 Q297.8906,751.4375 297.25,751.5859 Q296.6094,751.7344 295.9063,751.7344 Q293.4063,751.7344 292.0859,750.0859 Q290.7656,748.4375 290.7656,745.3125 Q290.7656,742.1875 292.0859,740.5313 Q293.4063,738.875 295.9063,738.875 Q296.6094,738.875 297.2578,739.0313 Q297.9063,739.1875 298.4688,739.4844 L298.4688,742.2031 Q297.8438,741.625 297.25,741.3516 Q296.6563,741.0781 296.0313,741.0781 Q294.6875,741.0781 294,742.1484 Q293.3125,743.2188 293.3125,745.3125 Q293.3125,747.4063 294,748.4766 Q294.6875,749.5469 296.0313,749.5469 Q296.6563,749.5469 297.25,749.2734 Q297.8438,749 298.4688,748.4219 L298.4688,751.1406 Z "/><text fill="#000000" font-family="sans-serif" font-size="12" lengthAdjust="spacingAndGlyphs" textLength="100" x="309.5" y="749.6543">ContainerEngine</text><line style="stroke: #383838; stroke-width: 1.5;" x1="281.5" x2="411.5" y1="761.5" y2="761.5"/><line style="stroke: #383838; stroke-width: 1.0;" x1="281.5" x2="411.5" y1="769.5" y2="769.5"/><ellipse cx="291.5" cy="781.4023" fill="none" rx="3" ry="3" style="stroke: #545454; stroke-width: 1.0;"/><text fill="#000000" font-family="sans-serif" font-size="11" lengthAdjust="spacingAndGlyphs" textLength="91" x="300.5" y="783.7104">createContainer</text><ellipse cx="291.5" cy="794.207" fill="none" rx="3" ry="3" style="stroke: #545454; stroke-width: 1.0;"/><text fill="#000000" font-family="sans-serif" font-size="11" lengthAdjust="spacingAndGlyphs" textLength="99" x="300.5" y="796.5151">removeContainer</text><ellipse cx="291.5" cy="807.0117" fill="none" rx="3" ry="3" style="stroke: #545454; stroke-width: 1.0;"/><text fill="#000000" font-family="sans-serif" font-size="11" lengthAdjust="spacingAndGlyphs" textLength="91" x="300.5" y="809.3198">getContainerTty</text><!--class LDAPServer--><rect fill="#F8F8F8" height="60.8047" style="stroke: #383838; stroke-width: 1.5;" width="122" x="226.5" y="480.5"/><ellipse cx="250.5" cy="496.5" fill="#C2C2C2" rx="11" ry="11" style="stroke: #383838; stroke-width: 1.0;"/><path d="M253.4688,502.1406 Q252.8906,502.4375 252.25,502.5859 Q251.6094,502.7344 250.9063,502.7344 Q248.4063,502.7344 247.0859,501.0859 Q245.7656,499.4375 245.7656,496.3125 Q245.7656,493.1875 247.0859,491.5313 Q248.4063,489.875 250.9063,489.875 Q251.6094,489.875 252.2578,490.0313 Q252.9063,490.1875 253.4688,490.4844 L253.4688,493.2031 Q252.8438,492.625 252.25,492.3516 Q251.6563,492.0781 251.0313,492.0781 Q249.6875,492.0781 249,493.1484 Q248.3125,494.2188 248.3125,496.3125 Q248.3125,498.4063 249,499.4766 Q249.6875,500.5469 251.0313,500.5469 Q251.6563,500.5469 252.25,500.2734 Q252.8438,500 253.4688,499.4219 L253.4688,502.1406 Z "/><text fill="#000000" font-family="sans-serif" font-size="12" lengthAdjust="spacingAndGlyphs" textLength="70" x="266.5" y="500.6543">LDAPServer</text><line style="stroke: #383838; stroke-width: 1.5;" x1="227.5" x2="347.5" y1="512.5" y2="512.5"/><line style="stroke: #383838; stroke-width: 1.0;" x1="227.5" x2="347.5" y1="520.5" y2="520.5"/><ellipse cx="237.5" cy="532.4023" fill="none" rx="3" ry="3" style="stroke: #545454; stroke-width: 1.0;"/><text fill="#000000" font-family="sans-serif" font-size="11" lengthAdjust="spacingAndGlyphs" textLength="96" x="246.5" y="534.7104">checkCredentials</text><!--class Database--><rect fill="#F8F8F8" height="304.0938" style="stroke: #383838; stroke-width: 1.5;" width="185" x="6" y="359"/><ellipse cx="66.25" cy="375" fill="#C2C2C2" rx="11" ry="11" style="stroke: #383838; stroke-width: 1.0;"/><path d="M69.2188,380.6406 Q68.6406,380.9375 68,381.0859 Q67.3594,381.2344 66.6563,381.2344 Q64.1563,381.2344 62.8359,379.5859 Q61.5156,377.9375 61.5156,374.8125 Q61.5156,371.6875 62.8359,370.0313 Q64.1563,368.375 66.6563,368.375 Q67.3594,368.375 68.0078,368.5313 Q68.6563,368.6875 69.2188,368.9844 L69.2188,371.7031 Q68.5938,371.125 68,370.8516 Q67.4063,370.5781 66.7813,370.5781 Q65.4375,370.5781 64.75,371.6484 Q64.0625,372.7188 64.0625,374.8125 Q64.0625,376.9063 64.75,377.9766 Q65.4375,379.0469 66.7813,379.0469 Q67.4063,379.0469 68,378.7734 Q68.5938,378.5 69.2188,377.9219 L69.2188,380.6406 Z "/><text fill="#000000" font-family="sans-serif" font-size="12" lengthAdjust="spacingAndGlyphs" textLength="56" x="86.75" y="379.1543">Database</text><line style="stroke: #383838; stroke-width: 1.5;" x1="7" x2="190" y1="391" y2="391"/><rect fill="none" height="6" style="stroke: #595959; stroke-width: 1.0;" width="6" x="14" y="399.9023"/><text fill="#000000" font-family="sans-serif" font-size="11" lengthAdjust="spacingAndGlyphs" textLength="56" x="26" y="405.2104">hostname</text><rect fill="none" height="6" style="stroke: #595959; stroke-width: 1.0;" width="6" x="14" y="412.707"/><text fill="#000000" font-family="sans-serif" font-size="11" lengthAdjust="spacingAndGlyphs" textLength="23" x="26" y="418.0151">port</text><rect fill="none" height="6" style="stroke: #595959; stroke-width: 1.0;" width="6" x="14" y="425.5117"/><text fill="#000000" font-family="sans-serif" font-size="11" lengthAdjust="spacingAndGlyphs" textLength="57" x="26" y="430.8198">username</text><rect fill="none" height="6" style="stroke: #595959; stroke-width: 1.0;" width="6" x="14" y="438.3164"/><text fill="#000000" font-family="sans-serif" font-size="11" lengthAdjust="spacingAndGlyphs" textLength="54" x="26" y="443.6245">password</text><rect fill="none" height="6" style="stroke: #595959; stroke-width: 1.0;" width="6" x="14" y="451.1211"/><text fill="#000000" font-family="sans-serif" font-size="11" lengthAdjust="spacingAndGlyphs" textLength="34" x="26" y="456.4292">driver</text><line style="stroke: #383838; stroke-width: 1.0;" x1="7" x2="190" y1="463.0234" y2="463.0234"/><ellipse cx="17" cy="474.9258" fill="none" rx="3" ry="3" style="stroke: #545454; stroke-width: 1.0;"/><text fill="#000000" font-family="sans-serif" font-size="11" lengthAdjust="spacingAndGlyphs" textLength="159" x="26" y="477.2339">retrieveDevicesForTopology</text><ellipse cx="17" cy="487.7305" fill="none" rx="3" ry="3" style="stroke: #545454; stroke-width: 1.0;"/><text fill="#000000" font-family="sans-serif" font-size="11" lengthAdjust="spacingAndGlyphs" textLength="143" x="26" y="490.0386">retrieveLinksForTopology</text><ellipse cx="17" cy="500.5352" fill="none" rx="3" ry="3" style="stroke: #545454; stroke-width: 1.0;"/><text fill="#000000" font-family="sans-serif" font-size="11" lengthAdjust="spacingAndGlyphs" textLength="103" x="26" y="502.8433">saveConfiguration</text><ellipse cx="17" cy="513.3398" fill="none" rx="3" ry="3" style="stroke: #545454; stroke-width: 1.0;"/><text fill="#000000" font-family="sans-serif" font-size="11" lengthAdjust="spacingAndGlyphs" textLength="74" x="26" y="515.6479">createDevice</text><ellipse cx="17" cy="526.1445" fill="none" rx="3" ry="3" style="stroke: #545454; stroke-width: 1.0;"/><text fill="#000000" font-family="sans-serif" font-size="11" lengthAdjust="spacingAndGlyphs" textLength="58" x="26" y="528.4526">createLink</text><ellipse cx="17" cy="538.9492" fill="none" rx="3" ry="3" style="stroke: #545454; stroke-width: 1.0;"/><text fill="#000000" font-family="sans-serif" font-size="11" lengthAdjust="spacingAndGlyphs" textLength="73" x="26" y="541.2573">deleteDevice</text><ellipse cx="17" cy="551.7539" fill="none" rx="3" ry="3" style="stroke: #545454; stroke-width: 1.0;"/><text fill="#000000" font-family="sans-serif" font-size="11" lengthAdjust="spacingAndGlyphs" textLength="57" x="26" y="554.062">deleteLink</text><ellipse cx="17" cy="564.5586" fill="none" rx="3" ry="3" style="stroke: #545454; stroke-width: 1.0;"/><text fill="#000000" font-family="sans-serif" font-size="11" lengthAdjust="spacingAndGlyphs" textLength="50" x="26" y="566.8667">getUsers</text><ellipse cx="17" cy="577.3633" fill="none" rx="3" ry="3" style="stroke: #545454; stroke-width: 1.0;"/><text fill="#000000" font-family="sans-serif" font-size="11" lengthAdjust="spacingAndGlyphs" textLength="98" x="26" y="579.6714">checkIfUserExists</text><ellipse cx="17" cy="590.168" fill="none" rx="3" ry="3" style="stroke: #545454; stroke-width: 1.0;"/><text fill="#000000" font-family="sans-serif" font-size="11" lengthAdjust="spacingAndGlyphs" textLength="114" x="26" y="592.4761">createUserAndLogin</text><ellipse cx="17" cy="602.9727" fill="none" rx="3" ry="3" style="stroke: #545454; stroke-width: 1.0;"/><text fill="#000000" font-family="sans-serif" font-size="11" lengthAdjust="spacingAndGlyphs" textLength="86" x="26" y="605.2808">lookupSessions</text><ellipse cx="17" cy="615.7773" fill="none" rx="3" ry="3" style="stroke: #545454; stroke-width: 1.0;"/><text fill="#000000" font-family="sans-serif" font-size="11" lengthAdjust="spacingAndGlyphs" textLength="88" x="26" y="618.0854">retrieveSession</text><ellipse cx="17" cy="628.582" fill="none" rx="3" ry="3" style="stroke: #545454; stroke-width: 1.0;"/><text fill="#000000" font-family="sans-serif" font-size="11" lengthAdjust="spacingAndGlyphs" textLength="51" x="26" y="630.8901">storeLink</text><ellipse cx="17" cy="641.3867" fill="none" rx="3" ry="3" style="stroke: #545454; stroke-width: 1.0;"/><text fill="#000000" font-family="sans-serif" font-size="11" lengthAdjust="spacingAndGlyphs" textLength="93" x="26" y="643.6948">storeAssociation</text><ellipse cx="17" cy="654.1914" fill="none" rx="3" ry="3" style="stroke: #545454; stroke-width: 1.0;"/><text fill="#000000" font-family="sans-serif" font-size="11" lengthAdjust="spacingAndGlyphs" textLength="69" x="26" y="656.4995">deleteToken</text><!--class KernelLinux--><rect fill="#F8F8F8" height="99.2188" style="stroke: #383838; stroke-width: 1.5;" width="104" x="447.5" y="723"/><ellipse cx="462.95" cy="739" fill="#C2C2C2" rx="11" ry="11" style="stroke: #383838; stroke-width: 1.0;"/><path d="M465.9188,744.6406 Q465.3406,744.9375 464.7,745.0859 Q464.0594,745.2344 463.3563,745.2344 Q460.8563,745.2344 459.5359,743.5859 Q458.2156,741.9375 458.2156,738.8125 Q458.2156,735.6875 459.5359,734.0313 Q460.8563,732.375 463.3563,732.375 Q464.0594,732.375 464.7078,732.5313 Q465.3563,732.6875 465.9188,732.9844 L465.9188,735.7031 Q465.2938,735.125 464.7,734.8516 Q464.1063,734.5781 463.4813,734.5781 Q462.1375,734.5781 461.45,735.6484 Q460.7625,736.7188 460.7625,738.8125 Q460.7625,740.9063 461.45,741.9766 Q462.1375,743.0469 463.4813,743.0469 Q464.1063,743.0469 464.7,742.7734 Q465.2938,742.5 465.9188,741.9219 L465.9188,744.6406 Z "/><text fill="#000000" font-family="sans-serif" font-size="12" lengthAdjust="spacingAndGlyphs" textLength="71" x="477.05" y="743.1543">KernelLinux</text><line style="stroke: #383838; stroke-width: 1.5;" x1="448.5" x2="550.5" y1="755" y2="755"/><line style="stroke: #383838; stroke-width: 1.0;" x1="448.5" x2="550.5" y1="763" y2="763"/><ellipse cx="458.5" cy="774.9023" fill="none" rx="3" ry="3" style="stroke: #545454; stroke-width: 1.0;"/><text fill="#000000" font-family="sans-serif" font-size="11" lengthAdjust="spacingAndGlyphs" textLength="70" x="467.5" y="777.2104">createNetNS</text><ellipse cx="458.5" cy="787.707" fill="none" rx="3" ry="3" style="stroke: #545454; stroke-width: 1.0;"/><text fill="#000000" font-family="sans-serif" font-size="11" lengthAdjust="spacingAndGlyphs" textLength="49" x="467.5" y="790.0151">createFS</text><ellipse cx="458.5" cy="800.5117" fill="none" rx="3" ry="3" style="stroke: #545454; stroke-width: 1.0;"/><text fill="#000000" font-family="sans-serif" font-size="11" lengthAdjust="spacingAndGlyphs" textLength="78" x="467.5" y="802.8198">removeNetNS</text><ellipse cx="458.5" cy="813.3164" fill="none" rx="3" ry="3" style="stroke: #545454; stroke-width: 1.0;"/><text fill="#000000" font-family="sans-serif" font-size="11" lengthAdjust="spacingAndGlyphs" textLength="57" x="467.5" y="815.6245">removeFS</text><path d="M488.0939,214.9444 C470.6226,295.0216 440.8799,431.3422 428.8175,486.6281 " fill="none" style="stroke: #383838; stroke-width: 1.0;"/><polygon fill="#383838" points="489.2267,209.7526,483.4001,217.6931,488.1609,214.6377,491.2162,219.3984,489.2267,209.7526" style="stroke: #383838; stroke-width: 1.0;"/><path d="M377.7934,304.1632 C393.1612,373.7073 409.8145,449.0687 418.1331,486.7133 " fill="none" style="stroke: #383838; stroke-width: 1.0;"/><polygon fill="#383838" points="376.6893,299.1667,374.7258,308.8178,377.7683,304.0489,382.5373,307.0914,376.6893,299.1667" style="stroke: #383838; stroke-width: 1.0;"/><path d="M463.7148,511 C473.6465,511 483.5782,511 493.5099,511 " fill="none" style="stroke: #383838; stroke-width: 1.0;"/><polygon fill="#383838" points="498.7035,511,489.7035,507,493.7035,511,489.7035,515,498.7035,511" style="stroke: #383838; stroke-width: 1.0;"/><path d="M416.394,535.1326 C403.7813,577.9669 377.2593,668.0381 360.7568,724.0826 " fill="none" style="stroke: #383838; stroke-width: 1.0;"/><polygon fill="#383838" points="359.2906,729.0618,365.6699,721.5582,360.7029,724.2654,357.9957,719.2984,359.2906,729.0618" style="stroke: #383838; stroke-width: 1.0;"/><path d="M353.7623,511 C363.646,511 373.5297,511 383.4135,511 " fill="none" style="stroke: #383838; stroke-width: 1.0;"/><polygon fill="#383838" points="348.5938,511,357.5938,515,353.5938,511,357.5938,507,348.5938,511" style="stroke: #383838; stroke-width: 1.0;"/><path d="M189.1843,355.4226 C200.3626,345.0375 212.6252,335.9605 226,329 C274.4928,303.7633 301.5962,301.7727 349,329 C404.9552,361.139 418.896,445.0235 422.3603,486.7304 " fill="none" style="stroke: #383838; stroke-width: 1.0;"/><polygon fill="#383838" points="185.4349,358.9935,194.7108,355.6832,189.0556,355.5452,189.1935,349.8901,185.4349,358.9935" style="stroke: #383838; stroke-width: 1.0;"/><path d="M430.5137,535.1326 C442.4989,576.3713 467.209,661.3935 483.5683,717.6823 " fill="none" style="stroke: #383838; stroke-width: 1.0;"/><polygon fill="#383838" points="485.0261,722.6983,486.3554,712.9396,483.6307,717.897,478.6733,715.1722,485.0261,722.6983" style="stroke: #383838; stroke-width: 1.0;"/></g></svg>