<?xml version="1.0" encoding="UTF-8" standalone="no"?><svg xmlns="http://www.w3.org/2000/svg" xmlns:xlink="http://www.w3.org/1999/xlink" contentScriptType="application/ecmascript" contentStyleType="text/css" height="391px" preserveAspectRatio="none" style="width:474px;height:391px;" version="1.1" viewBox="0 0 474 391" width="474px" zoomAndPan="magnify"><defs/><g><rect fill="#F8F8F8" height="382.2969" rx="12.5" ry="12.5" style="stroke: #383838; stroke-width: 1.5;" width="467" x="6" y="8"/><rect fill="#FFFFFF" height="350" rx="12.5" ry="12.5" style="stroke: #FFFFFF; stroke-width: 1.0;" width="461" x="9" y="37.2969"/><line style="stroke: #383838; stroke-width: 1.5;" x1="6" x2="473" y1="34.2969" y2="34.2969"/><text fill="#000000" font-family="sans-serif" font-size="14" lengthAdjust="spacingAndGlyphs" textLength="198" x="140.5" y="25.9951">Modalità modifica topologia</text><rect fill="#F8F8F8" height="50.2656" rx="12.5" ry="12.5" style="stroke: #383838; stroke-width: 1.5;" width="214" x="133" y="104.2969"/><line style="stroke: #383838; stroke-width: 1.5;" x1="133" x2="347" y1="130.5938" y2="130.5938"/><text fill="#000000" font-family="sans-serif" font-size="14" lengthAdjust="spacingAndGlyphs" textLength="194" x="143" y="122.292">Visualizzazione pagina web</text><text fill="#000000" font-family="sans-serif" font-size="12" lengthAdjust="spacingAndGlyphs" textLength="79" x="138" y="146.7324">Attesa eventi</text><rect fill="#F8F8F8" height="50" rx="12.5" ry="12.5" style="stroke: #383838; stroke-width: 1.5;" width="103" x="110.5" y="207.2969"/><line style="stroke: #383838; stroke-width: 1.5;" x1="110.5" x2="213.5" y1="233.5938" y2="233.5938"/><text fill="#000000" font-family="sans-serif" font-size="14" lengthAdjust="spacingAndGlyphs" textLength="83" x="120.5" y="225.292">Validazione</text><rect fill="#F8F8F8" height="50" rx="12.5" ry="12.5" style="stroke: #383838; stroke-width: 1.5;" width="65" x="206.5" y="325.2969"/><line style="stroke: #383838; stroke-width: 1.5;" x1="206.5" x2="271.5" y1="351.5938" y2="351.5938"/><text fill="#000000" font-family="sans-serif" font-size="14" lengthAdjust="spacingAndGlyphs" textLength="45" x="216.5" y="343.292">Errore</text><ellipse cx="240" cy="57.2969" fill="#000000" rx="10" ry="10" style="stroke: none; stroke-width: 1.0;"/><ellipse cx="27" cy="350.2969" fill="none" rx="10" ry="10" style="stroke: #000000; stroke-width: 1.0;"/><ellipse cx="27.5" cy="350.7969" fill="#000000" rx="6" ry="6" style="stroke: none; stroke-width: 1.0;"/><path d="M240,67.3082 C240,75.5512 240,87.6866 240,99.0398 " fill="none" style="stroke: #383838; stroke-width: 1.0;"/><polygon fill="#383838" points="240,104.1843,244,95.1843,240,99.1843,236,95.1843,240,104.1843" style="stroke: #383838; stroke-width: 1.0;"/><path d="M215.081,154.5358 C209.8936,160.2087 204.6075,166.3222 200,172.2969 C192.6868,181.7801 185.453,192.7039 179.2911,202.6103 " fill="none" style="stroke: #383838; stroke-width: 1.0;"/><polygon fill="#383838" points="176.5389,207.0814,184.6631,201.5138,179.1599,202.8234,177.8503,197.3202,176.5389,207.0814" style="stroke: #383838; stroke-width: 1.0;"/><text fill="#000000" font-family="sans-serif" font-size="13" lengthAdjust="spacingAndGlyphs" textLength="101" x="201" y="185.3638">Scelta sessione</text><path d="M110.2651,244.914 C81.4627,252.9827 49.5326,264.0203 40,275.2969 C25.8967,291.9806 24.5869,318.3919 25.4288,335.0105 " fill="none" style="stroke: #383838; stroke-width: 1.0;"/><polygon fill="#383838" points="25.7814,340.2428,29.167,330.9941,25.4451,335.2541,21.1851,331.5322,25.7814,340.2428" style="stroke: #383838; stroke-width: 1.0;"/><text fill="#000000" font-family="sans-serif" font-size="13" lengthAdjust="spacingAndGlyphs" textLength="110" x="41" y="288.3638">Utente associato</text><text fill="#000000" font-family="sans-serif" font-size="13" lengthAdjust="spacingAndGlyphs" textLength="85" x="53.5" y="303.4966">alla sessione</text><path d="M156.3121,257.6293 C154.2497,273.0284 154.2419,292.5064 163,307.2969 C171.5359,321.7121 186.8642,331.6947 201.5302,338.3854 " fill="none" style="stroke: #383838; stroke-width: 1.0;"/><polygon fill="#383838" points="206.4677,340.5298,199.8063,333.2754,201.8816,338.5378,196.6192,340.6131,206.4677,340.5298" style="stroke: #383838; stroke-width: 1.0;"/><text fill="#000000" font-family="sans-serif" font-size="13" lengthAdjust="spacingAndGlyphs" textLength="138" x="164" y="288.3638">Utente non associato</text><text fill="#000000" font-family="sans-serif" font-size="13" lengthAdjust="spacingAndGlyphs" textLength="85" x="190.5" y="303.4966">alla sessione</text><path d="M271.622,336.5917 C283.7484,329.7021 296.2013,320.0555 303,307.2969 C331.2163,254.3456 331.0225,225.351 303,172.2969 C300.1975,166.9911 296.4134,162.2164 292.0829,157.951 " fill="none" style="stroke: #383838; stroke-width: 1.0;"/><polygon fill="#383838" points="288.3263,154.4874,292.2315,163.5289,292.0022,157.8767,297.6544,157.6475,288.3263,154.4874" style="stroke: #383838; stroke-width: 1.0;"/><text fill="#000000" font-family="sans-serif" font-size="13" lengthAdjust="spacingAndGlyphs" textLength="113" x="326" y="229.3638">Vai alla pagina di</text><text fill="#000000" font-family="sans-serif" font-size="13" lengthAdjust="spacingAndGlyphs" textLength="100" x="332.5" y="244.4966">scelta sessione</text></g></svg>