<?xml version="1.0" encoding="UTF-8" standalone="no"?><svg xmlns="http://www.w3.org/2000/svg" xmlns:xlink="http://www.w3.org/1999/xlink" contentScriptType="application/ecmascript" contentStyleType="text/css" height="479px" preserveAspectRatio="none" style="width:650px;height:479px;" version="1.1" viewBox="0 0 650 479" width="650px" zoomAndPan="magnify"><defs/><g><rect fill="#F8F8F8" height="470.2969" rx="12.5" ry="12.5" style="stroke: #383838; stroke-width: 1.5;" width="643" x="6" y="8"/><rect fill="#FFFFFF" height="438" rx="12.5" ry="12.5" style="stroke: #FFFFFF; stroke-width: 1.0;" width="637" x="9" y="37.2969"/><line style="stroke: #383838; stroke-width: 1.5;" x1="6" x2="649" y1="34.2969" y2="34.2969"/><text fill="#000000" font-family="sans-serif" font-size="14" lengthAdjust="spacingAndGlyphs" textLength="198" x="228.5" y="25.9951">Modalità modifica topologia</text><rect fill="#F8F8F8" height="50.2656" rx="12.5" ry="12.5" style="stroke: #383838; stroke-width: 1.5;" width="182" x="179.5" y="104.2969"/><line style="stroke: #383838; stroke-width: 1.5;" x1="179.5" x2="361.5" y1="130.5938" y2="130.5938"/><text fill="#000000" font-family="sans-serif" font-size="14" lengthAdjust="spacingAndGlyphs" textLength="162" x="189.5" y="122.292">Visualizzazione canvas</text><text fill="#000000" font-family="sans-serif" font-size="12" lengthAdjust="spacingAndGlyphs" textLength="79" x="184.5" y="146.7324">Attesa eventi</text><rect fill="#F8F8F8" height="50" rx="12.5" ry="12.5" style="stroke: #383838; stroke-width: 1.5;" width="217" x="17" y="207.2969"/><line style="stroke: #383838; stroke-width: 1.5;" x1="17" x2="234" y1="233.5938" y2="233.5938"/><text fill="#000000" font-family="sans-serif" font-size="14" lengthAdjust="spacingAndGlyphs" textLength="197" x="27" y="225.292">Scelta del tipo di dispositivo</text><rect fill="#F8F8F8" height="50" rx="12.5" ry="12.5" style="stroke: #383838; stroke-width: 1.5;" width="212" x="19.5" y="310.2969"/><line style="stroke: #383838; stroke-width: 1.5;" x1="19.5" x2="231.5" y1="336.5938" y2="336.5938"/><text fill="#000000" font-family="sans-serif" font-size="14" lengthAdjust="spacingAndGlyphs" textLength="192" x="29.5" y="328.292">Posizionamento nel canvas</text><rect fill="#F8F8F8" height="50" rx="12.5" ry="12.5" style="stroke: #383838; stroke-width: 1.5;" width="293" x="129" y="413.2969"/><line style="stroke: #383838; stroke-width: 1.5;" x1="129" x2="422" y1="439.5938" y2="439.5938"/><text fill="#000000" font-family="sans-serif" font-size="14" lengthAdjust="spacingAndGlyphs" textLength="273" x="139" y="431.292">Creazione del dispositivo nel database</text><ellipse cx="270.5" cy="57.2969" fill="#000000" rx="10" ry="10" style="stroke: none; stroke-width: 1.0;"/><path d="M270.5,67.3082 C270.5,75.5512 270.5,87.6866 270.5,99.0398 " fill="none" style="stroke: #383838; stroke-width: 1.0;"/><polygon fill="#383838" points="270.5,104.1843,274.5,95.1843,270.5,99.1843,266.5,95.1843,270.5,104.1843" style="stroke: #383838; stroke-width: 1.0;"/><path d="M179.2109,151.4785 C160.3383,157.6999 144.1586,164.8225 137.5,172.2969 C130.2736,180.4085 126.9058,191.6142 125.4669,202.1474 " fill="none" style="stroke: #383838; stroke-width: 1.0;"/><polygon fill="#383838" points="124.9071,207.2478,129.8652,198.738,125.4527,202.2776,121.913,197.8651,124.9071,207.2478" style="stroke: #383838; stroke-width: 1.0;"/><text fill="#000000" font-family="sans-serif" font-size="13" lengthAdjust="spacingAndGlyphs" textLength="117" x="138.5" y="185.3638">Nuovo dispositivo</text><path d="M111.4671,257.4005 C107.1196,268.0367 104.0402,280.6438 106.5,292.2969 C107.3966,296.5442 108.7407,300.8828 110.3078,305.0914 " fill="none" style="stroke: #383838; stroke-width: 1.0;"/><polygon fill="#383838" points="112.2363,309.9589,112.6397,300.1183,110.3945,305.3105,105.2023,303.0652,112.2363,309.9589" style="stroke: #383838; stroke-width: 1.0;"/><text fill="#000000" font-family="sans-serif" font-size="13" lengthAdjust="spacingAndGlyphs" textLength="15" x="107.5" y="288.3638">L2</text><path d="M125.5,257.4935 C125.5,271.8337 125.5,289.8931 125.5,305.0022 " fill="none" style="stroke: #383838; stroke-width: 1.0;"/><polygon fill="#383838" points="125.5,310.0034,129.5,301.0034,125.5,305.0034,121.5,301.0034,125.5,310.0034" style="stroke: #383838; stroke-width: 1.0;"/><text fill="#000000" font-family="sans-serif" font-size="13" lengthAdjust="spacingAndGlyphs" textLength="15" x="126.5" y="288.3638">L3</text><path d="M231.7728,327.5904 C242.5926,329.1148 249.5,331.6836 249.5,335.2969 C249.5,338.2891 244.763,340.5651 236.9898,342.1248 " fill="none" style="stroke: #383838; stroke-width: 1.0;"/><polygon fill="#383838" points="231.7728,343.0034,241.3121,345.4534,236.7034,342.1731,239.9836,337.5644,231.7728,343.0034" style="stroke: #383838; stroke-width: 1.0;"/><text fill="#000000" font-family="sans-serif" font-size="13" lengthAdjust="spacingAndGlyphs" textLength="136" x="255.5" y="339.8638">Posiziona nel canvas</text><path d="M180.5781,310.2844 C202.9776,297.4712 227.1512,279.7768 242.5,257.2969 C262.4244,228.1157 268.4785,187.2217 270.1589,159.5723 " fill="none" style="stroke: #383838; stroke-width: 1.0;"/><polygon fill="#383838" points="270.4241,154.5695,265.9532,163.3451,270.1594,159.5625,273.942,163.7686,270.4241,154.5695" style="stroke: #383838; stroke-width: 1.0;"/><text fill="#000000" font-family="sans-serif" font-size="13" lengthAdjust="spacingAndGlyphs" textLength="49" x="264.5" y="236.8638">Annulla</text><path d="M162.1941,360.4935 C184.1582,375.5756 212.1138,394.7717 234.7608,410.3226 " fill="none" style="stroke: #383838; stroke-width: 1.0;"/><polygon fill="#383838" points="238.925,413.1821,233.7699,404.7901,234.8032,410.3518,229.2415,411.3851,238.925,413.1821" style="stroke: #383838; stroke-width: 1.0;"/><text fill="#000000" font-family="sans-serif" font-size="13" lengthAdjust="spacingAndGlyphs" textLength="146" x="210.5" y="391.3638">Memorizza dispositivo</text><path d="M349.1942,413.1929 C372.3378,401.1779 394.8707,384.0747 406.5,360.2969 C416.2634,340.3343 413.5366,331.3756 406.5,310.2969 C385.9055,248.6044 335.1144,191.0435 301.7672,158.0479 " fill="none" style="stroke: #383838; stroke-width: 1.0;"/><polygon fill="#383838" points="298.1938,154.5399,301.8142,163.6992,301.7619,158.0425,307.4185,157.9902,298.1938,154.5399" style="stroke: #383838; stroke-width: 1.0;"/><text fill="#000000" font-family="sans-serif" font-size="13" lengthAdjust="spacingAndGlyphs" textLength="214" x="400.5" y="288.3638">Visualizza dispositivo sul canvas</text></g></svg>