<?xml version="1.0" encoding="UTF-8" standalone="no"?><svg xmlns="http://www.w3.org/2000/svg" xmlns:xlink="http://www.w3.org/1999/xlink" contentScriptType="application/ecmascript" contentStyleType="text/css" height="655px" preserveAspectRatio="none" style="width:419px;height:655px;" version="1.1" viewBox="0 0 419 655" width="419px" zoomAndPan="magnify"><defs/><g><rect fill="#F8F8F8" height="646.2969" rx="12.5" ry="12.5" style="stroke: #383838; stroke-width: 1.5;" width="412" x="6" y="8"/><rect fill="#FFFFFF" height="614" rx="12.5" ry="12.5" style="stroke: #FFFFFF; stroke-width: 1.0;" width="406" x="9" y="37.2969"/><line style="stroke: #383838; stroke-width: 1.5;" x1="6" x2="418" y1="34.2969" y2="34.2969"/><text fill="#000000" font-family="sans-serif" font-size="14" lengthAdjust="spacingAndGlyphs" textLength="198" x="113" y="25.9951">Modalità modifica topologia</text><rect fill="#F8F8F8" height="50.2656" rx="12.5" ry="12.5" style="stroke: #383838; stroke-width: 1.5;" width="214" x="35" y="104.2969"/><line style="stroke: #383838; stroke-width: 1.5;" x1="35" x2="249" y1="130.5938" y2="130.5938"/><text fill="#000000" font-family="sans-serif" font-size="14" lengthAdjust="spacingAndGlyphs" textLength="194" x="45" y="122.292">Visualizzazione pagina web</text><text fill="#000000" font-family="sans-serif" font-size="12" lengthAdjust="spacingAndGlyphs" textLength="79" x="40" y="146.7324">Attesa eventi</text><rect fill="#F8F8F8" height="50" rx="12.5" ry="12.5" style="stroke: #383838; stroke-width: 1.5;" width="113" x="85.5" y="207.2969"/><line style="stroke: #383838; stroke-width: 1.5;" x1="85.5" x2="198.5" y1="233.5938" y2="233.5938"/><text fill="#000000" font-family="sans-serif" font-size="14" lengthAdjust="spacingAndGlyphs" textLength="93" x="95.5" y="225.292">Form di login</text><rect fill="#F8F8F8" height="50" rx="12.5" ry="12.5" style="stroke: #383838; stroke-width: 1.5;" width="167" x="58.5" y="310.2969"/><line style="stroke: #383838; stroke-width: 1.5;" x1="58.5" x2="225.5" y1="336.5938" y2="336.5938"/><text fill="#000000" font-family="sans-serif" font-size="14" lengthAdjust="spacingAndGlyphs" textLength="147" x="68.5" y="328.292">Autenticazione LDAP</text><rect fill="#F8F8F8" height="50" rx="12.5" ry="12.5" style="stroke: #383838; stroke-width: 1.5;" width="205" x="39.5" y="413.2969"/><line style="stroke: #383838; stroke-width: 1.5;" x1="39.5" x2="244.5" y1="439.5938" y2="439.5938"/><text fill="#000000" font-family="sans-serif" font-size="14" lengthAdjust="spacingAndGlyphs" textLength="185" x="49.5" y="431.292">Controllo utenza esistente</text><rect fill="#F8F8F8" height="50" rx="12.5" ry="12.5" style="stroke: #383838; stroke-width: 1.5;" width="144" x="17" y="516.2969"/><line style="stroke: #383838; stroke-width: 1.5;" x1="17" x2="161" y1="542.5938" y2="542.5938"/><text fill="#000000" font-family="sans-serif" font-size="14" lengthAdjust="spacingAndGlyphs" textLength="124" x="27" y="534.292">Creazione utenza</text><ellipse cx="142" cy="57.2969" fill="#000000" rx="10" ry="10" style="stroke: none; stroke-width: 1.0;"/><ellipse cx="166" cy="629.2969" fill="none" rx="10" ry="10" style="stroke: #000000; stroke-width: 1.0;"/><ellipse cx="166.5" cy="629.7969" fill="#000000" rx="6" ry="6" style="stroke: none; stroke-width: 1.0;"/><path d="M142,67.3082 C142,75.5512 142,87.6866 142,99.0398 " fill="none" style="stroke: #383838; stroke-width: 1.0;"/><polygon fill="#383838" points="142,104.1843,146,95.1843,142,99.1843,138,95.1843,142,104.1843" style="stroke: #383838; stroke-width: 1.0;"/><path d="M142,154.4935 C142,168.8337 142,186.8931 142,202.0022 " fill="none" style="stroke: #383838; stroke-width: 1.0;"/><polygon fill="#383838" points="142,207.0034,146,198.0034,142,202.0034,138,198.0034,142,207.0034" style="stroke: #383838; stroke-width: 1.0;"/><text fill="#000000" font-family="sans-serif" font-size="13" lengthAdjust="spacingAndGlyphs" textLength="35" x="143" y="185.3638">Login</text><path d="M198.5255,223.4031 C209.0723,224.4983 216.5,227.4629 216.5,232.2969 C216.5,236.3 211.4061,239.0212 203.6654,240.4603 " fill="none" style="stroke: #383838; stroke-width: 1.0;"/><polygon fill="#383838" points="198.5255,241.1907,207.9988,243.8844,203.4757,240.4871,206.8731,235.964,198.5255,241.1907" style="stroke: #383838; stroke-width: 1.0;"/><text fill="#000000" font-family="sans-serif" font-size="13" lengthAdjust="spacingAndGlyphs" textLength="153" x="222.5" y="236.8638">Inserimento credenziali</text><path d="M105.6992,257.4434 C100.5451,262.7118 95.9884,268.6985 93,275.2969 C87.9994,286.3382 92.5928,297.0417 100.6448,306.2768 " fill="none" style="stroke: #383838; stroke-width: 1.0;"/><polygon fill="#383838" points="104.2895,310.1414,101.0246,300.8494,100.859,306.5039,95.2045,306.3383,104.2895,310.1414" style="stroke: #383838; stroke-width: 1.0;"/><text fill="#000000" font-family="sans-serif" font-size="13" lengthAdjust="spacingAndGlyphs" textLength="76" x="94" y="288.3638">Dati inseriti</text><path d="M142,360.4935 C142,374.8337 142,392.8931 142,408.0022 " fill="none" style="stroke: #383838; stroke-width: 1.0;"/><polygon fill="#383838" points="142,413.0034,146,404.0034,142,408.0034,138,404.0034,142,413.0034" style="stroke: #383838; stroke-width: 1.0;"/><text fill="#000000" font-family="sans-serif" font-size="13" lengthAdjust="spacingAndGlyphs" textLength="78" x="143" y="391.3638">Dati corretti</text><path d="M163.7143,310.0117 C170.1465,299.5597 174.619,287.1355 171,275.2969 C169.6081,270.7438 167.5541,266.2372 165.1708,261.952 " fill="none" style="stroke: #383838; stroke-width: 1.0;"/><polygon fill="#383838" points="162.4712,257.3974,163.6191,267.1791,165.0206,261.6986,170.5011,263.1001,162.4712,257.3974" style="stroke: #383838; stroke-width: 1.0;"/><text fill="#000000" font-family="sans-serif" font-size="13" lengthAdjust="spacingAndGlyphs" textLength="66" x="173" y="288.3638">Dati errati</text><path d="M191.0807,463.379 C197.067,468.4908 202.3488,474.4451 206,481.2969 C230.7297,527.7052 193.4642,590.632 175.1649,616.9394 " fill="none" style="stroke: #383838; stroke-width: 1.0;"/><polygon fill="#383838" points="172.1951,621.1272,180.6642,616.0998,175.0875,617.0487,174.1386,611.472,172.1951,621.1272" style="stroke: #383838; stroke-width: 1.0;"/><text fill="#000000" font-family="sans-serif" font-size="13" lengthAdjust="spacingAndGlyphs" textLength="169" x="215" y="545.8638">Utenza esistente -&gt; Login</text><path d="M82.0592,463.4378 C75.6768,468.4463 70.0477,474.3562 66,481.2969 C60.4929,490.7402 62.5719,501.7454 67.2362,511.7331 " fill="none" style="stroke: #383838; stroke-width: 1.0;"/><polygon fill="#383838" points="69.5432,516.2411,69.0037,506.407,67.2653,511.7901,61.8822,510.0517,69.5432,516.2411" style="stroke: #383838; stroke-width: 1.0;"/><text fill="#000000" font-family="sans-serif" font-size="13" lengthAdjust="spacingAndGlyphs" textLength="138" x="67" y="494.3638">Utenza non esistente</text><path d="M111.2716,566.7501 C125.9567,583.5331 144.4974,604.7225 155.7906,617.629 " fill="none" style="stroke: #383838; stroke-width: 1.0;"/><polygon fill="#383838" points="159.3266,621.6701,156.4103,612.2629,156.034,617.9072,150.3897,617.531,159.3266,621.6701" style="stroke: #383838; stroke-width: 1.0;"/><text fill="#000000" font-family="sans-serif" font-size="13" lengthAdjust="spacingAndGlyphs" textLength="35" x="143" y="597.3638">Login</text></g></svg>