<?xml version="1.0" encoding="UTF-8" standalone="no"?><svg xmlns="http://www.w3.org/2000/svg" xmlns:xlink="http://www.w3.org/1999/xlink" contentScriptType="application/ecmascript" contentStyleType="text/css" height="552px" preserveAspectRatio="none" style="width:472px;height:552px;" version="1.1" viewBox="0 0 472 552" width="472px" zoomAndPan="magnify"><defs/><g><rect fill="#F8F8F8" height="543.2969" rx="12.5" ry="12.5" style="stroke: #383838; stroke-width: 1.5;" width="465" x="6" y="8"/><rect fill="#FFFFFF" height="511" rx="12.5" ry="12.5" style="stroke: #FFFFFF; stroke-width: 1.0;" width="459" x="9" y="37.2969"/><line style="stroke: #383838; stroke-width: 1.5;" x1="6" x2="471" y1="34.2969" y2="34.2969"/><text fill="#000000" font-family="sans-serif" font-size="14" lengthAdjust="spacingAndGlyphs" textLength="198" x="139.5" y="25.9951">Modalità modifica topologia</text><rect fill="#F8F8F8" height="50.2656" rx="12.5" ry="12.5" style="stroke: #383838; stroke-width: 1.5;" width="182" x="107.5" y="104.2969"/><line style="stroke: #383838; stroke-width: 1.5;" x1="107.5" x2="289.5" y1="130.5938" y2="130.5938"/><text fill="#000000" font-family="sans-serif" font-size="14" lengthAdjust="spacingAndGlyphs" textLength="162" x="117.5" y="122.292">Visualizzazione canvas</text><text fill="#000000" font-family="sans-serif" font-size="12" lengthAdjust="spacingAndGlyphs" textLength="79" x="112.5" y="146.7324">Attesa eventi</text><rect fill="#F8F8F8" height="50" rx="12.5" ry="12.5" style="stroke: #383838; stroke-width: 1.5;" width="217" x="17" y="207.2969"/><line style="stroke: #383838; stroke-width: 1.5;" x1="17" x2="234" y1="233.5938" y2="233.5938"/><text fill="#000000" font-family="sans-serif" font-size="14" lengthAdjust="spacingAndGlyphs" textLength="197" x="27" y="225.292">Scelta del tipo di dispositivo</text><rect fill="#F8F8F8" height="50" rx="12.5" ry="12.5" style="stroke: #383838; stroke-width: 1.5;" width="212" x="59.5" y="310.2969"/><line style="stroke: #383838; stroke-width: 1.5;" x1="59.5" x2="271.5" y1="336.5938" y2="336.5938"/><text fill="#000000" font-family="sans-serif" font-size="14" lengthAdjust="spacingAndGlyphs" textLength="192" x="69.5" y="328.292">Posizionamento nel canvas</text><rect fill="#F8F8F8" height="50" rx="12.5" ry="12.5" style="stroke: #383838; stroke-width: 1.5;" width="293" x="19" y="413.2969"/><line style="stroke: #383838; stroke-width: 1.5;" x1="19" x2="312" y1="439.5938" y2="439.5938"/><text fill="#000000" font-family="sans-serif" font-size="14" lengthAdjust="spacingAndGlyphs" textLength="273" x="29" y="431.292">Creazione del dispositivo nel database</text><ellipse cx="198.5" cy="57.2969" fill="#000000" rx="10" ry="10" style="stroke: none; stroke-width: 1.0;"/><ellipse cx="165.5" cy="526.2969" fill="none" rx="10" ry="10" style="stroke: #000000; stroke-width: 1.0;"/><ellipse cx="166" cy="526.7969" fill="#000000" rx="6" ry="6" style="stroke: none; stroke-width: 1.0;"/><path d="M198.5,67.3082 C198.5,75.5512 198.5,87.6866 198.5,99.0398 " fill="none" style="stroke: #383838; stroke-width: 1.0;"/><polygon fill="#383838" points="198.5,104.1843,202.5,95.1843,198.5,99.1843,194.5,95.1843,198.5,104.1843" style="stroke: #383838; stroke-width: 1.0;"/><path d="M154.0517,154.3533 C147.7207,159.571 141.8829,165.5645 137.5,172.2969 C131.8243,181.0152 128.7349,191.8435 127.0836,201.8916 " fill="none" style="stroke: #383838; stroke-width: 1.0;"/><polygon fill="#383838" points="126.3452,207.0597,131.5783,198.7162,127.0526,202.11,123.6588,197.5843,126.3452,207.0597" style="stroke: #383838; stroke-width: 1.0;"/><text fill="#000000" font-family="sans-serif" font-size="13" lengthAdjust="spacingAndGlyphs" textLength="117" x="138.5" y="185.3638">Nuovo dispositivo</text><path d="M122.0341,257.2987 C121.4676,268.3765 122.1699,281.3497 126.5,292.2969 C128.3906,297.0766 131.0757,301.6584 134.1638,305.9316 " fill="none" style="stroke: #383838; stroke-width: 1.0;"/><polygon fill="#383838" points="137.3717,310.0978,135.0503,300.5264,134.3213,306.1361,128.7116,305.4071,137.3717,310.0978" style="stroke: #383838; stroke-width: 1.0;"/><text fill="#000000" font-family="sans-serif" font-size="13" lengthAdjust="spacingAndGlyphs" textLength="15" x="127.5" y="288.3638">L2</text><path d="M136.3504,257.6858 C138.7541,263.4555 141.2532,269.5713 143.5,275.2969 C147.2963,284.9714 151.26,295.5993 154.7602,305.1874 " fill="none" style="stroke: #383838; stroke-width: 1.0;"/><polygon fill="#383838" points="156.5451,310.0961,157.2289,300.271,154.8365,305.3971,149.7104,303.0047,156.5451,310.0961" style="stroke: #383838; stroke-width: 1.0;"/><text fill="#000000" font-family="sans-serif" font-size="13" lengthAdjust="spacingAndGlyphs" textLength="15" x="151.5" y="288.3638">L3</text><path d="M271.7728,327.5904 C282.5926,329.1148 289.5,331.6836 289.5,335.2969 C289.5,338.2891 284.763,340.5651 276.9898,342.1248 " fill="none" style="stroke: #383838; stroke-width: 1.0;"/><polygon fill="#383838" points="271.7728,343.0034,281.3121,345.4534,276.7034,342.1731,279.9836,337.5644,271.7728,343.0034" style="stroke: #383838; stroke-width: 1.0;"/><text fill="#000000" font-family="sans-serif" font-size="13" lengthAdjust="spacingAndGlyphs" textLength="136" x="295.5" y="339.8638">Posiziona nel canvas</text><path d="M198.0981,310.0403 C213.8481,296.1372 231.6439,277.6013 242.5,257.2969 C257.0488,230.086 253.3728,219.9941 256.5,189.2969 C257.2657,181.7802 259.8977,179.0454 256.5,172.2969 C253.8577,167.0488 250.2385,162.2809 246.0887,157.9933 " fill="none" style="stroke: #383838; stroke-width: 1.0;"/><polygon fill="#383838" points="242.4878,154.5047,246.1685,163.6399,246.0789,157.9838,251.735,157.8942,242.4878,154.5047" style="stroke: #383838; stroke-width: 1.0;"/><text fill="#000000" font-family="sans-serif" font-size="13" lengthAdjust="spacingAndGlyphs" textLength="49" x="256.5" y="236.8638">Annulla</text><path d="M165.5,360.4935 C165.5,374.8337 165.5,392.8931 165.5,408.0022 " fill="none" style="stroke: #383838; stroke-width: 1.0;"/><polygon fill="#383838" points="165.5,413.0034,169.5,404.0034,165.5,408.0034,161.5,404.0034,165.5,413.0034" style="stroke: #383838; stroke-width: 1.0;"/><text fill="#000000" font-family="sans-serif" font-size="13" lengthAdjust="spacingAndGlyphs" textLength="146" x="166.5" y="391.3638">Memorizza dispositivo</text><path d="M165.5,463.7501 C165.5,479.0293 165.5,497.9606 165.5,510.9693 " fill="none" style="stroke: #383838; stroke-width: 1.0;"/><polygon fill="#383838" points="165.5,516.1539,169.5,507.1539,165.5,511.1539,161.5,507.1539,165.5,516.1539" style="stroke: #383838; stroke-width: 1.0;"/><text fill="#000000" font-family="sans-serif" font-size="13" lengthAdjust="spacingAndGlyphs" textLength="214" x="166.5" y="494.3638">Visualizza dispositivo sul canvas</text></g></svg>