<?xml version="1.0" encoding="UTF-8" standalone="no"?><svg xmlns="http://www.w3.org/2000/svg" xmlns:xlink="http://www.w3.org/1999/xlink" contentScriptType="application/ecmascript" contentStyleType="text/css" height="582px" preserveAspectRatio="none" style="width:481px;height:582px;" version="1.1" viewBox="0 0 481 582" width="481px" zoomAndPan="magnify"><defs/><g><rect fill="#F8F8F8" height="573.2969" rx="12.5" ry="12.5" style="stroke: #383838; stroke-width: 1.5;" width="474" x="6" y="8"/><rect fill="#FFFFFF" height="541" rx="12.5" ry="12.5" style="stroke: #FFFFFF; stroke-width: 1.0;" width="468" x="9" y="37.2969"/><line style="stroke: #383838; stroke-width: 1.5;" x1="6" x2="480" y1="34.2969" y2="34.2969"/><text fill="#000000" font-family="sans-serif" font-size="14" lengthAdjust="spacingAndGlyphs" textLength="198" x="144" y="25.9951">Modalità modifica topologia</text><rect fill="#F8F8F8" height="50.2656" rx="12.5" ry="12.5" style="stroke: #383838; stroke-width: 1.5;" width="182" x="138" y="104.2969"/><line style="stroke: #383838; stroke-width: 1.5;" x1="138" x2="320" y1="130.5938" y2="130.5938"/><text fill="#000000" font-family="sans-serif" font-size="14" lengthAdjust="spacingAndGlyphs" textLength="162" x="148" y="122.292">Visualizzazione canvas</text><text fill="#000000" font-family="sans-serif" font-size="12" lengthAdjust="spacingAndGlyphs" textLength="79" x="143" y="146.7324">Attesa eventi</text><rect fill="#F8F8F8" height="50" rx="12.5" ry="12.5" style="stroke: #383838; stroke-width: 1.5;" width="152" x="17" y="207.2969"/><line style="stroke: #383838; stroke-width: 1.5;" x1="17" x2="169" y1="233.5938" y2="233.5938"/><text fill="#000000" font-family="sans-serif" font-size="14" lengthAdjust="spacingAndGlyphs" textLength="132" x="27" y="225.292">Modalità selezione</text><rect fill="#F8F8F8" height="50" rx="12.5" ry="12.5" style="stroke: #383838; stroke-width: 1.5;" width="185" x="135.5" y="310.2969"/><line style="stroke: #383838; stroke-width: 1.5;" x1="135.5" x2="320.5" y1="336.5938" y2="336.5938"/><text fill="#000000" font-family="sans-serif" font-size="14" lengthAdjust="spacingAndGlyphs" textLength="165" x="145.5" y="328.292">Messaggio di conferma</text><rect fill="#F8F8F8" height="50" rx="12.5" ry="12.5" style="stroke: #383838; stroke-width: 1.5;" width="279" x="88.5" y="413.2969"/><line style="stroke: #383838; stroke-width: 1.5;" x1="88.5" x2="367.5" y1="439.5938" y2="439.5938"/><text fill="#000000" font-family="sans-serif" font-size="14" lengthAdjust="spacingAndGlyphs" textLength="259" x="98.5" y="431.292">Eliminazione elemento dal database</text><rect fill="#F8F8F8" height="50" rx="12.5" ry="12.5" style="stroke: #383838; stroke-width: 1.5;" width="161" x="68.5" y="516.2969"/><line style="stroke: #383838; stroke-width: 1.5;" x1="68.5" x2="229.5" y1="542.5938" y2="542.5938"/><text fill="#000000" font-family="sans-serif" font-size="14" lengthAdjust="spacingAndGlyphs" textLength="141" x="78.5" y="534.292">Messaggio di errore</text><ellipse cx="229" cy="57.2969" fill="#000000" rx="10" ry="10" style="stroke: none; stroke-width: 1.0;"/><ellipse cx="308" cy="541.2969" fill="none" rx="10" ry="10" style="stroke: #000000; stroke-width: 1.0;"/><ellipse cx="308.5" cy="541.7969" fill="#000000" rx="6" ry="6" style="stroke: none; stroke-width: 1.0;"/><path d="M229,67.3082 C229,75.5512 229,87.6866 229,99.0398 " fill="none" style="stroke: #383838; stroke-width: 1.0;"/><polygon fill="#383838" points="229,104.1843,233,95.1843,229,99.1843,225,95.1843,229,104.1843" style="stroke: #383838; stroke-width: 1.0;"/><path d="M195.7307,154.4935 C175.9729,169.4571 150.8678,188.4705 130.4214,203.9557 " fill="none" style="stroke: #383838; stroke-width: 1.0;"/><polygon fill="#383838" points="126.3972,207.0034,135.9868,204.7584,130.3831,203.9846,131.1568,198.381,126.3972,207.0034" style="stroke: #383838; stroke-width: 1.0;"/><text fill="#000000" font-family="sans-serif" font-size="13" lengthAdjust="spacingAndGlyphs" textLength="115" x="171" y="185.3638">Elimina elemento</text><path d="M169.3472,223.9313 C179.9278,225.3091 187,228.0977 187,232.2969 C187,235.7744 182.15,238.2844 174.4738,239.827 " fill="none" style="stroke: #383838; stroke-width: 1.0;"/><polygon fill="#383838" points="169.3472,240.6625,178.8734,243.1627,174.2821,239.8582,177.5866,235.2668,169.3472,240.6625" style="stroke: #383838; stroke-width: 1.0;"/><text fill="#000000" font-family="sans-serif" font-size="13" lengthAdjust="spacingAndGlyphs" textLength="129" x="193" y="236.8638">Seleziona elemento</text><path d="M126.0247,257.4935 C145.6372,272.4571 170.5577,291.4705 190.8537,306.9557 " fill="none" style="stroke: #383838; stroke-width: 1.0;"/><polygon fill="#383838" points="194.8483,310.0034,190.1193,301.3641,190.8732,306.9705,185.2668,307.7243,194.8483,310.0034" style="stroke: #383838; stroke-width: 1.0;"/><text fill="#000000" font-family="sans-serif" font-size="13" lengthAdjust="spacingAndGlyphs" textLength="64" x="170" y="288.3638">Conferma</text><path d="M228,360.4935 C228,374.8337 228,392.8931 228,408.0022 " fill="none" style="stroke: #383838; stroke-width: 1.0;"/><polygon fill="#383838" points="228,413.0034,232,404.0034,228,408.0034,224,404.0034,228,413.0034" style="stroke: #383838; stroke-width: 1.0;"/><text fill="#000000" font-family="sans-serif" font-size="13" lengthAdjust="spacingAndGlyphs" textLength="18" x="229" y="391.3638">Ok</text><path d="M282.7879,310.1647 C303.7245,297.5041 325.3505,279.9582 337,257.2969 C347.1599,237.5332 346.8692,227.2073 337,207.2969 C326.5432,186.2011 307.3245,169.5488 287.966,157.142 " fill="none" style="stroke: #383838; stroke-width: 1.0;"/><polygon fill="#383838" points="283.5751,154.3997,289.0898,162.5598,287.816,157.0483,293.3275,155.7744,283.5751,154.3997" style="stroke: #383838; stroke-width: 1.0;"/><text fill="#000000" font-family="sans-serif" font-size="13" lengthAdjust="spacingAndGlyphs" textLength="49" x="346" y="236.8638">Annulla</text><path d="M166.2467,463.5711 C159.8269,468.5432 154.1466,474.4078 150,481.2969 C144.7387,490.0381 143.3563,500.8717 143.6552,510.9177 " fill="none" style="stroke: #383838; stroke-width: 1.0;"/><polygon fill="#383838" points="143.953,516.0841,147.4282,506.8687,143.6651,511.0924,139.4415,507.3293,143.953,516.0841" style="stroke: #383838; stroke-width: 1.0;"/><text fill="#000000" font-family="sans-serif" font-size="13" lengthAdjust="spacingAndGlyphs" textLength="134" x="151" y="494.3638">: Eliminazione fallita</text><path d="M268.5323,463.492 C274.9793,468.7885 281.1203,474.7721 286,481.2969 C296.0004,494.6687 301.8461,513.0551 304.9658,525.9385 " fill="none" style="stroke: #383838; stroke-width: 1.0;"/><polygon fill="#383838" points="306.14,531.0924,308.0405,521.4286,305.0292,526.2173,300.2405,523.206,306.14,531.0924" style="stroke: #383838; stroke-width: 1.0;"/><text fill="#000000" font-family="sans-serif" font-size="13" lengthAdjust="spacingAndGlyphs" textLength="149" x="297" y="494.3638">Eliminazione avvenuta</text></g></svg>