<?xml version="1.0" encoding="UTF-8" standalone="no"?><svg xmlns="http://www.w3.org/2000/svg" xmlns:xlink="http://www.w3.org/1999/xlink" contentScriptType="application/ecmascript" contentStyleType="text/css" height="479px" preserveAspectRatio="none" style="width:425px;height:479px;" version="1.1" viewBox="0 0 425 479" width="425px" zoomAndPan="magnify"><defs/><g><rect fill="#F8F8F8" height="470.2969" rx="12.5" ry="12.5" style="stroke: #383838; stroke-width: 1.5;" width="418" x="6" y="8"/><rect fill="#FFFFFF" height="438" rx="12.5" ry="12.5" style="stroke: #FFFFFF; stroke-width: 1.0;" width="412" x="9" y="37.2969"/><line style="stroke: #383838; stroke-width: 1.5;" x1="6" x2="424" y1="34.2969" y2="34.2969"/><text fill="#000000" font-family="sans-serif" font-size="14" lengthAdjust="spacingAndGlyphs" textLength="198" x="116" y="25.9951">Modalità modifica topologia</text><rect fill="#F8F8F8" height="50.2656" rx="12.5" ry="12.5" style="stroke: #383838; stroke-width: 1.5;" width="182" x="60.5" y="104.2969"/><line style="stroke: #383838; stroke-width: 1.5;" x1="60.5" x2="242.5" y1="130.5938" y2="130.5938"/><text fill="#000000" font-family="sans-serif" font-size="14" lengthAdjust="spacingAndGlyphs" textLength="162" x="70.5" y="122.292">Visualizzazione canvas</text><text fill="#000000" font-family="sans-serif" font-size="12" lengthAdjust="spacingAndGlyphs" textLength="79" x="65.5" y="146.7324">Attesa eventi</text><rect fill="#F8F8F8" height="50" rx="12.5" ry="12.5" style="stroke: #383838; stroke-width: 1.5;" width="204" x="49.5" y="207.2969"/><line style="stroke: #383838; stroke-width: 1.5;" x1="49.5" x2="253.5" y1="233.5938" y2="233.5938"/><text fill="#000000" font-family="sans-serif" font-size="14" lengthAdjust="spacingAndGlyphs" textLength="184" x="59.5" y="225.292">Finestra di configurazione</text><rect fill="#F8F8F8" height="50" rx="12.5" ry="12.5" style="stroke: #383838; stroke-width: 1.5;" width="200" x="51.5" y="310.2969"/><line style="stroke: #383838; stroke-width: 1.5;" x1="51.5" x2="251.5" y1="336.5938" y2="336.5938"/><text fill="#000000" font-family="sans-serif" font-size="14" lengthAdjust="spacingAndGlyphs" textLength="180" x="61.5" y="328.292">Salvataggio nel database</text><rect fill="#F8F8F8" height="50" rx="12.5" ry="12.5" style="stroke: #383838; stroke-width: 1.5;" width="161" x="17" y="413.2969"/><line style="stroke: #383838; stroke-width: 1.5;" x1="17" x2="178" y1="439.5938" y2="439.5938"/><text fill="#000000" font-family="sans-serif" font-size="14" lengthAdjust="spacingAndGlyphs" textLength="141" x="27" y="431.292">Messaggio di errore</text><ellipse cx="151.5" cy="57.2969" fill="#000000" rx="10" ry="10" style="stroke: none; stroke-width: 1.0;"/><ellipse cx="206.5" cy="438.2969" fill="none" rx="10" ry="10" style="stroke: #000000; stroke-width: 1.0;"/><ellipse cx="207" cy="438.7969" fill="#000000" rx="6" ry="6" style="stroke: none; stroke-width: 1.0;"/><path d="M151.5,67.3082 C151.5,75.5512 151.5,87.6866 151.5,99.0398 " fill="none" style="stroke: #383838; stroke-width: 1.0;"/><polygon fill="#383838" points="151.5,104.1843,155.5,95.1843,151.5,99.1843,147.5,95.1843,151.5,104.1843" style="stroke: #383838; stroke-width: 1.0;"/><path d="M106.9989,154.3638 C95.5357,164.2293 88.0284,176.3083 94.5,189.2969 C97.1345,194.5843 100.7634,199.3933 104.9252,203.7188 " fill="none" style="stroke: #383838; stroke-width: 1.0;"/><polygon fill="#383838" points="108.5364,207.2383,104.883,198.0921,104.9557,203.7485,99.2993,203.8211,108.5364,207.2383" style="stroke: #383838; stroke-width: 1.0;"/><text fill="#000000" font-family="sans-serif" font-size="13" lengthAdjust="spacingAndGlyphs" textLength="91" x="95.5" y="185.3638">Configura link</text><path d="M253.9181,224.5292 C264.6335,226.0456 271.5,228.6348 271.5,232.2969 C271.5,235.3296 266.791,237.6265 259.0868,239.1876 " fill="none" style="stroke: #383838; stroke-width: 1.0;"/><polygon fill="#383838" points="253.9181,240.0646,263.4604,242.5026,258.8476,239.2282,262.1221,234.6154,253.9181,240.0646" style="stroke: #383838; stroke-width: 1.0;"/><text fill="#000000" font-family="sans-serif" font-size="13" lengthAdjust="spacingAndGlyphs" textLength="107" x="277.5" y="236.8638">Inserimento dati</text><path d="M151.5,257.4935 C151.5,271.8337 151.5,289.8931 151.5,305.0022 " fill="none" style="stroke: #383838; stroke-width: 1.0;"/><polygon fill="#383838" points="151.5,310.0034,155.5,301.0034,151.5,305.0034,147.5,301.0034,151.5,310.0034" style="stroke: #383838; stroke-width: 1.0;"/><text fill="#000000" font-family="sans-serif" font-size="13" lengthAdjust="spacingAndGlyphs" textLength="18" x="152.5" y="288.3638">Ok</text><path d="M177.5713,206.8546 C181.6392,201.4702 185.2391,195.5195 187.5,189.2969 C191.3133,178.8017 187.7467,168.1077 181.6082,158.7107 " fill="none" style="stroke: #383838; stroke-width: 1.0;"/><polygon fill="#383838" points="178.6241,154.4899,180.5535,164.1479,181.5105,158.5726,187.0858,159.5296,178.6241,154.4899" style="stroke: #383838; stroke-width: 1.0;"/><text fill="#000000" font-family="sans-serif" font-size="13" lengthAdjust="spacingAndGlyphs" textLength="49" x="190.5" y="185.3638">Annulla</text><path d="M138.2901,360.4935 C130.7066,374.9584 121.1391,393.2075 113.1764,408.3957 " fill="none" style="stroke: #383838; stroke-width: 1.0;"/><polygon fill="#383838" points="110.7607,413.0034,118.4823,406.8897,113.0824,408.5751,111.397,403.1751,110.7607,413.0034" style="stroke: #383838; stroke-width: 1.0;"/><text fill="#000000" font-family="sans-serif" font-size="13" lengthAdjust="spacingAndGlyphs" textLength="39" x="129.5" y="391.3638">Errore</text><path d="M164.9545,360.4935 C175.6758,380.5716 190.2904,407.9408 199.0231,424.2946 " fill="none" style="stroke: #383838; stroke-width: 1.0;"/><polygon fill="#383838" points="201.5335,428.996,200.8225,419.1728,199.1782,424.5854,193.7656,422.9412,201.5335,428.996" style="stroke: #383838; stroke-width: 1.0;"/><text fill="#000000" font-family="sans-serif" font-size="13" lengthAdjust="spacingAndGlyphs" textLength="150" x="183.5" y="391.3638">Configurazione salvata</text></g></svg>