<?xml version="1.0" encoding="UTF-8" standalone="no"?><svg xmlns="http://www.w3.org/2000/svg" xmlns:xlink="http://www.w3.org/1999/xlink" contentScriptType="application/ecmascript" contentStyleType="text/css" height="742px" preserveAspectRatio="none" style="width:445px;height:742px;" version="1.1" viewBox="0 0 445 742" width="445px" zoomAndPan="magnify"><defs/><g><rect fill="#F8F8F8" height="733.2969" rx="12.5" ry="12.5" style="stroke: #383838; stroke-width: 1.5;" width="438" x="6" y="8"/><rect fill="#FFFFFF" height="701" rx="12.5" ry="12.5" style="stroke: #FFFFFF; stroke-width: 1.0;" width="432" x="9" y="37.2969"/><line style="stroke: #383838; stroke-width: 1.5;" x1="6" x2="444" y1="34.2969" y2="34.2969"/><text fill="#000000" font-family="sans-serif" font-size="14" lengthAdjust="spacingAndGlyphs" textLength="198" x="126" y="25.9951">Modalità modifica topologia</text><rect fill="#F8F8F8" height="50.2656" rx="12.5" ry="12.5" style="stroke: #383838; stroke-width: 1.5;" width="182" x="170.5" y="104.2969"/><line style="stroke: #383838; stroke-width: 1.5;" x1="170.5" x2="352.5" y1="130.5938" y2="130.5938"/><text fill="#000000" font-family="sans-serif" font-size="14" lengthAdjust="spacingAndGlyphs" textLength="162" x="180.5" y="122.292">Visualizzazione canvas</text><text fill="#000000" font-family="sans-serif" font-size="12" lengthAdjust="spacingAndGlyphs" textLength="79" x="175.5" y="146.7324">Attesa eventi</text><rect fill="#F8F8F8" height="50" rx="12.5" ry="12.5" style="stroke: #383838; stroke-width: 1.5;" width="152" x="107.5" y="207.2969"/><line style="stroke: #383838; stroke-width: 1.5;" x1="107.5" x2="259.5" y1="233.5938" y2="233.5938"/><text fill="#000000" font-family="sans-serif" font-size="14" lengthAdjust="spacingAndGlyphs" textLength="132" x="117.5" y="225.292">Modalità selezione</text><rect fill="#F8F8F8" height="50" rx="12.5" ry="12.5" style="stroke: #383838; stroke-width: 1.5;" width="225" x="17" y="310.2969"/><line style="stroke: #383838; stroke-width: 1.5;" x1="17" x2="242" y1="336.5938" y2="336.5938"/><text fill="#000000" font-family="sans-serif" font-size="14" lengthAdjust="spacingAndGlyphs" textLength="205" x="27" y="328.292">Primo dispositivo selezionato</text><rect fill="#F8F8F8" height="50.2656" rx="12.5" ry="12.5" style="stroke: #383838; stroke-width: 1.5;" width="246" x="108.5" y="413.2969"/><line style="stroke: #383838; stroke-width: 1.5;" x1="108.5" x2="354.5" y1="439.5938" y2="439.5938"/><text fill="#000000" font-family="sans-serif" font-size="14" lengthAdjust="spacingAndGlyphs" textLength="226" x="118.5" y="431.292">Secondo dispositivo selezionato</text><text fill="#000000" font-family="sans-serif" font-size="12" lengthAdjust="spacingAndGlyphs" textLength="138" x="113.5" y="455.7324">Messaggio di conferma</text><rect fill="#F8F8F8" height="50" rx="12.5" ry="12.5" style="stroke: #383838; stroke-width: 1.5;" width="293" x="85" y="516.2969"/><line style="stroke: #383838; stroke-width: 1.5;" x1="85" x2="378" y1="542.5938" y2="542.5938"/><text fill="#000000" font-family="sans-serif" font-size="14" lengthAdjust="spacingAndGlyphs" textLength="273" x="95" y="534.292">Creazione del dispositivo nel database</text><rect fill="#F8F8F8" height="50" rx="12.5" ry="12.5" style="stroke: #383838; stroke-width: 1.5;" width="161" x="151" y="619.2969"/><line style="stroke: #383838; stroke-width: 1.5;" x1="151" x2="312" y1="645.5938" y2="645.5938"/><text fill="#000000" font-family="sans-serif" font-size="14" lengthAdjust="spacingAndGlyphs" textLength="141" x="161" y="637.292">Messaggio di errore</text><ellipse cx="261.5" cy="57.2969" fill="#000000" rx="10" ry="10" style="stroke: none; stroke-width: 1.0;"/><ellipse cx="231.5" cy="716.2969" fill="none" rx="10" ry="10" style="stroke: #000000; stroke-width: 1.0;"/><ellipse cx="232" cy="716.7969" fill="#000000" rx="6" ry="6" style="stroke: none; stroke-width: 1.0;"/><path d="M261.5,67.3082 C261.5,75.5512 261.5,87.6866 261.5,99.0398 " fill="none" style="stroke: #383838; stroke-width: 1.0;"/><polygon fill="#383838" points="261.5,104.1843,265.5,95.1843,261.5,99.1843,257.5,95.1843,261.5,104.1843" style="stroke: #383838; stroke-width: 1.0;"/><path d="M242.4191,154.4935 C231.3707,169.0831 217.4069,187.5224 205.8467,202.7878 " fill="none" style="stroke: #383838; stroke-width: 1.0;"/><polygon fill="#383838" points="202.6543,207.0034,211.2765,202.2434,205.6729,203.0174,204.8989,197.4137,202.6543,207.0034" style="stroke: #383838; stroke-width: 1.0;"/><text fill="#000000" font-family="sans-serif" font-size="13" lengthAdjust="spacingAndGlyphs" textLength="85" x="228.5" y="185.3638">Aggiungi link</text><path d="M147.6576,257.6626 C142.4526,262.9067 137.76,268.8284 134.5,275.2969 C129.9331,284.3585 128.1108,295.1756 127.6083,305.1138 " fill="none" style="stroke: #383838; stroke-width: 1.0;"/><polygon fill="#383838" points="127.4583,310.2168,131.7212,301.3383,127.6053,305.2189,123.7246,301.1031,127.4583,310.2168" style="stroke: #383838; stroke-width: 1.0;"/><text fill="#000000" font-family="sans-serif" font-size="13" lengthAdjust="spacingAndGlyphs" textLength="180" x="135.5" y="288.3638">Seleziona primo dispositivo</text><path d="M121.7409,360.4899 C119.7423,371.9898 119.7583,385.2509 126.5,395.2969 C130.2612,400.9017 134.8968,405.7764 140.1051,410.0161 " fill="none" style="stroke: #383838; stroke-width: 1.0;"/><polygon fill="#383838" points="144.1947,413.1361,139.4655,404.4969,140.2195,410.1033,134.6131,410.8573,144.1947,413.1361" style="stroke: #383838; stroke-width: 1.0;"/><text fill="#000000" font-family="sans-serif" font-size="13" lengthAdjust="spacingAndGlyphs" textLength="196" x="127.5" y="391.3638">Seleziona secondo dispositivo</text><path d="M231.5,463.4935 C231.5,477.8337 231.5,495.8931 231.5,511.0022 " fill="none" style="stroke: #383838; stroke-width: 1.0;"/><polygon fill="#383838" points="231.5,516.0034,235.5,507.0034,231.5,511.0034,227.5,507.0034,231.5,516.0034" style="stroke: #383838; stroke-width: 1.0;"/><text fill="#000000" font-family="sans-serif" font-size="13" lengthAdjust="spacingAndGlyphs" textLength="18" x="232.5" y="494.3638">Ok</text><path d="M307.2419,413.1974 C314.0119,408.2475 319.9965,402.3407 324.5,395.2969 C377.9071,311.7637 364.0029,260.3856 318.5,172.2969 C315.7888,167.0484 312.1118,162.2638 307.9224,157.9523 " fill="none" style="stroke: #383838; stroke-width: 1.0;"/><polygon fill="#383838" points="304.2927,154.4422,307.9817,163.5741,307.887,157.918,313.543,157.8233,304.2927,154.4422" style="stroke: #383838; stroke-width: 1.0;"/><text fill="#000000" font-family="sans-serif" font-size="13" lengthAdjust="spacingAndGlyphs" textLength="49" x="360.5" y="288.3638">Annulla</text><path d="M207.9063,566.5318 C204.0445,572.0179 200.6176,578.0593 198.5,584.2969 C194.9538,594.7423 198.3137,605.4983 204.0392,614.9673 " fill="none" style="stroke: #383838; stroke-width: 1.0;"/><polygon fill="#383838" points="206.82,619.2216,205.244,609.4996,204.0843,615.0364,198.5476,613.8767,206.82,619.2216" style="stroke: #383838; stroke-width: 1.0;"/><text fill="#000000" font-family="sans-serif" font-size="13" lengthAdjust="spacingAndGlyphs" textLength="43" x="199.5" y="597.3638">Creato</text><path d="M239.77,566.5221 C241.3187,572.3003 242.7009,578.4609 243.5,584.2969 C244.8376,594.066 243.6276,604.6388 241.5417,614.1482 " fill="none" style="stroke: #383838; stroke-width: 1.0;"/><polygon fill="#383838" points="240.3799,619.0142,246.3608,611.1893,241.5412,614.1509,238.5796,609.3313,240.3799,619.0142" style="stroke: #383838; stroke-width: 1.0;"/><text fill="#000000" font-family="sans-serif" font-size="13" lengthAdjust="spacingAndGlyphs" textLength="39" x="245.5" y="597.3638">Errore</text><path d="M231.5,669.479 C231.5,680.0555 231.5,692.0054 231.5,701.1849 " fill="none" style="stroke: #383838; stroke-width: 1.0;"/><polygon fill="#383838" points="231.5,706.2383,235.5,697.2383,231.5,701.2383,227.5,697.2383,231.5,706.2383" style="stroke: #383838; stroke-width: 1.0;"/></g></svg>