<?xml version="1.0" encoding="UTF-8" standalone="no"?><svg xmlns="http://www.w3.org/2000/svg" xmlns:xlink="http://www.w3.org/1999/xlink" contentScriptType="application/ecmascript" contentStyleType="text/css" height="376px" preserveAspectRatio="none" style="width:510px;height:376px;" version="1.1" viewBox="0 0 510 376" width="510px" zoomAndPan="magnify"><defs/><g><rect fill="#F8F8F8" height="367.2969" rx="12.5" ry="12.5" style="stroke: #383838; stroke-width: 1.5;" width="503" x="6" y="8"/><rect fill="#FFFFFF" height="335" rx="12.5" ry="12.5" style="stroke: #FFFFFF; stroke-width: 1.0;" width="497" x="9" y="37.2969"/><line style="stroke: #383838; stroke-width: 1.5;" x1="6" x2="509" y1="34.2969" y2="34.2969"/><text fill="#000000" font-family="sans-serif" font-size="14" lengthAdjust="spacingAndGlyphs" textLength="198" x="158.5" y="25.9951">Modalità modifica topologia</text><rect fill="#F8F8F8" height="50.2656" rx="12.5" ry="12.5" style="stroke: #383838; stroke-width: 1.5;" width="214" x="128" y="104.2969"/><line style="stroke: #383838; stroke-width: 1.5;" x1="128" x2="342" y1="130.5938" y2="130.5938"/><text fill="#000000" font-family="sans-serif" font-size="14" lengthAdjust="spacingAndGlyphs" textLength="194" x="138" y="122.292">Visualizzazione pagina web</text><text fill="#000000" font-family="sans-serif" font-size="12" lengthAdjust="spacingAndGlyphs" textLength="79" x="133" y="146.7324">Attesa eventi</text><rect fill="#F8F8F8" height="50" rx="12.5" ry="12.5" style="stroke: #383838; stroke-width: 1.5;" width="103" x="107.5" y="207.2969"/><line style="stroke: #383838; stroke-width: 1.5;" x1="107.5" x2="210.5" y1="233.5938" y2="233.5938"/><text fill="#000000" font-family="sans-serif" font-size="14" lengthAdjust="spacingAndGlyphs" textLength="83" x="117.5" y="225.292">Validazione</text><rect fill="#F8F8F8" height="50" rx="12.5" ry="12.5" style="stroke: #383838; stroke-width: 1.5;" width="65" x="202.5" y="310.2969"/><line style="stroke: #383838; stroke-width: 1.5;" x1="202.5" x2="267.5" y1="336.5938" y2="336.5938"/><text fill="#000000" font-family="sans-serif" font-size="14" lengthAdjust="spacingAndGlyphs" textLength="45" x="212.5" y="328.292">Errore</text><ellipse cx="235" cy="57.2969" fill="#000000" rx="10" ry="10" style="stroke: none; stroke-width: 1.0;"/><ellipse cx="27" cy="335.2969" fill="none" rx="10" ry="10" style="stroke: #000000; stroke-width: 1.0;"/><ellipse cx="27.5" cy="335.7969" fill="#000000" rx="6" ry="6" style="stroke: none; stroke-width: 1.0;"/><path d="M235,67.3082 C235,75.5512 235,87.6866 235,99.0398 " fill="none" style="stroke: #383838; stroke-width: 1.0;"/><polygon fill="#383838" points="235,104.1843,239,95.1843,235,99.1843,231,95.1843,235,104.1843" style="stroke: #383838; stroke-width: 1.0;"/><path d="M204.6878,154.6994 C199.0923,160.1718 193.5784,166.1652 189,172.2969 C182.1116,181.5223 176.0696,192.5701 171.2475,202.6572 " fill="none" style="stroke: #383838; stroke-width: 1.0;"/><polygon fill="#383838" points="169.1191,207.2141,176.552,200.7525,171.2351,202.6839,169.3037,197.3669,169.1191,207.2141" style="stroke: #383838; stroke-width: 1.0;"/><text fill="#000000" font-family="sans-serif" font-size="13" lengthAdjust="spacingAndGlyphs" textLength="106" x="190" y="185.3638">Scelta ambiente</text><path d="M107.3476,240.0546 C84.3694,246.0407 58.7741,256.6204 42,275.2969 C31.0766,287.4591 27.8406,306.3769 27.0118,319.7131 " fill="none" style="stroke: #383838; stroke-width: 1.0;"/><polygon fill="#383838" points="26.7885,325.0509,31.1612,316.2259,26.9975,320.0552,23.1682,315.8915,26.7885,325.0509" style="stroke: #383838; stroke-width: 1.0;"/><text fill="#000000" font-family="sans-serif" font-size="13" lengthAdjust="spacingAndGlyphs" textLength="107" x="43" y="288.3638">Ambiente valido</text><path d="M154.0315,257.4629 C153.0872,268.8251 153.9078,281.9807 160,292.2969 C168.2969,306.3464 183.0719,316.2178 197.327,322.926 " fill="none" style="stroke: #383838; stroke-width: 1.0;"/><polygon fill="#383838" points="202.1313,325.0812,195.5568,317.748,197.5693,323.0347,192.2825,325.0472,202.1313,325.0812" style="stroke: #383838; stroke-width: 1.0;"/><text fill="#000000" font-family="sans-serif" font-size="13" lengthAdjust="spacingAndGlyphs" textLength="135" x="161" y="288.3638">Ambiente non valido</text><path d="M267.6082,320.7834 C279.0454,313.9063 290.6217,304.4828 297,292.2969 C321.7326,245.045 321.7326,219.5488 297,172.2969 C294.2,166.9474 290.3983,162.1303 286.0464,157.8273 " fill="none" style="stroke: #383838; stroke-width: 1.0;"/><polygon fill="#383838" points="282.2713,154.3332,286.1595,163.3821,285.9408,157.7294,291.5935,157.5108,282.2713,154.3332" style="stroke: #383838; stroke-width: 1.0;"/><text fill="#000000" font-family="sans-serif" font-size="13" lengthAdjust="spacingAndGlyphs" textLength="158" x="317" y="236.8638">Torna a scelta ambiente</text></g></svg>