<?xml version="1.0" encoding="UTF-8" standalone="no"?><svg xmlns="http://www.w3.org/2000/svg" xmlns:xlink="http://www.w3.org/1999/xlink" contentScriptType="application/ecmascript" contentStyleType="text/css" height="283px" preserveAspectRatio="none" style="width:385px;height:283px;" version="1.1" viewBox="0 0 385 283" width="385px" zoomAndPan="magnify"><defs/><g><rect fill="#F8F8F8" height="50" rx="12.5" ry="12.5" style="stroke: #383838; stroke-width: 1.5;" width="132" x="123.5" y="105"/><line style="stroke: #383838; stroke-width: 1.5;" x1="123.5" x2="255.5" y1="131.2969" y2="131.2969"/><text fill="#000000" font-family="sans-serif" font-size="14" lengthAdjust="spacingAndGlyphs" textLength="112" x="133.5" y="122.9951">Validazione link</text><rect fill="#F8F8F8" height="50" rx="12.5" ry="12.5" style="stroke: #383838; stroke-width: 1.5;" width="161" x="6" y="232"/><line style="stroke: #383838; stroke-width: 1.5;" x1="6" x2="167" y1="258.2969" y2="258.2969"/><text fill="#000000" font-family="sans-serif" font-size="14" lengthAdjust="spacingAndGlyphs" textLength="141" x="16" y="249.9951">Messaggio di errore</text><rect fill="#F8F8F8" height="50" rx="12.5" ry="12.5" style="stroke: #383838; stroke-width: 1.5;" width="182" x="202.5" y="232"/><line style="stroke: #383838; stroke-width: 1.5;" x1="202.5" x2="384.5" y1="258.2969" y2="258.2969"/><text fill="#000000" font-family="sans-serif" font-size="14" lengthAdjust="spacingAndGlyphs" textLength="162" x="212.5" y="249.9951">Visualizzazione canvas</text><ellipse cx="189.5" cy="18" fill="#000000" rx="10" ry="10" style="stroke: none; stroke-width: 1.0;"/><path d="M189.5,28.3359 C189.5,44.3459 189.5,75.7634 189.5,99.4571 " fill="none" style="stroke: #383838; stroke-width: 1.0;"/><polygon fill="#383838" points="189.5,104.6904,193.5,95.6904,189.5,99.6904,185.5,95.6904,189.5,104.6904" style="stroke: #383838; stroke-width: 1.0;"/><text fill="#000000" font-family="sans-serif" font-size="13" lengthAdjust="spacingAndGlyphs" textLength="83" x="190.5" y="71.0669">Click sul link</text><path d="M169.1505,155.0911 C152.1512,176.0514 127.8988,205.9549 110.0602,227.95 " fill="none" style="stroke: #383838; stroke-width: 1.0;"/><polygon fill="#383838" points="106.8072,231.961,115.5831,227.4907,109.9568,228.0777,109.3698,222.4514,106.8072,231.961" style="stroke: #383838; stroke-width: 1.0;"/><text fill="#000000" font-family="sans-serif" font-size="13" lengthAdjust="spacingAndGlyphs" textLength="70" x="145.5" y="198.0669">Non valido</text><path d="M210.0471,155.0911 C227.2114,176.0514 251.6993,205.9549 269.711,227.95 " fill="none" style="stroke: #383838; stroke-width: 1.0;"/><polygon fill="#383838" points="272.9956,231.961,270.3882,222.4636,269.8277,228.0926,264.1987,227.5321,272.9956,231.961" style="stroke: #383838; stroke-width: 1.0;"/><text fill="#000000" font-family="sans-serif" font-size="13" lengthAdjust="spacingAndGlyphs" textLength="71" x="249.5" y="198.0669">Link valido</text></g></svg>