<?xml version="1.0" encoding="UTF-8" standalone="no"?><svg xmlns="http://www.w3.org/2000/svg" xmlns:xlink="http://www.w3.org/1999/xlink" contentScriptType="application/ecmascript" contentStyleType="text/css" height="475px" preserveAspectRatio="none" style="width:391px;height:475px;" version="1.1" viewBox="0 0 391 475" width="391px" zoomAndPan="magnify"><defs/><g><rect fill="#F8F8F8" height="50.2656" rx="12.5" ry="12.5" style="stroke: #383838; stroke-width: 1.5;" width="305" x="6" y="89"/><line style="stroke: #383838; stroke-width: 1.5;" x1="6" x2="311" y1="115.2969" y2="115.2969"/><text fill="#000000" font-family="sans-serif" font-size="14" lengthAdjust="spacingAndGlyphs" textLength="285" x="16" y="106.9951">Visualizzazione area di amministrazione</text><text fill="#000000" font-family="sans-serif" font-size="12" lengthAdjust="spacingAndGlyphs" textLength="79" x="11" y="131.4355">Attesa eventi</text><rect fill="#F8F8F8" height="50" rx="12.5" ry="12.5" style="stroke: #383838; stroke-width: 1.5;" width="199" x="59" y="216"/><line style="stroke: #383838; stroke-width: 1.5;" x1="59" x2="258" y1="242.2969" y2="242.2969"/><text fill="#000000" font-family="sans-serif" font-size="14" lengthAdjust="spacingAndGlyphs" textLength="179" x="69" y="233.9951">Pagina sessione di lavoro</text><rect fill="#F8F8F8" height="50" rx="12.5" ry="12.5" style="stroke: #383838; stroke-width: 1.5;" width="157" x="80" y="343"/><line style="stroke: #383838; stroke-width: 1.5;" x1="80" x2="237" y1="369.2969" y2="369.2969"/><text fill="#000000" font-family="sans-serif" font-size="14" lengthAdjust="spacingAndGlyphs" textLength="137" x="90" y="360.9951">Visualizzazione link</text><ellipse cx="158.5" cy="18" fill="#000000" rx="10" ry="10" style="stroke: none; stroke-width: 1.0;"/><ellipse cx="158.5" cy="464" fill="none" rx="10" ry="10" style="stroke: #000000; stroke-width: 1.0;"/><ellipse cx="159" cy="464.5" fill="#000000" rx="6" ry="6" style="stroke: none; stroke-width: 1.0;"/><path d="M158.5,28.2737 C158.5,41.3608 158.5,64.5555 158.5,83.5207 " fill="none" style="stroke: #383838; stroke-width: 1.0;"/><polygon fill="#383838" points="158.5,88.7458,162.5,79.7458,158.5,83.7458,154.5,79.7458,158.5,88.7458" style="stroke: #383838; stroke-width: 1.0;"/><path d="M158.5,139.0911 C158.5,159.7035 158.5,188.9647 158.5,210.8484 " fill="none" style="stroke: #383838; stroke-width: 1.0;"/><polygon fill="#383838" points="158.5,215.961,162.5,206.961,158.5,210.961,154.5,206.961,158.5,215.961" style="stroke: #383838; stroke-width: 1.0;"/><text fill="#000000" font-family="sans-serif" font-size="13" lengthAdjust="spacingAndGlyphs" textLength="231" x="159.5" y="182.0669">Richiesta pagina Sessione di lavoro</text><path d="M158.5,266.0911 C158.5,286.7035 158.5,315.9647 158.5,337.8484 " fill="none" style="stroke: #383838; stroke-width: 1.0;"/><polygon fill="#383838" points="158.5,342.961,162.5,333.961,158.5,337.961,154.5,333.961,158.5,342.961" style="stroke: #383838; stroke-width: 1.0;"/><text fill="#000000" font-family="sans-serif" font-size="13" lengthAdjust="spacingAndGlyphs" textLength="109" x="159.5" y="309.0669">Click genera link</text><path d="M158.5,393.2229 C158.5,410.8366 158.5,433.7774 158.5,448.6928 " fill="none" style="stroke: #383838; stroke-width: 1.0;"/><polygon fill="#383838" points="158.5,453.8002,162.5,444.8002,158.5,448.8002,154.5,444.8002,158.5,453.8002" style="stroke: #383838; stroke-width: 1.0;"/></g></svg>