<?xml version="1.0" encoding="UTF-8" standalone="no"?><svg xmlns="http://www.w3.org/2000/svg" xmlns:xlink="http://www.w3.org/1999/xlink" contentScriptType="application/ecmascript" contentStyleType="text/css" height="276px" preserveAspectRatio="none" style="width:271px;height:276px;" version="1.1" viewBox="0 0 271 276" width="271px" zoomAndPan="magnify"><defs/><g><!--cluster sm--><rect fill="#F8F8F8" height="101" rx="12.5" ry="12.5" style="stroke: #383838; stroke-width: 1.5;" width="214" x="22" y="174"/><rect fill="#FFFFFF" height="68.7031" rx="12.5" ry="12.5" style="stroke: #FFFFFF; stroke-width: 1.0;" width="208" x="25" y="203.2969"/><line style="stroke: #383838; stroke-width: 1.5;" x1="22" x2="236" y1="200.2969" y2="200.2969"/><text fill="#000000" font-family="sans-serif" font-size="14" lengthAdjust="spacingAndGlyphs" textLength="198" x="30" y="190.9951">Modalità modifica topologia</text><!--cluster se--><rect fill="#F8F8F8" height="101" rx="12.5" ry="12.5" style="stroke: #383838; stroke-width: 1.5;" width="198" x="30" y="24"/><rect fill="#FFFFFF" height="68.7031" rx="12.5" ry="12.5" style="stroke: #FFFFFF; stroke-width: 1.0;" width="192" x="33" y="53.2969"/><line style="stroke: #383838; stroke-width: 1.5;" x1="30" x2="228" y1="50.2969" y2="50.2969"/><text fill="#000000" font-family="sans-serif" font-size="14" lengthAdjust="spacingAndGlyphs" textLength="155" x="51.5" y="40.9951">Modalità esperimento</text><rect fill="#F8F8F8" height="50.2656" rx="12.5" ry="12.5" style="stroke: #383838; stroke-width: 1.5;" width="182" x="38" y="209"/><line style="stroke: #383838; stroke-width: 1.5;" x1="38" x2="220" y1="235.2969" y2="235.2969"/><text fill="#000000" font-family="sans-serif" font-size="14" lengthAdjust="spacingAndGlyphs" textLength="162" x="48" y="226.9951">Visualizzazione canvas</text><text fill="#000000" font-family="sans-serif" font-size="12" lengthAdjust="spacingAndGlyphs" textLength="79" x="43" y="251.4355">Attesa eventi</text><rect fill="#F8F8F8" height="50.2656" rx="12.5" ry="12.5" style="stroke: #383838; stroke-width: 1.5;" width="166" x="46" y="59"/><line style="stroke: #383838; stroke-width: 1.5;" x1="46" x2="212" y1="85.2969" y2="85.2969"/><text fill="#000000" font-family="sans-serif" font-size="14" lengthAdjust="spacingAndGlyphs" textLength="146" x="56" y="76.9951">Esperimento avviato</text><text fill="#000000" font-family="sans-serif" font-size="12" lengthAdjust="spacingAndGlyphs" textLength="79" x="51" y="101.4355">Attesa eventi</text><path d="M129,109.1066 C129,135.1734 129,175.9559 129,203.7745 " fill="none" style="stroke: #383838; stroke-width: 1.0;"/><polygon fill="#383838" points="129,208.8115,133,199.8115,129,203.8115,125,199.8115,129,208.8115" style="stroke: #383838; stroke-width: 1.0;"/><text fill="#000000" font-family="sans-serif" font-size="13" lengthAdjust="spacingAndGlyphs" textLength="140" x="130" y="154.0669">Termina esperimento</text></g></svg>