<?xml version="1.0" encoding="UTF-8" standalone="no"?><svg xmlns="http://www.w3.org/2000/svg" xmlns:xlink="http://www.w3.org/1999/xlink" contentScriptType="application/ecmascript" contentStyleType="text/css" height="648px" preserveAspectRatio="none" style="width:391px;height:648px;" version="1.1" viewBox="0 0 391 648" width="391px" zoomAndPan="magnify"><defs/><g><rect fill="#F8F8F8" height="50.2656" rx="12.5" ry="12.5" style="stroke: #383838; stroke-width: 1.5;" width="305" x="6" y="89"/><line style="stroke: #383838; stroke-width: 1.5;" x1="6" x2="311" y1="115.2969" y2="115.2969"/><text fill="#000000" font-family="sans-serif" font-size="14" lengthAdjust="spacingAndGlyphs" textLength="285" x="16" y="106.9951">Visualizzazione area di amministrazione</text><text fill="#000000" font-family="sans-serif" font-size="12" lengthAdjust="spacingAndGlyphs" textLength="79" x="11" y="131.4355">Attesa eventi</text><rect fill="#F8F8F8" height="50" rx="12.5" ry="12.5" style="stroke: #383838; stroke-width: 1.5;" width="199" x="59" y="216"/><line style="stroke: #383838; stroke-width: 1.5;" x1="59" x2="258" y1="242.2969" y2="242.2969"/><text fill="#000000" font-family="sans-serif" font-size="14" lengthAdjust="spacingAndGlyphs" textLength="179" x="69" y="233.9951">Pagina sessione di lavoro</text><rect fill="#F8F8F8" height="50" rx="12.5" ry="12.5" style="stroke: #383838; stroke-width: 1.5;" width="148" x="84.5" y="343"/><line style="stroke: #383838; stroke-width: 1.5;" x1="84.5" x2="232.5" y1="369.2969" y2="369.2969"/><text fill="#000000" font-family="sans-serif" font-size="14" lengthAdjust="spacingAndGlyphs" textLength="128" x="94.5" y="360.9951">Scelta degli utenti</text><rect fill="#F8F8F8" height="50" rx="12.5" ry="12.5" style="stroke: #383838; stroke-width: 1.5;" width="103" x="107" y="470"/><line style="stroke: #383838; stroke-width: 1.5;" x1="107" x2="210" y1="496.2969" y2="496.2969"/><text fill="#000000" font-family="sans-serif" font-size="14" lengthAdjust="spacingAndGlyphs" textLength="83" x="117" y="487.9951">Validazione</text><rect fill="#F8F8F8" height="50" rx="12.5" ry="12.5" style="stroke: #383838; stroke-width: 1.5;" width="161" x="10" y="597"/><line style="stroke: #383838; stroke-width: 1.5;" x1="10" x2="171" y1="623.2969" y2="623.2969"/><text fill="#000000" font-family="sans-serif" font-size="14" lengthAdjust="spacingAndGlyphs" textLength="141" x="20" y="614.9951">Messaggio di errore</text><ellipse cx="158.5" cy="18" fill="#000000" rx="10" ry="10" style="stroke: none; stroke-width: 1.0;"/><ellipse cx="227.5" cy="622" fill="none" rx="10" ry="10" style="stroke: #000000; stroke-width: 1.0;"/><ellipse cx="228" cy="622.5" fill="#000000" rx="6" ry="6" style="stroke: none; stroke-width: 1.0;"/><path d="M158.5,28.2737 C158.5,41.3608 158.5,64.5555 158.5,83.5207 " fill="none" style="stroke: #383838; stroke-width: 1.0;"/><polygon fill="#383838" points="158.5,88.7458,162.5,79.7458,158.5,83.7458,154.5,79.7458,158.5,88.7458" style="stroke: #383838; stroke-width: 1.0;"/><path d="M158.5,139.0911 C158.5,159.7035 158.5,188.9647 158.5,210.8484 " fill="none" style="stroke: #383838; stroke-width: 1.0;"/><polygon fill="#383838" points="158.5,215.961,162.5,206.961,158.5,210.961,154.5,206.961,158.5,215.961" style="stroke: #383838; stroke-width: 1.0;"/><text fill="#000000" font-family="sans-serif" font-size="13" lengthAdjust="spacingAndGlyphs" textLength="231" x="159.5" y="182.0669">Richiesta pagina Sessione di lavoro</text><path d="M158.5,266.0911 C158.5,286.7035 158.5,315.9647 158.5,337.8484 " fill="none" style="stroke: #383838; stroke-width: 1.0;"/><polygon fill="#383838" points="158.5,342.961,162.5,333.961,158.5,337.961,154.5,333.961,158.5,342.961" style="stroke: #383838; stroke-width: 1.0;"/><text fill="#000000" font-family="sans-serif" font-size="13" lengthAdjust="spacingAndGlyphs" textLength="127" x="159.5" y="309.0669">Click associa utenti</text><path d="M232.6257,356.4688 C252.451,357.1026 267.5,360.9463 267.5,368 C267.5,374.4475 254.9264,378.2131 237.6246,379.2967 " fill="none" style="stroke: #383838; stroke-width: 1.0;"/><polygon fill="#383838" points="232.6257,379.5312,241.8033,383.1048,237.6202,379.2968,241.4283,375.1136,232.6257,379.5312" style="stroke: #383838; stroke-width: 1.0;"/><text fill="#000000" font-family="sans-serif" font-size="13" lengthAdjust="spacingAndGlyphs" textLength="81" x="273.5" y="372.5669">Scegli utenti</text><path d="M158.5,393.0911 C158.5,413.7035 158.5,442.9647 158.5,464.8484 " fill="none" style="stroke: #383838; stroke-width: 1.0;"/><polygon fill="#383838" points="158.5,469.961,162.5,460.961,158.5,464.961,154.5,460.961,158.5,469.961" style="stroke: #383838; stroke-width: 1.0;"/><text fill="#000000" font-family="sans-serif" font-size="13" lengthAdjust="spacingAndGlyphs" textLength="64" x="159.5" y="436.0669">Conferma</text><path d="M113.2247,520.1952 C102.8922,528.2759 93.2659,538.24 87.5,550 C81.2764,562.6936 81.1316,578.2096 82.9117,591.5831 " fill="none" style="stroke: #383838; stroke-width: 1.0;"/><polygon fill="#383838" points="83.7127,596.784,86.2961,587.28,82.9516,591.8423,78.3893,588.4978,83.7127,596.784" style="stroke: #383838; stroke-width: 1.0;"/><text fill="#000000" font-family="sans-serif" font-size="13" lengthAdjust="spacingAndGlyphs" textLength="95" x="88.5" y="563.0669">Dati non validi</text><path d="M172.2555,520.1816 C177.363,529.5413 183.2017,540.2527 188.5,550 C199.6012,570.4232 212.4322,594.131 220.2542,608.5952 " fill="none" style="stroke: #383838; stroke-width: 1.0;"/><polygon fill="#383838" points="222.7051,613.128,221.9431,603.3087,220.327,608.7298,214.9059,607.1137,222.7051,613.128" style="stroke: #383838; stroke-width: 1.0;"/><text fill="#000000" font-family="sans-serif" font-size="13" lengthAdjust="spacingAndGlyphs" textLength="67" x="198.5" y="563.0669">Dati validi</text></g></svg>