<?xml version="1.0" encoding="UTF-8" standalone="no"?><svg xmlns="http://www.w3.org/2000/svg" xmlns:xlink="http://www.w3.org/1999/xlink" contentScriptType="application/ecmascript" contentStyleType="text/css" height="364px" preserveAspectRatio="none" style="width:287px;height:364px;" version="1.1" viewBox="0 0 287 364" width="287px" zoomAndPan="magnify"><defs/><g><rect fill="#F8F8F8" height="50.2656" rx="12.5" ry="12.5" style="stroke: #383838; stroke-width: 1.5;" width="214" x="6" y="89"/><line style="stroke: #383838; stroke-width: 1.5;" x1="6" x2="220" y1="115.2969" y2="115.2969"/><text fill="#000000" font-family="sans-serif" font-size="14" lengthAdjust="spacingAndGlyphs" textLength="194" x="16" y="106.9951">Visualizzazione pagina web</text><text fill="#000000" font-family="sans-serif" font-size="12" lengthAdjust="spacingAndGlyphs" textLength="79" x="11" y="131.4355">Attesa eventi</text><rect fill="#F8F8F8" height="50" rx="12.5" ry="12.5" style="stroke: #383838; stroke-width: 1.5;" width="185" x="20.5" y="216"/><line style="stroke: #383838; stroke-width: 1.5;" x1="20.5" x2="205.5" y1="242.2969" y2="242.2969"/><text fill="#000000" font-family="sans-serif" font-size="14" lengthAdjust="spacingAndGlyphs" textLength="165" x="30.5" y="233.9951">Messaggio di conferma</text><ellipse cx="113" cy="18" fill="#000000" rx="10" ry="10" style="stroke: none; stroke-width: 1.0;"/><ellipse cx="113" cy="353" fill="none" rx="10" ry="10" style="stroke: #000000; stroke-width: 1.0;"/><ellipse cx="113.5" cy="353.5" fill="#000000" rx="6" ry="6" style="stroke: none; stroke-width: 1.0;"/><path d="M113,28.2737 C113,41.3608 113,64.5555 113,83.5207 " fill="none" style="stroke: #383838; stroke-width: 1.0;"/><polygon fill="#383838" points="113,88.7458,117,79.7458,113,83.7458,109,79.7458,113,88.7458" style="stroke: #383838; stroke-width: 1.0;"/><path d="M85.6065,139.2635 C78.1018,147.8843 70.9507,158.1183 67,169 C61.495,184.1629 68.9682,199.4363 79.3866,211.99 " fill="none" style="stroke: #383838; stroke-width: 1.0;"/><polygon fill="#383838" points="82.7034,215.7956,79.8056,206.3827,79.4182,212.0263,73.7747,211.639,82.7034,215.7956" style="stroke: #383838; stroke-width: 1.0;"/><text fill="#000000" font-family="sans-serif" font-size="13" lengthAdjust="spacingAndGlyphs" textLength="44" x="68" y="182.0669">Logout</text><path d="M115.2162,215.8309 C115.9386,206.4725 116.6456,195.7589 117,186 C117.4974,172.3043 116.838,157.1562 115.9201,144.302 " fill="none" style="stroke: #383838; stroke-width: 1.0;"/><polygon fill="#383838" points="115.5431,139.3131,112.2328,148.589,115.92,144.2989,120.2101,147.986,115.5431,139.3131" style="stroke: #383838; stroke-width: 1.0;"/><text fill="#000000" font-family="sans-serif" font-size="13" lengthAdjust="spacingAndGlyphs" textLength="18" x="118" y="182.0669">No</text><path d="M205.5473,229.703 C225.7891,230.7861 240.5,234.5518 240.5,241 C240.5,246.8941 228.2089,250.5469 210.6376,251.9583 " fill="none" style="stroke: #383838; stroke-width: 1.0;"/><polygon fill="#383838" points="205.5473,252.297,214.793,255.6906,210.5363,251.965,214.2618,247.7082,205.5473,252.297" style="stroke: #383838; stroke-width: 1.0;"/><text fill="#000000" font-family="sans-serif" font-size="13" lengthAdjust="spacingAndGlyphs" textLength="40" x="246.5" y="245.5669">Scelta</text><path d="M113,266.135 C113,287.9947 113,318.9793 113,337.4282 " fill="none" style="stroke: #383838; stroke-width: 1.0;"/><polygon fill="#383838" points="113,342.7272,117,333.7272,113,337.7272,109,333.7272,113,342.7272" style="stroke: #383838; stroke-width: 1.0;"/><text fill="#000000" font-family="sans-serif" font-size="13" lengthAdjust="spacingAndGlyphs" textLength="12" x="114" y="309.0669">Si</text></g></svg>