<?xml version="1.0" encoding="UTF-8" standalone="no"?><svg xmlns="http://www.w3.org/2000/svg" xmlns:xlink="http://www.w3.org/1999/xlink" contentScriptType="application/ecmascript" contentStyleType="text/css" height="216px" preserveAspectRatio="none" style="width:273px;height:216px;" version="1.1" viewBox="0 0 273 216" width="273px" zoomAndPan="magnify"><defs/><g><rect fill="#F8F8F8" height="207.2969" rx="12.5" ry="12.5" style="stroke: #383838; stroke-width: 1.5;" width="266" x="6" y="8"/><rect fill="#FFFFFF" height="175" rx="12.5" ry="12.5" style="stroke: #FFFFFF; stroke-width: 1.0;" width="260" x="9" y="37.2969"/><line style="stroke: #383838; stroke-width: 1.5;" x1="6" x2="272" y1="34.2969" y2="34.2969"/><text fill="#000000" font-family="sans-serif" font-size="14" lengthAdjust="spacingAndGlyphs" textLength="155" x="61.5" y="25.9951">Modalità esperimento</text><rect fill="#F8F8F8" height="50.2656" rx="12.5" ry="12.5" style="stroke: #383838; stroke-width: 1.5;" width="166" x="34.5" y="47.2969"/><line style="stroke: #383838; stroke-width: 1.5;" x1="34.5" x2="200.5" y1="73.5938" y2="73.5938"/><text fill="#000000" font-family="sans-serif" font-size="14" lengthAdjust="spacingAndGlyphs" textLength="146" x="44.5" y="65.292">Esperimento avviato</text><text fill="#000000" font-family="sans-serif" font-size="12" lengthAdjust="spacingAndGlyphs" textLength="79" x="39.5" y="89.7324">Attesa eventi</text><rect fill="#F8F8F8" height="50" rx="12.5" ry="12.5" style="stroke: #383838; stroke-width: 1.5;" width="201" x="17" y="150.2969"/><line style="stroke: #383838; stroke-width: 1.5;" x1="17" x2="218" y1="176.5938" y2="176.5938"/><text fill="#000000" font-family="sans-serif" font-size="14" lengthAdjust="spacingAndGlyphs" textLength="181" x="27" y="168.292">Visualizzazione terminale</text><path d="M117.5,97.4935 C117.5,111.8337 117.5,129.8931 117.5,145.0022 " fill="none" style="stroke: #383838; stroke-width: 1.0;"/><polygon fill="#383838" points="117.5,150.0034,121.5,141.0034,117.5,145.0034,113.5,141.0034,117.5,150.0034" style="stroke: #383838; stroke-width: 1.0;"/><text fill="#000000" font-family="sans-serif" font-size="13" lengthAdjust="spacingAndGlyphs" textLength="119" x="118.5" y="128.3638">Richiedi terminale</text></g></svg>