<?xml version="1.0" encoding="UTF-8" standalone="no"?><svg xmlns="http://www.w3.org/2000/svg" xmlns:xlink="http://www.w3.org/1999/xlink" contentScriptType="application/ecmascript" contentStyleType="text/css" height="618px" preserveAspectRatio="none" style="width:424px;height:618px;" version="1.1" viewBox="0 0 424 618" width="424px" zoomAndPan="magnify"><defs/><g><rect fill="#F8F8F8" height="50.2656" rx="12.5" ry="12.5" style="stroke: #383838; stroke-width: 1.5;" width="305" x="6" y="89"/><line style="stroke: #383838; stroke-width: 1.5;" x1="6" x2="311" y1="115.2969" y2="115.2969"/><text fill="#000000" font-family="sans-serif" font-size="14" lengthAdjust="spacingAndGlyphs" textLength="285" x="16" y="106.9951">Visualizzazione area di amministrazione</text><text fill="#000000" font-family="sans-serif" font-size="12" lengthAdjust="spacingAndGlyphs" textLength="79" x="11" y="131.4355">Attesa eventi</text><rect fill="#F8F8F8" height="50" rx="12.5" ry="12.5" style="stroke: #383838; stroke-width: 1.5;" width="223" x="47" y="216"/><line style="stroke: #383838; stroke-width: 1.5;" x1="47" x2="270" y1="242.2969" y2="242.2969"/><text fill="#000000" font-family="sans-serif" font-size="14" lengthAdjust="spacingAndGlyphs" textLength="203" x="57" y="233.9951">Creazione sessione di lavoro</text><rect fill="#F8F8F8" height="50" rx="12.5" ry="12.5" style="stroke: #383838; stroke-width: 1.5;" width="103" x="51" y="343"/><line style="stroke: #383838; stroke-width: 1.5;" x1="51" x2="154" y1="369.2969" y2="369.2969"/><text fill="#000000" font-family="sans-serif" font-size="14" lengthAdjust="spacingAndGlyphs" textLength="83" x="61" y="360.9951">Validazione</text><rect fill="#F8F8F8" height="50" rx="12.5" ry="12.5" style="stroke: #383838; stroke-width: 1.5;" width="91" x="145" y="470"/><line style="stroke: #383838; stroke-width: 1.5;" x1="145" x2="236" y1="496.2969" y2="496.2969"/><text fill="#000000" font-family="sans-serif" font-size="14" lengthAdjust="spacingAndGlyphs" textLength="71" x="155" y="487.9951">Conferma</text><ellipse cx="158.5" cy="18" fill="#000000" rx="10" ry="10" style="stroke: none; stroke-width: 1.0;"/><ellipse cx="190.5" cy="607" fill="none" rx="10" ry="10" style="stroke: #000000; stroke-width: 1.0;"/><ellipse cx="191" cy="607.5" fill="#000000" rx="6" ry="6" style="stroke: none; stroke-width: 1.0;"/><path d="M158.5,28.2737 C158.5,41.3608 158.5,64.5555 158.5,83.5207 " fill="none" style="stroke: #383838; stroke-width: 1.0;"/><polygon fill="#383838" points="158.5,88.7458,162.5,79.7458,158.5,83.7458,154.5,79.7458,158.5,88.7458" style="stroke: #383838; stroke-width: 1.0;"/><path d="M158.5,139.0911 C158.5,159.7035 158.5,188.9647 158.5,210.8484 " fill="none" style="stroke: #383838; stroke-width: 1.0;"/><polygon fill="#383838" points="158.5,215.961,162.5,206.961,158.5,210.961,154.5,206.961,158.5,215.961" style="stroke: #383838; stroke-width: 1.0;"/><text fill="#000000" font-family="sans-serif" font-size="13" lengthAdjust="spacingAndGlyphs" textLength="264" x="159.5" y="182.0669">Richiesta pagina Crea sessione di lavoro</text><path d="M270.2808,230.0136 C290.6874,231.4043 305,235.0664 305,241 C305,246.4237 293.0417,249.9495 275.4016,251.5776 " fill="none" style="stroke: #383838; stroke-width: 1.0;"/><polygon fill="#383838" points="270.2808,251.9864,279.5706,255.2573,275.2649,251.5884,278.9338,247.2827,270.2808,251.9864" style="stroke: #383838; stroke-width: 1.0;"/><text fill="#000000" font-family="sans-serif" font-size="13" lengthAdjust="spacingAndGlyphs" textLength="107" x="311" y="245.5669">Inserimento dati</text><path d="M70.5012,266.1038 C57.4175,273.6367 45.6202,283.3893 37.5,296 C27.4983,311.5327 38.0049,326.9748 53.2798,339.5516 " fill="none" style="stroke: #383838; stroke-width: 1.0;"/><polygon fill="#383838" points="57.2564,342.6857,52.6637,333.9732,53.3294,339.5908,47.7118,340.2565,57.2564,342.6857" style="stroke: #383838; stroke-width: 1.0;"/><text fill="#000000" font-family="sans-serif" font-size="13" lengthAdjust="spacingAndGlyphs" textLength="76" x="38.5" y="309.0669">Dati inseriti</text><path d="M113.5408,342.961 C122.6616,322.2763 135.6343,292.856 145.3024,270.9302 " fill="none" style="stroke: #383838; stroke-width: 1.0;"/><polygon fill="#383838" points="147.4362,266.0911,140.1449,272.7121,145.4188,270.666,147.4648,275.9399,147.4362,266.0911" style="stroke: #383838; stroke-width: 1.0;"/><text fill="#000000" font-family="sans-serif" font-size="13" lengthAdjust="spacingAndGlyphs" textLength="95" x="135.5" y="309.0669">Dati non validi</text><path d="M95.1634,393.1995 C92.3947,407.7705 91.571,425.943 99.5,440 C108.536,456.0195 124.3223,467.9006 140.2358,476.438 " fill="none" style="stroke: #383838; stroke-width: 1.0;"/><polygon fill="#383838" points="144.7221,478.7579,138.5651,471.0708,140.2808,476.4612,134.8904,478.1768,144.7221,478.7579" style="stroke: #383838; stroke-width: 1.0;"/><text fill="#000000" font-family="sans-serif" font-size="13" lengthAdjust="spacingAndGlyphs" textLength="151" x="100.5" y="436.0669">Messaggio di conferma</text><path d="M236.0156,483.4772 C254.9498,482.6825 271,486.5234 271,495 C271,502.6819 257.8181,506.5566 241.2539,506.6241 " fill="none" style="stroke: #383838; stroke-width: 1.0;"/><polygon fill="#383838" points="236.0156,506.5228,244.9365,510.6961,241.0147,506.6195,245.0913,502.6976,236.0156,506.5228" style="stroke: #383838; stroke-width: 1.0;"/><text fill="#000000" font-family="sans-serif" font-size="13" lengthAdjust="spacingAndGlyphs" textLength="64" x="277" y="499.5669">Conferma</text><path d="M190.5,520.135 C190.5,541.9947 190.5,572.9793 190.5,591.4282 " fill="none" style="stroke: #383838; stroke-width: 1.0;"/><polygon fill="#383838" points="190.5,596.7272,194.5,587.7272,190.5,591.7272,186.5,587.7272,190.5,596.7272" style="stroke: #383838; stroke-width: 1.0;"/><text fill="#000000" font-family="sans-serif" font-size="13" lengthAdjust="spacingAndGlyphs" textLength="12" x="191.5" y="563.0669">Si</text><path d="M231.9615,469.8181 C241.8256,461.6348 251.0593,451.6162 256.5,440 C259.7047,433.1578 257.0023,430.5388 256.5,423 C252.7138,366.1781 269.4445,344.4396 239.5,296 C233.0871,285.6261 223.9061,276.7469 214.0124,269.3393 " fill="none" style="stroke: #383838; stroke-width: 1.0;"/><polygon fill="#383838" points="209.7346,266.2547,214.6951,274.7631,213.7902,269.1791,219.3742,268.2742,209.7346,266.2547" style="stroke: #383838; stroke-width: 1.0;"/><text fill="#000000" font-family="sans-serif" font-size="13" lengthAdjust="spacingAndGlyphs" textLength="18" x="259.5" y="372.5669">No</text></g></svg>