<?xml version="1.0" encoding="UTF-8" standalone="no"?><svg xmlns="http://www.w3.org/2000/svg" xmlns:xlink="http://www.w3.org/1999/xlink" contentScriptType="application/ecmascript" contentStyleType="text/css" height="239px" preserveAspectRatio="none" style="width:160px;height:239px;" version="1.1" viewBox="0 0 160 239" width="160px" zoomAndPan="magnify"><defs><filter height="300%" id="fd02xt1" width="300%" x="-1" y="-1"><feGaussianBlur result="blurOut" stdDeviation="2.0"/><feColorMatrix in="blurOut" result="blurOut2" type="matrix" values="0 0 0 0 0 0 0 0 0 0 0 0 0 0 0 0 0 0 .4 0"/><feOffset dx="4.0" dy="4.0" in="blurOut2" result="blurOut3"/><feBlend in="SourceGraphic" in2="blurOut3" mode="normal"/></filter></defs><g><ellipse cx="78.5" cy="18" fill="#000000" filter="url(#fd02xt1)" rx="10" ry="10" style="stroke: none; stroke-width: 1.0;"/><rect fill="#FEFECE" filter="url(#fd02xt1)" height="64.2344" rx="12.5" ry="12.5" style="stroke: #A80036; stroke-width: 1.5;" width="145" x="6" y="88"/><line style="stroke: #A80036; stroke-width: 1.5;" x1="6" x2="151" y1="114.2969" y2="114.2969"/><text fill="#000000" font-family="sans-serif" font-size="14" lengthAdjust="spacingAndGlyphs" textLength="46" x="55.5" y="105.9951">State1</text><text fill="#000000" font-family="sans-serif" font-size="12" lengthAdjust="spacingAndGlyphs" textLength="85" x="11" y="130.4355">this is a string</text><text fill="#000000" font-family="sans-serif" font-size="12" lengthAdjust="spacingAndGlyphs" textLength="125" x="11" y="144.4043">this is another string</text><ellipse cx="78.5" cy="222" fill="none" filter="url(#fd02xt1)" rx="10" ry="10" style="stroke: #000000; stroke-width: 1.0;"/><ellipse cx="79" cy="222.5" fill="#000000" rx="6" ry="6" style="stroke: none; stroke-width: 1.0;"/><path d="M78.5,28.1531 C78.5,40.7734 78.5,63.0243 78.5,82.4641 " fill="none" style="stroke: #A80036; stroke-width: 1.0;"/><polygon fill="#A80036" points="78.5,87.8622,82.5,78.8622,78.5,82.8622,74.5,78.8622,78.5,87.8622" style="stroke: #A80036; stroke-width: 1.0;"/><path d="M78.5,152.2734 C78.5,170.4103 78.5,192.2165 78.5,206.5569 " fill="none" style="stroke: #A80036; stroke-width: 1.0;"/><polygon fill="#A80036" points="78.5,211.8469,82.5,202.8469,78.5,206.8469,74.5,202.8469,78.5,211.8469" style="stroke: #A80036; stroke-width: 1.0;"/></g></svg>