<?xml version="1.0" encoding="UTF-8" standalone="no"?><svg xmlns="http://www.w3.org/2000/svg" xmlns:xlink="http://www.w3.org/1999/xlink" contentScriptType="application/ecmascript" contentStyleType="text/css" height="1381px" preserveAspectRatio="none" style="width:823px;height:1381px;" version="1.1" viewBox="0 0 823 1381" width="823px" zoomAndPan="magnify"><defs/><g><!--entity Utente--><ellipse cx="280" cy="709" fill="#F8F8F8" rx="8" ry="8" style="stroke: #383838; stroke-width: 2.0;"/><path d="M280,717 L280,744 M267,725 L293,725 M280,744 L267,759 M280,744 L293,759 " fill="#F8F8F8" style="stroke: #383838; stroke-width: 2.0;"/><text fill="#000000" font-family="sans-serif" font-size="14" lengthAdjust="spacingAndGlyphs" textLength="47" x="256.5" y="774.9951">Utente</text><!--entity Supervisore--><ellipse cx="48.5" cy="755.5" fill="#F8F8F8" rx="8" ry="8" style="stroke: #383838; stroke-width: 2.0;"/><path d="M48.5,763.5 L48.5,790.5 M35.5,771.5 L61.5,771.5 M48.5,790.5 L35.5,805.5 M48.5,790.5 L61.5,805.5 " fill="#F8F8F8" style="stroke: #383838; stroke-width: 2.0;"/><text fill="#000000" font-family="sans-serif" font-size="14" lengthAdjust="spacingAndGlyphs" textLength="85" x="6" y="821.4951">Supervisore</text><text fill="#000000" font-family="sans-serif" font-size="14" lengthAdjust="spacingAndGlyphs" textLength="78" x="6" y="837.792">di sessione</text><ellipse cx="680.3499" cy="222.47" fill="#F8F8F8" rx="120.3499" ry="26.47" style="stroke: #383838; stroke-width: 1.5;"/><text fill="#000000" font-family="sans-serif" font-size="14" lengthAdjust="spacingAndGlyphs" textLength="209" x="575.8499" y="224.5884">UC001 Login di un utente alla</text><text fill="#000000" font-family="sans-serif" font-size="14" lengthAdjust="spacingAndGlyphs" textLength="84" x="638.3499" y="240.8853">piattaforma</text><ellipse cx="680.5477" cy="342.3574" fill="#F8F8F8" rx="101.5477" ry="23.8574" style="stroke: #383838; stroke-width: 1.5;"/><text fill="#000000" font-family="sans-serif" font-size="14" lengthAdjust="spacingAndGlyphs" textLength="154" x="603.5477" y="342.1372">UC002 Selezione dell'</text><text fill="#000000" font-family="sans-serif" font-size="14" lengthAdjust="spacingAndGlyphs" textLength="68" x="646.5477" y="358.4341">ambiente</text><ellipse cx="680.4629" cy="461.529" fill="#F8F8F8" rx="110.4629" ry="25.029" style="stroke: #383838; stroke-width: 1.5;"/><text fill="#000000" font-family="sans-serif" font-size="14" lengthAdjust="spacingAndGlyphs" textLength="159" x="600.9629" y="459.504">UC003 Selezione della</text><text fill="#000000" font-family="sans-serif" font-size="14" lengthAdjust="spacingAndGlyphs" textLength="127" x="616.9629" y="475.8008">sessione di lavoro</text><ellipse cx="680.4187" cy="876.6837" fill="#F8F8F8" rx="126.4187" ry="27.6837" style="stroke: #383838; stroke-width: 1.5;"/><text fill="#000000" font-family="sans-serif" font-size="14" lengthAdjust="spacingAndGlyphs" textLength="233" x="563.9187" y="881.3322">UC004 Aggiunta di un dispositivo</text><ellipse cx="680.6877" cy="973.3305" fill="#F8F8F8" rx="101.6877" ry="34.3305" style="stroke: #383838; stroke-width: 1.5;"/><text fill="#000000" font-family="sans-serif" font-size="14" lengthAdjust="spacingAndGlyphs" textLength="154" x="603.6877" y="966.5308">UC005 Aggiunta di un</text><text fill="#000000" font-family="sans-serif" font-size="14" lengthAdjust="spacingAndGlyphs" textLength="80" x="640.6877" y="982.8276">link tra due</text><text fill="#000000" font-family="sans-serif" font-size="14" lengthAdjust="spacingAndGlyphs" textLength="70" x="645.6877" y="999.1245">dispositivi</text><ellipse cx="680.3991" cy="1072.5798" fill="#F8F8F8" rx="135.8991" ry="29.5798" style="stroke: #383838; stroke-width: 1.5;"/><text fill="#000000" font-family="sans-serif" font-size="14" lengthAdjust="spacingAndGlyphs" textLength="253" x="553.8991" y="1077.2283">UC006 Eliminazione di un elemento</text><text fill="#000000" font-family="sans-serif" font-size="14" lengthAdjust="spacingAndGlyphs" textLength="76" x="642.3991" y="1093.5251">dal canvas</text><ellipse cx="680.3213" cy="1161.6925" fill="#F8F8F8" rx="108.8213" ry="24.6925" style="stroke: #383838; stroke-width: 1.5;"/><text fill="#000000" font-family="sans-serif" font-size="14" lengthAdjust="spacingAndGlyphs" textLength="159" x="600.8213" y="1160.1724">UC007 Configurazione</text><text fill="#000000" font-family="sans-serif" font-size="14" lengthAdjust="spacingAndGlyphs" textLength="114" x="623.3213" y="1176.4692">di un dispositivo</text><ellipse cx="680.3398" cy="1245.2739" fill="#F8F8F8" rx="104.3398" ry="23.7739" style="stroke: #383838; stroke-width: 1.5;"/><text fill="#000000" font-family="sans-serif" font-size="14" lengthAdjust="spacingAndGlyphs" textLength="159" x="600.8398" y="1245.188">UC008 Configurazione</text><text fill="#000000" font-family="sans-serif" font-size="14" lengthAdjust="spacingAndGlyphs" textLength="64" x="648.3398" y="1261.4849">di un link</text><ellipse cx="680.712" cy="552.3424" fill="#F8F8F8" rx="139.712" ry="30.3424" style="stroke: #383838; stroke-width: 1.5;"/><text fill="#000000" font-family="sans-serif" font-size="14" lengthAdjust="spacingAndGlyphs" textLength="261" x="550.212" y="556.9908">UC009 Deploy della topologia di rete</text><ellipse cx="680.2813" cy="680.6563" fill="#F8F8F8" rx="128.7813" ry="28.1563" style="stroke: #383838; stroke-width: 1.5;"/><text fill="#000000" font-family="sans-serif" font-size="14" lengthAdjust="spacingAndGlyphs" textLength="238" x="561.2813" y="685.3047">UC010 Chiusura dell'esperimento</text><ellipse cx="680.6102" cy="1342.5709" fill="#F8F8F8" rx="83.6102" ry="37.5709" style="stroke: #383838; stroke-width: 1.5;"/><text fill="#000000" font-family="sans-serif" font-size="14" lengthAdjust="spacingAndGlyphs" textLength="114" x="623.6102" y="1330.9225">UC011 Apertura</text><text fill="#000000" font-family="sans-serif" font-size="14" lengthAdjust="spacingAndGlyphs" textLength="95" x="633.1102" y="1347.2193">del terminale</text><text fill="#000000" font-family="sans-serif" font-size="14" lengthAdjust="spacingAndGlyphs" textLength="114" x="623.6102" y="1363.5162">di un dispositivo</text><ellipse cx="279.7805" cy="847.5128" fill="#F8F8F8" rx="82.2805" ry="34.5128" style="stroke: #383838; stroke-width: 1.5;"/><text fill="#000000" font-family="sans-serif" font-size="14" lengthAdjust="spacingAndGlyphs" textLength="123" x="218.2805" y="840.4229">UC012 Creazione</text><text fill="#000000" font-family="sans-serif" font-size="14" lengthAdjust="spacingAndGlyphs" textLength="109" x="225.2805" y="856.7198">di una sessione</text><text fill="#000000" font-family="sans-serif" font-size="14" lengthAdjust="spacingAndGlyphs" textLength="62" x="248.7805" y="873.0167">di lavoro</text><ellipse cx="280.0764" cy="945.5153" fill="#F8F8F8" rx="128.0764" ry="28.0153" style="stroke: #383838; stroke-width: 1.5;"/><text fill="#000000" font-family="sans-serif" font-size="14" lengthAdjust="spacingAndGlyphs" textLength="205" x="177.5764" y="943.9764">UC013 Associazione di utenti</text><text fill="#000000" font-family="sans-serif" font-size="14" lengthAdjust="spacingAndGlyphs" textLength="171" x="194.5764" y="960.2733">a una sessione di lavoro</text><ellipse cx="680.3703" cy="43.2934" fill="#F8F8F8" rx="142.3703" ry="35.2934" style="stroke: #383838; stroke-width: 1.5;"/><text fill="#000000" font-family="sans-serif" font-size="14" lengthAdjust="spacingAndGlyphs" textLength="142" x="609.3703" y="28.3015">UC014 Generazione</text><text fill="#000000" font-family="sans-serif" font-size="14" lengthAdjust="spacingAndGlyphs" textLength="107" x="626.8703" y="44.5984">di un invite link</text><text fill="#000000" font-family="sans-serif" font-size="14" lengthAdjust="spacingAndGlyphs" textLength="211" x="574.8703" y="60.8952">per l'associazione degli utenti</text><ellipse cx="680.7269" cy="778.5261" fill="#F8F8F8" rx="84.2269" ry="35.0261" style="stroke: #383838; stroke-width: 1.5;"/><text fill="#000000" font-family="sans-serif" font-size="14" lengthAdjust="spacingAndGlyphs" textLength="77" x="642.2269" y="763.1229">UC015 Join</text><text fill="#000000" font-family="sans-serif" font-size="14" lengthAdjust="spacingAndGlyphs" textLength="109" x="626.2269" y="779.4197">di una sessione</text><text fill="#000000" font-family="sans-serif" font-size="14" lengthAdjust="spacingAndGlyphs" textLength="124" x="618.7269" y="795.7166">tramite invite link</text><ellipse cx="680.4086" cy="137.5817" fill="#F8F8F8" rx="105.9086" ry="23.5817" style="stroke: #383838; stroke-width: 1.5;"/><text fill="#000000" font-family="sans-serif" font-size="14" lengthAdjust="spacingAndGlyphs" textLength="189" x="585.9086" y="142.2302">UC016 Logout di un utente</text><path d="M91.2305,783.3481 C132.6166,773.5155 195.0526,758.6819 236.6479,748.7996 " fill="none" style="stroke: #383838; stroke-width: 1.0;"/><polygon fill="none" points="235.2015,741.9485,256.278,744.1359,238.4377,755.5693,235.2015,741.9485" style="stroke: #383838; stroke-width: 1.0;"/><path d="M680.5,254.4798 C680.5,274.4887 680.5,299.859 680.5,318.2162 " fill="none" style="stroke: #383838; stroke-width: 1.0; stroke-dasharray: 7.0,7.0;"/><polygon fill="#383838" points="680.5,249.253,676.5,258.253,680.5,254.253,684.5,258.253,680.5,249.253" style="stroke: #383838; stroke-width: 1.0;"/><text fill="#000000" font-family="sans-serif" font-size="13" lengthAdjust="spacingAndGlyphs" textLength="59" x="639.5" y="288.3169">«import»</text><path d="M680.5,372.0276 C680.5,391.7714 680.5,417.4745 680.5,436.2632 " fill="none" style="stroke: #383838; stroke-width: 1.0; stroke-dasharray: 7.0,7.0;"/><polygon fill="#383838" points="680.5,366.8866,676.5,375.8866,680.5,371.8866,684.5,375.8866,680.5,366.8866" style="stroke: #383838; stroke-width: 1.0;"/><text fill="#000000" font-family="sans-serif" font-size="13" lengthAdjust="spacingAndGlyphs" textLength="59" x="639.5" y="406.0669">«import»</text><path d="M293.7171,698.7782 C324.6422,614.56 407.4505,416.3202 538,300.5 C563.4223,277.946 596.4844,259.3427 624.3615,245.968 " fill="none" style="stroke: #383838; stroke-width: 1.0;"/><path d="M300.0011,698.5842 C326.8458,647.4451 378.1409,557.7495 438,493.5 C475.8704,452.852 491.1299,448.3264 538,418.5 C569.6974,398.329 607.2547,378.4515 635.8526,364.0868 " fill="none" style="stroke: #383838; stroke-width: 1.0;"/><path d="M303.856,715.7484 C362.5373,659.9465 511.0923,519.7232 538,504.5 C557.2301,493.6204 579.5103,485.2116 600.6583,478.8367 " fill="none" style="stroke: #383838; stroke-width: 1.0;"/><path d="M303.7476,747.2398 C349.1169,763.8764 451.3204,801.0626 538,830.5 C560.8927,838.2746 585.9586,846.4713 608.5976,853.7573 " fill="none" style="stroke: #383838; stroke-width: 1.0;"/><path d="M303.5847,745.9348 C330.3829,755.0534 374.7109,772.2153 408,795.5 C423.7111,806.4894 424.3801,813.0054 438,826.5 C481.5475,869.6468 485.8933,889.2058 538,921.5 C557.5866,933.6392 580.4316,943.5551 602.0192,951.3492 " fill="none" style="stroke: #383838; stroke-width: 1.0;"/><path d="M303.5237,742.6063 C332.3878,748.8887 380.8291,763.6819 408,795.5 C441.4647,834.6883 414.0953,861.8473 438,907.5 C469.8886,968.4003 481,987.0718 538,1025.5 C553.3361,1035.8393 571.1265,1044.0587 588.8302,1050.5388 " fill="none" style="stroke: #383838; stroke-width: 1.0;"/><path d="M303.6558,741.9893 C333.1266,747.672 382.6802,761.8849 408,795.5 C465.783,872.2139 397.2186,922.5473 438,1009.5 C466.0555,1069.319 482.0137,1084.4149 538,1119.5 C556.1396,1130.8676 577.4961,1139.279 598.0767,1145.4561 " fill="none" style="stroke: #383838; stroke-width: 1.0;"/><path d="M303.629,741.7721 C333.3122,747.2422 383.3396,761.2483 408,795.5 C448.5685,851.8471 407.8999,1043.9319 438,1106.5 C464.8428,1162.2973 484.5263,1172.284 538,1203.5 C557.4899,1214.8775 580.3042,1223.3841 601.8935,1229.6531 " fill="none" style="stroke: #383838; stroke-width: 1.0;"/><path d="M303.5579,727.5593 C364.9269,699.0583 531.1754,621.8492 620.9989,580.1335 " fill="none" style="stroke: #383838; stroke-width: 1.0;"/><path d="M303.5579,735.0884 C355.1179,727.6215 480.7098,709.4334 572.8107,696.0955 " fill="none" style="stroke: #383838; stroke-width: 1.0;"/><path d="M680.5,588.2586 C680.5,608.5381 680.5,633.5497 680.5,652.4099 " fill="none" style="stroke: #383838; stroke-width: 1.0; stroke-dasharray: 7.0,7.0;"/><polygon fill="#383838" points="680.5,583.2113,676.5,592.2113,680.5,588.2113,684.5,592.2113,680.5,583.2113" style="stroke: #383838; stroke-width: 1.0;"/><text fill="#000000" font-family="sans-serif" font-size="13" lengthAdjust="spacingAndGlyphs" textLength="70" x="634" y="622.3169">«includes»</text><path d="M303.7401,741.693 C333.542,747.0786 383.6962,760.9944 408,795.5 C458.947,867.8326 400.0573,1112.5753 438,1192.5 C470.4291,1260.8105 550.4951,1301.006 609.8044,1322.3175 " fill="none" style="stroke: #383838; stroke-width: 1.0;"/><path d="M91.2305,803.4674 C123.7612,811.0555 169.2976,821.6774 207.4955,830.5875 " fill="none" style="stroke: #383838; stroke-width: 1.0;"/><path d="M86.8989,841.6032 C104.9258,861.6909 127.7657,883.9266 152,899.5 C166.8991,909.0744 184.0546,916.987 200.8656,923.3898 " fill="none" style="stroke: #383838; stroke-width: 1.0;"/><path d="M68.4147,745.2465 C123.2625,618.4446 289.15,273.4458 538,96.5 C552.7354,86.0223 569.7878,77.3571 586.8622,70.2847 " fill="none" style="stroke: #383838; stroke-width: 1.0;"/><path d="M303.5579,740.8528 C360.1482,746.5048 505.9202,761.0638 598.7109,770.3313 " fill="none" style="stroke: #383838; stroke-width: 1.0;"/><path d="M285.7357,698.6765 C302.9243,594.8362 364.0504,314.4585 538,178.5 C554.1249,165.8968 573.9773,157.1674 593.6871,151.1212 " fill="none" style="stroke: #383838; stroke-width: 1.0;"/><path d="M570.8587,70.0703 C558.3836,76.9474 546.9569,85.6039 538,96.5 C417.3113,243.3168 442.7202,331.2139 472,519 C486.8439,614.2012 471.4794,655.7963 538,725.5 C555.5854,743.9269 580.1614,755.9926 603.959,763.8745 " fill="none" style="stroke: #383838; stroke-width: 1.0; stroke-dasharray: 7.0,7.0;"/><polygon fill="#383838" points="575.4996,67.6162,565.6736,68.2872,571.0795,69.9535,569.4132,75.3593,575.4996,67.6162" style="stroke: #383838; stroke-width: 1.0;"/><text fill="#000000" font-family="sans-serif" font-size="13" lengthAdjust="spacingAndGlyphs" textLength="68" x="439" y="515.0669">«extends»</text></g></svg>