<?xml version="1.0" encoding="UTF-8" standalone="no"?><svg xmlns="http://www.w3.org/2000/svg" xmlns:xlink="http://www.w3.org/1999/xlink" contentScriptType="application/ecmascript" contentStyleType="text/css" height="690px" preserveAspectRatio="none" style="width:733px;height:690px;" version="1.1" viewBox="0 0 733 690" width="733px" zoomAndPan="magnify"><defs/><g><rect fill="#FFFFFF" height="29.1328" style="stroke: #383838; stroke-width: 1.0;" width="10" x="210.5" y="113.2969"/><rect fill="#FFFFFF" height="29.1328" style="stroke: #383838; stroke-width: 1.0;" width="10" x="210.5" y="259.0938"/><rect fill="#FFFFFF" height="71.2656" style="stroke: #383838; stroke-width: 1.0;" width="10" x="210.5" y="599.8203"/><rect fill="#FFFFFF" height="74.1328" style="stroke: #383838; stroke-width: 1.0;" width="10" x="396.5" y="288.2266"/><rect fill="#FFFFFF" height="29.1328" style="stroke: #383838; stroke-width: 1.0;" width="10" x="396.5" y="570.6875"/><rect fill="#FFFFFF" height="97.9297" style="stroke: #383838; stroke-width: 1.0;" width="10" x="563.5" y="362.3594"/><rect fill="#FFFFFF" height="36.1328" style="stroke: #383838; stroke-width: 1.0;" width="10" x="563.5" y="534.5547"/><rect fill="#FFFFFF" height="118.5313" style="stroke: #383838; stroke-width: 1.0;" width="10" x="687.5" y="416.0234"/><rect fill="#FFFFFF" height="75.3984" style="stroke: #000000; stroke-width: 2.0;" width="240.5" x="492" y="377.8906"/><rect fill="#FFFFFF" height="75.3984" style="stroke: #000000; stroke-width: 2.0;" width="240.5" x="492" y="467.2891"/><line style="stroke: #383838; stroke-width: 1.0; stroke-dasharray: 5.0,5.0;" x1="34" x2="34" y1="82.2969" y2="689.2188"/><line style="stroke: #383838; stroke-width: 1.0; stroke-dasharray: 5.0,5.0;" x1="215.5" x2="215.5" y1="82.2969" y2="689.2188"/><line style="stroke: #383838; stroke-width: 1.0; stroke-dasharray: 5.0,5.0;" x1="401" x2="401" y1="82.2969" y2="689.2188"/><line style="stroke: #383838; stroke-width: 1.0; stroke-dasharray: 5.0,5.0;" x1="568" x2="568" y1="82.2969" y2="689.2188"/><line style="stroke: #383838; stroke-width: 1.0; stroke-dasharray: 5.0,5.0;" x1="692.5" x2="692.5" y1="82.2969" y2="689.2188"/><text fill="#000000" font-family="sans-serif" font-size="14" lengthAdjust="spacingAndGlyphs" textLength="47" x="8" y="78.9951">Utente</text><ellipse cx="34.5" cy="13" fill="#F8F8F8" rx="8" ry="8" style="stroke: #383838; stroke-width: 2.0;"/><path d="M34.5,21 L34.5,48 M21.5,29 L47.5,29 M34.5,48 L21.5,63 M34.5,48 L47.5,63 " fill="#F8F8F8" style="stroke: #383838; stroke-width: 2.0;"/><rect fill="#F8F8F8" height="30.2969" style="stroke: #383838; stroke-width: 1.5;" width="60" x="185.5" y="51"/><text fill="#000000" font-family="sans-serif" font-size="14" lengthAdjust="spacingAndGlyphs" textLength="46" x="192.5" y="70.9951">WebUI</text><rect fill="#F8F8F8" height="30.2969" style="stroke: #383838; stroke-width: 1.5;" width="99" x="352" y="51"/><text fill="#000000" font-family="sans-serif" font-size="14" lengthAdjust="spacingAndGlyphs" textLength="85" x="359" y="70.9951">WebService</text><rect fill="#F8F8F8" height="30.2969" style="stroke: #383838; stroke-width: 1.5;" width="133" x="502" y="51"/><text fill="#000000" font-family="sans-serif" font-size="14" lengthAdjust="spacingAndGlyphs" textLength="119" x="509" y="70.9951">ContainerEngine</text><rect fill="#F8F8F8" height="30.2969" style="stroke: #383838; stroke-width: 1.5;" width="60" x="662.5" y="51"/><text fill="#000000" font-family="sans-serif" font-size="14" lengthAdjust="spacingAndGlyphs" textLength="46" x="669.5" y="70.9951">Kernel</text><rect fill="#FFFFFF" height="29.1328" style="stroke: #383838; stroke-width: 1.0;" width="10" x="210.5" y="113.2969"/><rect fill="#FFFFFF" height="29.1328" style="stroke: #383838; stroke-width: 1.0;" width="10" x="210.5" y="259.0938"/><rect fill="#FFFFFF" height="71.2656" style="stroke: #383838; stroke-width: 1.0;" width="10" x="210.5" y="599.8203"/><rect fill="#FFFFFF" height="74.1328" style="stroke: #383838; stroke-width: 1.0;" width="10" x="396.5" y="288.2266"/><rect fill="#FFFFFF" height="29.1328" style="stroke: #383838; stroke-width: 1.0;" width="10" x="396.5" y="570.6875"/><rect fill="#FFFFFF" height="97.9297" style="stroke: #383838; stroke-width: 1.0;" width="10" x="563.5" y="362.3594"/><rect fill="#FFFFFF" height="36.1328" style="stroke: #383838; stroke-width: 1.0;" width="10" x="563.5" y="534.5547"/><rect fill="#FFFFFF" height="118.5313" style="stroke: #383838; stroke-width: 1.0;" width="10" x="687.5" y="416.0234"/><polygon fill="#383838" points="198.5,109.2969,208.5,113.2969,198.5,117.2969,202.5,113.2969" style="stroke: #383838; stroke-width: 1.0;"/><line style="stroke: #383838; stroke-width: 1.0;" x1="34.5" x2="204.5" y1="113.2969" y2="113.2969"/><text fill="#000000" font-family="sans-serif" font-size="13" font-weight="bold" lengthAdjust="spacingAndGlyphs" textLength="9" x="45" y="108.3638">1</text><text fill="#000000" font-family="sans-serif" font-size="13" lengthAdjust="spacingAndGlyphs" textLength="142" x="58" y="108.3638">getCreateDeviceForm</text><polygon fill="#383838" points="45.5,138.4297,35.5,142.4297,45.5,146.4297,41.5,142.4297" style="stroke: #383838; stroke-width: 1.0;"/><line style="stroke: #383838; stroke-width: 1.0; stroke-dasharray: 2.0,2.0;" x1="39.5" x2="214.5" y1="142.4297" y2="142.4297"/><text fill="#000000" font-family="sans-serif" font-size="13" font-weight="bold" lengthAdjust="spacingAndGlyphs" textLength="9" x="55.5" y="137.4966">2</text><text fill="#000000" font-family="sans-serif" font-size="13" lengthAdjust="spacingAndGlyphs" textLength="126" x="68.5" y="137.4966">returnCDeviceForm</text><line style="stroke: #383838; stroke-width: 1.0;" x1="34.5" x2="76.5" y1="217.0938" y2="217.0938"/><line style="stroke: #383838; stroke-width: 1.0;" x1="76.5" x2="76.5" y1="217.0938" y2="230.0938"/><line style="stroke: #383838; stroke-width: 1.0;" x1="35.5" x2="76.5" y1="230.0938" y2="230.0938"/><polygon fill="#383838" points="45.5,226.0938,35.5,230.0938,45.5,234.0938,41.5,230.0938" style="stroke: #383838; stroke-width: 1.0;"/><text fill="#000000" font-family="sans-serif" font-size="13" font-weight="bold" lengthAdjust="spacingAndGlyphs" textLength="9" x="41.5" y="189.3286">3</text><text fill="#000000" font-family="sans-serif" font-size="13" lengthAdjust="spacingAndGlyphs" textLength="50" x="54.5" y="166.6294">fillForm</text><text fill="#000000" font-family="sans-serif" font-size="13" lengthAdjust="spacingAndGlyphs" textLength="46" x="54.5" y="181.7622">(name,</text><text fill="#000000" font-family="sans-serif" font-size="13" lengthAdjust="spacingAndGlyphs" textLength="33" x="54.5" y="196.895">type,</text><text fill="#000000" font-family="sans-serif" font-size="13" lengthAdjust="spacingAndGlyphs" textLength="71" x="54.5" y="212.0278">properties)</text><polygon fill="#383838" points="198.5,255.0938,208.5,259.0938,198.5,263.0938,202.5,259.0938" style="stroke: #383838; stroke-width: 1.0;"/><line style="stroke: #383838; stroke-width: 1.0;" x1="34.5" x2="204.5" y1="259.0938" y2="259.0938"/><text fill="#000000" font-family="sans-serif" font-size="13" font-weight="bold" lengthAdjust="spacingAndGlyphs" textLength="9" x="73" y="254.1606">4</text><text fill="#000000" font-family="sans-serif" font-size="13" lengthAdjust="spacingAndGlyphs" textLength="86" x="86" y="254.1606">createDevice</text><polygon fill="#383838" points="384.5,284.2266,394.5,288.2266,384.5,292.2266,388.5,288.2266" style="stroke: #383838; stroke-width: 1.0;"/><line style="stroke: #383838; stroke-width: 1.0;" x1="215.5" x2="390.5" y1="288.2266" y2="288.2266"/><text fill="#000000" font-family="sans-serif" font-size="13" font-weight="bold" lengthAdjust="spacingAndGlyphs" textLength="9" x="256.5" y="283.2935">5</text><text fill="#000000" font-family="sans-serif" font-size="13" lengthAdjust="spacingAndGlyphs" textLength="86" x="269.5" y="283.2935">createDevice</text><polygon fill="#383838" points="551.5,358.3594,561.5,362.3594,551.5,366.3594,555.5,362.3594" style="stroke: #383838; stroke-width: 1.0;"/><line style="stroke: #383838; stroke-width: 1.0;" x1="401.5" x2="557.5" y1="362.3594" y2="362.3594"/><text fill="#000000" font-family="sans-serif" font-size="13" font-weight="bold" lengthAdjust="spacingAndGlyphs" textLength="9" x="424" y="335.1255">6</text><text fill="#000000" font-family="sans-serif" font-size="13" lengthAdjust="spacingAndGlyphs" textLength="104" x="437" y="312.4263">createContainer</text><text fill="#000000" font-family="sans-serif" font-size="13" lengthAdjust="spacingAndGlyphs" textLength="46" x="466" y="327.5591">(name,</text><text fill="#000000" font-family="sans-serif" font-size="13" lengthAdjust="spacingAndGlyphs" textLength="33" x="472.5" y="342.6919">type,</text><text fill="#000000" font-family="sans-serif" font-size="13" lengthAdjust="spacingAndGlyphs" textLength="71" x="453.5" y="357.8247">properties)</text><rect fill="none" height="75.3984" style="stroke: #000000; stroke-width: 2.0;" width="240.5" x="492" y="377.8906"/><polygon fill="#EEEEEE" points="492,377.8906,561,377.8906,561,384.8906,551,394.8906,492,394.8906,492,377.8906" style="stroke: #000000; stroke-width: 2.0;"/><text fill="#000000" font-family="sans-serif" font-size="13" font-weight="bold" lengthAdjust="spacingAndGlyphs" textLength="24" x="507" y="390.9575">par</text><polygon fill="#383838" points="675.5,412.0234,685.5,416.0234,675.5,420.0234,679.5,416.0234" style="stroke: #383838; stroke-width: 1.0;"/><line style="stroke: #383838; stroke-width: 1.0;" x1="573.5" x2="681.5" y1="416.0234" y2="416.0234"/><text fill="#000000" font-family="sans-serif" font-size="13" font-weight="bold" lengthAdjust="spacingAndGlyphs" textLength="9" x="583" y="411.0903">7</text><text fill="#000000" font-family="sans-serif" font-size="13" lengthAdjust="spacingAndGlyphs" textLength="82" x="596" y="411.0903">createNetNS</text><polygon fill="#383838" points="675.5,441.1563,685.5,445.1563,675.5,449.1563,679.5,445.1563" style="stroke: #383838; stroke-width: 1.0;"/><line style="stroke: #383838; stroke-width: 1.0;" x1="573.5" x2="681.5" y1="445.1563" y2="445.1563"/><text fill="#000000" font-family="sans-serif" font-size="13" font-weight="bold" lengthAdjust="spacingAndGlyphs" textLength="9" x="596" y="440.2231">8</text><text fill="#000000" font-family="sans-serif" font-size="13" lengthAdjust="spacingAndGlyphs" textLength="56" x="609" y="440.2231">createFS</text><rect fill="none" height="75.3984" style="stroke: #000000; stroke-width: 2.0;" width="240.5" x="492" y="467.2891"/><polygon fill="#EEEEEE" points="492,467.2891,561,467.2891,561,474.2891,551,484.2891,492,484.2891,492,467.2891" style="stroke: #000000; stroke-width: 2.0;"/><text fill="#000000" font-family="sans-serif" font-size="13" font-weight="bold" lengthAdjust="spacingAndGlyphs" textLength="24" x="507" y="480.356">par</text><polygon fill="#383838" points="579.5,501.4219,569.5,505.4219,579.5,509.4219,575.5,505.4219" style="stroke: #383838; stroke-width: 1.0;"/><line style="stroke: #383838; stroke-width: 1.0; stroke-dasharray: 2.0,2.0;" x1="573.5" x2="686.5" y1="505.4219" y2="505.4219"/><text fill="#000000" font-family="sans-serif" font-size="13" font-weight="bold" lengthAdjust="spacingAndGlyphs" textLength="9" x="581.5" y="500.4888">9</text><text fill="#000000" font-family="sans-serif" font-size="13" lengthAdjust="spacingAndGlyphs" textLength="80" x="594.5" y="500.4888">returnNetNS</text><polygon fill="#383838" points="584.5,530.5547,574.5,534.5547,584.5,538.5547,580.5,534.5547" style="stroke: #383838; stroke-width: 1.0;"/><line style="stroke: #383838; stroke-width: 1.0; stroke-dasharray: 2.0,2.0;" x1="578.5" x2="691.5" y1="534.5547" y2="534.5547"/><text fill="#000000" font-family="sans-serif" font-size="13" font-weight="bold" lengthAdjust="spacingAndGlyphs" textLength="18" x="595" y="529.6216">10</text><text fill="#000000" font-family="sans-serif" font-size="13" lengthAdjust="spacingAndGlyphs" textLength="54" x="617" y="529.6216">returnFS</text><polygon fill="#383838" points="417.5,566.6875,407.5,570.6875,417.5,574.6875,413.5,570.6875" style="stroke: #383838; stroke-width: 1.0;"/><line style="stroke: #383838; stroke-width: 1.0; stroke-dasharray: 2.0,2.0;" x1="411.5" x2="567.5" y1="570.6875" y2="570.6875"/><text fill="#000000" font-family="sans-serif" font-size="13" font-weight="bold" lengthAdjust="spacingAndGlyphs" textLength="18" x="418.5" y="565.7544">11</text><text fill="#000000" font-family="sans-serif" font-size="13" lengthAdjust="spacingAndGlyphs" textLength="116" x="440.5" y="565.7544">returnContainerID</text><polygon fill="#383838" points="231.5,595.8203,221.5,599.8203,231.5,603.8203,227.5,599.8203" style="stroke: #383838; stroke-width: 1.0;"/><line style="stroke: #383838; stroke-width: 1.0; stroke-dasharray: 2.0,2.0;" x1="225.5" x2="400.5" y1="599.8203" y2="599.8203"/><text fill="#000000" font-family="sans-serif" font-size="13" font-weight="bold" lengthAdjust="spacingAndGlyphs" textLength="18" x="232.5" y="594.8872">12</text><text fill="#000000" font-family="sans-serif" font-size="13" lengthAdjust="spacingAndGlyphs" textLength="135" x="254.5" y="594.8872">returnDeviceCreated</text><line style="stroke: #383838; stroke-width: 1.0;" x1="220.5" x2="262.5" y1="629.0859" y2="629.0859"/><line style="stroke: #383838; stroke-width: 1.0;" x1="262.5" x2="262.5" y1="629.0859" y2="642.0859"/><line style="stroke: #383838; stroke-width: 1.0;" x1="221.5" x2="262.5" y1="642.0859" y2="642.0859"/><polygon fill="#383838" points="231.5,638.0859,221.5,642.0859,231.5,646.0859,227.5,642.0859" style="stroke: #383838; stroke-width: 1.0;"/><text fill="#000000" font-family="sans-serif" font-size="13" font-weight="bold" lengthAdjust="spacingAndGlyphs" textLength="18" x="227.5" y="624.02">13</text><text fill="#000000" font-family="sans-serif" font-size="13" lengthAdjust="spacingAndGlyphs" textLength="116" x="249.5" y="624.02">colorDeviceGreen</text><polygon fill="#383838" points="45.5,667.0859,35.5,671.0859,45.5,675.0859,41.5,671.0859" style="stroke: #383838; stroke-width: 1.0;"/><line style="stroke: #383838; stroke-width: 1.0; stroke-dasharray: 2.0,2.0;" x1="39.5" x2="214.5" y1="671.0859" y2="671.0859"/><text fill="#000000" font-family="sans-serif" font-size="13" font-weight="bold" lengthAdjust="spacingAndGlyphs" textLength="18" x="49" y="666.1528">14</text><text fill="#000000" font-family="sans-serif" font-size="13" lengthAdjust="spacingAndGlyphs" textLength="130" x="71" y="666.1528">showDeviceCreated</text></g></svg>