<?xml version="1.0" encoding="UTF-8" standalone="no"?><svg xmlns="http://www.w3.org/2000/svg" xmlns:xlink="http://www.w3.org/1999/xlink" contentScriptType="application/ecmascript" contentStyleType="text/css" height="362px" preserveAspectRatio="none" style="width:484px;height:362px;" version="1.1" viewBox="0 0 484 362" width="484px" zoomAndPan="magnify"><defs/><g><rect fill="#FFFFFF" height="29.1328" style="stroke: #383838; stroke-width: 1.0;" width="10" x="158.5" y="314.0938"/><rect fill="#FFFFFF" height="71.2656" style="stroke: #383838; stroke-width: 1.0;" width="10" x="248" y="155.4297"/><rect fill="#FFFFFF" height="29.1328" style="stroke: #383838; stroke-width: 1.0;" width="10" x="248" y="255.8281"/><rect fill="#FFFFFF" height="29.1328" style="stroke: #383838; stroke-width: 1.0;" width="10" x="437" y="226.6953"/><line style="stroke: #383838; stroke-width: 1.0; stroke-dasharray: 5.0,5.0;" x1="34" x2="34" y1="82.2969" y2="361.3594"/><line style="stroke: #383838; stroke-width: 1.0; stroke-dasharray: 5.0,5.0;" x1="163.5" x2="163.5" y1="82.2969" y2="361.3594"/><line style="stroke: #383838; stroke-width: 1.0; stroke-dasharray: 5.0,5.0;" x1="252.5" x2="252.5" y1="82.2969" y2="361.3594"/><line style="stroke: #383838; stroke-width: 1.0; stroke-dasharray: 5.0,5.0;" x1="442" x2="442" y1="82.2969" y2="361.3594"/><text fill="#000000" font-family="sans-serif" font-size="14" lengthAdjust="spacingAndGlyphs" textLength="47" x="8" y="78.9951">Utente</text><ellipse cx="34.5" cy="13" fill="#F8F8F8" rx="8" ry="8" style="stroke: #383838; stroke-width: 2.0;"/><path d="M34.5,21 L34.5,48 M21.5,29 L47.5,29 M34.5,48 L21.5,63 M34.5,48 L47.5,63 " fill="#F8F8F8" style="stroke: #383838; stroke-width: 2.0;"/><rect fill="#F8F8F8" height="30.2969" style="stroke: #383838; stroke-width: 1.5;" width="60" x="133.5" y="51"/><text fill="#000000" font-family="sans-serif" font-size="14" lengthAdjust="spacingAndGlyphs" textLength="46" x="140.5" y="70.9951">WebUI</text><rect fill="#F8F8F8" height="30.2969" style="stroke: #383838; stroke-width: 1.5;" width="99" x="203.5" y="51"/><text fill="#000000" font-family="sans-serif" font-size="14" lengthAdjust="spacingAndGlyphs" textLength="85" x="210.5" y="70.9951">WebService</text><rect fill="#F8F8F8" height="30.2969" style="stroke: #383838; stroke-width: 1.5;" width="82" x="401" y="51"/><text fill="#000000" font-family="sans-serif" font-size="14" lengthAdjust="spacingAndGlyphs" textLength="68" x="408" y="70.9951">Database</text><rect fill="#FFFFFF" height="29.1328" style="stroke: #383838; stroke-width: 1.0;" width="10" x="158.5" y="314.0938"/><rect fill="#FFFFFF" height="71.2656" style="stroke: #383838; stroke-width: 1.0;" width="10" x="248" y="155.4297"/><rect fill="#FFFFFF" height="29.1328" style="stroke: #383838; stroke-width: 1.0;" width="10" x="248" y="255.8281"/><rect fill="#FFFFFF" height="29.1328" style="stroke: #383838; stroke-width: 1.0;" width="10" x="437" y="226.6953"/><line style="stroke: #383838; stroke-width: 1.0;" x1="34.5" x2="76.5" y1="113.4297" y2="113.4297"/><line style="stroke: #383838; stroke-width: 1.0;" x1="76.5" x2="76.5" y1="113.4297" y2="126.4297"/><line style="stroke: #383838; stroke-width: 1.0;" x1="35.5" x2="76.5" y1="126.4297" y2="126.4297"/><polygon fill="#383838" points="45.5,122.4297,35.5,126.4297,45.5,130.4297,41.5,126.4297" style="stroke: #383838; stroke-width: 1.0;"/><text fill="#000000" font-family="sans-serif" font-size="13" font-weight="bold" lengthAdjust="spacingAndGlyphs" textLength="9" x="41.5" y="108.3638">1</text><text fill="#000000" font-family="sans-serif" font-size="13" lengthAdjust="spacingAndGlyphs" textLength="95" x="54.5" y="108.3638">get(inviteLink)</text><polygon fill="#383838" points="236,151.4297,246,155.4297,236,159.4297,240,155.4297" style="stroke: #383838; stroke-width: 1.0;"/><line style="stroke: #383838; stroke-width: 1.0;" x1="34.5" x2="242" y1="155.4297" y2="155.4297"/><text fill="#000000" font-family="sans-serif" font-size="13" font-weight="bold" lengthAdjust="spacingAndGlyphs" textLength="9" x="41.5" y="150.4966">2</text><text fill="#000000" font-family="sans-serif" font-size="13" lengthAdjust="spacingAndGlyphs" textLength="81" x="54.5" y="150.4966">getSession()</text><line style="stroke: #383838; stroke-width: 1.0;" x1="258" x2="300" y1="184.6953" y2="184.6953"/><line style="stroke: #383838; stroke-width: 1.0;" x1="300" x2="300" y1="184.6953" y2="197.6953"/><line style="stroke: #383838; stroke-width: 1.0;" x1="259" x2="300" y1="197.6953" y2="197.6953"/><polygon fill="#383838" points="269,193.6953,259,197.6953,269,201.6953,265,197.6953" style="stroke: #383838; stroke-width: 1.0;"/><text fill="#000000" font-family="sans-serif" font-size="13" font-weight="bold" lengthAdjust="spacingAndGlyphs" textLength="9" x="265" y="179.6294">3</text><text fill="#000000" font-family="sans-serif" font-size="13" lengthAdjust="spacingAndGlyphs" textLength="152" x="278" y="179.6294">associateUserSession()</text><polygon fill="#383838" points="425,222.6953,435,226.6953,425,230.6953,429,226.6953" style="stroke: #383838; stroke-width: 1.0;"/><line style="stroke: #383838; stroke-width: 1.0;" x1="253" x2="431" y1="226.6953" y2="226.6953"/><text fill="#000000" font-family="sans-serif" font-size="13" font-weight="bold" lengthAdjust="spacingAndGlyphs" textLength="9" x="260" y="221.7622">4</text><text fill="#000000" font-family="sans-serif" font-size="13" lengthAdjust="spacingAndGlyphs" textLength="118" x="273" y="221.7622">storeAssociation()</text><polygon fill="#383838" points="269,251.8281,259,255.8281,269,259.8281,265,255.8281" style="stroke: #383838; stroke-width: 1.0;"/><line style="stroke: #383838; stroke-width: 1.0; stroke-dasharray: 2.0,2.0;" x1="263" x2="441" y1="255.8281" y2="255.8281"/><text fill="#000000" font-family="sans-serif" font-size="13" font-weight="bold" lengthAdjust="spacingAndGlyphs" textLength="9" x="275" y="250.895">5</text><text fill="#000000" font-family="sans-serif" font-size="13" lengthAdjust="spacingAndGlyphs" textLength="65" x="288" y="250.895">return(ok)</text><polygon fill="#383838" points="45.5,280.9609,35.5,284.9609,45.5,288.9609,41.5,284.9609" style="stroke: #383838; stroke-width: 1.0;"/><line style="stroke: #383838; stroke-width: 1.0; stroke-dasharray: 2.0,2.0;" x1="39.5" x2="252" y1="284.9609" y2="284.9609"/><text fill="#000000" font-family="sans-serif" font-size="13" font-weight="bold" lengthAdjust="spacingAndGlyphs" textLength="9" x="51.5" y="280.0278">6</text><text fill="#000000" font-family="sans-serif" font-size="13" lengthAdjust="spacingAndGlyphs" textLength="111" x="64.5" y="280.0278">return(uiSession)</text><polygon fill="#383838" points="146.5,310.0938,156.5,314.0938,146.5,318.0938,150.5,314.0938" style="stroke: #383838; stroke-width: 1.0;"/><line style="stroke: #383838; stroke-width: 1.0;" x1="34.5" x2="152.5" y1="314.0938" y2="314.0938"/><text fill="#000000" font-family="sans-serif" font-size="13" font-weight="bold" lengthAdjust="spacingAndGlyphs" textLength="9" x="41.5" y="309.1606">7</text><text fill="#000000" font-family="sans-serif" font-size="13" lengthAdjust="spacingAndGlyphs" textLength="92" x="54.5" y="309.1606">openSession()</text><polygon fill="#383838" points="45.5,339.2266,35.5,343.2266,45.5,347.2266,41.5,343.2266" style="stroke: #383838; stroke-width: 1.0;"/><line style="stroke: #383838; stroke-width: 1.0; stroke-dasharray: 2.0,2.0;" x1="39.5" x2="162.5" y1="343.2266" y2="343.2266"/><text fill="#000000" font-family="sans-serif" font-size="13" font-weight="bold" lengthAdjust="spacingAndGlyphs" textLength="9" x="51.5" y="338.2935">8</text><text fill="#000000" font-family="sans-serif" font-size="13" lengthAdjust="spacingAndGlyphs" textLength="44" x="64.5" y="338.2935">show()</text></g></svg>