<?xml version="1.0" encoding="UTF-8" standalone="no"?><svg xmlns="http://www.w3.org/2000/svg" xmlns:xlink="http://www.w3.org/1999/xlink" contentScriptType="application/ecmascript" contentStyleType="text/css" height="756px" preserveAspectRatio="none" style="width:1006px;height:756px;" version="1.1" viewBox="0 0 1006 756" width="1006px" zoomAndPan="magnify"><defs/><g><rect fill="#FFFFFF" height="343.5938" style="stroke: #000000; stroke-width: 2.0;" width="615" x="390" y="157.5625"/><rect fill="#FFFFFF" height="254.1953" style="stroke: #000000; stroke-width: 2.0;" width="595" x="400" y="239.9609"/><rect fill="#FFFFFF" height="75.3984" style="stroke: #000000; stroke-width: 2.0;" width="254.5" x="730.5" y="293.2266"/><rect fill="#FFFFFF" height="75.3984" style="stroke: #000000; stroke-width: 2.0;" width="254.5" x="730.5" y="382.625"/><rect fill="#FFFFFF" height="164.7969" style="stroke: #000000; stroke-width: 2.0;" width="605" x="390" y="515.1563"/><rect fill="#FFFFFF" height="75.3984" style="stroke: #000000; stroke-width: 2.0;" width="585" x="400" y="597.5547"/><line style="stroke: #383838; stroke-width: 1.0; stroke-dasharray: 5.0,5.0;" x1="34" x2="34" y1="82.2969" y2="755.2188"/><line style="stroke: #383838; stroke-width: 1.0; stroke-dasharray: 5.0,5.0;" x1="256.5" x2="256.5" y1="82.2969" y2="755.2188"/><line style="stroke: #383838; stroke-width: 1.0; stroke-dasharray: 5.0,5.0;" x1="459" x2="459" y1="82.2969" y2="755.2188"/><line style="stroke: #383838; stroke-width: 1.0; stroke-dasharray: 5.0,5.0;" x1="689.5" x2="689.5" y1="82.2969" y2="755.2188"/><line style="stroke: #383838; stroke-width: 1.0; stroke-dasharray: 5.0,5.0;" x1="806.5" x2="806.5" y1="82.2969" y2="755.2188"/><line style="stroke: #383838; stroke-width: 1.0; stroke-dasharray: 5.0,5.0;" x1="945" x2="945" y1="82.2969" y2="755.2188"/><text fill="#000000" font-family="sans-serif" font-size="14" lengthAdjust="spacingAndGlyphs" textLength="47" x="8" y="78.9951">Utente</text><ellipse cx="34.5" cy="13" fill="#F8F8F8" rx="8" ry="8" style="stroke: #383838; stroke-width: 2.0;"/><path d="M34.5,21 L34.5,48 M21.5,29 L47.5,29 M34.5,48 L21.5,63 M34.5,48 L47.5,63 " fill="#F8F8F8" style="stroke: #383838; stroke-width: 2.0;"/><rect fill="#F8F8F8" height="30.2969" style="stroke: #383838; stroke-width: 1.5;" width="60" x="226.5" y="51"/><text fill="#000000" font-family="sans-serif" font-size="14" lengthAdjust="spacingAndGlyphs" textLength="46" x="233.5" y="70.9951">WebUI</text><rect fill="#F8F8F8" height="30.2969" style="stroke: #383838; stroke-width: 1.5;" width="99" x="410" y="51"/><text fill="#000000" font-family="sans-serif" font-size="14" lengthAdjust="spacingAndGlyphs" textLength="85" x="417" y="70.9951">WebService</text><rect fill="#F8F8F8" height="30.2969" style="stroke: #383838; stroke-width: 1.5;" width="82" x="648.5" y="51"/><text fill="#000000" font-family="sans-serif" font-size="14" lengthAdjust="spacingAndGlyphs" textLength="68" x="655.5" y="70.9951">Database</text><rect fill="#F8F8F8" height="30.2969" style="stroke: #383838; stroke-width: 1.5;" width="133" x="740.5" y="51"/><text fill="#000000" font-family="sans-serif" font-size="14" lengthAdjust="spacingAndGlyphs" textLength="119" x="747.5" y="70.9951">ContainerEngine</text><rect fill="#F8F8F8" height="30.2969" style="stroke: #383838; stroke-width: 1.5;" width="60" x="915" y="51"/><text fill="#000000" font-family="sans-serif" font-size="14" lengthAdjust="spacingAndGlyphs" textLength="46" x="922" y="70.9951">Kernel</text><polygon fill="#383838" points="244.5,109.2969,254.5,113.2969,244.5,117.2969,248.5,113.2969" style="stroke: #383838; stroke-width: 1.0;"/><line style="stroke: #383838; stroke-width: 1.0;" x1="34.5" x2="250.5" y1="113.2969" y2="113.2969"/><text fill="#000000" font-family="sans-serif" font-size="13" font-weight="bold" lengthAdjust="spacingAndGlyphs" textLength="9" x="94" y="108.3638">1</text><text fill="#000000" font-family="sans-serif" font-size="13" lengthAdjust="spacingAndGlyphs" textLength="90" x="107" y="108.3638">do(terminate)</text><polygon fill="#383838" points="447.5,138.4297,457.5,142.4297,447.5,146.4297,451.5,142.4297" style="stroke: #383838; stroke-width: 1.0;"/><line style="stroke: #383838; stroke-width: 1.0;" x1="256.5" x2="453.5" y1="142.4297" y2="142.4297"/><text fill="#000000" font-family="sans-serif" font-size="13" font-weight="bold" lengthAdjust="spacingAndGlyphs" textLength="9" x="277" y="137.4966">2</text><text fill="#000000" font-family="sans-serif" font-size="13" lengthAdjust="spacingAndGlyphs" textLength="149" x="290" y="137.4966">terminateExperiment()</text><rect fill="none" height="343.5938" style="stroke: #000000; stroke-width: 2.0;" width="615" x="390" y="157.5625"/><polygon fill="#EEEEEE" points="390,157.5625,550,157.5625,550,164.5625,540,174.5625,390,174.5625,390,157.5625" style="stroke: #000000; stroke-width: 2.0;"/><text fill="#000000" font-family="sans-serif" font-size="13" font-weight="bold" lengthAdjust="spacingAndGlyphs" textLength="115" x="405" y="170.6294">remove devices</text><polygon fill="#383838" points="677.5,191.6953,687.5,195.6953,677.5,199.6953,681.5,195.6953" style="stroke: #383838; stroke-width: 1.0;"/><line style="stroke: #383838; stroke-width: 1.0;" x1="459.5" x2="683.5" y1="195.6953" y2="195.6953"/><text fill="#000000" font-family="sans-serif" font-size="13" font-weight="bold" lengthAdjust="spacingAndGlyphs" textLength="9" x="471.5" y="190.7622">3</text><text fill="#000000" font-family="sans-serif" font-size="13" lengthAdjust="spacingAndGlyphs" textLength="193" x="484.5" y="190.7622">retrieveDevicesForTopology()</text><polygon fill="#383838" points="470.5,220.8281,460.5,224.8281,470.5,228.8281,466.5,224.8281" style="stroke: #383838; stroke-width: 1.0;"/><line style="stroke: #383838; stroke-width: 1.0; stroke-dasharray: 2.0,2.0;" x1="464.5" x2="688.5" y1="224.8281" y2="224.8281"/><text fill="#000000" font-family="sans-serif" font-size="13" font-weight="bold" lengthAdjust="spacingAndGlyphs" textLength="9" x="518.5" y="219.895">4</text><text fill="#000000" font-family="sans-serif" font-size="13" lengthAdjust="spacingAndGlyphs" textLength="99" x="531.5" y="219.895">return(devices)</text><rect fill="none" height="254.1953" style="stroke: #000000; stroke-width: 2.0;" width="595" x="400" y="239.9609"/><polygon fill="#EEEEEE" points="400,239.9609,476,239.9609,476,246.9609,466,256.9609,400,256.9609,400,239.9609" style="stroke: #000000; stroke-width: 2.0;"/><text fill="#000000" font-family="sans-serif" font-size="13" font-weight="bold" lengthAdjust="spacingAndGlyphs" textLength="31" x="415" y="253.0278">loop</text><text fill="#000000" font-family="sans-serif" font-size="11" font-weight="bold" lengthAdjust="spacingAndGlyphs" textLength="119" x="491" y="252.1714">[devices as device]</text><polygon fill="#383838" points="795,274.0938,805,278.0938,795,282.0938,799,278.0938" style="stroke: #383838; stroke-width: 1.0;"/><line style="stroke: #383838; stroke-width: 1.0;" x1="459.5" x2="801" y1="278.0938" y2="278.0938"/><text fill="#000000" font-family="sans-serif" font-size="13" font-weight="bold" lengthAdjust="spacingAndGlyphs" textLength="9" x="543.75" y="273.1606">5</text><text fill="#000000" font-family="sans-serif" font-size="13" lengthAdjust="spacingAndGlyphs" textLength="166" x="556.75" y="273.1606">removeContainer(device)</text><rect fill="none" height="75.3984" style="stroke: #000000; stroke-width: 2.0;" width="254.5" x="730.5" y="293.2266"/><polygon fill="#EEEEEE" points="730.5,293.2266,799.5,293.2266,799.5,300.2266,789.5,310.2266,730.5,310.2266,730.5,293.2266" style="stroke: #000000; stroke-width: 2.0;"/><text fill="#000000" font-family="sans-serif" font-size="13" font-weight="bold" lengthAdjust="spacingAndGlyphs" textLength="24" x="745.5" y="306.2935">par</text><polygon fill="#383838" points="933,327.3594,943,331.3594,933,335.3594,937,331.3594" style="stroke: #383838; stroke-width: 1.0;"/><line style="stroke: #383838; stroke-width: 1.0;" x1="807" x2="939" y1="331.3594" y2="331.3594"/><text fill="#000000" font-family="sans-serif" font-size="13" font-weight="bold" lengthAdjust="spacingAndGlyphs" textLength="9" x="819" y="326.4263">6</text><text fill="#000000" font-family="sans-serif" font-size="13" lengthAdjust="spacingAndGlyphs" textLength="101" x="832" y="326.4263">removeNetNS()</text><polygon fill="#383838" points="933,356.4922,943,360.4922,933,364.4922,937,360.4922" style="stroke: #383838; stroke-width: 1.0;"/><line style="stroke: #383838; stroke-width: 1.0;" x1="807" x2="939" y1="360.4922" y2="360.4922"/><text fill="#000000" font-family="sans-serif" font-size="13" font-weight="bold" lengthAdjust="spacingAndGlyphs" textLength="9" x="832" y="355.5591">7</text><text fill="#000000" font-family="sans-serif" font-size="13" lengthAdjust="spacingAndGlyphs" textLength="75" x="845" y="355.5591">removeFS()</text><rect fill="none" height="75.3984" style="stroke: #000000; stroke-width: 2.0;" width="254.5" x="730.5" y="382.625"/><polygon fill="#EEEEEE" points="730.5,382.625,799.5,382.625,799.5,389.625,789.5,399.625,730.5,399.625,730.5,382.625" style="stroke: #000000; stroke-width: 2.0;"/><text fill="#000000" font-family="sans-serif" font-size="13" font-weight="bold" lengthAdjust="spacingAndGlyphs" textLength="24" x="745.5" y="395.6919">par</text><polygon fill="#383838" points="818,416.7578,808,420.7578,818,424.7578,814,420.7578" style="stroke: #383838; stroke-width: 1.0;"/><line style="stroke: #383838; stroke-width: 1.0; stroke-dasharray: 2.0,2.0;" x1="812" x2="944" y1="420.7578" y2="420.7578"/><text fill="#000000" font-family="sans-serif" font-size="13" font-weight="bold" lengthAdjust="spacingAndGlyphs" textLength="9" x="837" y="415.8247">8</text><text fill="#000000" font-family="sans-serif" font-size="13" lengthAdjust="spacingAndGlyphs" textLength="65" x="850" y="415.8247">return(ok)</text><polygon fill="#383838" points="818,445.8906,808,449.8906,818,453.8906,814,449.8906" style="stroke: #383838; stroke-width: 1.0;"/><line style="stroke: #383838; stroke-width: 1.0; stroke-dasharray: 2.0,2.0;" x1="812" x2="944" y1="449.8906" y2="449.8906"/><text fill="#000000" font-family="sans-serif" font-size="13" font-weight="bold" lengthAdjust="spacingAndGlyphs" textLength="9" x="837" y="444.9575">9</text><text fill="#000000" font-family="sans-serif" font-size="13" lengthAdjust="spacingAndGlyphs" textLength="65" x="850" y="444.9575">return(ok)</text><polygon fill="#383838" points="470.5,482.0234,460.5,486.0234,470.5,490.0234,466.5,486.0234" style="stroke: #383838; stroke-width: 1.0;"/><line style="stroke: #383838; stroke-width: 1.0; stroke-dasharray: 2.0,2.0;" x1="464.5" x2="806" y1="486.0234" y2="486.0234"/><text fill="#000000" font-family="sans-serif" font-size="13" font-weight="bold" lengthAdjust="spacingAndGlyphs" textLength="18" x="589.75" y="481.0903">10</text><text fill="#000000" font-family="sans-serif" font-size="13" lengthAdjust="spacingAndGlyphs" textLength="65" x="611.75" y="481.0903">return(ok)</text><rect fill="none" height="164.7969" style="stroke: #000000; stroke-width: 2.0;" width="605" x="390" y="515.1563"/><polygon fill="#EEEEEE" points="390,515.1563,522,515.1563,522,522.1563,512,532.1563,390,532.1563,390,515.1563" style="stroke: #000000; stroke-width: 2.0;"/><text fill="#000000" font-family="sans-serif" font-size="13" font-weight="bold" lengthAdjust="spacingAndGlyphs" textLength="87" x="405" y="528.2231">deploy links</text><polygon fill="#383838" points="677.5,549.2891,687.5,553.2891,677.5,557.2891,681.5,553.2891" style="stroke: #383838; stroke-width: 1.0;"/><line style="stroke: #383838; stroke-width: 1.0;" x1="459.5" x2="683.5" y1="553.2891" y2="553.2891"/><text fill="#000000" font-family="sans-serif" font-size="13" font-weight="bold" lengthAdjust="spacingAndGlyphs" textLength="18" x="476" y="548.356">11</text><text fill="#000000" font-family="sans-serif" font-size="13" lengthAdjust="spacingAndGlyphs" textLength="175" x="498" y="548.356">retrieve(LinksForTopology)</text><polygon fill="#383838" points="470.5,578.4219,460.5,582.4219,470.5,586.4219,466.5,582.4219" style="stroke: #383838; stroke-width: 1.0;"/><line style="stroke: #383838; stroke-width: 1.0; stroke-dasharray: 2.0,2.0;" x1="464.5" x2="688.5" y1="582.4219" y2="582.4219"/><text fill="#000000" font-family="sans-serif" font-size="13" font-weight="bold" lengthAdjust="spacingAndGlyphs" textLength="18" x="523.5" y="577.4888">12</text><text fill="#000000" font-family="sans-serif" font-size="13" lengthAdjust="spacingAndGlyphs" textLength="80" x="545.5" y="577.4888">return(links)</text><rect fill="none" height="75.3984" style="stroke: #000000; stroke-width: 2.0;" width="585" x="400" y="597.5547"/><polygon fill="#EEEEEE" points="400,597.5547,476,597.5547,476,604.5547,466,614.5547,400,614.5547,400,597.5547" style="stroke: #000000; stroke-width: 2.0;"/><text fill="#000000" font-family="sans-serif" font-size="13" font-weight="bold" lengthAdjust="spacingAndGlyphs" textLength="31" x="415" y="610.6216">loop</text><text fill="#000000" font-family="sans-serif" font-size="11" font-weight="bold" lengthAdjust="spacingAndGlyphs" textLength="85" x="491" y="609.7651">[links as link]</text><polygon fill="#383838" points="933,631.6875,943,635.6875,933,639.6875,937,635.6875" style="stroke: #383838; stroke-width: 1.0;"/><line style="stroke: #383838; stroke-width: 1.0;" x1="459.5" x2="939" y1="635.6875" y2="635.6875"/><text fill="#000000" font-family="sans-serif" font-size="13" font-weight="bold" lengthAdjust="spacingAndGlyphs" textLength="18" x="633.75" y="630.7544">13</text><text fill="#000000" font-family="sans-serif" font-size="13" lengthAdjust="spacingAndGlyphs" textLength="115" x="655.75" y="630.7544">removeVethPair()</text><polygon fill="#383838" points="470.5,660.8203,460.5,664.8203,470.5,668.8203,466.5,664.8203" style="stroke: #383838; stroke-width: 1.0;"/><line style="stroke: #383838; stroke-width: 1.0; stroke-dasharray: 2.0,2.0;" x1="464.5" x2="944" y1="664.8203" y2="664.8203"/><text fill="#000000" font-family="sans-serif" font-size="13" font-weight="bold" lengthAdjust="spacingAndGlyphs" textLength="18" x="658.75" y="659.8872">14</text><text fill="#000000" font-family="sans-serif" font-size="13" lengthAdjust="spacingAndGlyphs" textLength="65" x="680.75" y="659.8872">return(ok)</text><polygon fill="#383838" points="267.5,703.9531,257.5,707.9531,267.5,711.9531,263.5,707.9531" style="stroke: #383838; stroke-width: 1.0;"/><line style="stroke: #383838; stroke-width: 1.0; stroke-dasharray: 2.0,2.0;" x1="261.5" x2="458.5" y1="707.9531" y2="707.9531"/><text fill="#000000" font-family="sans-serif" font-size="13" font-weight="bold" lengthAdjust="spacingAndGlyphs" textLength="18" x="268.5" y="703.02">15</text><text fill="#000000" font-family="sans-serif" font-size="13" lengthAdjust="spacingAndGlyphs" textLength="157" x="290.5" y="703.02">terminatedExperiment()</text><polygon fill="#383838" points="45.5,733.0859,35.5,737.0859,45.5,741.0859,41.5,737.0859" style="stroke: #383838; stroke-width: 1.0;"/><line style="stroke: #383838; stroke-width: 1.0; stroke-dasharray: 2.0,2.0;" x1="39.5" x2="255.5" y1="737.0859" y2="737.0859"/><text fill="#000000" font-family="sans-serif" font-size="13" font-weight="bold" lengthAdjust="spacingAndGlyphs" textLength="18" x="46.5" y="732.1528">16</text><text fill="#000000" font-family="sans-serif" font-size="13" lengthAdjust="spacingAndGlyphs" textLength="176" x="68.5" y="732.1528">show(TerminatedMessage)</text></g></svg>