<?xml version="1.0" encoding="UTF-8" standalone="no"?><svg xmlns="http://www.w3.org/2000/svg" xmlns:xlink="http://www.w3.org/1999/xlink" contentScriptType="application/ecmascript" contentStyleType="text/css" height="578px" preserveAspectRatio="none" style="width:690px;height:578px;" version="1.1" viewBox="0 0 690 578" width="690px" zoomAndPan="magnify"><defs/><g><rect fill="#FFFFFF" height="71.2656" style="stroke: #383838; stroke-width: 1.0;" width="10" x="281.5" y="113.2969"/><rect fill="#FFFFFF" height="29.1328" style="stroke: #383838; stroke-width: 1.0;" width="10" x="281.5" y="322.0938"/><rect fill="#FFFFFF" height="120.3984" style="stroke: #383838; stroke-width: 1.0;" width="10" x="281.5" y="438.625"/><rect fill="#FFFFFF" height="29.1328" style="stroke: #383838; stroke-width: 1.0;" width="10" x="473.5" y="351.2266"/><rect fill="#FFFFFF" height="29.1328" style="stroke: #383838; stroke-width: 1.0;" width="10" x="473.5" y="409.4922"/><rect fill="#FFFFFF" height="29.1328" style="stroke: #383838; stroke-width: 1.0;" width="10" x="633.5" y="380.3594"/><rect fill="#FFFFFF" height="247.0625" style="stroke: #000000; stroke-width: 2.0;" width="676.5" x="13" y="199.6953"/><line style="stroke: #383838; stroke-width: 1.0; stroke-dasharray: 5.0,5.0;" x1="49" x2="49" y1="82.2969" y2="577.1563"/><line style="stroke: #383838; stroke-width: 1.0; stroke-dasharray: 5.0,5.0;" x1="286.5" x2="286.5" y1="82.2969" y2="577.1563"/><line style="stroke: #383838; stroke-width: 1.0; stroke-dasharray: 5.0,5.0;" x1="478" x2="478" y1="82.2969" y2="577.1563"/><line style="stroke: #383838; stroke-width: 1.0; stroke-dasharray: 5.0,5.0;" x1="638.5" x2="638.5" y1="82.2969" y2="577.1563"/><text fill="#000000" font-family="sans-serif" font-size="14" lengthAdjust="spacingAndGlyphs" textLength="47" x="23" y="78.9951">Utente</text><ellipse cx="49.5" cy="13" fill="#F8F8F8" rx="8" ry="8" style="stroke: #383838; stroke-width: 2.0;"/><path d="M49.5,21 L49.5,48 M36.5,29 L62.5,29 M49.5,48 L36.5,63 M49.5,48 L62.5,63 " fill="#F8F8F8" style="stroke: #383838; stroke-width: 2.0;"/><rect fill="#F8F8F8" height="30.2969" style="stroke: #383838; stroke-width: 1.5;" width="60" x="256.5" y="51"/><text fill="#000000" font-family="sans-serif" font-size="14" lengthAdjust="spacingAndGlyphs" textLength="46" x="263.5" y="70.9951">WebUI</text><rect fill="#F8F8F8" height="30.2969" style="stroke: #383838; stroke-width: 1.5;" width="99" x="429" y="51"/><text fill="#000000" font-family="sans-serif" font-size="14" lengthAdjust="spacingAndGlyphs" textLength="85" x="436" y="70.9951">WebService</text><rect fill="#F8F8F8" height="30.2969" style="stroke: #383838; stroke-width: 1.5;" width="82" x="597.5" y="51"/><text fill="#000000" font-family="sans-serif" font-size="14" lengthAdjust="spacingAndGlyphs" textLength="68" x="604.5" y="70.9951">Database</text><rect fill="#FFFFFF" height="71.2656" style="stroke: #383838; stroke-width: 1.0;" width="10" x="281.5" y="113.2969"/><rect fill="#FFFFFF" height="29.1328" style="stroke: #383838; stroke-width: 1.0;" width="10" x="281.5" y="322.0938"/><rect fill="#FFFFFF" height="120.3984" style="stroke: #383838; stroke-width: 1.0;" width="10" x="281.5" y="438.625"/><rect fill="#FFFFFF" height="29.1328" style="stroke: #383838; stroke-width: 1.0;" width="10" x="473.5" y="351.2266"/><rect fill="#FFFFFF" height="29.1328" style="stroke: #383838; stroke-width: 1.0;" width="10" x="473.5" y="409.4922"/><rect fill="#FFFFFF" height="29.1328" style="stroke: #383838; stroke-width: 1.0;" width="10" x="633.5" y="380.3594"/><polygon fill="#383838" points="269.5,109.2969,279.5,113.2969,269.5,117.2969,273.5,113.2969" style="stroke: #383838; stroke-width: 1.0;"/><line style="stroke: #383838; stroke-width: 1.0;" x1="49.5" x2="275.5" y1="113.2969" y2="113.2969"/><text fill="#000000" font-family="sans-serif" font-size="13" font-weight="bold" lengthAdjust="spacingAndGlyphs" textLength="9" x="120.5" y="108.3638">1</text><text fill="#000000" font-family="sans-serif" font-size="13" lengthAdjust="spacingAndGlyphs" textLength="77" x="133.5" y="108.3638">do(addLink)</text><line style="stroke: #383838; stroke-width: 1.0;" x1="291.5" x2="333.5" y1="142.5625" y2="142.5625"/><line style="stroke: #383838; stroke-width: 1.0;" x1="333.5" x2="333.5" y1="142.5625" y2="155.5625"/><line style="stroke: #383838; stroke-width: 1.0;" x1="292.5" x2="333.5" y1="155.5625" y2="155.5625"/><polygon fill="#383838" points="302.5,151.5625,292.5,155.5625,302.5,159.5625,298.5,155.5625" style="stroke: #383838; stroke-width: 1.0;"/><text fill="#000000" font-family="sans-serif" font-size="13" font-weight="bold" lengthAdjust="spacingAndGlyphs" textLength="9" x="298.5" y="137.4966">2</text><text fill="#000000" font-family="sans-serif" font-size="13" lengthAdjust="spacingAndGlyphs" textLength="155" x="311.5" y="137.4966">do(enterSelectionMode)</text><polygon fill="#383838" points="60.5,180.5625,50.5,184.5625,60.5,188.5625,56.5,184.5625" style="stroke: #383838; stroke-width: 1.0;"/><line style="stroke: #383838; stroke-width: 1.0; stroke-dasharray: 2.0,2.0;" x1="54.5" x2="285.5" y1="184.5625" y2="184.5625"/><text fill="#000000" font-family="sans-serif" font-size="13" font-weight="bold" lengthAdjust="spacingAndGlyphs" textLength="9" x="64" y="179.6294">3</text><text fill="#000000" font-family="sans-serif" font-size="13" lengthAdjust="spacingAndGlyphs" textLength="195" x="77" y="179.6294">show(selectionModeMessage)</text><rect fill="none" height="247.0625" style="stroke: #000000; stroke-width: 2.0;" width="676.5" x="13" y="199.6953"/><polygon fill="#EEEEEE" points="13,199.6953,172,199.6953,172,206.6953,162,216.6953,13,216.6953,13,199.6953" style="stroke: #000000; stroke-width: 2.0;"/><text fill="#000000" font-family="sans-serif" font-size="13" font-weight="bold" lengthAdjust="spacingAndGlyphs" textLength="114" x="28" y="212.7622">deviceSelection</text><line style="stroke: #383838; stroke-width: 1.0;" x1="49.5" x2="91.5" y1="237.9609" y2="237.9609"/><line style="stroke: #383838; stroke-width: 1.0;" x1="91.5" x2="91.5" y1="237.9609" y2="250.9609"/><line style="stroke: #383838; stroke-width: 1.0;" x1="50.5" x2="91.5" y1="250.9609" y2="250.9609"/><polygon fill="#383838" points="60.5,246.9609,50.5,250.9609,60.5,254.9609,56.5,250.9609" style="stroke: #383838; stroke-width: 1.0;"/><text fill="#000000" font-family="sans-serif" font-size="13" font-weight="bold" lengthAdjust="spacingAndGlyphs" textLength="9" x="56.5" y="232.895">4</text><text fill="#000000" font-family="sans-serif" font-size="13" lengthAdjust="spacingAndGlyphs" textLength="161" x="69.5" y="232.895">selectDevice(d1, device)</text><line style="stroke: #383838; stroke-width: 1.0;" x1="49.5" x2="91.5" y1="280.0938" y2="280.0938"/><line style="stroke: #383838; stroke-width: 1.0;" x1="91.5" x2="91.5" y1="280.0938" y2="293.0938"/><line style="stroke: #383838; stroke-width: 1.0;" x1="50.5" x2="91.5" y1="293.0938" y2="293.0938"/><polygon fill="#383838" points="60.5,289.0938,50.5,293.0938,60.5,297.0938,56.5,293.0938" style="stroke: #383838; stroke-width: 1.0;"/><text fill="#000000" font-family="sans-serif" font-size="13" font-weight="bold" lengthAdjust="spacingAndGlyphs" textLength="9" x="56.5" y="275.0278">5</text><text fill="#000000" font-family="sans-serif" font-size="13" lengthAdjust="spacingAndGlyphs" textLength="161" x="69.5" y="275.0278">selectDevice(d2, device)</text><polygon fill="#383838" points="269.5,318.0938,279.5,322.0938,269.5,326.0938,273.5,322.0938" style="stroke: #383838; stroke-width: 1.0;"/><line style="stroke: #383838; stroke-width: 1.0;" x1="49.5" x2="275.5" y1="322.0938" y2="322.0938"/><text fill="#000000" font-family="sans-serif" font-size="13" font-weight="bold" lengthAdjust="spacingAndGlyphs" textLength="9" x="88" y="317.1606">6</text><text fill="#000000" font-family="sans-serif" font-size="13" lengthAdjust="spacingAndGlyphs" textLength="142" x="101" y="317.1606">do(createLink, d1, d2)</text><polygon fill="#383838" points="461.5,347.2266,471.5,351.2266,461.5,355.2266,465.5,351.2266" style="stroke: #383838; stroke-width: 1.0;"/><line style="stroke: #383838; stroke-width: 1.0;" x1="286.5" x2="467.5" y1="351.2266" y2="351.2266"/><text fill="#000000" font-family="sans-serif" font-size="13" font-weight="bold" lengthAdjust="spacingAndGlyphs" textLength="9" x="314.5" y="346.2935">7</text><text fill="#000000" font-family="sans-serif" font-size="13" lengthAdjust="spacingAndGlyphs" textLength="118" x="327.5" y="346.2935">createLink(d1, d2)</text><polygon fill="#383838" points="621.5,376.3594,631.5,380.3594,621.5,384.3594,625.5,380.3594" style="stroke: #383838; stroke-width: 1.0;"/><line style="stroke: #383838; stroke-width: 1.0;" x1="478.5" x2="627.5" y1="380.3594" y2="380.3594"/><text fill="#000000" font-family="sans-serif" font-size="13" font-weight="bold" lengthAdjust="spacingAndGlyphs" textLength="9" x="490.5" y="375.4263">8</text><text fill="#000000" font-family="sans-serif" font-size="13" lengthAdjust="spacingAndGlyphs" textLength="118" x="503.5" y="375.4263">createLink(d1, d2)</text><polygon fill="#383838" points="494.5,405.4922,484.5,409.4922,494.5,413.4922,490.5,409.4922" style="stroke: #383838; stroke-width: 1.0;"/><line style="stroke: #383838; stroke-width: 1.0; stroke-dasharray: 2.0,2.0;" x1="488.5" x2="637.5" y1="409.4922" y2="409.4922"/><text fill="#000000" font-family="sans-serif" font-size="13" font-weight="bold" lengthAdjust="spacingAndGlyphs" textLength="9" x="505.5" y="404.5591">9</text><text fill="#000000" font-family="sans-serif" font-size="13" lengthAdjust="spacingAndGlyphs" textLength="98" x="518.5" y="404.5591">return(created)</text><polygon fill="#383838" points="302.5,434.625,292.5,438.625,302.5,442.625,298.5,438.625" style="stroke: #383838; stroke-width: 1.0;"/><line style="stroke: #383838; stroke-width: 1.0; stroke-dasharray: 2.0,2.0;" x1="296.5" x2="477.5" y1="438.625" y2="438.625"/><text fill="#000000" font-family="sans-serif" font-size="13" font-weight="bold" lengthAdjust="spacingAndGlyphs" textLength="18" x="325" y="433.6919">10</text><text fill="#000000" font-family="sans-serif" font-size="13" lengthAdjust="spacingAndGlyphs" textLength="98" x="347" y="433.6919">return(created)</text><line style="stroke: #383838; stroke-width: 1.0;" x1="291.5" x2="333.5" y1="474.8906" y2="474.8906"/><line style="stroke: #383838; stroke-width: 1.0;" x1="333.5" x2="333.5" y1="474.8906" y2="487.8906"/><line style="stroke: #383838; stroke-width: 1.0;" x1="292.5" x2="333.5" y1="487.8906" y2="487.8906"/><polygon fill="#383838" points="302.5,483.8906,292.5,487.8906,302.5,491.8906,298.5,487.8906" style="stroke: #383838; stroke-width: 1.0;"/><text fill="#000000" font-family="sans-serif" font-size="13" font-weight="bold" lengthAdjust="spacingAndGlyphs" textLength="18" x="298.5" y="469.8247">11</text><text fill="#000000" font-family="sans-serif" font-size="13" lengthAdjust="spacingAndGlyphs" textLength="146" x="320.5" y="469.8247">do(exitSelectionMode)</text><line style="stroke: #383838; stroke-width: 1.0;" x1="291.5" x2="333.5" y1="517.0234" y2="517.0234"/><line style="stroke: #383838; stroke-width: 1.0;" x1="333.5" x2="333.5" y1="517.0234" y2="530.0234"/><line style="stroke: #383838; stroke-width: 1.0;" x1="292.5" x2="333.5" y1="530.0234" y2="530.0234"/><polygon fill="#383838" points="302.5,526.0234,292.5,530.0234,302.5,534.0234,298.5,530.0234" style="stroke: #383838; stroke-width: 1.0;"/><text fill="#000000" font-family="sans-serif" font-size="13" font-weight="bold" lengthAdjust="spacingAndGlyphs" textLength="18" x="298.5" y="511.9575">12</text><text fill="#000000" font-family="sans-serif" font-size="13" lengthAdjust="spacingAndGlyphs" textLength="137" x="320.5" y="511.9575">do(addLinkInCanvas)</text><polygon fill="#383838" points="60.5,555.0234,50.5,559.0234,60.5,563.0234,56.5,559.0234" style="stroke: #383838; stroke-width: 1.0;"/><line style="stroke: #383838; stroke-width: 1.0;" x1="54.5" x2="285.5" y1="559.0234" y2="559.0234"/><text fill="#000000" font-family="sans-serif" font-size="13" font-weight="bold" lengthAdjust="spacingAndGlyphs" textLength="18" x="69" y="554.0903">13</text><text fill="#000000" font-family="sans-serif" font-size="13" lengthAdjust="spacingAndGlyphs" textLength="176" x="91" y="554.0903">show(linkCreatedMessage)</text></g></svg>