<?xml version="1.0" encoding="UTF-8" standalone="no"?><svg xmlns="http://www.w3.org/2000/svg" xmlns:xlink="http://www.w3.org/1999/xlink" contentScriptType="application/ecmascript" contentStyleType="text/css" height="474px" preserveAspectRatio="none" style="width:589px;height:474px;" version="1.1" viewBox="0 0 589 474" width="589px" zoomAndPan="magnify"><defs/><g><rect fill="#FFFFFF" height="29.1328" style="stroke: #383838; stroke-width: 1.0;" width="10" x="252.5" y="137.4297"/><rect fill="#FFFFFF" height="71.2656" style="stroke: #383838; stroke-width: 1.0;" width="10" x="252.5" y="195.6953"/><rect fill="#FFFFFF" height="71.2656" style="stroke: #383838; stroke-width: 1.0;" width="10" x="252.5" y="327.2266"/><rect fill="#FFFFFF" height="29.1328" style="stroke: #383838; stroke-width: 1.0;" width="10" x="470.5" y="166.5625"/><rect fill="#FFFFFF" height="175.7969" style="stroke: #000000; stroke-width: 2.0;" width="522" x="13" y="99.2969"/><rect fill="#FFFFFF" height="117.5313" style="stroke: #000000; stroke-width: 2.0;" width="462.5" x="13" y="289.0938"/><line style="stroke: #383838; stroke-width: 1.0; stroke-dasharray: 5.0,5.0;" x1="49" x2="49" y1="82.2969" y2="473.8906"/><line style="stroke: #383838; stroke-width: 1.0; stroke-dasharray: 5.0,5.0;" x1="257.5" x2="257.5" y1="82.2969" y2="473.8906"/><line style="stroke: #383838; stroke-width: 1.0; stroke-dasharray: 5.0,5.0;" x1="475" x2="475" y1="82.2969" y2="473.8906"/><text fill="#000000" font-family="sans-serif" font-size="14" lengthAdjust="spacingAndGlyphs" textLength="47" x="23" y="78.9951">Utente</text><ellipse cx="49.5" cy="13" fill="#F8F8F8" rx="8" ry="8" style="stroke: #383838; stroke-width: 2.0;"/><path d="M49.5,21 L49.5,48 M36.5,29 L62.5,29 M49.5,48 L36.5,63 M49.5,48 L62.5,63 " fill="#F8F8F8" style="stroke: #383838; stroke-width: 2.0;"/><rect fill="#F8F8F8" height="30.2969" style="stroke: #383838; stroke-width: 1.5;" width="60" x="227.5" y="51"/><text fill="#000000" font-family="sans-serif" font-size="14" lengthAdjust="spacingAndGlyphs" textLength="46" x="234.5" y="70.9951">WebUI</text><rect fill="#F8F8F8" height="30.2969" style="stroke: #383838; stroke-width: 1.5;" width="99" x="426" y="51"/><text fill="#000000" font-family="sans-serif" font-size="14" lengthAdjust="spacingAndGlyphs" textLength="85" x="433" y="70.9951">WebService</text><rect fill="#FFFFFF" height="29.1328" style="stroke: #383838; stroke-width: 1.0;" width="10" x="252.5" y="137.4297"/><rect fill="#FFFFFF" height="71.2656" style="stroke: #383838; stroke-width: 1.0;" width="10" x="252.5" y="195.6953"/><rect fill="#FFFFFF" height="71.2656" style="stroke: #383838; stroke-width: 1.0;" width="10" x="252.5" y="327.2266"/><rect fill="#FFFFFF" height="29.1328" style="stroke: #383838; stroke-width: 1.0;" width="10" x="470.5" y="166.5625"/><rect fill="none" height="175.7969" style="stroke: #000000; stroke-width: 2.0;" width="522" x="13" y="99.2969"/><polygon fill="#EEEEEE" points="13,99.2969,195,99.2969,195,106.2969,185,116.2969,13,116.2969,13,99.2969" style="stroke: #000000; stroke-width: 2.0;"/><text fill="#000000" font-family="sans-serif" font-size="13" font-weight="bold" lengthAdjust="spacingAndGlyphs" textLength="137" x="28" y="112.3638">environmentsPage</text><polygon fill="#383838" points="240.5,133.4297,250.5,137.4297,240.5,141.4297,244.5,137.4297" style="stroke: #383838; stroke-width: 1.0;"/><line style="stroke: #383838; stroke-width: 1.0;" x1="49.5" x2="246.5" y1="137.4297" y2="137.4297"/><text fill="#000000" font-family="sans-serif" font-size="13" font-weight="bold" lengthAdjust="spacingAndGlyphs" textLength="9" x="68" y="132.4966">1</text><text fill="#000000" font-family="sans-serif" font-size="13" lengthAdjust="spacingAndGlyphs" textLength="153" x="81" y="132.4966">get(environmentsPage)</text><polygon fill="#383838" points="458.5,162.5625,468.5,166.5625,458.5,170.5625,462.5,166.5625" style="stroke: #383838; stroke-width: 1.0;"/><line style="stroke: #383838; stroke-width: 1.0;" x1="257.5" x2="464.5" y1="166.5625" y2="166.5625"/><text fill="#000000" font-family="sans-serif" font-size="13" font-weight="bold" lengthAdjust="spacingAndGlyphs" textLength="9" x="297" y="161.6294">2</text><text fill="#000000" font-family="sans-serif" font-size="13" lengthAdjust="spacingAndGlyphs" textLength="121" x="310" y="161.6294">getEnvironments()</text><polygon fill="#383838" points="273.5,191.6953,263.5,195.6953,273.5,199.6953,269.5,195.6953" style="stroke: #383838; stroke-width: 1.0;"/><line style="stroke: #383838; stroke-width: 1.0; stroke-dasharray: 2.0,2.0;" x1="267.5" x2="474.5" y1="195.6953" y2="195.6953"/><text fill="#000000" font-family="sans-serif" font-size="13" font-weight="bold" lengthAdjust="spacingAndGlyphs" textLength="9" x="293" y="190.7622">3</text><text fill="#000000" font-family="sans-serif" font-size="13" lengthAdjust="spacingAndGlyphs" textLength="139" x="306" y="190.7622">return(environments)</text><line style="stroke: #383838; stroke-width: 1.0;" x1="262.5" x2="304.5" y1="224.9609" y2="224.9609"/><line style="stroke: #383838; stroke-width: 1.0;" x1="304.5" x2="304.5" y1="224.9609" y2="237.9609"/><line style="stroke: #383838; stroke-width: 1.0;" x1="263.5" x2="304.5" y1="237.9609" y2="237.9609"/><polygon fill="#383838" points="273.5,233.9609,263.5,237.9609,273.5,241.9609,269.5,237.9609" style="stroke: #383838; stroke-width: 1.0;"/><text fill="#000000" font-family="sans-serif" font-size="13" font-weight="bold" lengthAdjust="spacingAndGlyphs" textLength="9" x="269.5" y="219.895">4</text><text fill="#000000" font-family="sans-serif" font-size="13" lengthAdjust="spacingAndGlyphs" textLength="157" x="282.5" y="219.895">populate(environments)</text><polygon fill="#383838" points="60.5,262.9609,50.5,266.9609,60.5,270.9609,56.5,266.9609" style="stroke: #383838; stroke-width: 1.0;"/><line style="stroke: #383838; stroke-width: 1.0; stroke-dasharray: 2.0,2.0;" x1="54.5" x2="256.5" y1="266.9609" y2="266.9609"/><text fill="#000000" font-family="sans-serif" font-size="13" font-weight="bold" lengthAdjust="spacingAndGlyphs" textLength="9" x="64" y="262.0278">5</text><text fill="#000000" font-family="sans-serif" font-size="13" lengthAdjust="spacingAndGlyphs" textLength="166" x="77" y="262.0278">show(environmentsPage)</text><rect fill="none" height="117.5313" style="stroke: #000000; stroke-width: 2.0;" width="462.5" x="13" y="289.0938"/><polygon fill="#EEEEEE" points="13,289.0938,194,289.0938,194,296.0938,184,306.0938,13,306.0938,13,289.0938" style="stroke: #000000; stroke-width: 2.0;"/><text fill="#000000" font-family="sans-serif" font-size="13" font-weight="bold" lengthAdjust="spacingAndGlyphs" textLength="136" x="28" y="302.1606">selectEnvironment</text><polygon fill="#383838" points="240.5,323.2266,250.5,327.2266,240.5,331.2266,244.5,327.2266" style="stroke: #383838; stroke-width: 1.0;"/><line style="stroke: #383838; stroke-width: 1.0;" x1="49.5" x2="246.5" y1="327.2266" y2="327.2266"/><text fill="#000000" font-family="sans-serif" font-size="13" font-weight="bold" lengthAdjust="spacingAndGlyphs" textLength="9" x="65.5" y="322.2935">6</text><text fill="#000000" font-family="sans-serif" font-size="13" lengthAdjust="spacingAndGlyphs" textLength="158" x="78.5" y="322.2935">do(selectEnvironment())</text><line style="stroke: #383838; stroke-width: 1.0;" x1="262.5" x2="304.5" y1="356.4922" y2="356.4922"/><line style="stroke: #383838; stroke-width: 1.0;" x1="304.5" x2="304.5" y1="356.4922" y2="369.4922"/><line style="stroke: #383838; stroke-width: 1.0;" x1="263.5" x2="304.5" y1="369.4922" y2="369.4922"/><polygon fill="#383838" points="273.5,365.4922,263.5,369.4922,273.5,373.4922,269.5,369.4922" style="stroke: #383838; stroke-width: 1.0;"/><text fill="#000000" font-family="sans-serif" font-size="13" font-weight="bold" lengthAdjust="spacingAndGlyphs" textLength="9" x="269.5" y="351.4263">7</text><text fill="#000000" font-family="sans-serif" font-size="13" lengthAdjust="spacingAndGlyphs" textLength="181" x="282.5" y="351.4263">store(selectedEnvironment)</text><polygon fill="#383838" points="60.5,394.4922,50.5,398.4922,60.5,402.4922,56.5,398.4922" style="stroke: #383838; stroke-width: 1.0;"/><line style="stroke: #383838; stroke-width: 1.0; stroke-dasharray: 2.0,2.0;" x1="54.5" x2="256.5" y1="398.4922" y2="398.4922"/><text fill="#000000" font-family="sans-serif" font-size="13" font-weight="bold" lengthAdjust="spacingAndGlyphs" textLength="9" x="71.5" y="393.5591">8</text><text fill="#000000" font-family="sans-serif" font-size="13" lengthAdjust="spacingAndGlyphs" textLength="151" x="84.5" y="393.5591">show(confirmMessage)</text><polygon fill="#ECECEC" points="145,418.625,145,458.625,588,458.625,588,428.625,578,418.625,145,418.625" style="stroke: #383838; stroke-width: 1.0;"/><line style="stroke: #383838; stroke-width: 1.0;" x1="578" x2="578" y1="418.625" y2="428.625"/><line style="stroke: #383838; stroke-width: 1.0;" x1="588" x2="578" y1="428.625" y2="428.625"/><text fill="#000000" font-family="sans-serif" font-size="13" lengthAdjust="spacingAndGlyphs" textLength="422" x="151" y="435.6919">Stored environment will be sent in each request and will be used</text><text fill="#000000" font-family="sans-serif" font-size="13" lengthAdjust="spacingAndGlyphs" textLength="414" x="151" y="450.8247">by the webservice for request validation, through a middleware</text></g></svg>