<?xml version="1.0" encoding="UTF-8" standalone="no"?><svg xmlns="http://www.w3.org/2000/svg" xmlns:xlink="http://www.w3.org/1999/xlink" contentScriptType="application/ecmascript" contentStyleType="text/css" height="533px" preserveAspectRatio="none" style="width:670px;height:533px;" version="1.1" viewBox="0 0 670 533" width="670px" zoomAndPan="magnify"><defs/><g><rect fill="#FFFFFF" height="29.1328" style="stroke: #383838; stroke-width: 1.0;" width="10" x="246.5" y="137.4297"/><rect fill="#FFFFFF" height="71.2656" style="stroke: #383838; stroke-width: 1.0;" width="10" x="246.5" y="253.9609"/><rect fill="#FFFFFF" height="71.2656" style="stroke: #383838; stroke-width: 1.0;" width="10" x="246.5" y="385.4922"/><rect fill="#FFFFFF" height="29.1328" style="stroke: #383838; stroke-width: 1.0;" width="10" x="432.5" y="166.5625"/><rect fill="#FFFFFF" height="29.1328" style="stroke: #383838; stroke-width: 1.0;" width="10" x="432.5" y="224.8281"/><rect fill="#FFFFFF" height="29.1328" style="stroke: #383838; stroke-width: 1.0;" width="10" x="613.5" y="195.6953"/><rect fill="#FFFFFF" height="234.0625" style="stroke: #000000; stroke-width: 2.0;" width="656.5" x="13" y="99.2969"/><rect fill="#FFFFFF" height="117.5313" style="stroke: #000000; stroke-width: 2.0;" width="424.5" x="13" y="347.3594"/><line style="stroke: #383838; stroke-width: 1.0; stroke-dasharray: 5.0,5.0;" x1="49" x2="49" y1="82.2969" y2="532.1563"/><line style="stroke: #383838; stroke-width: 1.0; stroke-dasharray: 5.0,5.0;" x1="251.5" x2="251.5" y1="82.2969" y2="532.1563"/><line style="stroke: #383838; stroke-width: 1.0; stroke-dasharray: 5.0,5.0;" x1="437" x2="437" y1="82.2969" y2="532.1563"/><line style="stroke: #383838; stroke-width: 1.0; stroke-dasharray: 5.0,5.0;" x1="618.5" x2="618.5" y1="82.2969" y2="532.1563"/><text fill="#000000" font-family="sans-serif" font-size="14" lengthAdjust="spacingAndGlyphs" textLength="47" x="23" y="78.9951">Utente</text><ellipse cx="49.5" cy="13" fill="#F8F8F8" rx="8" ry="8" style="stroke: #383838; stroke-width: 2.0;"/><path d="M49.5,21 L49.5,48 M36.5,29 L62.5,29 M49.5,48 L36.5,63 M49.5,48 L62.5,63 " fill="#F8F8F8" style="stroke: #383838; stroke-width: 2.0;"/><rect fill="#F8F8F8" height="30.2969" style="stroke: #383838; stroke-width: 1.5;" width="60" x="221.5" y="51"/><text fill="#000000" font-family="sans-serif" font-size="14" lengthAdjust="spacingAndGlyphs" textLength="46" x="228.5" y="70.9951">WebUI</text><rect fill="#F8F8F8" height="30.2969" style="stroke: #383838; stroke-width: 1.5;" width="99" x="388" y="51"/><text fill="#000000" font-family="sans-serif" font-size="14" lengthAdjust="spacingAndGlyphs" textLength="85" x="395" y="70.9951">WebService</text><rect fill="#F8F8F8" height="30.2969" style="stroke: #383838; stroke-width: 1.5;" width="82" x="577.5" y="51"/><text fill="#000000" font-family="sans-serif" font-size="14" lengthAdjust="spacingAndGlyphs" textLength="68" x="584.5" y="70.9951">Database</text><rect fill="#FFFFFF" height="29.1328" style="stroke: #383838; stroke-width: 1.0;" width="10" x="246.5" y="137.4297"/><rect fill="#FFFFFF" height="71.2656" style="stroke: #383838; stroke-width: 1.0;" width="10" x="246.5" y="253.9609"/><rect fill="#FFFFFF" height="71.2656" style="stroke: #383838; stroke-width: 1.0;" width="10" x="246.5" y="385.4922"/><rect fill="#FFFFFF" height="29.1328" style="stroke: #383838; stroke-width: 1.0;" width="10" x="432.5" y="166.5625"/><rect fill="#FFFFFF" height="29.1328" style="stroke: #383838; stroke-width: 1.0;" width="10" x="432.5" y="224.8281"/><rect fill="#FFFFFF" height="29.1328" style="stroke: #383838; stroke-width: 1.0;" width="10" x="613.5" y="195.6953"/><rect fill="none" height="234.0625" style="stroke: #000000; stroke-width: 2.0;" width="656.5" x="13" y="99.2969"/><polygon fill="#EEEEEE" points="13,99.2969,158,99.2969,158,106.2969,148,116.2969,13,116.2969,13,99.2969" style="stroke: #000000; stroke-width: 2.0;"/><text fill="#000000" font-family="sans-serif" font-size="13" font-weight="bold" lengthAdjust="spacingAndGlyphs" textLength="100" x="28" y="112.3638">sessionsPage</text><polygon fill="#383838" points="234.5,133.4297,244.5,137.4297,234.5,141.4297,238.5,137.4297" style="stroke: #383838; stroke-width: 1.0;"/><line style="stroke: #383838; stroke-width: 1.0;" x1="49.5" x2="240.5" y1="137.4297" y2="137.4297"/><text fill="#000000" font-family="sans-serif" font-size="13" font-weight="bold" lengthAdjust="spacingAndGlyphs" textLength="9" x="82" y="132.4966">1</text><text fill="#000000" font-family="sans-serif" font-size="13" lengthAdjust="spacingAndGlyphs" textLength="119" x="95" y="132.4966">get(sessionsPage)</text><polygon fill="#383838" points="420.5,162.5625,430.5,166.5625,420.5,170.5625,424.5,166.5625" style="stroke: #383838; stroke-width: 1.0;"/><line style="stroke: #383838; stroke-width: 1.0;" x1="251.5" x2="426.5" y1="166.5625" y2="166.5625"/><text fill="#000000" font-family="sans-serif" font-size="13" font-weight="bold" lengthAdjust="spacingAndGlyphs" textLength="9" x="291.5" y="161.6294">2</text><text fill="#000000" font-family="sans-serif" font-size="13" lengthAdjust="spacingAndGlyphs" textLength="88" x="304.5" y="161.6294">getSessions()</text><polygon fill="#383838" points="601.5,191.6953,611.5,195.6953,601.5,199.6953,605.5,195.6953" style="stroke: #383838; stroke-width: 1.0;"/><line style="stroke: #383838; stroke-width: 1.0;" x1="437.5" x2="607.5" y1="195.6953" y2="195.6953"/><text fill="#000000" font-family="sans-serif" font-size="13" font-weight="bold" lengthAdjust="spacingAndGlyphs" textLength="9" x="449.5" y="190.7622">3</text><text fill="#000000" font-family="sans-serif" font-size="13" lengthAdjust="spacingAndGlyphs" textLength="139" x="462.5" y="190.7622">lookupSessions(user)</text><polygon fill="#383838" points="453.5,220.8281,443.5,224.8281,453.5,228.8281,449.5,224.8281" style="stroke: #383838; stroke-width: 1.0;"/><line style="stroke: #383838; stroke-width: 1.0; stroke-dasharray: 2.0,2.0;" x1="447.5" x2="617.5" y1="224.8281" y2="224.8281"/><text fill="#000000" font-family="sans-serif" font-size="13" font-weight="bold" lengthAdjust="spacingAndGlyphs" textLength="9" x="471.5" y="219.895">4</text><text fill="#000000" font-family="sans-serif" font-size="13" lengthAdjust="spacingAndGlyphs" textLength="105" x="484.5" y="219.895">return(sessions)</text><polygon fill="#383838" points="267.5,249.9609,257.5,253.9609,267.5,257.9609,263.5,253.9609" style="stroke: #383838; stroke-width: 1.0;"/><line style="stroke: #383838; stroke-width: 1.0; stroke-dasharray: 2.0,2.0;" x1="261.5" x2="436.5" y1="253.9609" y2="253.9609"/><text fill="#000000" font-family="sans-serif" font-size="13" font-weight="bold" lengthAdjust="spacingAndGlyphs" textLength="9" x="288" y="249.0278">5</text><text fill="#000000" font-family="sans-serif" font-size="13" lengthAdjust="spacingAndGlyphs" textLength="105" x="301" y="249.0278">return(sessions)</text><line style="stroke: #383838; stroke-width: 1.0;" x1="256.5" x2="298.5" y1="283.2266" y2="283.2266"/><line style="stroke: #383838; stroke-width: 1.0;" x1="298.5" x2="298.5" y1="283.2266" y2="296.2266"/><line style="stroke: #383838; stroke-width: 1.0;" x1="257.5" x2="298.5" y1="296.2266" y2="296.2266"/><polygon fill="#383838" points="267.5,292.2266,257.5,296.2266,267.5,300.2266,263.5,296.2266" style="stroke: #383838; stroke-width: 1.0;"/><text fill="#000000" font-family="sans-serif" font-size="13" font-weight="bold" lengthAdjust="spacingAndGlyphs" textLength="9" x="263.5" y="278.1606">6</text><text fill="#000000" font-family="sans-serif" font-size="13" lengthAdjust="spacingAndGlyphs" textLength="123" x="276.5" y="278.1606">populate(sessions)</text><polygon fill="#383838" points="60.5,321.2266,50.5,325.2266,60.5,329.2266,56.5,325.2266" style="stroke: #383838; stroke-width: 1.0;"/><line style="stroke: #383838; stroke-width: 1.0; stroke-dasharray: 2.0,2.0;" x1="54.5" x2="250.5" y1="325.2266" y2="325.2266"/><text fill="#000000" font-family="sans-serif" font-size="13" font-weight="bold" lengthAdjust="spacingAndGlyphs" textLength="9" x="78" y="320.2935">7</text><text fill="#000000" font-family="sans-serif" font-size="13" lengthAdjust="spacingAndGlyphs" textLength="132" x="91" y="320.2935">show(sessionsPage)</text><rect fill="none" height="117.5313" style="stroke: #000000; stroke-width: 2.0;" width="424.5" x="13" y="347.3594"/><polygon fill="#EEEEEE" points="13,347.3594,158,347.3594,158,354.3594,148,364.3594,13,364.3594,13,347.3594" style="stroke: #000000; stroke-width: 2.0;"/><text fill="#000000" font-family="sans-serif" font-size="13" font-weight="bold" lengthAdjust="spacingAndGlyphs" textLength="100" x="28" y="360.4263">selectSession</text><polygon fill="#383838" points="234.5,381.4922,244.5,385.4922,234.5,389.4922,238.5,385.4922" style="stroke: #383838; stroke-width: 1.0;"/><line style="stroke: #383838; stroke-width: 1.0;" x1="49.5" x2="240.5" y1="385.4922" y2="385.4922"/><text fill="#000000" font-family="sans-serif" font-size="13" font-weight="bold" lengthAdjust="spacingAndGlyphs" textLength="9" x="84" y="380.5591">8</text><text fill="#000000" font-family="sans-serif" font-size="13" lengthAdjust="spacingAndGlyphs" textLength="115" x="97" y="380.5591">do(selectSession)</text><line style="stroke: #383838; stroke-width: 1.0;" x1="256.5" x2="298.5" y1="414.7578" y2="414.7578"/><line style="stroke: #383838; stroke-width: 1.0;" x1="298.5" x2="298.5" y1="414.7578" y2="427.7578"/><line style="stroke: #383838; stroke-width: 1.0;" x1="257.5" x2="298.5" y1="427.7578" y2="427.7578"/><polygon fill="#383838" points="267.5,423.7578,257.5,427.7578,267.5,431.7578,263.5,427.7578" style="stroke: #383838; stroke-width: 1.0;"/><text fill="#000000" font-family="sans-serif" font-size="13" font-weight="bold" lengthAdjust="spacingAndGlyphs" textLength="9" x="263.5" y="409.6919">9</text><text fill="#000000" font-family="sans-serif" font-size="13" lengthAdjust="spacingAndGlyphs" textLength="149" x="276.5" y="409.6919">store(SelectedSession)</text><polygon fill="#383838" points="60.5,452.7578,50.5,456.7578,60.5,460.7578,56.5,456.7578" style="stroke: #383838; stroke-width: 1.0;"/><line style="stroke: #383838; stroke-width: 1.0; stroke-dasharray: 2.0,2.0;" x1="54.5" x2="250.5" y1="456.7578" y2="456.7578"/><text fill="#000000" font-family="sans-serif" font-size="13" font-weight="bold" lengthAdjust="spacingAndGlyphs" textLength="18" x="64" y="451.8247">10</text><text fill="#000000" font-family="sans-serif" font-size="13" lengthAdjust="spacingAndGlyphs" textLength="151" x="86" y="451.8247">show(confirmMessage)</text><polygon fill="#ECECEC" points="125,476.8906,125,516.8906,564,516.8906,564,486.8906,554,476.8906,125,476.8906" style="stroke: #383838; stroke-width: 1.0;"/><line style="stroke: #383838; stroke-width: 1.0;" x1="554" x2="554" y1="476.8906" y2="486.8906"/><line style="stroke: #383838; stroke-width: 1.0;" x1="564" x2="554" y1="486.8906" y2="486.8906"/><text fill="#000000" font-family="sans-serif" font-size="13" lengthAdjust="spacingAndGlyphs" textLength="388" x="131" y="493.9575">Stored session will be sent in each request and will be used</text><text fill="#000000" font-family="sans-serif" font-size="13" lengthAdjust="spacingAndGlyphs" textLength="414" x="131" y="509.0903">by the webservice for request validation, through a middleware</text></g></svg>