<?xml version="1.0" encoding="UTF-8" standalone="no"?><svg xmlns="http://www.w3.org/2000/svg" xmlns:xlink="http://www.w3.org/1999/xlink" contentScriptType="application/ecmascript" contentStyleType="text/css" height="641px" preserveAspectRatio="none" style="width:702px;height:641px;" version="1.1" viewBox="0 0 702 641" width="702px" zoomAndPan="magnify"><defs/><g><rect fill="#FFFFFF" height="29.1328" style="stroke: #383838; stroke-width: 1.0;" width="10" x="265.5" y="113.2969"/><rect fill="#FFFFFF" height="60.2656" style="stroke: #383838; stroke-width: 1.0;" width="10" x="265.5" y="279.9609"/><rect fill="#FFFFFF" height="78.2656" style="stroke: #383838; stroke-width: 1.0;" width="10" x="265.5" y="544.1563"/><rect fill="#FFFFFF" height="29.1328" style="stroke: #383838; stroke-width: 1.0;" width="10" x="476.5" y="340.2266"/><rect fill="#FFFFFF" height="29.1328" style="stroke: #383838; stroke-width: 1.0;" width="10" x="476.5" y="398.4922"/><rect fill="#FFFFFF" height="29.1328" style="stroke: #383838; stroke-width: 1.0;" width="10" x="476.5" y="456.7578"/><rect fill="#FFFFFF" height="29.1328" style="stroke: #383838; stroke-width: 1.0;" width="10" x="476.5" y="515.0234"/><rect fill="#FFFFFF" height="29.1328" style="stroke: #383838; stroke-width: 1.0;" width="10" x="656.5" y="369.3594"/><rect fill="#FFFFFF" height="29.1328" style="stroke: #383838; stroke-width: 1.0;" width="10" x="656.5" y="427.625"/><rect fill="#FFFFFF" height="29.1328" style="stroke: #383838; stroke-width: 1.0;" width="10" x="656.5" y="485.8906"/><rect fill="#FFFFFF" height="130.5313" style="stroke: #000000; stroke-width: 2.0;" width="297.5" x="13" y="157.5625"/><rect fill="#FFFFFF" height="250.1953" style="stroke: #000000; stroke-width: 2.0;" width="471" x="230.5" y="302.0938"/><line style="stroke: #383838; stroke-width: 1.0; stroke-dasharray: 5.0,5.0;" x1="49" x2="49" y1="82.2969" y2="640.5547"/><line style="stroke: #383838; stroke-width: 1.0; stroke-dasharray: 5.0,5.0;" x1="270.5" x2="270.5" y1="82.2969" y2="640.5547"/><line style="stroke: #383838; stroke-width: 1.0; stroke-dasharray: 5.0,5.0;" x1="481" x2="481" y1="82.2969" y2="640.5547"/><line style="stroke: #383838; stroke-width: 1.0; stroke-dasharray: 5.0,5.0;" x1="661.5" x2="661.5" y1="82.2969" y2="640.5547"/><text fill="#000000" font-family="sans-serif" font-size="14" lengthAdjust="spacingAndGlyphs" textLength="47" x="23" y="78.9951">Utente</text><ellipse cx="49.5" cy="13" fill="#F8F8F8" rx="8" ry="8" style="stroke: #383838; stroke-width: 2.0;"/><path d="M49.5,21 L49.5,48 M36.5,29 L62.5,29 M49.5,48 L36.5,63 M49.5,48 L62.5,63 " fill="#F8F8F8" style="stroke: #383838; stroke-width: 2.0;"/><rect fill="#F8F8F8" height="30.2969" style="stroke: #383838; stroke-width: 1.5;" width="60" x="240.5" y="51"/><text fill="#000000" font-family="sans-serif" font-size="14" lengthAdjust="spacingAndGlyphs" textLength="46" x="247.5" y="70.9951">WebUI</text><rect fill="#F8F8F8" height="30.2969" style="stroke: #383838; stroke-width: 1.5;" width="99" x="432" y="51"/><text fill="#000000" font-family="sans-serif" font-size="14" lengthAdjust="spacingAndGlyphs" textLength="85" x="439" y="70.9951">WebService</text><rect fill="#F8F8F8" height="30.2969" style="stroke: #383838; stroke-width: 1.5;" width="60" x="631.5" y="51"/><text fill="#000000" font-family="sans-serif" font-size="14" lengthAdjust="spacingAndGlyphs" textLength="46" x="638.5" y="70.9951">Kernel</text><rect fill="#FFFFFF" height="29.1328" style="stroke: #383838; stroke-width: 1.0;" width="10" x="265.5" y="113.2969"/><rect fill="#FFFFFF" height="60.2656" style="stroke: #383838; stroke-width: 1.0;" width="10" x="265.5" y="279.9609"/><rect fill="#FFFFFF" height="78.2656" style="stroke: #383838; stroke-width: 1.0;" width="10" x="265.5" y="544.1563"/><rect fill="#FFFFFF" height="29.1328" style="stroke: #383838; stroke-width: 1.0;" width="10" x="476.5" y="340.2266"/><rect fill="#FFFFFF" height="29.1328" style="stroke: #383838; stroke-width: 1.0;" width="10" x="476.5" y="398.4922"/><rect fill="#FFFFFF" height="29.1328" style="stroke: #383838; stroke-width: 1.0;" width="10" x="476.5" y="456.7578"/><rect fill="#FFFFFF" height="29.1328" style="stroke: #383838; stroke-width: 1.0;" width="10" x="476.5" y="515.0234"/><rect fill="#FFFFFF" height="29.1328" style="stroke: #383838; stroke-width: 1.0;" width="10" x="656.5" y="369.3594"/><rect fill="#FFFFFF" height="29.1328" style="stroke: #383838; stroke-width: 1.0;" width="10" x="656.5" y="427.625"/><rect fill="#FFFFFF" height="29.1328" style="stroke: #383838; stroke-width: 1.0;" width="10" x="656.5" y="485.8906"/><polygon fill="#383838" points="253.5,109.2969,263.5,113.2969,253.5,117.2969,257.5,113.2969" style="stroke: #383838; stroke-width: 1.0;"/><line style="stroke: #383838; stroke-width: 1.0;" x1="49.5" x2="259.5" y1="113.2969" y2="113.2969"/><text fill="#000000" font-family="sans-serif" font-size="13" font-weight="bold" lengthAdjust="spacingAndGlyphs" textLength="9" x="125.5" y="108.3638">1</text><text fill="#000000" font-family="sans-serif" font-size="13" lengthAdjust="spacingAndGlyphs" textLength="51" x="138.5" y="108.3638">addLink</text><polygon fill="#383838" points="60.5,138.4297,50.5,142.4297,60.5,146.4297,56.5,142.4297" style="stroke: #383838; stroke-width: 1.0;"/><line style="stroke: #383838; stroke-width: 1.0; stroke-dasharray: 2.0,2.0;" x1="54.5" x2="269.5" y1="142.4297" y2="142.4297"/><text fill="#000000" font-family="sans-serif" font-size="13" font-weight="bold" lengthAdjust="spacingAndGlyphs" textLength="9" x="64" y="137.4966">2</text><text fill="#000000" font-family="sans-serif" font-size="13" lengthAdjust="spacingAndGlyphs" textLength="179" x="77" y="137.4966">returnDeviceSelectionMode</text><rect fill="none" height="130.5313" style="stroke: #000000; stroke-width: 2.0;" width="297.5" x="13" y="157.5625"/><polygon fill="#EEEEEE" points="13,157.5625,172,157.5625,172,164.5625,162,174.5625,13,174.5625,13,157.5625" style="stroke: #000000; stroke-width: 2.0;"/><text fill="#000000" font-family="sans-serif" font-size="13" font-weight="bold" lengthAdjust="spacingAndGlyphs" textLength="114" x="28" y="170.6294">deviceSelection</text><line style="stroke: #383838; stroke-width: 1.0;" x1="49.5" x2="91.5" y1="195.8281" y2="195.8281"/><line style="stroke: #383838; stroke-width: 1.0;" x1="91.5" x2="91.5" y1="195.8281" y2="208.8281"/><line style="stroke: #383838; stroke-width: 1.0;" x1="50.5" x2="91.5" y1="208.8281" y2="208.8281"/><polygon fill="#383838" points="60.5,204.8281,50.5,208.8281,60.5,212.8281,56.5,208.8281" style="stroke: #383838; stroke-width: 1.0;"/><text fill="#000000" font-family="sans-serif" font-size="13" font-weight="bold" lengthAdjust="spacingAndGlyphs" textLength="9" x="56.5" y="190.7622">3</text><text fill="#000000" font-family="sans-serif" font-size="13" lengthAdjust="spacingAndGlyphs" textLength="161" x="69.5" y="190.7622">selectDevice(d1, device)</text><line style="stroke: #383838; stroke-width: 1.0;" x1="49.5" x2="91.5" y1="237.9609" y2="237.9609"/><line style="stroke: #383838; stroke-width: 1.0;" x1="91.5" x2="91.5" y1="237.9609" y2="250.9609"/><line style="stroke: #383838; stroke-width: 1.0;" x1="50.5" x2="91.5" y1="250.9609" y2="250.9609"/><polygon fill="#383838" points="60.5,246.9609,50.5,250.9609,60.5,254.9609,56.5,250.9609" style="stroke: #383838; stroke-width: 1.0;"/><text fill="#000000" font-family="sans-serif" font-size="13" font-weight="bold" lengthAdjust="spacingAndGlyphs" textLength="9" x="56.5" y="232.895">4</text><text fill="#000000" font-family="sans-serif" font-size="13" lengthAdjust="spacingAndGlyphs" textLength="161" x="69.5" y="232.895">selectDevice(d2, device)</text><polygon fill="#383838" points="253.5,275.9609,263.5,279.9609,253.5,283.9609,257.5,279.9609" style="stroke: #383838; stroke-width: 1.0;"/><line style="stroke: #383838; stroke-width: 1.0;" x1="49.5" x2="259.5" y1="279.9609" y2="279.9609"/><text fill="#000000" font-family="sans-serif" font-size="13" font-weight="bold" lengthAdjust="spacingAndGlyphs" textLength="9" x="101.5" y="275.0278">5</text><text fill="#000000" font-family="sans-serif" font-size="13" lengthAdjust="spacingAndGlyphs" textLength="99" x="114.5" y="275.0278">deviceSelected</text><rect fill="none" height="250.1953" style="stroke: #000000; stroke-width: 2.0;" width="471" x="230.5" y="302.0938"/><polygon fill="#EEEEEE" points="230.5,302.0938,363.5,302.0938,363.5,309.0938,353.5,319.0938,230.5,319.0938,230.5,302.0938" style="stroke: #000000; stroke-width: 2.0;"/><text fill="#000000" font-family="sans-serif" font-size="13" font-weight="bold" lengthAdjust="spacingAndGlyphs" textLength="88" x="245.5" y="315.1606">linkCreation</text><polygon fill="#383838" points="464.5,336.2266,474.5,340.2266,464.5,344.2266,468.5,340.2266" style="stroke: #383838; stroke-width: 1.0;"/><line style="stroke: #383838; stroke-width: 1.0;" x1="270.5" x2="470.5" y1="340.2266" y2="340.2266"/><text fill="#000000" font-family="sans-serif" font-size="13" font-weight="bold" lengthAdjust="spacingAndGlyphs" textLength="9" x="308" y="335.2935">6</text><text fill="#000000" font-family="sans-serif" font-size="13" lengthAdjust="spacingAndGlyphs" textLength="118" x="321" y="335.2935">createLink(d1, d2)</text><polygon fill="#383838" points="644.5,365.3594,654.5,369.3594,644.5,373.3594,648.5,369.3594" style="stroke: #383838; stroke-width: 1.0;"/><line style="stroke: #383838; stroke-width: 1.0;" x1="481.5" x2="650.5" y1="369.3594" y2="369.3594"/><text fill="#000000" font-family="sans-serif" font-size="13" font-weight="bold" lengthAdjust="spacingAndGlyphs" textLength="9" x="514.5" y="364.4263">7</text><text fill="#000000" font-family="sans-serif" font-size="13" lengthAdjust="spacingAndGlyphs" textLength="96" x="527.5" y="364.4263">createVethPair</text><polygon fill="#383838" points="497.5,394.4922,487.5,398.4922,497.5,402.4922,493.5,398.4922" style="stroke: #383838; stroke-width: 1.0;"/><line style="stroke: #383838; stroke-width: 1.0; stroke-dasharray: 2.0,2.0;" x1="491.5" x2="660.5" y1="398.4922" y2="398.4922"/><text fill="#000000" font-family="sans-serif" font-size="13" font-weight="bold" lengthAdjust="spacingAndGlyphs" textLength="9" x="531.5" y="393.5591">8</text><text fill="#000000" font-family="sans-serif" font-size="13" lengthAdjust="spacingAndGlyphs" textLength="72" x="544.5" y="393.5591">return veth</text><polygon fill="#383838" points="644.5,423.625,654.5,427.625,644.5,431.625,648.5,427.625" style="stroke: #383838; stroke-width: 1.0;"/><line style="stroke: #383838; stroke-width: 1.0;" x1="481.5" x2="650.5" y1="427.625" y2="427.625"/><text fill="#000000" font-family="sans-serif" font-size="13" font-weight="bold" lengthAdjust="spacingAndGlyphs" textLength="9" x="498" y="422.6919">9</text><text fill="#000000" font-family="sans-serif" font-size="13" lengthAdjust="spacingAndGlyphs" textLength="129" x="511" y="422.6919">movePeer(veth, d1)</text><polygon fill="#383838" points="497.5,452.7578,487.5,456.7578,497.5,460.7578,493.5,456.7578" style="stroke: #383838; stroke-width: 1.0;"/><line style="stroke: #383838; stroke-width: 1.0; stroke-dasharray: 2.0,2.0;" x1="491.5" x2="660.5" y1="456.7578" y2="456.7578"/><text fill="#000000" font-family="sans-serif" font-size="13" font-weight="bold" lengthAdjust="spacingAndGlyphs" textLength="18" x="528.5" y="451.8247">10</text><text fill="#000000" font-family="sans-serif" font-size="13" lengthAdjust="spacingAndGlyphs" textLength="69" x="550.5" y="451.8247">return true</text><polygon fill="#383838" points="644.5,481.8906,654.5,485.8906,644.5,489.8906,648.5,485.8906" style="stroke: #383838; stroke-width: 1.0;"/><line style="stroke: #383838; stroke-width: 1.0;" x1="481.5" x2="650.5" y1="485.8906" y2="485.8906"/><text fill="#000000" font-family="sans-serif" font-size="13" font-weight="bold" lengthAdjust="spacingAndGlyphs" textLength="18" x="493.5" y="480.9575">11</text><text fill="#000000" font-family="sans-serif" font-size="13" lengthAdjust="spacingAndGlyphs" textLength="129" x="515.5" y="480.9575">movePeer(veth, d2)</text><polygon fill="#383838" points="497.5,511.0234,487.5,515.0234,497.5,519.0234,493.5,515.0234" style="stroke: #383838; stroke-width: 1.0;"/><line style="stroke: #383838; stroke-width: 1.0; stroke-dasharray: 2.0,2.0;" x1="491.5" x2="660.5" y1="515.0234" y2="515.0234"/><text fill="#000000" font-family="sans-serif" font-size="13" font-weight="bold" lengthAdjust="spacingAndGlyphs" textLength="18" x="528.5" y="510.0903">12</text><text fill="#000000" font-family="sans-serif" font-size="13" lengthAdjust="spacingAndGlyphs" textLength="69" x="550.5" y="510.0903">return true</text><polygon fill="#383838" points="286.5,540.1563,276.5,544.1563,286.5,548.1563,282.5,544.1563" style="stroke: #383838; stroke-width: 1.0;"/><line style="stroke: #383838; stroke-width: 1.0; stroke-dasharray: 2.0,2.0;" x1="280.5" x2="480.5" y1="544.1563" y2="544.1563"/><text fill="#000000" font-family="sans-serif" font-size="13" font-weight="bold" lengthAdjust="spacingAndGlyphs" textLength="18" x="308.5" y="539.2231">13</text><text fill="#000000" font-family="sans-serif" font-size="13" lengthAdjust="spacingAndGlyphs" textLength="118" x="330.5" y="539.2231">return linkCreated</text><line style="stroke: #383838; stroke-width: 1.0;" x1="275.5" x2="317.5" y1="580.4219" y2="580.4219"/><line style="stroke: #383838; stroke-width: 1.0;" x1="317.5" x2="317.5" y1="580.4219" y2="593.4219"/><line style="stroke: #383838; stroke-width: 1.0;" x1="276.5" x2="317.5" y1="593.4219" y2="593.4219"/><polygon fill="#383838" points="286.5,589.4219,276.5,593.4219,286.5,597.4219,282.5,593.4219" style="stroke: #383838; stroke-width: 1.0;"/><text fill="#000000" font-family="sans-serif" font-size="13" font-weight="bold" lengthAdjust="spacingAndGlyphs" textLength="18" x="282.5" y="575.356">14</text><text fill="#000000" font-family="sans-serif" font-size="13" lengthAdjust="spacingAndGlyphs" textLength="165" x="304.5" y="575.356">exitDeviceSelectionMode</text><polygon fill="#383838" points="60.5,618.4219,50.5,622.4219,60.5,626.4219,56.5,622.4219" style="stroke: #383838; stroke-width: 1.0;"/><line style="stroke: #383838; stroke-width: 1.0;" x1="54.5" x2="269.5" y1="622.4219" y2="622.4219"/><text fill="#000000" font-family="sans-serif" font-size="13" font-weight="bold" lengthAdjust="spacingAndGlyphs" textLength="18" x="93" y="617.4888">15</text><text fill="#000000" font-family="sans-serif" font-size="13" lengthAdjust="spacingAndGlyphs" textLength="112" x="115" y="617.4888">showLinkCreated</text></g></svg>