<?xml version="1.0" encoding="UTF-8" standalone="no"?><svg xmlns="http://www.w3.org/2000/svg" xmlns:xlink="http://www.w3.org/1999/xlink" contentScriptType="application/ecmascript" contentStyleType="text/css" height="660px" preserveAspectRatio="none" style="width:789px;height:660px;" version="1.1" viewBox="0 0 789 660" width="789px" zoomAndPan="magnify"><defs/><g><rect fill="#FFFFFF" height="29.1328" style="stroke: #383838; stroke-width: 1.0;" width="10" x="301.5" y="113.2969"/><rect fill="#FFFFFF" height="71.2656" style="stroke: #383838; stroke-width: 1.0;" width="10" x="301.5" y="569.9609"/><rect fill="#FFFFFF" height="29.1328" style="stroke: #383838; stroke-width: 1.0;" width="10" x="712.5" y="417.625"/><rect fill="#FFFFFF" height="29.1328" style="stroke: #383838; stroke-width: 1.0;" width="10" x="712.5" y="490.6953"/><rect fill="#FFFFFF" height="88.3984" style="stroke: #000000; stroke-width: 2.0;" width="333.5" x="13" y="157.5625"/><rect fill="#FFFFFF" height="252.8672" style="stroke: #000000; stroke-width: 2.0;" width="320.5" x="468" y="289.0938"/><rect fill="#FFFFFF" height="221.7344" style="stroke: #000000; stroke-width: 2.0;" width="300.5" x="478" y="313.2266"/><rect fill="#FFFFFF" height="190.6016" style="stroke: #000000; stroke-width: 2.0;" width="280.5" x="488" y="337.3594"/><rect fill="#FFFFFF" height="73.0703" style="stroke: none; stroke-width: 1.0;" width="280.5" x="488" y="454.8906"/><line style="stroke: #383838; stroke-width: 1.0; stroke-dasharray: 5.0,5.0;" x1="49" x2="49" y1="82.2969" y2="659.3594"/><line style="stroke: #383838; stroke-width: 1.0; stroke-dasharray: 5.0,5.0;" x1="306.5" x2="306.5" y1="82.2969" y2="659.3594"/><line style="stroke: #383838; stroke-width: 1.0; stroke-dasharray: 5.0,5.0;" x1="547" x2="547" y1="82.2969" y2="659.3594"/><line style="stroke: #383838; stroke-width: 1.0; stroke-dasharray: 5.0,5.0;" x1="717.5" x2="717.5" y1="82.2969" y2="659.3594"/><text fill="#000000" font-family="sans-serif" font-size="14" lengthAdjust="spacingAndGlyphs" textLength="47" x="23" y="78.9951">Utente</text><ellipse cx="49.5" cy="13" fill="#F8F8F8" rx="8" ry="8" style="stroke: #383838; stroke-width: 2.0;"/><path d="M49.5,21 L49.5,48 M36.5,29 L62.5,29 M49.5,48 L36.5,63 M49.5,48 L62.5,63 " fill="#F8F8F8" style="stroke: #383838; stroke-width: 2.0;"/><rect fill="#F8F8F8" height="30.2969" style="stroke: #383838; stroke-width: 1.5;" width="60" x="276.5" y="51"/><text fill="#000000" font-family="sans-serif" font-size="14" lengthAdjust="spacingAndGlyphs" textLength="46" x="283.5" y="70.9951">WebUI</text><rect fill="#F8F8F8" height="30.2969" style="stroke: #383838; stroke-width: 1.5;" width="99" x="498" y="51"/><text fill="#000000" font-family="sans-serif" font-size="14" lengthAdjust="spacingAndGlyphs" textLength="85" x="505" y="70.9951">WebService</text><rect fill="#F8F8F8" height="30.2969" style="stroke: #383838; stroke-width: 1.5;" width="82" x="676.5" y="51"/><text fill="#000000" font-family="sans-serif" font-size="14" lengthAdjust="spacingAndGlyphs" textLength="68" x="683.5" y="70.9951">Database</text><rect fill="#FFFFFF" height="29.1328" style="stroke: #383838; stroke-width: 1.0;" width="10" x="301.5" y="113.2969"/><rect fill="#FFFFFF" height="71.2656" style="stroke: #383838; stroke-width: 1.0;" width="10" x="301.5" y="569.9609"/><rect fill="#FFFFFF" height="29.1328" style="stroke: #383838; stroke-width: 1.0;" width="10" x="712.5" y="417.625"/><rect fill="#FFFFFF" height="29.1328" style="stroke: #383838; stroke-width: 1.0;" width="10" x="712.5" y="490.6953"/><polygon fill="#383838" points="289.5,109.2969,299.5,113.2969,289.5,117.2969,293.5,113.2969" style="stroke: #383838; stroke-width: 1.0;"/><line style="stroke: #383838; stroke-width: 1.0;" x1="49.5" x2="295.5" y1="113.2969" y2="113.2969"/><text fill="#000000" font-family="sans-serif" font-size="13" font-weight="bold" lengthAdjust="spacingAndGlyphs" textLength="9" x="99.5" y="108.3638">1</text><text fill="#000000" font-family="sans-serif" font-size="13" lengthAdjust="spacingAndGlyphs" textLength="139" x="112.5" y="108.3638">enterSelectionMode()</text><polygon fill="#383838" points="60.5,138.4297,50.5,142.4297,60.5,146.4297,56.5,142.4297" style="stroke: #383838; stroke-width: 1.0;"/><line style="stroke: #383838; stroke-width: 1.0; stroke-dasharray: 2.0,2.0;" x1="54.5" x2="305.5" y1="142.4297" y2="142.4297"/><text fill="#000000" font-family="sans-serif" font-size="13" font-weight="bold" lengthAdjust="spacingAndGlyphs" textLength="9" x="74" y="137.4966">2</text><text fill="#000000" font-family="sans-serif" font-size="13" lengthAdjust="spacingAndGlyphs" textLength="195" x="87" y="137.4966">show(selectionModeMessage)</text><rect fill="none" height="88.3984" style="stroke: #000000; stroke-width: 2.0;" width="333.5" x="13" y="157.5625"/><polygon fill="#EEEEEE" points="13,157.5625,89,157.5625,89,164.5625,79,174.5625,13,174.5625,13,157.5625" style="stroke: #000000; stroke-width: 2.0;"/><text fill="#000000" font-family="sans-serif" font-size="13" font-weight="bold" lengthAdjust="spacingAndGlyphs" textLength="31" x="28" y="170.6294">loop</text><text fill="#000000" font-family="sans-serif" font-size="11" font-weight="bold" lengthAdjust="spacingAndGlyphs" textLength="145" x="104" y="169.7729">[until elementSelected]</text><line style="stroke: #383838; stroke-width: 1.0;" x1="49.5" x2="91.5" y1="195.8281" y2="195.8281"/><line style="stroke: #383838; stroke-width: 1.0;" x1="91.5" x2="91.5" y1="195.8281" y2="208.8281"/><line style="stroke: #383838; stroke-width: 1.0;" x1="50.5" x2="91.5" y1="208.8281" y2="208.8281"/><polygon fill="#383838" points="60.5,204.8281,50.5,208.8281,60.5,212.8281,56.5,208.8281" style="stroke: #383838; stroke-width: 1.0;"/><text fill="#000000" font-family="sans-serif" font-size="13" font-weight="bold" lengthAdjust="spacingAndGlyphs" textLength="9" x="56.5" y="190.7622">3</text><text fill="#000000" font-family="sans-serif" font-size="13" lengthAdjust="spacingAndGlyphs" textLength="188" x="69.5" y="190.7622">selectElement(en, elements)</text><polygon fill="#383838" points="294.5,233.8281,304.5,237.8281,294.5,241.8281,298.5,237.8281" style="stroke: #383838; stroke-width: 1.0;"/><line style="stroke: #383838; stroke-width: 1.0;" x1="49.5" x2="300.5" y1="237.8281" y2="237.8281"/><text fill="#000000" font-family="sans-serif" font-size="13" font-weight="bold" lengthAdjust="spacingAndGlyphs" textLength="9" x="116.5" y="232.895">4</text><text fill="#000000" font-family="sans-serif" font-size="13" lengthAdjust="spacingAndGlyphs" textLength="110" x="129.5" y="232.895">elementSelected</text><polygon fill="#383838" points="535.5,269.9609,545.5,273.9609,535.5,277.9609,539.5,273.9609" style="stroke: #383838; stroke-width: 1.0;"/><line style="stroke: #383838; stroke-width: 1.0;" x1="306.5" x2="541.5" y1="273.9609" y2="273.9609"/><text fill="#000000" font-family="sans-serif" font-size="13" font-weight="bold" lengthAdjust="spacingAndGlyphs" textLength="9" x="334" y="269.0278">5</text><text fill="#000000" font-family="sans-serif" font-size="13" lengthAdjust="spacingAndGlyphs" textLength="173" x="347" y="269.0278">deleteElements(elements)</text><rect fill="none" height="252.8672" style="stroke: #000000; stroke-width: 2.0;" width="320.5" x="468" y="289.0938"/><polygon fill="#EEEEEE" points="468,289.0938,707,289.0938,707,296.0938,697,306.0938,468,306.0938,468,289.0938" style="stroke: #000000; stroke-width: 2.0;"/><text fill="#000000" font-family="sans-serif" font-size="13" font-weight="bold" lengthAdjust="spacingAndGlyphs" textLength="194" x="483" y="302.1606">deleteElements(elements)</text><rect fill="none" height="221.7344" style="stroke: #000000; stroke-width: 2.0;" width="300.5" x="478" y="313.2266"/><polygon fill="#EEEEEE" points="478,313.2266,554,313.2266,554,320.2266,544,330.2266,478,330.2266,478,313.2266" style="stroke: #000000; stroke-width: 2.0;"/><text fill="#000000" font-family="sans-serif" font-size="13" font-weight="bold" lengthAdjust="spacingAndGlyphs" textLength="31" x="493" y="326.2935">loop</text><text fill="#000000" font-family="sans-serif" font-size="11" font-weight="bold" lengthAdjust="spacingAndGlyphs" textLength="66" x="569" y="325.437">[elements]</text><rect fill="none" height="190.6016" style="stroke: #000000; stroke-width: 2.0;" width="280.5" x="488" y="337.3594"/><polygon fill="#EEEEEE" points="488,337.3594,552,337.3594,552,344.3594,542,354.3594,488,354.3594,488,337.3594" style="stroke: #000000; stroke-width: 2.0;"/><text fill="#000000" font-family="sans-serif" font-size="13" font-weight="bold" lengthAdjust="spacingAndGlyphs" textLength="19" x="503" y="350.4263">alt</text><text fill="#000000" font-family="sans-serif" font-size="11" font-weight="bold" lengthAdjust="spacingAndGlyphs" textLength="84" x="567" y="349.5698">[en is device]</text><line style="stroke: #383838; stroke-width: 1.0;" x1="547.5" x2="589.5" y1="375.625" y2="375.625"/><line style="stroke: #383838; stroke-width: 1.0;" x1="589.5" x2="589.5" y1="375.625" y2="388.625"/><line style="stroke: #383838; stroke-width: 1.0;" x1="548.5" x2="589.5" y1="388.625" y2="388.625"/><polygon fill="#383838" points="558.5,384.625,548.5,388.625,558.5,392.625,554.5,388.625" style="stroke: #383838; stroke-width: 1.0;"/><text fill="#000000" font-family="sans-serif" font-size="13" font-weight="bold" lengthAdjust="spacingAndGlyphs" textLength="9" x="554.5" y="370.5591">6</text><text fill="#000000" font-family="sans-serif" font-size="13" lengthAdjust="spacingAndGlyphs" textLength="143" x="567.5" y="370.5591">deleteElements(links)</text><polygon fill="#383838" points="700.5,413.625,710.5,417.625,700.5,421.625,704.5,417.625" style="stroke: #383838; stroke-width: 1.0;"/><line style="stroke: #383838; stroke-width: 1.0;" x1="547.5" x2="706.5" y1="417.625" y2="417.625"/><text fill="#000000" font-family="sans-serif" font-size="13" font-weight="bold" lengthAdjust="spacingAndGlyphs" textLength="9" x="575.5" y="412.6919">7</text><text fill="#000000" font-family="sans-serif" font-size="13" lengthAdjust="spacingAndGlyphs" textLength="96" x="588.5" y="412.6919">deleteDevice()</text><polygon fill="#383838" points="558.5,442.7578,548.5,446.7578,558.5,450.7578,554.5,446.7578" style="stroke: #383838; stroke-width: 1.0;"/><line style="stroke: #383838; stroke-width: 1.0; stroke-dasharray: 2.0,2.0;" x1="552.5" x2="716.5" y1="446.7578" y2="446.7578"/><text fill="#000000" font-family="sans-serif" font-size="13" font-weight="bold" lengthAdjust="spacingAndGlyphs" textLength="9" x="577" y="441.8247">8</text><text fill="#000000" font-family="sans-serif" font-size="13" lengthAdjust="spacingAndGlyphs" textLength="98" x="590" y="441.8247">return(deleted)</text><line style="stroke: #000000; stroke-width: 1.0; stroke-dasharray: 2.0,2.0;" x1="488" x2="768.5" y1="455.8906" y2="455.8906"/><text fill="#000000" font-family="sans-serif" font-size="11" font-weight="bold" lengthAdjust="spacingAndGlyphs" textLength="67" x="493" y="466.1011">[en is link]</text><polygon fill="#383838" points="700.5,486.6953,710.5,490.6953,700.5,494.6953,704.5,490.6953" style="stroke: #383838; stroke-width: 1.0;"/><line style="stroke: #383838; stroke-width: 1.0;" x1="547.5" x2="706.5" y1="490.6953" y2="490.6953"/><text fill="#000000" font-family="sans-serif" font-size="13" font-weight="bold" lengthAdjust="spacingAndGlyphs" textLength="9" x="586" y="485.7622">9</text><text fill="#000000" font-family="sans-serif" font-size="13" lengthAdjust="spacingAndGlyphs" textLength="75" x="599" y="485.7622">delete(link)</text><polygon fill="#383838" points="558.5,515.8281,548.5,519.8281,558.5,523.8281,554.5,519.8281" style="stroke: #383838; stroke-width: 1.0;"/><line style="stroke: #383838; stroke-width: 1.0; stroke-dasharray: 2.0,2.0;" x1="552.5" x2="716.5" y1="519.8281" y2="519.8281"/><text fill="#000000" font-family="sans-serif" font-size="13" font-weight="bold" lengthAdjust="spacingAndGlyphs" textLength="18" x="572.5" y="514.895">10</text><text fill="#000000" font-family="sans-serif" font-size="13" lengthAdjust="spacingAndGlyphs" textLength="98" x="594.5" y="514.895">return(deleted)</text><polygon fill="#383838" points="322.5,565.9609,312.5,569.9609,322.5,573.9609,318.5,569.9609" style="stroke: #383838; stroke-width: 1.0;"/><line style="stroke: #383838; stroke-width: 1.0; stroke-dasharray: 2.0,2.0;" x1="316.5" x2="546.5" y1="569.9609" y2="569.9609"/><text fill="#000000" font-family="sans-serif" font-size="13" font-weight="bold" lengthAdjust="spacingAndGlyphs" textLength="18" x="342.5" y="565.0278">11</text><text fill="#000000" font-family="sans-serif" font-size="13" lengthAdjust="spacingAndGlyphs" textLength="152" x="364.5" y="565.0278">return(deletedElement)</text><line style="stroke: #383838; stroke-width: 1.0;" x1="311.5" x2="353.5" y1="599.2266" y2="599.2266"/><line style="stroke: #383838; stroke-width: 1.0;" x1="353.5" x2="353.5" y1="599.2266" y2="612.2266"/><line style="stroke: #383838; stroke-width: 1.0;" x1="312.5" x2="353.5" y1="612.2266" y2="612.2266"/><polygon fill="#383838" points="322.5,608.2266,312.5,612.2266,322.5,616.2266,318.5,612.2266" style="stroke: #383838; stroke-width: 1.0;"/><text fill="#000000" font-family="sans-serif" font-size="13" font-weight="bold" lengthAdjust="spacingAndGlyphs" textLength="18" x="318.5" y="594.1606">12</text><text fill="#000000" font-family="sans-serif" font-size="13" lengthAdjust="spacingAndGlyphs" textLength="195" x="340.5" y="594.1606">removeElementFromCanvas()</text><polygon fill="#383838" points="60.5,637.2266,50.5,641.2266,60.5,645.2266,56.5,641.2266" style="stroke: #383838; stroke-width: 1.0;"/><line style="stroke: #383838; stroke-width: 1.0;" x1="54.5" x2="305.5" y1="641.2266" y2="641.2266"/><text fill="#000000" font-family="sans-serif" font-size="13" font-weight="bold" lengthAdjust="spacingAndGlyphs" textLength="18" x="64" y="636.2935">13</text><text fill="#000000" font-family="sans-serif" font-size="13" lengthAdjust="spacingAndGlyphs" textLength="206" x="86" y="636.2935">show(elementDeletedMessage)</text></g></svg>