<?xml version="1.0" encoding="UTF-8" standalone="no"?><svg xmlns="http://www.w3.org/2000/svg" xmlns:xlink="http://www.w3.org/1999/xlink" contentScriptType="application/ecmascript" contentStyleType="text/css" height="320px" preserveAspectRatio="none" style="width:618px;height:320px;" version="1.1" viewBox="0 0 618 320" width="618px" zoomAndPan="magnify"><defs/><g><rect fill="#FFFFFF" height="29.1328" style="stroke: #383838; stroke-width: 1.0;" width="10" x="239.5" y="113.2969"/><rect fill="#FFFFFF" height="71.2656" style="stroke: #383838; stroke-width: 1.0;" width="10" x="239.5" y="229.8281"/><rect fill="#FFFFFF" height="29.1328" style="stroke: #383838; stroke-width: 1.0;" width="10" x="410.5" y="142.4297"/><rect fill="#FFFFFF" height="29.1328" style="stroke: #383838; stroke-width: 1.0;" width="10" x="410.5" y="200.6953"/><rect fill="#FFFFFF" height="29.1328" style="stroke: #383838; stroke-width: 1.0;" width="10" x="571.5" y="171.5625"/><line style="stroke: #383838; stroke-width: 1.0; stroke-dasharray: 5.0,5.0;" x1="34" x2="34" y1="82.2969" y2="319.2266"/><line style="stroke: #383838; stroke-width: 1.0; stroke-dasharray: 5.0,5.0;" x1="244.5" x2="244.5" y1="82.2969" y2="319.2266"/><line style="stroke: #383838; stroke-width: 1.0; stroke-dasharray: 5.0,5.0;" x1="415" x2="415" y1="82.2969" y2="319.2266"/><line style="stroke: #383838; stroke-width: 1.0; stroke-dasharray: 5.0,5.0;" x1="576.5" x2="576.5" y1="82.2969" y2="319.2266"/><text fill="#000000" font-family="sans-serif" font-size="14" lengthAdjust="spacingAndGlyphs" textLength="47" x="8" y="78.9951">Utente</text><ellipse cx="34.5" cy="13" fill="#F8F8F8" rx="8" ry="8" style="stroke: #383838; stroke-width: 2.0;"/><path d="M34.5,21 L34.5,48 M21.5,29 L47.5,29 M34.5,48 L21.5,63 M34.5,48 L47.5,63 " fill="#F8F8F8" style="stroke: #383838; stroke-width: 2.0;"/><rect fill="#F8F8F8" height="30.2969" style="stroke: #383838; stroke-width: 1.5;" width="60" x="214.5" y="51"/><text fill="#000000" font-family="sans-serif" font-size="14" lengthAdjust="spacingAndGlyphs" textLength="46" x="221.5" y="70.9951">WebUI</text><rect fill="#F8F8F8" height="30.2969" style="stroke: #383838; stroke-width: 1.5;" width="99" x="366" y="51"/><text fill="#000000" font-family="sans-serif" font-size="14" lengthAdjust="spacingAndGlyphs" textLength="85" x="373" y="70.9951">WebService</text><rect fill="#F8F8F8" height="30.2969" style="stroke: #383838; stroke-width: 1.5;" width="82" x="535.5" y="51"/><text fill="#000000" font-family="sans-serif" font-size="14" lengthAdjust="spacingAndGlyphs" textLength="68" x="542.5" y="70.9951">Database</text><rect fill="#FFFFFF" height="29.1328" style="stroke: #383838; stroke-width: 1.0;" width="10" x="239.5" y="113.2969"/><rect fill="#FFFFFF" height="71.2656" style="stroke: #383838; stroke-width: 1.0;" width="10" x="239.5" y="229.8281"/><rect fill="#FFFFFF" height="29.1328" style="stroke: #383838; stroke-width: 1.0;" width="10" x="410.5" y="142.4297"/><rect fill="#FFFFFF" height="29.1328" style="stroke: #383838; stroke-width: 1.0;" width="10" x="410.5" y="200.6953"/><rect fill="#FFFFFF" height="29.1328" style="stroke: #383838; stroke-width: 1.0;" width="10" x="571.5" y="171.5625"/><polygon fill="#383838" points="227.5,109.2969,237.5,113.2969,227.5,117.2969,231.5,113.2969" style="stroke: #383838; stroke-width: 1.0;"/><line style="stroke: #383838; stroke-width: 1.0;" x1="34.5" x2="233.5" y1="113.2969" y2="113.2969"/><text fill="#000000" font-family="sans-serif" font-size="13" font-weight="bold" lengthAdjust="spacingAndGlyphs" textLength="9" x="41.5" y="108.3638">1</text><text fill="#000000" font-family="sans-serif" font-size="13" lengthAdjust="spacingAndGlyphs" textLength="72" x="54.5" y="108.3638">get(logout)</text><polygon fill="#383838" points="398.5,138.4297,408.5,142.4297,398.5,146.4297,402.5,142.4297" style="stroke: #383838; stroke-width: 1.0;"/><line style="stroke: #383838; stroke-width: 1.0;" x1="244.5" x2="404.5" y1="142.4297" y2="142.4297"/><text fill="#000000" font-family="sans-serif" font-size="13" font-weight="bold" lengthAdjust="spacingAndGlyphs" textLength="9" x="251.5" y="137.4966">2</text><text fill="#000000" font-family="sans-serif" font-size="13" lengthAdjust="spacingAndGlyphs" textLength="129" x="264.5" y="137.4966">deleteSession(user)</text><polygon fill="#383838" points="559.5,167.5625,569.5,171.5625,559.5,175.5625,563.5,171.5625" style="stroke: #383838; stroke-width: 1.0;"/><line style="stroke: #383838; stroke-width: 1.0;" x1="415.5" x2="565.5" y1="171.5625" y2="171.5625"/><text fill="#000000" font-family="sans-serif" font-size="13" font-weight="bold" lengthAdjust="spacingAndGlyphs" textLength="9" x="422.5" y="166.6294">3</text><text fill="#000000" font-family="sans-serif" font-size="13" lengthAdjust="spacingAndGlyphs" textLength="119" x="435.5" y="166.6294">deleteToken(user)</text><polygon fill="#383838" points="431.5,196.6953,421.5,200.6953,431.5,204.6953,427.5,200.6953" style="stroke: #383838; stroke-width: 1.0;"/><line style="stroke: #383838; stroke-width: 1.0; stroke-dasharray: 2.0,2.0;" x1="425.5" x2="575.5" y1="200.6953" y2="200.6953"/><text fill="#000000" font-family="sans-serif" font-size="13" font-weight="bold" lengthAdjust="spacingAndGlyphs" textLength="9" x="437.5" y="195.7622">4</text><text fill="#000000" font-family="sans-serif" font-size="13" lengthAdjust="spacingAndGlyphs" textLength="65" x="450.5" y="195.7622">return(ok)</text><polygon fill="#383838" points="260.5,225.8281,250.5,229.8281,260.5,233.8281,256.5,229.8281" style="stroke: #383838; stroke-width: 1.0;"/><line style="stroke: #383838; stroke-width: 1.0; stroke-dasharray: 2.0,2.0;" x1="254.5" x2="414.5" y1="229.8281" y2="229.8281"/><text fill="#000000" font-family="sans-serif" font-size="13" font-weight="bold" lengthAdjust="spacingAndGlyphs" textLength="9" x="266.5" y="224.895">5</text><text fill="#000000" font-family="sans-serif" font-size="13" lengthAdjust="spacingAndGlyphs" textLength="102" x="279.5" y="224.895">sessionDelete()</text><line style="stroke: #383838; stroke-width: 1.0;" x1="249.5" x2="291.5" y1="259.0938" y2="259.0938"/><line style="stroke: #383838; stroke-width: 1.0;" x1="291.5" x2="291.5" y1="259.0938" y2="272.0938"/><line style="stroke: #383838; stroke-width: 1.0;" x1="250.5" x2="291.5" y1="272.0938" y2="272.0938"/><polygon fill="#383838" points="260.5,268.0938,250.5,272.0938,260.5,276.0938,256.5,272.0938" style="stroke: #383838; stroke-width: 1.0;"/><text fill="#000000" font-family="sans-serif" font-size="13" font-weight="bold" lengthAdjust="spacingAndGlyphs" textLength="9" x="256.5" y="254.0278">6</text><text fill="#000000" font-family="sans-serif" font-size="13" lengthAdjust="spacingAndGlyphs" textLength="91" x="269.5" y="254.0278">deleteToken()</text><polygon fill="#383838" points="45.5,297.0938,35.5,301.0938,45.5,305.0938,41.5,301.0938" style="stroke: #383838; stroke-width: 1.0;"/><line style="stroke: #383838; stroke-width: 1.0; stroke-dasharray: 2.0,2.0;" x1="39.5" x2="243.5" y1="301.0938" y2="301.0938"/><text fill="#000000" font-family="sans-serif" font-size="13" font-weight="bold" lengthAdjust="spacingAndGlyphs" textLength="9" x="51.5" y="296.1606">7</text><text fill="#000000" font-family="sans-serif" font-size="13" lengthAdjust="spacingAndGlyphs" textLength="168" x="64.5" y="296.1606">show(loggedOutMessage)</text></g></svg>