<?xml version="1.0" encoding="UTF-8" standalone="no"?><svg xmlns="http://www.w3.org/2000/svg" xmlns:xlink="http://www.w3.org/1999/xlink" contentScriptType="application/ecmascript" contentStyleType="text/css" height="910px" preserveAspectRatio="none" style="width:1025px;height:910px;" version="1.1" viewBox="0 0 1025 910" width="1025px" zoomAndPan="magnify"><defs/><g><rect fill="#FFFFFF" height="29.1328" style="stroke: #383838; stroke-width: 1.0;" width="10" x="266.5" y="113.2969"/><rect fill="#FFFFFF" height="44.2656" style="stroke: #383838; stroke-width: 1.0;" width="10" x="266.5" y="237.8281"/><rect fill="#FFFFFF" height="43.9375" style="stroke: #383838; stroke-width: 1.0;" width="10" x="481.5" y="654.6875"/><rect fill="#FFFFFF" height="97.5313" style="stroke: #383838; stroke-width: 1.0;" width="10" x="680.5" y="446.7578"/><rect fill="#FFFFFF" height="71.2656" style="stroke: #383838; stroke-width: 1.0;" width="10" x="857.5" y="698.625"/><rect fill="#FFFFFF" height="117.5313" style="stroke: #000000; stroke-width: 2.0;" width="533" x="13" y="157.5625"/><rect fill="#FFFFFF" height="532.0625" style="stroke: #000000; stroke-width: 2.0;" width="803" x="221.5" y="289.0938"/><rect fill="#FFFFFF" height="500.9297" style="stroke: #000000; stroke-width: 2.0;" width="783" x="231.5" y="313.2266"/><rect fill="#FFFFFF" height="440.6641" style="stroke: #000000; stroke-width: 2.0;" width="577.5" x="427" y="337.3594"/><rect fill="#FFFFFF" height="75.3984" style="stroke: #000000; stroke-width: 2.0;" width="293.5" x="609" y="461.8906"/><rect fill="#FFFFFF" height="75.3984" style="stroke: #000000; stroke-width: 2.0;" width="293.5" x="609" y="551.2891"/><rect fill="#FFFFFF" height="115.2031" style="stroke: none; stroke-width: 1.0;" width="577.5" x="427" y="662.8203"/><line style="stroke: #383838; stroke-width: 1.0; stroke-dasharray: 5.0,5.0;" x1="49" x2="49" y1="82.2969" y2="909.4219"/><line style="stroke: #383838; stroke-width: 1.0; stroke-dasharray: 5.0,5.0;" x1="271.5" x2="271.5" y1="82.2969" y2="909.4219"/><line style="stroke: #383838; stroke-width: 1.0; stroke-dasharray: 5.0,5.0;" x1="486" x2="486" y1="82.2969" y2="909.4219"/><line style="stroke: #383838; stroke-width: 1.0; stroke-dasharray: 5.0,5.0;" x1="685" x2="685" y1="82.2969" y2="909.4219"/><line style="stroke: #383838; stroke-width: 1.0; stroke-dasharray: 5.0,5.0;" x1="862.5" x2="862.5" y1="82.2969" y2="909.4219"/><text fill="#000000" font-family="sans-serif" font-size="14" lengthAdjust="spacingAndGlyphs" textLength="47" x="23" y="78.9951">Utente</text><ellipse cx="49.5" cy="13" fill="#F8F8F8" rx="8" ry="8" style="stroke: #383838; stroke-width: 2.0;"/><path d="M49.5,21 L49.5,48 M36.5,29 L62.5,29 M49.5,48 L36.5,63 M49.5,48 L62.5,63 " fill="#F8F8F8" style="stroke: #383838; stroke-width: 2.0;"/><rect fill="#F8F8F8" height="30.2969" style="stroke: #383838; stroke-width: 1.5;" width="60" x="241.5" y="51"/><text fill="#000000" font-family="sans-serif" font-size="14" lengthAdjust="spacingAndGlyphs" textLength="46" x="248.5" y="70.9951">WebUI</text><rect fill="#F8F8F8" height="30.2969" style="stroke: #383838; stroke-width: 1.5;" width="99" x="437" y="51"/><text fill="#000000" font-family="sans-serif" font-size="14" lengthAdjust="spacingAndGlyphs" textLength="85" x="444" y="70.9951">WebService</text><rect fill="#F8F8F8" height="30.2969" style="stroke: #383838; stroke-width: 1.5;" width="133" x="619" y="51"/><text fill="#000000" font-family="sans-serif" font-size="14" lengthAdjust="spacingAndGlyphs" textLength="119" x="626" y="70.9951">ContainerEngine</text><rect fill="#F8F8F8" height="30.2969" style="stroke: #383838; stroke-width: 1.5;" width="60" x="832.5" y="51"/><text fill="#000000" font-family="sans-serif" font-size="14" lengthAdjust="spacingAndGlyphs" textLength="46" x="839.5" y="70.9951">Kernel</text><rect fill="#FFFFFF" height="29.1328" style="stroke: #383838; stroke-width: 1.0;" width="10" x="266.5" y="113.2969"/><rect fill="#FFFFFF" height="44.2656" style="stroke: #383838; stroke-width: 1.0;" width="10" x="266.5" y="237.8281"/><rect fill="#FFFFFF" height="43.9375" style="stroke: #383838; stroke-width: 1.0;" width="10" x="481.5" y="654.6875"/><rect fill="#FFFFFF" height="97.5313" style="stroke: #383838; stroke-width: 1.0;" width="10" x="680.5" y="446.7578"/><rect fill="#FFFFFF" height="71.2656" style="stroke: #383838; stroke-width: 1.0;" width="10" x="857.5" y="698.625"/><polygon fill="#383838" points="254.5,109.2969,264.5,113.2969,254.5,117.2969,258.5,113.2969" style="stroke: #383838; stroke-width: 1.0;"/><line style="stroke: #383838; stroke-width: 1.0;" x1="49.5" x2="260.5" y1="113.2969" y2="113.2969"/><text fill="#000000" font-family="sans-serif" font-size="13" font-weight="bold" lengthAdjust="spacingAndGlyphs" textLength="9" x="87" y="108.3638">1</text><text fill="#000000" font-family="sans-serif" font-size="13" lengthAdjust="spacingAndGlyphs" textLength="129" x="100" y="108.3638">enterSelectionMode</text><polygon fill="#383838" points="60.5,138.4297,50.5,142.4297,60.5,146.4297,56.5,142.4297" style="stroke: #383838; stroke-width: 1.0;"/><line style="stroke: #383838; stroke-width: 1.0; stroke-dasharray: 2.0,2.0;" x1="54.5" x2="270.5" y1="142.4297" y2="142.4297"/><text fill="#000000" font-family="sans-serif" font-size="13" font-weight="bold" lengthAdjust="spacingAndGlyphs" textLength="9" x="87" y="137.4966">2</text><text fill="#000000" font-family="sans-serif" font-size="13" lengthAdjust="spacingAndGlyphs" textLength="134" x="100" y="137.4966">returnSelectionMode</text><rect fill="none" height="117.5313" style="stroke: #000000; stroke-width: 2.0;" width="533" x="13" y="157.5625"/><polygon fill="#EEEEEE" points="13,157.5625,89,157.5625,89,164.5625,79,174.5625,13,174.5625,13,157.5625" style="stroke: #000000; stroke-width: 2.0;"/><text fill="#000000" font-family="sans-serif" font-size="13" font-weight="bold" lengthAdjust="spacingAndGlyphs" textLength="31" x="28" y="170.6294">loop</text><text fill="#000000" font-family="sans-serif" font-size="11" font-weight="bold" lengthAdjust="spacingAndGlyphs" textLength="145" x="104" y="169.7729">[until elementSelected]</text><line style="stroke: #383838; stroke-width: 1.0;" x1="49.5" x2="91.5" y1="195.8281" y2="195.8281"/><line style="stroke: #383838; stroke-width: 1.0;" x1="91.5" x2="91.5" y1="195.8281" y2="208.8281"/><line style="stroke: #383838; stroke-width: 1.0;" x1="50.5" x2="91.5" y1="208.8281" y2="208.8281"/><polygon fill="#383838" points="60.5,204.8281,50.5,208.8281,60.5,212.8281,56.5,208.8281" style="stroke: #383838; stroke-width: 1.0;"/><text fill="#000000" font-family="sans-serif" font-size="13" font-weight="bold" lengthAdjust="spacingAndGlyphs" textLength="9" x="56.5" y="190.7622">3</text><text fill="#000000" font-family="sans-serif" font-size="13" lengthAdjust="spacingAndGlyphs" textLength="195" x="69.5" y="190.7622">selectElement(e_n, elements)</text><polygon fill="#383838" points="254.5,233.8281,264.5,237.8281,254.5,241.8281,258.5,237.8281" style="stroke: #383838; stroke-width: 1.0;"/><line style="stroke: #383838; stroke-width: 1.0;" x1="49.5" x2="260.5" y1="237.8281" y2="237.8281"/><text fill="#000000" font-family="sans-serif" font-size="13" font-weight="bold" lengthAdjust="spacingAndGlyphs" textLength="9" x="96.5" y="232.895">4</text><text fill="#000000" font-family="sans-serif" font-size="13" lengthAdjust="spacingAndGlyphs" textLength="110" x="109.5" y="232.895">elementSelected</text><polygon fill="#383838" points="474.5,262.9609,484.5,266.9609,474.5,270.9609,478.5,266.9609" style="stroke: #383838; stroke-width: 1.0;"/><line style="stroke: #383838; stroke-width: 1.0;" x1="276.5" x2="480.5" y1="266.9609" y2="266.9609"/><text fill="#000000" font-family="sans-serif" font-size="13" font-weight="bold" lengthAdjust="spacingAndGlyphs" textLength="9" x="288.5" y="262.0278">5</text><text fill="#000000" font-family="sans-serif" font-size="13" lengthAdjust="spacingAndGlyphs" textLength="173" x="301.5" y="262.0278">deleteElements(elements)</text><rect fill="none" height="532.0625" style="stroke: #000000; stroke-width: 2.0;" width="803" x="221.5" y="289.0938"/><polygon fill="#EEEEEE" points="221.5,289.0938,460.5,289.0938,460.5,296.0938,450.5,306.0938,221.5,306.0938,221.5,289.0938" style="stroke: #000000; stroke-width: 2.0;"/><text fill="#000000" font-family="sans-serif" font-size="13" font-weight="bold" lengthAdjust="spacingAndGlyphs" textLength="194" x="236.5" y="302.1606">deleteElements(elements)</text><rect fill="none" height="500.9297" style="stroke: #000000; stroke-width: 2.0;" width="783" x="231.5" y="313.2266"/><polygon fill="#EEEEEE" points="231.5,313.2266,307.5,313.2266,307.5,320.2266,297.5,330.2266,231.5,330.2266,231.5,313.2266" style="stroke: #000000; stroke-width: 2.0;"/><text fill="#000000" font-family="sans-serif" font-size="13" font-weight="bold" lengthAdjust="spacingAndGlyphs" textLength="31" x="246.5" y="326.2935">loop</text><text fill="#000000" font-family="sans-serif" font-size="11" font-weight="bold" lengthAdjust="spacingAndGlyphs" textLength="66" x="322.5" y="325.437">[elements]</text><rect fill="none" height="440.6641" style="stroke: #000000; stroke-width: 2.0;" width="577.5" x="427" y="337.3594"/><polygon fill="#EEEEEE" points="427,337.3594,491,337.3594,491,344.3594,481,354.3594,427,354.3594,427,337.3594" style="stroke: #000000; stroke-width: 2.0;"/><text fill="#000000" font-family="sans-serif" font-size="13" font-weight="bold" lengthAdjust="spacingAndGlyphs" textLength="19" x="442" y="350.4263">alt</text><text fill="#000000" font-family="sans-serif" font-size="11" font-weight="bold" lengthAdjust="spacingAndGlyphs" textLength="90" x="506" y="349.5698">[e_n is device]</text><polygon fill="#383838" points="850.5,371.4922,860.5,375.4922,850.5,379.4922,854.5,375.4922" style="stroke: #383838; stroke-width: 1.0;"/><line style="stroke: #383838; stroke-width: 1.0;" x1="486.5" x2="856.5" y1="375.4922" y2="375.4922"/><text fill="#000000" font-family="sans-serif" font-size="13" font-weight="bold" lengthAdjust="spacingAndGlyphs" textLength="9" x="625.5" y="370.5591">6</text><text fill="#000000" font-family="sans-serif" font-size="13" lengthAdjust="spacingAndGlyphs" textLength="85" x="638.5" y="370.5591">retrieveLinks</text><line style="stroke: #383838; stroke-width: 1.0;" x1="486.5" x2="528.5" y1="404.7578" y2="404.7578"/><line style="stroke: #383838; stroke-width: 1.0;" x1="528.5" x2="528.5" y1="404.7578" y2="417.7578"/><line style="stroke: #383838; stroke-width: 1.0;" x1="487.5" x2="528.5" y1="417.7578" y2="417.7578"/><polygon fill="#383838" points="497.5,413.7578,487.5,417.7578,497.5,421.7578,493.5,417.7578" style="stroke: #383838; stroke-width: 1.0;"/><text fill="#000000" font-family="sans-serif" font-size="13" font-weight="bold" lengthAdjust="spacingAndGlyphs" textLength="9" x="493.5" y="399.6919">7</text><text fill="#000000" font-family="sans-serif" font-size="13" lengthAdjust="spacingAndGlyphs" textLength="143" x="506.5" y="399.6919">deleteElements(links)</text><polygon fill="#383838" points="668.5,442.7578,678.5,446.7578,668.5,450.7578,672.5,446.7578" style="stroke: #383838; stroke-width: 1.0;"/><line style="stroke: #383838; stroke-width: 1.0;" x1="486.5" x2="674.5" y1="446.7578" y2="446.7578"/><text fill="#000000" font-family="sans-serif" font-size="13" font-weight="bold" lengthAdjust="spacingAndGlyphs" textLength="9" x="525" y="441.8247">8</text><text fill="#000000" font-family="sans-serif" font-size="13" lengthAdjust="spacingAndGlyphs" textLength="104" x="538" y="441.8247">deleteContainer</text><rect fill="none" height="75.3984" style="stroke: #000000; stroke-width: 2.0;" width="293.5" x="609" y="461.8906"/><polygon fill="#EEEEEE" points="609,461.8906,678,461.8906,678,468.8906,668,478.8906,609,478.8906,609,461.8906" style="stroke: #000000; stroke-width: 2.0;"/><text fill="#000000" font-family="sans-serif" font-size="13" font-weight="bold" lengthAdjust="spacingAndGlyphs" textLength="24" x="624" y="474.9575">par</text><polygon fill="#383838" points="850.5,496.0234,860.5,500.0234,850.5,504.0234,854.5,500.0234" style="stroke: #383838; stroke-width: 1.0;"/><line style="stroke: #383838; stroke-width: 1.0;" x1="690.5" x2="856.5" y1="500.0234" y2="500.0234"/><text fill="#000000" font-family="sans-serif" font-size="13" font-weight="bold" lengthAdjust="spacingAndGlyphs" textLength="9" x="729" y="495.0903">9</text><text fill="#000000" font-family="sans-serif" font-size="13" lengthAdjust="spacingAndGlyphs" textLength="82" x="742" y="495.0903">deleteNetNS</text><polygon fill="#383838" points="850.5,525.1563,860.5,529.1563,850.5,533.1563,854.5,529.1563" style="stroke: #383838; stroke-width: 1.0;"/><line style="stroke: #383838; stroke-width: 1.0;" x1="690.5" x2="856.5" y1="529.1563" y2="529.1563"/><text fill="#000000" font-family="sans-serif" font-size="13" font-weight="bold" lengthAdjust="spacingAndGlyphs" textLength="18" x="737.5" y="524.2231">10</text><text fill="#000000" font-family="sans-serif" font-size="13" lengthAdjust="spacingAndGlyphs" textLength="56" x="759.5" y="524.2231">deleteFS</text><rect fill="none" height="75.3984" style="stroke: #000000; stroke-width: 2.0;" width="293.5" x="609" y="551.2891"/><polygon fill="#EEEEEE" points="609,551.2891,678,551.2891,678,558.2891,668,568.2891,609,568.2891,609,551.2891" style="stroke: #000000; stroke-width: 2.0;"/><text fill="#000000" font-family="sans-serif" font-size="13" font-weight="bold" lengthAdjust="spacingAndGlyphs" textLength="24" x="624" y="564.356">par</text><polygon fill="#383838" points="696.5,585.4219,686.5,589.4219,696.5,593.4219,692.5,589.4219" style="stroke: #383838; stroke-width: 1.0;"/><line style="stroke: #383838; stroke-width: 1.0; stroke-dasharray: 2.0,2.0;" x1="690.5" x2="861.5" y1="589.4219" y2="589.4219"/><text fill="#000000" font-family="sans-serif" font-size="13" font-weight="bold" lengthAdjust="spacingAndGlyphs" textLength="18" x="697.5" y="584.4888">11</text><text fill="#000000" font-family="sans-serif" font-size="13" lengthAdjust="spacingAndGlyphs" textLength="131" x="719.5" y="584.4888">returnDeletedNetNS</text><polygon fill="#383838" points="696.5,614.5547,686.5,618.5547,696.5,622.5547,692.5,618.5547" style="stroke: #383838; stroke-width: 1.0;"/><line style="stroke: #383838; stroke-width: 1.0; stroke-dasharray: 2.0,2.0;" x1="690.5" x2="861.5" y1="618.5547" y2="618.5547"/><text fill="#000000" font-family="sans-serif" font-size="13" font-weight="bold" lengthAdjust="spacingAndGlyphs" textLength="18" x="710.5" y="613.6216">12</text><text fill="#000000" font-family="sans-serif" font-size="13" lengthAdjust="spacingAndGlyphs" textLength="105" x="732.5" y="613.6216">returnDeletedFS</text><polygon fill="#383838" points="502.5,650.6875,492.5,654.6875,502.5,658.6875,498.5,654.6875" style="stroke: #383838; stroke-width: 1.0;"/><line style="stroke: #383838; stroke-width: 1.0; stroke-dasharray: 2.0,2.0;" x1="496.5" x2="684.5" y1="654.6875" y2="654.6875"/><text fill="#000000" font-family="sans-serif" font-size="13" font-weight="bold" lengthAdjust="spacingAndGlyphs" textLength="18" x="501" y="649.7544">13</text><text fill="#000000" font-family="sans-serif" font-size="13" lengthAdjust="spacingAndGlyphs" textLength="153" x="523" y="649.7544">returnDeletedContainer</text><line style="stroke: #000000; stroke-width: 1.0; stroke-dasharray: 2.0,2.0;" x1="427" x2="1004.5" y1="663.8203" y2="663.8203"/><text fill="#000000" font-family="sans-serif" font-size="11" font-weight="bold" lengthAdjust="spacingAndGlyphs" textLength="73" x="432" y="674.0308">[e_n is link]</text><polygon fill="#383838" points="845.5,694.625,855.5,698.625,845.5,702.625,849.5,698.625" style="stroke: #383838; stroke-width: 1.0;"/><line style="stroke: #383838; stroke-width: 1.0;" x1="486.5" x2="851.5" y1="698.625" y2="698.625"/><text fill="#000000" font-family="sans-serif" font-size="13" font-weight="bold" lengthAdjust="spacingAndGlyphs" textLength="18" x="627" y="693.6919">14</text><text fill="#000000" font-family="sans-serif" font-size="13" lengthAdjust="spacingAndGlyphs" textLength="68" x="649" y="693.6919">deleteLink</text><line style="stroke: #383838; stroke-width: 1.0;" x1="867.5" x2="909.5" y1="727.8906" y2="727.8906"/><line style="stroke: #383838; stroke-width: 1.0;" x1="909.5" x2="909.5" y1="727.8906" y2="740.8906"/><line style="stroke: #383838; stroke-width: 1.0;" x1="868.5" x2="909.5" y1="740.8906" y2="740.8906"/><polygon fill="#383838" points="878.5,736.8906,868.5,740.8906,878.5,744.8906,874.5,740.8906" style="stroke: #383838; stroke-width: 1.0;"/><text fill="#000000" font-family="sans-serif" font-size="13" font-weight="bold" lengthAdjust="spacingAndGlyphs" textLength="18" x="874.5" y="722.8247">15</text><text fill="#000000" font-family="sans-serif" font-size="13" lengthAdjust="spacingAndGlyphs" textLength="96" x="896.5" y="722.8247">deleteVethPair</text><polygon fill="#383838" points="497.5,765.8906,487.5,769.8906,497.5,773.8906,493.5,769.8906" style="stroke: #383838; stroke-width: 1.0;"/><line style="stroke: #383838; stroke-width: 1.0; stroke-dasharray: 2.0,2.0;" x1="491.5" x2="861.5" y1="769.8906" y2="769.8906"/><text fill="#000000" font-family="sans-serif" font-size="13" font-weight="bold" lengthAdjust="spacingAndGlyphs" textLength="18" x="605" y="764.9575">16</text><text fill="#000000" font-family="sans-serif" font-size="13" lengthAdjust="spacingAndGlyphs" textLength="117" x="627" y="764.9575">returnDeletedLink</text><polygon fill="#383838" points="282.5,802.0234,272.5,806.0234,282.5,810.0234,278.5,806.0234" style="stroke: #383838; stroke-width: 1.0;"/><line style="stroke: #383838; stroke-width: 1.0; stroke-dasharray: 2.0,2.0;" x1="276.5" x2="485.5" y1="806.0234" y2="806.0234"/><text fill="#000000" font-family="sans-serif" font-size="13" font-weight="bold" lengthAdjust="spacingAndGlyphs" textLength="18" x="295" y="801.0903">17</text><text fill="#000000" font-family="sans-serif" font-size="13" lengthAdjust="spacingAndGlyphs" textLength="146" x="317" y="801.0903">return deletedElement</text><line style="stroke: #383838; stroke-width: 1.0;" x1="271.5" x2="313.5" y1="849.2891" y2="849.2891"/><line style="stroke: #383838; stroke-width: 1.0;" x1="313.5" x2="313.5" y1="849.2891" y2="862.2891"/><line style="stroke: #383838; stroke-width: 1.0;" x1="272.5" x2="313.5" y1="862.2891" y2="862.2891"/><polygon fill="#383838" points="282.5,858.2891,272.5,862.2891,282.5,866.2891,278.5,862.2891" style="stroke: #383838; stroke-width: 1.0;"/><text fill="#000000" font-family="sans-serif" font-size="13" font-weight="bold" lengthAdjust="spacingAndGlyphs" textLength="18" x="278.5" y="844.2231">18</text><text fill="#000000" font-family="sans-serif" font-size="13" lengthAdjust="spacingAndGlyphs" textLength="174" x="300.5" y="844.2231">exitElementSelectionMode</text><polygon fill="#383838" points="60.5,887.2891,50.5,891.2891,60.5,895.2891,56.5,891.2891" style="stroke: #383838; stroke-width: 1.0;"/><line style="stroke: #383838; stroke-width: 1.0;" x1="54.5" x2="270.5" y1="891.2891" y2="891.2891"/><text fill="#000000" font-family="sans-serif" font-size="13" font-weight="bold" lengthAdjust="spacingAndGlyphs" textLength="18" x="80" y="886.356">19</text><text fill="#000000" font-family="sans-serif" font-size="13" lengthAdjust="spacingAndGlyphs" textLength="139" x="102" y="886.356">showElementDeleted</text></g></svg>