<?xml version="1.0" encoding="UTF-8" standalone="no"?><svg xmlns="http://www.w3.org/2000/svg" xmlns:xlink="http://www.w3.org/1999/xlink" contentScriptType="application/ecmascript" contentStyleType="text/css" height="640px" preserveAspectRatio="none" style="width:847px;height:640px;" version="1.1" viewBox="0 0 847 640" width="847px" zoomAndPan="magnify"><defs/><g><rect fill="#FFFFFF" height="517.3906" style="stroke: #383838; stroke-width: 1.0;" width="10" x="287.5" y="113.2969"/><rect fill="#FFFFFF" height="29.1328" style="stroke: #383838; stroke-width: 1.0;" width="10" x="292.5" y="375.4922"/><rect fill="#FFFFFF" height="29.1328" style="stroke: #383838; stroke-width: 1.0;" width="10" x="292.5" y="475.8906"/><rect fill="#FFFFFF" height="29.1328" style="stroke: #383838; stroke-width: 1.0;" width="10" x="292.5" y="592.4219"/><rect fill="#FFFFFF" height="29.1328" style="stroke: #383838; stroke-width: 1.0;" width="10" x="531.5" y="142.4297"/><rect fill="#FFFFFF" height="29.1328" style="stroke: #383838; stroke-width: 1.0;" width="10" x="531.5" y="200.6953"/><rect fill="#FFFFFF" height="29.1328" style="stroke: #383838; stroke-width: 1.0;" width="10" x="531.5" y="346.3594"/><rect fill="#FFFFFF" height="29.1328" style="stroke: #383838; stroke-width: 1.0;" width="10" x="531.5" y="505.0234"/><rect fill="#FFFFFF" height="29.1328" style="stroke: #383838; stroke-width: 1.0;" width="10" x="531.5" y="563.2891"/><rect fill="#FFFFFF" height="29.1328" style="stroke: #383838; stroke-width: 1.0;" width="10" x="800.5" y="171.5625"/><rect fill="#FFFFFF" height="29.1328" style="stroke: #383838; stroke-width: 1.0;" width="10" x="800.5" y="317.2266"/><rect fill="#FFFFFF" height="29.1328" style="stroke: #383838; stroke-width: 1.0;" width="10" x="800.5" y="534.1563"/><line style="stroke: #383838; stroke-width: 1.0; stroke-dasharray: 5.0,5.0;" x1="53" x2="53" y1="82.2969" y2="639.6875"/><line style="stroke: #383838; stroke-width: 1.0; stroke-dasharray: 5.0,5.0;" x1="292.5" x2="292.5" y1="82.2969" y2="639.6875"/><line style="stroke: #383838; stroke-width: 1.0; stroke-dasharray: 5.0,5.0;" x1="536" x2="536" y1="82.2969" y2="639.6875"/><line style="stroke: #383838; stroke-width: 1.0; stroke-dasharray: 5.0,5.0;" x1="805.5" x2="805.5" y1="82.2969" y2="639.6875"/><text fill="#000000" font-family="sans-serif" font-size="14" lengthAdjust="spacingAndGlyphs" textLength="85" x="8" y="78.9951">Supervisore</text><ellipse cx="53.5" cy="13" fill="#F8F8F8" rx="8" ry="8" style="stroke: #383838; stroke-width: 2.0;"/><path d="M53.5,21 L53.5,48 M40.5,29 L66.5,29 M53.5,48 L40.5,63 M53.5,48 L66.5,63 " fill="#F8F8F8" style="stroke: #383838; stroke-width: 2.0;"/><rect fill="#F8F8F8" height="30.2969" style="stroke: #383838; stroke-width: 1.5;" width="60" x="262.5" y="51"/><text fill="#000000" font-family="sans-serif" font-size="14" lengthAdjust="spacingAndGlyphs" textLength="46" x="269.5" y="70.9951">WebUI</text><rect fill="#F8F8F8" height="30.2969" style="stroke: #383838; stroke-width: 1.5;" width="99" x="487" y="51"/><text fill="#000000" font-family="sans-serif" font-size="14" lengthAdjust="spacingAndGlyphs" textLength="85" x="494" y="70.9951">WebService</text><rect fill="#F8F8F8" height="30.2969" style="stroke: #383838; stroke-width: 1.5;" width="82" x="764.5" y="51"/><text fill="#000000" font-family="sans-serif" font-size="14" lengthAdjust="spacingAndGlyphs" textLength="68" x="771.5" y="70.9951">Database</text><rect fill="#FFFFFF" height="517.3906" style="stroke: #383838; stroke-width: 1.0;" width="10" x="287.5" y="113.2969"/><rect fill="#FFFFFF" height="29.1328" style="stroke: #383838; stroke-width: 1.0;" width="10" x="292.5" y="375.4922"/><rect fill="#FFFFFF" height="29.1328" style="stroke: #383838; stroke-width: 1.0;" width="10" x="292.5" y="475.8906"/><rect fill="#FFFFFF" height="29.1328" style="stroke: #383838; stroke-width: 1.0;" width="10" x="292.5" y="592.4219"/><rect fill="#FFFFFF" height="29.1328" style="stroke: #383838; stroke-width: 1.0;" width="10" x="531.5" y="142.4297"/><rect fill="#FFFFFF" height="29.1328" style="stroke: #383838; stroke-width: 1.0;" width="10" x="531.5" y="200.6953"/><rect fill="#FFFFFF" height="29.1328" style="stroke: #383838; stroke-width: 1.0;" width="10" x="531.5" y="346.3594"/><rect fill="#FFFFFF" height="29.1328" style="stroke: #383838; stroke-width: 1.0;" width="10" x="531.5" y="505.0234"/><rect fill="#FFFFFF" height="29.1328" style="stroke: #383838; stroke-width: 1.0;" width="10" x="531.5" y="563.2891"/><rect fill="#FFFFFF" height="29.1328" style="stroke: #383838; stroke-width: 1.0;" width="10" x="800.5" y="171.5625"/><rect fill="#FFFFFF" height="29.1328" style="stroke: #383838; stroke-width: 1.0;" width="10" x="800.5" y="317.2266"/><rect fill="#FFFFFF" height="29.1328" style="stroke: #383838; stroke-width: 1.0;" width="10" x="800.5" y="534.1563"/><polygon fill="#383838" points="275.5,109.2969,285.5,113.2969,275.5,117.2969,279.5,113.2969" style="stroke: #383838; stroke-width: 1.0;"/><line style="stroke: #383838; stroke-width: 1.0;" x1="53.5" x2="281.5" y1="113.2969" y2="113.2969"/><text fill="#000000" font-family="sans-serif" font-size="13" font-weight="bold" lengthAdjust="spacingAndGlyphs" textLength="9" x="60.5" y="108.3638">1</text><text fill="#000000" font-family="sans-serif" font-size="13" lengthAdjust="spacingAndGlyphs" textLength="112" x="73.5" y="108.3638">get(sessionPage)</text><polygon fill="#383838" points="519.5,138.4297,529.5,142.4297,519.5,146.4297,523.5,142.4297" style="stroke: #383838; stroke-width: 1.0;"/><line style="stroke: #383838; stroke-width: 1.0;" x1="297.5" x2="525.5" y1="142.4297" y2="142.4297"/><text fill="#000000" font-family="sans-serif" font-size="13" font-weight="bold" lengthAdjust="spacingAndGlyphs" textLength="9" x="304.5" y="137.4966">2</text><text fill="#000000" font-family="sans-serif" font-size="13" lengthAdjust="spacingAndGlyphs" textLength="81" x="317.5" y="137.4966">getSession()</text><polygon fill="#383838" points="788.5,167.5625,798.5,171.5625,788.5,175.5625,792.5,171.5625" style="stroke: #383838; stroke-width: 1.0;"/><line style="stroke: #383838; stroke-width: 1.0;" x1="536.5" x2="794.5" y1="171.5625" y2="171.5625"/><text fill="#000000" font-family="sans-serif" font-size="13" font-weight="bold" lengthAdjust="spacingAndGlyphs" textLength="9" x="543.5" y="166.6294">3</text><text fill="#000000" font-family="sans-serif" font-size="13" lengthAdjust="spacingAndGlyphs" textLength="111" x="556.5" y="166.6294">retrieveSession()</text><polygon fill="#383838" points="552.5,196.6953,542.5,200.6953,552.5,204.6953,548.5,200.6953" style="stroke: #383838; stroke-width: 1.0;"/><line style="stroke: #383838; stroke-width: 1.0; stroke-dasharray: 2.0,2.0;" x1="546.5" x2="804.5" y1="200.6953" y2="200.6953"/><text fill="#000000" font-family="sans-serif" font-size="13" font-weight="bold" lengthAdjust="spacingAndGlyphs" textLength="9" x="558.5" y="195.7622">4</text><text fill="#000000" font-family="sans-serif" font-size="13" lengthAdjust="spacingAndGlyphs" textLength="98" x="571.5" y="195.7622">return(session)</text><polygon fill="#383838" points="308.5,225.8281,298.5,229.8281,308.5,233.8281,304.5,229.8281" style="stroke: #383838; stroke-width: 1.0;"/><line style="stroke: #383838; stroke-width: 1.0; stroke-dasharray: 2.0,2.0;" x1="302.5" x2="535.5" y1="229.8281" y2="229.8281"/><text fill="#000000" font-family="sans-serif" font-size="13" font-weight="bold" lengthAdjust="spacingAndGlyphs" textLength="9" x="314.5" y="224.895">5</text><text fill="#000000" font-family="sans-serif" font-size="13" lengthAdjust="spacingAndGlyphs" textLength="98" x="327.5" y="224.895">return(session)</text><polygon fill="#383838" points="64.5,254.9609,54.5,258.9609,64.5,262.9609,60.5,258.9609" style="stroke: #383838; stroke-width: 1.0;"/><line style="stroke: #383838; stroke-width: 1.0; stroke-dasharray: 2.0,2.0;" x1="58.5" x2="286.5" y1="258.9609" y2="258.9609"/><text fill="#000000" font-family="sans-serif" font-size="13" font-weight="bold" lengthAdjust="spacingAndGlyphs" textLength="9" x="70.5" y="254.0278">6</text><text fill="#000000" font-family="sans-serif" font-size="13" lengthAdjust="spacingAndGlyphs" textLength="125" x="83.5" y="254.0278">show(sessionPage)</text><polygon fill="#383838" points="524.5,284.0938,534.5,288.0938,524.5,292.0938,528.5,288.0938" style="stroke: #383838; stroke-width: 1.0;"/><line style="stroke: #383838; stroke-width: 1.0;" x1="297.5" x2="530.5" y1="288.0938" y2="288.0938"/><text fill="#000000" font-family="sans-serif" font-size="13" font-weight="bold" lengthAdjust="spacingAndGlyphs" textLength="9" x="304.5" y="283.1606">7</text><text fill="#000000" font-family="sans-serif" font-size="13" lengthAdjust="spacingAndGlyphs" textLength="98" x="317.5" y="283.1606">retrieveUsers()</text><polygon fill="#383838" points="788.5,313.2266,798.5,317.2266,788.5,321.2266,792.5,317.2266" style="stroke: #383838; stroke-width: 1.0;"/><line style="stroke: #383838; stroke-width: 1.0;" x1="536.5" x2="794.5" y1="317.2266" y2="317.2266"/><text fill="#000000" font-family="sans-serif" font-size="13" font-weight="bold" lengthAdjust="spacingAndGlyphs" textLength="9" x="543.5" y="312.2935">8</text><text fill="#000000" font-family="sans-serif" font-size="13" lengthAdjust="spacingAndGlyphs" textLength="68" x="556.5" y="312.2935">getUsers()</text><polygon fill="#383838" points="552.5,342.3594,542.5,346.3594,552.5,350.3594,548.5,346.3594" style="stroke: #383838; stroke-width: 1.0;"/><line style="stroke: #383838; stroke-width: 1.0; stroke-dasharray: 2.0,2.0;" x1="546.5" x2="804.5" y1="346.3594" y2="346.3594"/><text fill="#000000" font-family="sans-serif" font-size="13" font-weight="bold" lengthAdjust="spacingAndGlyphs" textLength="9" x="558.5" y="341.4263">9</text><text fill="#000000" font-family="sans-serif" font-size="13" lengthAdjust="spacingAndGlyphs" textLength="84" x="571.5" y="341.4263">return(users)</text><polygon fill="#383838" points="313.5,371.4922,303.5,375.4922,313.5,379.4922,309.5,375.4922" style="stroke: #383838; stroke-width: 1.0;"/><line style="stroke: #383838; stroke-width: 1.0; stroke-dasharray: 2.0,2.0;" x1="307.5" x2="535.5" y1="375.4922" y2="375.4922"/><text fill="#000000" font-family="sans-serif" font-size="13" font-weight="bold" lengthAdjust="spacingAndGlyphs" textLength="18" x="319.5" y="370.5591">10</text><text fill="#000000" font-family="sans-serif" font-size="13" lengthAdjust="spacingAndGlyphs" textLength="84" x="341.5" y="370.5591">return(users)</text><polygon fill="#383838" points="64.5,400.625,54.5,404.625,64.5,408.625,60.5,404.625" style="stroke: #383838; stroke-width: 1.0;"/><line style="stroke: #383838; stroke-width: 1.0; stroke-dasharray: 2.0,2.0;" x1="58.5" x2="286.5" y1="404.625" y2="404.625"/><text fill="#000000" font-family="sans-serif" font-size="13" font-weight="bold" lengthAdjust="spacingAndGlyphs" textLength="18" x="70.5" y="399.6919">11</text><text fill="#000000" font-family="sans-serif" font-size="13" lengthAdjust="spacingAndGlyphs" textLength="102" x="92.5" y="399.6919">show(usersList)</text><line style="stroke: #383838; stroke-width: 1.0;" x1="53.5" x2="95.5" y1="433.8906" y2="433.8906"/><line style="stroke: #383838; stroke-width: 1.0;" x1="95.5" x2="95.5" y1="433.8906" y2="446.8906"/><line style="stroke: #383838; stroke-width: 1.0;" x1="54.5" x2="95.5" y1="446.8906" y2="446.8906"/><polygon fill="#383838" points="64.5,442.8906,54.5,446.8906,64.5,450.8906,60.5,446.8906" style="stroke: #383838; stroke-width: 1.0;"/><text fill="#000000" font-family="sans-serif" font-size="13" font-weight="bold" lengthAdjust="spacingAndGlyphs" textLength="18" x="60.5" y="428.8247">12</text><text fill="#000000" font-family="sans-serif" font-size="13" lengthAdjust="spacingAndGlyphs" textLength="84" x="82.5" y="428.8247">select(users)</text><polygon fill="#383838" points="280.5,471.8906,290.5,475.8906,280.5,479.8906,284.5,475.8906" style="stroke: #383838; stroke-width: 1.0;"/><line style="stroke: #383838; stroke-width: 1.0;" x1="53.5" x2="286.5" y1="475.8906" y2="475.8906"/><text fill="#000000" font-family="sans-serif" font-size="13" font-weight="bold" lengthAdjust="spacingAndGlyphs" textLength="18" x="60.5" y="470.9575">13</text><text fill="#000000" font-family="sans-serif" font-size="13" lengthAdjust="spacingAndGlyphs" textLength="188" x="82.5" y="470.9575">do(associate, session, users)</text><polygon fill="#383838" points="519.5,501.0234,529.5,505.0234,519.5,509.0234,523.5,505.0234" style="stroke: #383838; stroke-width: 1.0;"/><line style="stroke: #383838; stroke-width: 1.0;" x1="297.5" x2="525.5" y1="505.0234" y2="505.0234"/><text fill="#000000" font-family="sans-serif" font-size="13" font-weight="bold" lengthAdjust="spacingAndGlyphs" textLength="18" x="304.5" y="500.0903">14</text><text fill="#000000" font-family="sans-serif" font-size="13" lengthAdjust="spacingAndGlyphs" textLength="188" x="326.5" y="500.0903">do(associate, session, users)</text><polygon fill="#383838" points="788.5,530.1563,798.5,534.1563,788.5,538.1563,792.5,534.1563" style="stroke: #383838; stroke-width: 1.0;"/><line style="stroke: #383838; stroke-width: 1.0;" x1="536.5" x2="794.5" y1="534.1563" y2="534.1563"/><text fill="#000000" font-family="sans-serif" font-size="13" font-weight="bold" lengthAdjust="spacingAndGlyphs" textLength="18" x="543.5" y="529.2231">15</text><text fill="#000000" font-family="sans-serif" font-size="13" lengthAdjust="spacingAndGlyphs" textLength="218" x="565.5" y="529.2231">createAssociation(session, users)</text><polygon fill="#383838" points="552.5,559.2891,542.5,563.2891,552.5,567.2891,548.5,563.2891" style="stroke: #383838; stroke-width: 1.0;"/><line style="stroke: #383838; stroke-width: 1.0; stroke-dasharray: 2.0,2.0;" x1="546.5" x2="804.5" y1="563.2891" y2="563.2891"/><text fill="#000000" font-family="sans-serif" font-size="13" font-weight="bold" lengthAdjust="spacingAndGlyphs" textLength="18" x="558.5" y="558.356">16</text><text fill="#000000" font-family="sans-serif" font-size="13" lengthAdjust="spacingAndGlyphs" textLength="65" x="580.5" y="558.356">return(ok)</text><polygon fill="#383838" points="313.5,588.4219,303.5,592.4219,313.5,596.4219,309.5,592.4219" style="stroke: #383838; stroke-width: 1.0;"/><line style="stroke: #383838; stroke-width: 1.0; stroke-dasharray: 2.0,2.0;" x1="307.5" x2="535.5" y1="592.4219" y2="592.4219"/><text fill="#000000" font-family="sans-serif" font-size="13" font-weight="bold" lengthAdjust="spacingAndGlyphs" textLength="18" x="319.5" y="587.4888">17</text><text fill="#000000" font-family="sans-serif" font-size="13" lengthAdjust="spacingAndGlyphs" textLength="119" x="341.5" y="587.4888">return(associated)</text><polygon fill="#383838" points="64.5,617.5547,54.5,621.5547,64.5,625.5547,60.5,621.5547" style="stroke: #383838; stroke-width: 1.0;"/><line style="stroke: #383838; stroke-width: 1.0; stroke-dasharray: 2.0,2.0;" x1="58.5" x2="286.5" y1="621.5547" y2="621.5547"/><text fill="#000000" font-family="sans-serif" font-size="13" font-weight="bold" lengthAdjust="spacingAndGlyphs" textLength="18" x="70.5" y="616.6216">18</text><text fill="#000000" font-family="sans-serif" font-size="13" lengthAdjust="spacingAndGlyphs" textLength="171" x="92.5" y="616.6216">show(associatedMessage)</text></g></svg>