<?xml version="1.0" encoding="UTF-8" standalone="no"?><svg xmlns="http://www.w3.org/2000/svg" xmlns:xlink="http://www.w3.org/1999/xlink" contentScriptType="application/ecmascript" contentStyleType="text/css" height="672px" preserveAspectRatio="none" style="width:740px;height:672px;" version="1.1" viewBox="0 0 740 672" width="740px" zoomAndPan="magnify"><defs/><g><rect fill="#FFFFFF" height="29.1328" style="stroke: #383838; stroke-width: 1.0;" width="10" x="222.5" y="213.6953"/><rect fill="#FFFFFF" height="71.2656" style="stroke: #383838; stroke-width: 1.0;" width="10" x="222.5" y="502.0234"/><rect fill="#FFFFFF" height="29.1328" style="stroke: #383838; stroke-width: 1.0;" width="10" x="222.5" y="617.2266"/><rect fill="#FFFFFF" height="29.1328" style="stroke: #383838; stroke-width: 1.0;" width="10" x="393.5" y="242.8281"/><rect fill="#FFFFFF" height="53.2656" style="stroke: #383838; stroke-width: 1.0;" width="10" x="393.5" y="301.0938"/><rect fill="#FFFFFF" height="53.2656" style="stroke: #383838; stroke-width: 1.0;" width="10" x="393.5" y="383.4922"/><rect fill="#FFFFFF" height="43.9375" style="stroke: #383838; stroke-width: 1.0;" width="10" x="393.5" y="573.2891"/><rect fill="#FFFFFF" height="29.1328" style="stroke: #383838; stroke-width: 1.0;" width="10" x="585.5" y="354.3594"/><rect fill="#FFFFFF" height="29.1328" style="stroke: #383838; stroke-width: 1.0;" width="10" x="585.5" y="436.7578"/><rect fill="#FFFFFF" height="29.1328" style="stroke: #383838; stroke-width: 1.0;" width="10" x="685.5" y="271.9609"/><rect fill="#FFFFFF" height="338.2656" style="stroke: #000000; stroke-width: 2.0;" width="638.5" x="13" y="316.2266"/><rect fill="#FFFFFF" height="75.3984" style="stroke: #000000; stroke-width: 2.0;" width="302.5" x="339" y="398.625"/><rect fill="#FFFFFF" height="73.0703" style="stroke: none; stroke-width: 1.0;" width="638.5" x="13" y="581.4219"/><line style="stroke: #383838; stroke-width: 1.0; stroke-dasharray: 5.0,5.0;" x1="49" x2="49" y1="82.2969" y2="671.4922"/><line style="stroke: #383838; stroke-width: 1.0; stroke-dasharray: 5.0,5.0;" x1="227.5" x2="227.5" y1="82.2969" y2="671.4922"/><line style="stroke: #383838; stroke-width: 1.0; stroke-dasharray: 5.0,5.0;" x1="398" x2="398" y1="82.2969" y2="671.4922"/><line style="stroke: #383838; stroke-width: 1.0; stroke-dasharray: 5.0,5.0;" x1="590.5" x2="590.5" y1="82.2969" y2="671.4922"/><line style="stroke: #383838; stroke-width: 1.0; stroke-dasharray: 5.0,5.0;" x1="690.5" x2="690.5" y1="82.2969" y2="671.4922"/><text fill="#000000" font-family="sans-serif" font-size="14" lengthAdjust="spacingAndGlyphs" textLength="47" x="23" y="78.9951">Utente</text><ellipse cx="49.5" cy="13" fill="#F8F8F8" rx="8" ry="8" style="stroke: #383838; stroke-width: 2.0;"/><path d="M49.5,21 L49.5,48 M36.5,29 L62.5,29 M49.5,48 L36.5,63 M49.5,48 L62.5,63 " fill="#F8F8F8" style="stroke: #383838; stroke-width: 2.0;"/><rect fill="#F8F8F8" height="30.2969" style="stroke: #383838; stroke-width: 1.5;" width="60" x="197.5" y="51"/><text fill="#000000" font-family="sans-serif" font-size="14" lengthAdjust="spacingAndGlyphs" textLength="46" x="204.5" y="70.9951">WebUI</text><rect fill="#F8F8F8" height="30.2969" style="stroke: #383838; stroke-width: 1.5;" width="99" x="349" y="51"/><text fill="#000000" font-family="sans-serif" font-size="14" lengthAdjust="spacingAndGlyphs" textLength="85" x="356" y="70.9951">WebService</text><rect fill="#F8F8F8" height="30.2969" style="stroke: #383838; stroke-width: 1.5;" width="82" x="549.5" y="51"/><text fill="#000000" font-family="sans-serif" font-size="14" lengthAdjust="spacingAndGlyphs" textLength="68" x="556.5" y="70.9951">Database</text><rect fill="#F8F8F8" height="30.2969" style="stroke: #383838; stroke-width: 1.5;" width="98" x="641.5" y="51"/><text fill="#000000" font-family="sans-serif" font-size="14" lengthAdjust="spacingAndGlyphs" textLength="84" x="648.5" y="70.9951">LDAPServer</text><rect fill="#FFFFFF" height="29.1328" style="stroke: #383838; stroke-width: 1.0;" width="10" x="222.5" y="213.6953"/><rect fill="#FFFFFF" height="71.2656" style="stroke: #383838; stroke-width: 1.0;" width="10" x="222.5" y="502.0234"/><rect fill="#FFFFFF" height="29.1328" style="stroke: #383838; stroke-width: 1.0;" width="10" x="222.5" y="617.2266"/><rect fill="#FFFFFF" height="29.1328" style="stroke: #383838; stroke-width: 1.0;" width="10" x="393.5" y="242.8281"/><rect fill="#FFFFFF" height="53.2656" style="stroke: #383838; stroke-width: 1.0;" width="10" x="393.5" y="301.0938"/><rect fill="#FFFFFF" height="53.2656" style="stroke: #383838; stroke-width: 1.0;" width="10" x="393.5" y="383.4922"/><rect fill="#FFFFFF" height="43.9375" style="stroke: #383838; stroke-width: 1.0;" width="10" x="393.5" y="573.2891"/><rect fill="#FFFFFF" height="29.1328" style="stroke: #383838; stroke-width: 1.0;" width="10" x="585.5" y="354.3594"/><rect fill="#FFFFFF" height="29.1328" style="stroke: #383838; stroke-width: 1.0;" width="10" x="585.5" y="436.7578"/><rect fill="#FFFFFF" height="29.1328" style="stroke: #383838; stroke-width: 1.0;" width="10" x="685.5" y="271.9609"/><polygon fill="#383838" points="215.5,109.2969,225.5,113.2969,215.5,117.2969,219.5,113.2969" style="stroke: #383838; stroke-width: 1.0;"/><line style="stroke: #383838; stroke-width: 1.0;" x1="49.5" x2="221.5" y1="113.2969" y2="113.2969"/><text fill="#000000" font-family="sans-serif" font-size="13" font-weight="bold" lengthAdjust="spacingAndGlyphs" textLength="9" x="84.5" y="108.3638">1</text><text fill="#000000" font-family="sans-serif" font-size="13" lengthAdjust="spacingAndGlyphs" textLength="95" x="97.5" y="108.3638">get(loginPage)</text><polygon fill="#383838" points="60.5,138.4297,50.5,142.4297,60.5,146.4297,56.5,142.4297" style="stroke: #383838; stroke-width: 1.0;"/><line style="stroke: #383838; stroke-width: 1.0; stroke-dasharray: 2.0,2.0;" x1="54.5" x2="226.5" y1="142.4297" y2="142.4297"/><text fill="#000000" font-family="sans-serif" font-size="13" font-weight="bold" lengthAdjust="spacingAndGlyphs" textLength="9" x="75.5" y="137.4966">2</text><text fill="#000000" font-family="sans-serif" font-size="13" lengthAdjust="spacingAndGlyphs" textLength="113" x="88.5" y="137.4966">return(loginPage)</text><line style="stroke: #383838; stroke-width: 1.0;" x1="49.5" x2="91.5" y1="171.6953" y2="171.6953"/><line style="stroke: #383838; stroke-width: 1.0;" x1="91.5" x2="91.5" y1="171.6953" y2="184.6953"/><line style="stroke: #383838; stroke-width: 1.0;" x1="50.5" x2="91.5" y1="184.6953" y2="184.6953"/><polygon fill="#383838" points="60.5,180.6953,50.5,184.6953,60.5,188.6953,56.5,184.6953" style="stroke: #383838; stroke-width: 1.0;"/><text fill="#000000" font-family="sans-serif" font-size="13" font-weight="bold" lengthAdjust="spacingAndGlyphs" textLength="9" x="56.5" y="166.6294">3</text><text fill="#000000" font-family="sans-serif" font-size="13" lengthAdjust="spacingAndGlyphs" textLength="113" x="69.5" y="166.6294">Insert credentials</text><polygon fill="#383838" points="210.5,209.6953,220.5,213.6953,210.5,217.6953,214.5,213.6953" style="stroke: #383838; stroke-width: 1.0;"/><line style="stroke: #383838; stroke-width: 1.0;" x1="49.5" x2="216.5" y1="213.6953" y2="213.6953"/><text fill="#000000" font-family="sans-serif" font-size="13" font-weight="bold" lengthAdjust="spacingAndGlyphs" textLength="9" x="100.5" y="208.7622">4</text><text fill="#000000" font-family="sans-serif" font-size="13" lengthAdjust="spacingAndGlyphs" textLength="58" x="113.5" y="208.7622">do(login)</text><polygon fill="#383838" points="381.5,238.8281,391.5,242.8281,381.5,246.8281,385.5,242.8281" style="stroke: #383838; stroke-width: 1.0;"/><line style="stroke: #383838; stroke-width: 1.0;" x1="227.5" x2="387.5" y1="242.8281" y2="242.8281"/><text fill="#000000" font-family="sans-serif" font-size="13" font-weight="bold" lengthAdjust="spacingAndGlyphs" textLength="9" x="288" y="237.895">5</text><text fill="#000000" font-family="sans-serif" font-size="13" lengthAdjust="spacingAndGlyphs" textLength="32" x="301" y="237.895">login</text><polygon fill="#383838" points="673.5,267.9609,683.5,271.9609,673.5,275.9609,677.5,271.9609" style="stroke: #383838; stroke-width: 1.0;"/><line style="stroke: #383838; stroke-width: 1.0;" x1="398.5" x2="679.5" y1="271.9609" y2="271.9609"/><text fill="#000000" font-family="sans-serif" font-size="13" font-weight="bold" lengthAdjust="spacingAndGlyphs" textLength="9" x="464.5" y="267.0278">6</text><text fill="#000000" font-family="sans-serif" font-size="13" lengthAdjust="spacingAndGlyphs" textLength="142" x="477.5" y="267.0278">checkCredentials(u,p)</text><polygon fill="#383838" points="414.5,297.0938,404.5,301.0938,414.5,305.0938,410.5,301.0938" style="stroke: #383838; stroke-width: 1.0;"/><line style="stroke: #383838; stroke-width: 1.0; stroke-dasharray: 2.0,2.0;" x1="408.5" x2="689.5" y1="301.0938" y2="301.0938"/><text fill="#000000" font-family="sans-serif" font-size="13" font-weight="bold" lengthAdjust="spacingAndGlyphs" textLength="9" x="497.5" y="296.1606">7</text><text fill="#000000" font-family="sans-serif" font-size="13" lengthAdjust="spacingAndGlyphs" textLength="86" x="510.5" y="296.1606">return(result)</text><rect fill="none" height="338.2656" style="stroke: #000000; stroke-width: 2.0;" width="638.5" x="13" y="316.2266"/><polygon fill="#EEEEEE" points="13,316.2266,77,316.2266,77,323.2266,67,333.2266,13,333.2266,13,316.2266" style="stroke: #000000; stroke-width: 2.0;"/><text fill="#000000" font-family="sans-serif" font-size="13" font-weight="bold" lengthAdjust="spacingAndGlyphs" textLength="19" x="28" y="329.2935">alt</text><text fill="#000000" font-family="sans-serif" font-size="11" font-weight="bold" lengthAdjust="spacingAndGlyphs" textLength="88" x="92" y="328.437">[result = true]</text><polygon fill="#383838" points="573.5,350.3594,583.5,354.3594,573.5,358.3594,577.5,354.3594" style="stroke: #383838; stroke-width: 1.0;"/><line style="stroke: #383838; stroke-width: 1.0;" x1="398.5" x2="579.5" y1="354.3594" y2="354.3594"/><text fill="#000000" font-family="sans-serif" font-size="13" font-weight="bold" lengthAdjust="spacingAndGlyphs" textLength="9" x="422.5" y="349.4263">8</text><text fill="#000000" font-family="sans-serif" font-size="13" lengthAdjust="spacingAndGlyphs" textLength="126" x="435.5" y="349.4263">checkIfUserExists()</text><polygon fill="#383838" points="414.5,379.4922,404.5,383.4922,414.5,387.4922,410.5,383.4922" style="stroke: #383838; stroke-width: 1.0;"/><line style="stroke: #383838; stroke-width: 1.0; stroke-dasharray: 2.0,2.0;" x1="408.5" x2="589.5" y1="383.4922" y2="383.4922"/><text fill="#000000" font-family="sans-serif" font-size="13" font-weight="bold" lengthAdjust="spacingAndGlyphs" textLength="9" x="447.5" y="378.5591">9</text><text fill="#000000" font-family="sans-serif" font-size="13" lengthAdjust="spacingAndGlyphs" textLength="86" x="460.5" y="378.5591">return(result)</text><rect fill="none" height="75.3984" style="stroke: #000000; stroke-width: 2.0;" width="302.5" x="339" y="398.625"/><polygon fill="#EEEEEE" points="339,398.625,403,398.625,403,405.625,393,415.625,339,415.625,339,398.625" style="stroke: #000000; stroke-width: 2.0;"/><text fill="#000000" font-family="sans-serif" font-size="13" font-weight="bold" lengthAdjust="spacingAndGlyphs" textLength="19" x="354" y="411.6919">alt</text><text fill="#000000" font-family="sans-serif" font-size="11" font-weight="bold" lengthAdjust="spacingAndGlyphs" textLength="109" x="418" y="410.8354">[queryResult = 0]</text><polygon fill="#383838" points="573.5,432.7578,583.5,436.7578,573.5,440.7578,577.5,436.7578" style="stroke: #383838; stroke-width: 1.0;"/><line style="stroke: #383838; stroke-width: 1.0;" x1="398.5" x2="579.5" y1="436.7578" y2="436.7578"/><text fill="#000000" font-family="sans-serif" font-size="13" font-weight="bold" lengthAdjust="spacingAndGlyphs" textLength="18" x="410.5" y="431.8247">10</text><text fill="#000000" font-family="sans-serif" font-size="13" lengthAdjust="spacingAndGlyphs" textLength="141" x="432.5" y="431.8247">createUserAndLogin()</text><polygon fill="#383838" points="409.5,461.8906,399.5,465.8906,409.5,469.8906,405.5,465.8906" style="stroke: #383838; stroke-width: 1.0;"/><line style="stroke: #383838; stroke-width: 1.0;" x1="403.5" x2="589.5" y1="465.8906" y2="465.8906"/><text fill="#000000" font-family="sans-serif" font-size="13" font-weight="bold" lengthAdjust="spacingAndGlyphs" textLength="18" x="440.5" y="460.9575">11</text><text fill="#000000" font-family="sans-serif" font-size="13" lengthAdjust="spacingAndGlyphs" textLength="86" x="462.5" y="460.9575">return(token)</text><polygon fill="#383838" points="243.5,498.0234,233.5,502.0234,243.5,506.0234,239.5,502.0234" style="stroke: #383838; stroke-width: 1.0;"/><line style="stroke: #383838; stroke-width: 1.0; stroke-dasharray: 2.0,2.0;" x1="237.5" x2="397.5" y1="502.0234" y2="502.0234"/><text fill="#000000" font-family="sans-serif" font-size="13" font-weight="bold" lengthAdjust="spacingAndGlyphs" textLength="18" x="261.5" y="497.0903">12</text><text fill="#000000" font-family="sans-serif" font-size="13" lengthAdjust="spacingAndGlyphs" textLength="86" x="283.5" y="497.0903">return(token)</text><line style="stroke: #383838; stroke-width: 1.0;" x1="232.5" x2="274.5" y1="531.2891" y2="531.2891"/><line style="stroke: #383838; stroke-width: 1.0;" x1="274.5" x2="274.5" y1="531.2891" y2="544.2891"/><line style="stroke: #383838; stroke-width: 1.0;" x1="233.5" x2="274.5" y1="544.2891" y2="544.2891"/><polygon fill="#383838" points="243.5,540.2891,233.5,544.2891,243.5,548.2891,239.5,544.2891" style="stroke: #383838; stroke-width: 1.0;"/><text fill="#000000" font-family="sans-serif" font-size="13" font-weight="bold" lengthAdjust="spacingAndGlyphs" textLength="18" x="239.5" y="526.2231">13</text><text fill="#000000" font-family="sans-serif" font-size="13" lengthAdjust="spacingAndGlyphs" textLength="80" x="261.5" y="526.2231">store(token)</text><polygon fill="#383838" points="60.5,569.2891,50.5,573.2891,60.5,577.2891,56.5,573.2891" style="stroke: #383838; stroke-width: 1.0;"/><line style="stroke: #383838; stroke-width: 1.0; stroke-dasharray: 2.0,2.0;" x1="54.5" x2="226.5" y1="573.2891" y2="573.2891"/><text fill="#000000" font-family="sans-serif" font-size="13" font-weight="bold" lengthAdjust="spacingAndGlyphs" textLength="18" x="64" y="568.356">14</text><text fill="#000000" font-family="sans-serif" font-size="13" lengthAdjust="spacingAndGlyphs" textLength="127" x="86" y="568.356">show(successPage)</text><line style="stroke: #000000; stroke-width: 1.0; stroke-dasharray: 2.0,2.0;" x1="13" x2="651.5" y1="582.4219" y2="582.4219"/><text fill="#000000" font-family="sans-serif" font-size="11" font-weight="bold" lengthAdjust="spacingAndGlyphs" textLength="93" x="18" y="592.6323">[result = false]</text><polygon fill="#383838" points="243.5,613.2266,233.5,617.2266,243.5,621.2266,239.5,617.2266" style="stroke: #383838; stroke-width: 1.0;"/><line style="stroke: #383838; stroke-width: 1.0; stroke-dasharray: 2.0,2.0;" x1="237.5" x2="397.5" y1="617.2266" y2="617.2266"/><text fill="#000000" font-family="sans-serif" font-size="13" font-weight="bold" lengthAdjust="spacingAndGlyphs" textLength="18" x="244.5" y="612.2935">15</text><text fill="#000000" font-family="sans-serif" font-size="13" lengthAdjust="spacingAndGlyphs" textLength="120" x="266.5" y="612.2935">return(loginFailed)</text><polygon fill="#383838" points="60.5,642.3594,50.5,646.3594,60.5,650.3594,56.5,646.3594" style="stroke: #383838; stroke-width: 1.0;"/><line style="stroke: #383838; stroke-width: 1.0; stroke-dasharray: 2.0,2.0;" x1="54.5" x2="226.5" y1="646.3594" y2="646.3594"/><text fill="#000000" font-family="sans-serif" font-size="13" font-weight="bold" lengthAdjust="spacingAndGlyphs" textLength="18" x="79" y="641.4263">16</text><text fill="#000000" font-family="sans-serif" font-size="13" lengthAdjust="spacingAndGlyphs" textLength="97" x="101" y="641.4263">show(failPage)</text></g></svg>