<?xml version="1.0" encoding="UTF-8" standalone="no"?><svg xmlns="http://www.w3.org/2000/svg" xmlns:xlink="http://www.w3.org/1999/xlink" contentScriptType="application/ecmascript" contentStyleType="text/css" height="843px" preserveAspectRatio="none" style="width:1043px;height:843px;" version="1.1" viewBox="0 0 1043 843" width="1043px" zoomAndPan="magnify"><defs/><g><rect fill="#FFFFFF" height="372.7266" style="stroke: #000000; stroke-width: 2.0;" width="655" x="387" y="157.5625"/><rect fill="#FFFFFF" height="283.3281" style="stroke: #000000; stroke-width: 2.0;" width="635" x="397" y="239.9609"/><rect fill="#FFFFFF" height="75.3984" style="stroke: #000000; stroke-width: 2.0;" width="294.5" x="727.5" y="293.2266"/><rect fill="#FFFFFF" height="75.3984" style="stroke: #000000; stroke-width: 2.0;" width="294.5" x="727.5" y="382.625"/><rect fill="#FFFFFF" height="223.0625" style="stroke: #000000; stroke-width: 2.0;" width="645" x="387" y="544.2891"/><rect fill="#FFFFFF" height="133.6641" style="stroke: #000000; stroke-width: 2.0;" width="625" x="397" y="626.6875"/><line style="stroke: #383838; stroke-width: 1.0; stroke-dasharray: 5.0,5.0;" x1="34" x2="34" y1="82.2969" y2="842.6172"/><line style="stroke: #383838; stroke-width: 1.0; stroke-dasharray: 5.0,5.0;" x1="241.5" x2="241.5" y1="82.2969" y2="842.6172"/><line style="stroke: #383838; stroke-width: 1.0; stroke-dasharray: 5.0,5.0;" x1="456" x2="456" y1="82.2969" y2="842.6172"/><line style="stroke: #383838; stroke-width: 1.0; stroke-dasharray: 5.0,5.0;" x1="686.5" x2="686.5" y1="82.2969" y2="842.6172"/><line style="stroke: #383838; stroke-width: 1.0; stroke-dasharray: 5.0,5.0;" x1="803.5" x2="803.5" y1="82.2969" y2="842.6172"/><line style="stroke: #383838; stroke-width: 1.0; stroke-dasharray: 5.0,5.0;" x1="982" x2="982" y1="82.2969" y2="842.6172"/><text fill="#000000" font-family="sans-serif" font-size="14" lengthAdjust="spacingAndGlyphs" textLength="47" x="8" y="78.9951">Utente</text><ellipse cx="34.5" cy="13" fill="#F8F8F8" rx="8" ry="8" style="stroke: #383838; stroke-width: 2.0;"/><path d="M34.5,21 L34.5,48 M21.5,29 L47.5,29 M34.5,48 L21.5,63 M34.5,48 L47.5,63 " fill="#F8F8F8" style="stroke: #383838; stroke-width: 2.0;"/><rect fill="#F8F8F8" height="30.2969" style="stroke: #383838; stroke-width: 1.5;" width="60" x="211.5" y="51"/><text fill="#000000" font-family="sans-serif" font-size="14" lengthAdjust="spacingAndGlyphs" textLength="46" x="218.5" y="70.9951">WebUI</text><rect fill="#F8F8F8" height="30.2969" style="stroke: #383838; stroke-width: 1.5;" width="99" x="407" y="51"/><text fill="#000000" font-family="sans-serif" font-size="14" lengthAdjust="spacingAndGlyphs" textLength="85" x="414" y="70.9951">WebService</text><rect fill="#F8F8F8" height="30.2969" style="stroke: #383838; stroke-width: 1.5;" width="82" x="645.5" y="51"/><text fill="#000000" font-family="sans-serif" font-size="14" lengthAdjust="spacingAndGlyphs" textLength="68" x="652.5" y="70.9951">Database</text><rect fill="#F8F8F8" height="30.2969" style="stroke: #383838; stroke-width: 1.5;" width="133" x="737.5" y="51"/><text fill="#000000" font-family="sans-serif" font-size="14" lengthAdjust="spacingAndGlyphs" textLength="119" x="744.5" y="70.9951">ContainerEngine</text><rect fill="#F8F8F8" height="30.2969" style="stroke: #383838; stroke-width: 1.5;" width="60" x="952" y="51"/><text fill="#000000" font-family="sans-serif" font-size="14" lengthAdjust="spacingAndGlyphs" textLength="46" x="959" y="70.9951">Kernel</text><polygon fill="#383838" points="229.5,109.2969,239.5,113.2969,229.5,117.2969,233.5,113.2969" style="stroke: #383838; stroke-width: 1.0;"/><line style="stroke: #383838; stroke-width: 1.0;" x1="34.5" x2="235.5" y1="113.2969" y2="113.2969"/><text fill="#000000" font-family="sans-serif" font-size="13" font-weight="bold" lengthAdjust="spacingAndGlyphs" textLength="9" x="104.5" y="108.3638">1</text><text fill="#000000" font-family="sans-serif" font-size="13" lengthAdjust="spacingAndGlyphs" textLength="54" x="117.5" y="108.3638">deploy()</text><polygon fill="#383838" points="444.5,138.4297,454.5,142.4297,444.5,146.4297,448.5,142.4297" style="stroke: #383838; stroke-width: 1.0;"/><line style="stroke: #383838; stroke-width: 1.0;" x1="241.5" x2="450.5" y1="142.4297" y2="142.4297"/><text fill="#000000" font-family="sans-serif" font-size="13" font-weight="bold" lengthAdjust="spacingAndGlyphs" textLength="9" x="285.5" y="137.4966">2</text><text fill="#000000" font-family="sans-serif" font-size="13" lengthAdjust="spacingAndGlyphs" textLength="114" x="298.5" y="137.4966">deployTopology()</text><rect fill="none" height="372.7266" style="stroke: #000000; stroke-width: 2.0;" width="655" x="387" y="157.5625"/><polygon fill="#EEEEEE" points="387,157.5625,540,157.5625,540,164.5625,530,174.5625,387,174.5625,387,157.5625" style="stroke: #000000; stroke-width: 2.0;"/><text fill="#000000" font-family="sans-serif" font-size="13" font-weight="bold" lengthAdjust="spacingAndGlyphs" textLength="108" x="402" y="170.6294">deploy devices</text><polygon fill="#383838" points="674.5,191.6953,684.5,195.6953,674.5,199.6953,678.5,195.6953" style="stroke: #383838; stroke-width: 1.0;"/><line style="stroke: #383838; stroke-width: 1.0;" x1="456.5" x2="680.5" y1="195.6953" y2="195.6953"/><text fill="#000000" font-family="sans-serif" font-size="13" font-weight="bold" lengthAdjust="spacingAndGlyphs" textLength="9" x="468.5" y="190.7622">3</text><text fill="#000000" font-family="sans-serif" font-size="13" lengthAdjust="spacingAndGlyphs" textLength="193" x="481.5" y="190.7622">retrieveDevicesForTopology()</text><polygon fill="#383838" points="467.5,220.8281,457.5,224.8281,467.5,228.8281,463.5,224.8281" style="stroke: #383838; stroke-width: 1.0;"/><line style="stroke: #383838; stroke-width: 1.0; stroke-dasharray: 2.0,2.0;" x1="461.5" x2="685.5" y1="224.8281" y2="224.8281"/><text fill="#000000" font-family="sans-serif" font-size="13" font-weight="bold" lengthAdjust="spacingAndGlyphs" textLength="9" x="515.5" y="219.895">4</text><text fill="#000000" font-family="sans-serif" font-size="13" lengthAdjust="spacingAndGlyphs" textLength="99" x="528.5" y="219.895">return(devices)</text><rect fill="none" height="283.3281" style="stroke: #000000; stroke-width: 2.0;" width="635" x="397" y="239.9609"/><polygon fill="#EEEEEE" points="397,239.9609,473,239.9609,473,246.9609,463,256.9609,397,256.9609,397,239.9609" style="stroke: #000000; stroke-width: 2.0;"/><text fill="#000000" font-family="sans-serif" font-size="13" font-weight="bold" lengthAdjust="spacingAndGlyphs" textLength="31" x="412" y="253.0278">loop</text><text fill="#000000" font-family="sans-serif" font-size="11" font-weight="bold" lengthAdjust="spacingAndGlyphs" textLength="119" x="488" y="252.1714">[devices as device]</text><polygon fill="#383838" points="792,274.0938,802,278.0938,792,282.0938,796,278.0938" style="stroke: #383838; stroke-width: 1.0;"/><line style="stroke: #383838; stroke-width: 1.0;" x1="456.5" x2="798" y1="278.0938" y2="278.0938"/><text fill="#000000" font-family="sans-serif" font-size="13" font-weight="bold" lengthAdjust="spacingAndGlyphs" textLength="9" x="543.75" y="273.1606">5</text><text fill="#000000" font-family="sans-serif" font-size="13" lengthAdjust="spacingAndGlyphs" textLength="160" x="556.75" y="273.1606">deployContainer(device)</text><rect fill="none" height="75.3984" style="stroke: #000000; stroke-width: 2.0;" width="294.5" x="727.5" y="293.2266"/><polygon fill="#EEEEEE" points="727.5,293.2266,796.5,293.2266,796.5,300.2266,786.5,310.2266,727.5,310.2266,727.5,293.2266" style="stroke: #000000; stroke-width: 2.0;"/><text fill="#000000" font-family="sans-serif" font-size="13" font-weight="bold" lengthAdjust="spacingAndGlyphs" textLength="24" x="742.5" y="306.2935">par</text><polygon fill="#383838" points="970,327.3594,980,331.3594,970,335.3594,974,331.3594" style="stroke: #383838; stroke-width: 1.0;"/><line style="stroke: #383838; stroke-width: 1.0;" x1="804" x2="976" y1="331.3594" y2="331.3594"/><text fill="#000000" font-family="sans-serif" font-size="13" font-weight="bold" lengthAdjust="spacingAndGlyphs" textLength="9" x="840.5" y="326.4263">6</text><text fill="#000000" font-family="sans-serif" font-size="13" lengthAdjust="spacingAndGlyphs" textLength="92" x="853.5" y="326.4263">createNetNS()</text><polygon fill="#383838" points="970,356.4922,980,360.4922,970,364.4922,974,360.4922" style="stroke: #383838; stroke-width: 1.0;"/><line style="stroke: #383838; stroke-width: 1.0;" x1="804" x2="976" y1="360.4922" y2="360.4922"/><text fill="#000000" font-family="sans-serif" font-size="13" font-weight="bold" lengthAdjust="spacingAndGlyphs" textLength="9" x="853.5" y="355.5591">7</text><text fill="#000000" font-family="sans-serif" font-size="13" lengthAdjust="spacingAndGlyphs" textLength="66" x="866.5" y="355.5591">createFS()</text><rect fill="none" height="75.3984" style="stroke: #000000; stroke-width: 2.0;" width="294.5" x="727.5" y="382.625"/><polygon fill="#EEEEEE" points="727.5,382.625,796.5,382.625,796.5,389.625,786.5,399.625,727.5,399.625,727.5,382.625" style="stroke: #000000; stroke-width: 2.0;"/><text fill="#000000" font-family="sans-serif" font-size="13" font-weight="bold" lengthAdjust="spacingAndGlyphs" textLength="24" x="742.5" y="395.6919">par</text><polygon fill="#383838" points="815,416.7578,805,420.7578,815,424.7578,811,420.7578" style="stroke: #383838; stroke-width: 1.0;"/><line style="stroke: #383838; stroke-width: 1.0; stroke-dasharray: 2.0,2.0;" x1="809" x2="981" y1="420.7578" y2="420.7578"/><text fill="#000000" font-family="sans-serif" font-size="13" font-weight="bold" lengthAdjust="spacingAndGlyphs" textLength="9" x="841.5" y="415.8247">8</text><text fill="#000000" font-family="sans-serif" font-size="13" lengthAdjust="spacingAndGlyphs" textLength="90" x="854.5" y="415.8247">return(NetNS)</text><polygon fill="#383838" points="815,445.8906,805,449.8906,815,453.8906,811,449.8906" style="stroke: #383838; stroke-width: 1.0;"/><line style="stroke: #383838; stroke-width: 1.0; stroke-dasharray: 2.0,2.0;" x1="809" x2="981" y1="449.8906" y2="449.8906"/><text fill="#000000" font-family="sans-serif" font-size="13" font-weight="bold" lengthAdjust="spacingAndGlyphs" textLength="9" x="854.5" y="444.9575">9</text><text fill="#000000" font-family="sans-serif" font-size="13" lengthAdjust="spacingAndGlyphs" textLength="64" x="867.5" y="444.9575">return(FS)</text><polygon fill="#383838" points="970,482.0234,980,486.0234,970,490.0234,974,486.0234" style="stroke: #383838; stroke-width: 1.0;"/><line style="stroke: #383838; stroke-width: 1.0;" x1="804" x2="976" y1="486.0234" y2="486.0234"/><text fill="#000000" font-family="sans-serif" font-size="13" font-weight="bold" lengthAdjust="spacingAndGlyphs" textLength="18" x="816" y="481.0903">10</text><text fill="#000000" font-family="sans-serif" font-size="13" lengthAdjust="spacingAndGlyphs" textLength="132" x="838" y="481.0903">associate(NetNS,FS)</text><polygon fill="#383838" points="467.5,511.1563,457.5,515.1563,467.5,519.1563,463.5,515.1563" style="stroke: #383838; stroke-width: 1.0;"/><line style="stroke: #383838; stroke-width: 1.0; stroke-dasharray: 2.0,2.0;" x1="461.5" x2="803" y1="515.1563" y2="515.1563"/><text fill="#000000" font-family="sans-serif" font-size="13" font-weight="bold" lengthAdjust="spacingAndGlyphs" textLength="18" x="586.75" y="510.2231">11</text><text fill="#000000" font-family="sans-serif" font-size="13" lengthAdjust="spacingAndGlyphs" textLength="65" x="608.75" y="510.2231">return(ok)</text><rect fill="none" height="223.0625" style="stroke: #000000; stroke-width: 2.0;" width="645" x="387" y="544.2891"/><polygon fill="#EEEEEE" points="387,544.2891,519,544.2891,519,551.2891,509,561.2891,387,561.2891,387,544.2891" style="stroke: #000000; stroke-width: 2.0;"/><text fill="#000000" font-family="sans-serif" font-size="13" font-weight="bold" lengthAdjust="spacingAndGlyphs" textLength="87" x="402" y="557.356">deploy links</text><polygon fill="#383838" points="674.5,578.4219,684.5,582.4219,674.5,586.4219,678.5,582.4219" style="stroke: #383838; stroke-width: 1.0;"/><line style="stroke: #383838; stroke-width: 1.0;" x1="456.5" x2="680.5" y1="582.4219" y2="582.4219"/><text fill="#000000" font-family="sans-serif" font-size="13" font-weight="bold" lengthAdjust="spacingAndGlyphs" textLength="18" x="473" y="577.4888">12</text><text fill="#000000" font-family="sans-serif" font-size="13" lengthAdjust="spacingAndGlyphs" textLength="175" x="495" y="577.4888">retrieveLinksForTopology()</text><polygon fill="#383838" points="467.5,607.5547,457.5,611.5547,467.5,615.5547,463.5,611.5547" style="stroke: #383838; stroke-width: 1.0;"/><line style="stroke: #383838; stroke-width: 1.0; stroke-dasharray: 2.0,2.0;" x1="461.5" x2="685.5" y1="611.5547" y2="611.5547"/><text fill="#000000" font-family="sans-serif" font-size="13" font-weight="bold" lengthAdjust="spacingAndGlyphs" textLength="18" x="520.5" y="606.6216">13</text><text fill="#000000" font-family="sans-serif" font-size="13" lengthAdjust="spacingAndGlyphs" textLength="80" x="542.5" y="606.6216">return(links)</text><rect fill="none" height="133.6641" style="stroke: #000000; stroke-width: 2.0;" width="625" x="397" y="626.6875"/><polygon fill="#EEEEEE" points="397,626.6875,473,626.6875,473,633.6875,463,643.6875,397,643.6875,397,626.6875" style="stroke: #000000; stroke-width: 2.0;"/><text fill="#000000" font-family="sans-serif" font-size="13" font-weight="bold" lengthAdjust="spacingAndGlyphs" textLength="31" x="412" y="639.7544">loop</text><text fill="#000000" font-family="sans-serif" font-size="11" font-weight="bold" lengthAdjust="spacingAndGlyphs" textLength="85" x="488" y="638.8979">[links as link]</text><polygon fill="#383838" points="970,660.8203,980,664.8203,970,668.8203,974,664.8203" style="stroke: #383838; stroke-width: 1.0;"/><line style="stroke: #383838; stroke-width: 1.0;" x1="456.5" x2="976" y1="664.8203" y2="664.8203"/><text fill="#000000" font-family="sans-serif" font-size="13" font-weight="bold" lengthAdjust="spacingAndGlyphs" textLength="18" x="655.25" y="659.8872">14</text><text fill="#000000" font-family="sans-serif" font-size="13" lengthAdjust="spacingAndGlyphs" textLength="106" x="677.25" y="659.8872">createVethPair()</text><polygon fill="#383838" points="467.5,689.9531,457.5,693.9531,467.5,697.9531,463.5,693.9531" style="stroke: #383838; stroke-width: 1.0;"/><line style="stroke: #383838; stroke-width: 1.0; stroke-dasharray: 2.0,2.0;" x1="461.5" x2="981" y1="693.9531" y2="693.9531"/><text fill="#000000" font-family="sans-serif" font-size="13" font-weight="bold" lengthAdjust="spacingAndGlyphs" textLength="18" x="661.75" y="689.02">15</text><text fill="#000000" font-family="sans-serif" font-size="13" lengthAdjust="spacingAndGlyphs" textLength="93" x="683.75" y="689.02">return(VethID)</text><polygon fill="#383838" points="970,719.0859,980,723.0859,970,727.0859,974,723.0859" style="stroke: #383838; stroke-width: 1.0;"/><line style="stroke: #383838; stroke-width: 1.0;" x1="456.5" x2="976" y1="723.0859" y2="723.0859"/><text fill="#000000" font-family="sans-serif" font-size="13" font-weight="bold" lengthAdjust="spacingAndGlyphs" textLength="18" x="581.25" y="718.1528">16</text><text fill="#000000" font-family="sans-serif" font-size="13" lengthAdjust="spacingAndGlyphs" textLength="254" x="603.25" y="718.1528">associateVethID(link.peer1, link.peer2)</text><polygon fill="#383838" points="467.5,748.2188,457.5,752.2188,467.5,756.2188,463.5,752.2188" style="stroke: #383838; stroke-width: 1.0;"/><line style="stroke: #383838; stroke-width: 1.0; stroke-dasharray: 2.0,2.0;" x1="461.5" x2="981" y1="752.2188" y2="752.2188"/><text fill="#000000" font-family="sans-serif" font-size="13" font-weight="bold" lengthAdjust="spacingAndGlyphs" textLength="18" x="675.75" y="747.2856">17</text><text fill="#000000" font-family="sans-serif" font-size="13" lengthAdjust="spacingAndGlyphs" textLength="65" x="697.75" y="747.2856">return(ok)</text><polygon fill="#383838" points="252.5,791.3516,242.5,795.3516,252.5,799.3516,248.5,795.3516" style="stroke: #383838; stroke-width: 1.0;"/><line style="stroke: #383838; stroke-width: 1.0; stroke-dasharray: 2.0,2.0;" x1="246.5" x2="455.5" y1="795.3516" y2="795.3516"/><text fill="#000000" font-family="sans-serif" font-size="13" font-weight="bold" lengthAdjust="spacingAndGlyphs" textLength="18" x="253.5" y="790.4185">18</text><text fill="#000000" font-family="sans-serif" font-size="13" lengthAdjust="spacingAndGlyphs" textLength="169" x="275.5" y="790.4185">return(deployedTopology)</text><polygon fill="#383838" points="45.5,820.4844,35.5,824.4844,45.5,828.4844,41.5,824.4844" style="stroke: #383838; stroke-width: 1.0;"/><line style="stroke: #383838; stroke-width: 1.0; stroke-dasharray: 2.0,2.0;" x1="39.5" x2="240.5" y1="824.4844" y2="824.4844"/><text fill="#000000" font-family="sans-serif" font-size="13" font-weight="bold" lengthAdjust="spacingAndGlyphs" textLength="18" x="46.5" y="819.5513">19</text><text fill="#000000" font-family="sans-serif" font-size="13" lengthAdjust="spacingAndGlyphs" textLength="161" x="68.5" y="819.5513">show(deployedMessage)</text></g></svg>