<?xml version="1.0" encoding="UTF-8" standalone="no"?><svg xmlns="http://www.w3.org/2000/svg" xmlns:xlink="http://www.w3.org/1999/xlink" contentScriptType="application/ecmascript" contentStyleType="text/css" height="525px" preserveAspectRatio="none" style="width:875px;height:525px;" version="1.1" viewBox="0 0 875 525" width="875px" zoomAndPan="magnify"><defs/><g><rect fill="#FFFFFF" height="29.1328" style="stroke: #383838; stroke-width: 1.0;" width="10" x="233.5" y="113.2969"/><rect fill="#FFFFFF" height="71.2656" style="stroke: #383838; stroke-width: 1.0;" width="10" x="616.5" y="268.9609"/><rect fill="#FFFFFF" height="71.2656" style="stroke: #383838; stroke-width: 1.0;" width="10" x="616.5" y="369.3594"/><rect fill="#FFFFFF" height="29.1328" style="stroke: #383838; stroke-width: 1.0;" width="10" x="792.5" y="340.2266"/><rect fill="#FFFFFF" height="278.1953" style="stroke: #000000; stroke-width: 2.0;" width="675.5" x="198.5" y="199.6953"/><rect fill="#FFFFFF" height="231.9297" style="stroke: none; stroke-width: 1.0;" width="675.5" x="198.5" y="245.9609"/><line style="stroke: #383838; stroke-width: 1.0; stroke-dasharray: 5.0,5.0;" x1="34" x2="34" y1="82.2969" y2="524.0234"/><line style="stroke: #383838; stroke-width: 1.0; stroke-dasharray: 5.0,5.0;" x1="238.5" x2="238.5" y1="82.2969" y2="524.0234"/><line style="stroke: #383838; stroke-width: 1.0; stroke-dasharray: 5.0,5.0;" x1="438" x2="438" y1="82.2969" y2="524.0234"/><line style="stroke: #383838; stroke-width: 1.0; stroke-dasharray: 5.0,5.0;" x1="621" x2="621" y1="82.2969" y2="524.0234"/><line style="stroke: #383838; stroke-width: 1.0; stroke-dasharray: 5.0,5.0;" x1="797" x2="797" y1="82.2969" y2="524.0234"/><text fill="#000000" font-family="sans-serif" font-size="14" lengthAdjust="spacingAndGlyphs" textLength="47" x="8" y="78.9951">Utente</text><ellipse cx="34.5" cy="13" fill="#F8F8F8" rx="8" ry="8" style="stroke: #383838; stroke-width: 2.0;"/><path d="M34.5,21 L34.5,48 M21.5,29 L47.5,29 M34.5,48 L21.5,63 M34.5,48 L47.5,63 " fill="#F8F8F8" style="stroke: #383838; stroke-width: 2.0;"/><rect fill="#F8F8F8" height="30.2969" style="stroke: #383838; stroke-width: 1.5;" width="60" x="208.5" y="51"/><text fill="#000000" font-family="sans-serif" font-size="14" lengthAdjust="spacingAndGlyphs" textLength="46" x="215.5" y="70.9951">WebUI</text><rect fill="#F8F8F8" height="30.2969" style="stroke: #383838; stroke-width: 1.5;" width="99" x="389" y="51"/><text fill="#000000" font-family="sans-serif" font-size="14" lengthAdjust="spacingAndGlyphs" textLength="85" x="396" y="70.9951">WebService</text><rect fill="#F8F8F8" height="30.2969" style="stroke: #383838; stroke-width: 1.5;" width="117" x="563" y="51"/><text fill="#000000" font-family="sans-serif" font-size="14" lengthAdjust="spacingAndGlyphs" textLength="103" x="570" y="70.9951">TerminalProxy</text><rect fill="#F8F8F8" height="30.2969" style="stroke: #383838; stroke-width: 1.5;" width="133" x="731" y="51"/><text fill="#000000" font-family="sans-serif" font-size="14" lengthAdjust="spacingAndGlyphs" textLength="119" x="738" y="70.9951">ContainerEngine</text><rect fill="#FFFFFF" height="29.1328" style="stroke: #383838; stroke-width: 1.0;" width="10" x="233.5" y="113.2969"/><rect fill="#FFFFFF" height="71.2656" style="stroke: #383838; stroke-width: 1.0;" width="10" x="616.5" y="268.9609"/><rect fill="#FFFFFF" height="71.2656" style="stroke: #383838; stroke-width: 1.0;" width="10" x="616.5" y="369.3594"/><rect fill="#FFFFFF" height="29.1328" style="stroke: #383838; stroke-width: 1.0;" width="10" x="792.5" y="340.2266"/><polygon fill="#383838" points="221.5,109.2969,231.5,113.2969,221.5,117.2969,225.5,113.2969" style="stroke: #383838; stroke-width: 1.0;"/><line style="stroke: #383838; stroke-width: 1.0;" x1="34.5" x2="227.5" y1="113.2969" y2="113.2969"/><text fill="#000000" font-family="sans-serif" font-size="13" font-weight="bold" lengthAdjust="spacingAndGlyphs" textLength="9" x="44" y="108.3638">1</text><text fill="#000000" font-family="sans-serif" font-size="13" lengthAdjust="spacingAndGlyphs" textLength="167" x="57" y="108.3638">do(openTerminal, device)</text><polygon fill="#383838" points="426.5,138.4297,436.5,142.4297,426.5,146.4297,430.5,142.4297" style="stroke: #383838; stroke-width: 1.0;"/><line style="stroke: #383838; stroke-width: 1.0;" x1="238.5" x2="432.5" y1="142.4297" y2="142.4297"/><text fill="#000000" font-family="sans-serif" font-size="13" font-weight="bold" lengthAdjust="spacingAndGlyphs" textLength="9" x="256" y="137.4966">2</text><text fill="#000000" font-family="sans-serif" font-size="13" lengthAdjust="spacingAndGlyphs" textLength="152" x="269" y="137.4966">obtainTerminal(device)</text><line style="stroke: #383838; stroke-width: 1.0;" x1="438.5" x2="480.5" y1="171.6953" y2="171.6953"/><line style="stroke: #383838; stroke-width: 1.0;" x1="480.5" x2="480.5" y1="171.6953" y2="184.6953"/><line style="stroke: #383838; stroke-width: 1.0;" x1="439.5" x2="480.5" y1="184.6953" y2="184.6953"/><polygon fill="#383838" points="449.5,180.6953,439.5,184.6953,449.5,188.6953,445.5,184.6953" style="stroke: #383838; stroke-width: 1.0;"/><text fill="#000000" font-family="sans-serif" font-size="13" font-weight="bold" lengthAdjust="spacingAndGlyphs" textLength="9" x="445.5" y="166.6294">3</text><text fill="#000000" font-family="sans-serif" font-size="13" lengthAdjust="spacingAndGlyphs" textLength="156" x="458.5" y="166.6294">checkIfTerminalReady()</text><rect fill="none" height="278.1953" style="stroke: #000000; stroke-width: 2.0;" width="675.5" x="198.5" y="199.6953"/><polygon fill="#EEEEEE" points="198.5,199.6953,262.5,199.6953,262.5,206.6953,252.5,216.6953,198.5,216.6953,198.5,199.6953" style="stroke: #000000; stroke-width: 2.0;"/><text fill="#000000" font-family="sans-serif" font-size="13" font-weight="bold" lengthAdjust="spacingAndGlyphs" textLength="19" x="213.5" y="212.7622">alt</text><text fill="#000000" font-family="sans-serif" font-size="11" font-weight="bold" lengthAdjust="spacingAndGlyphs" textLength="98" x="277.5" y="211.9058">[terminalReady]</text><polygon fill="#383838" points="249.5,233.8281,239.5,237.8281,249.5,241.8281,245.5,237.8281" style="stroke: #383838; stroke-width: 1.0;"/><line style="stroke: #383838; stroke-width: 1.0; stroke-dasharray: 2.0,2.0;" x1="243.5" x2="437.5" y1="237.8281" y2="237.8281"/><text fill="#000000" font-family="sans-serif" font-size="13" font-weight="bold" lengthAdjust="spacingAndGlyphs" textLength="9" x="255" y="232.895">4</text><text fill="#000000" font-family="sans-serif" font-size="13" lengthAdjust="spacingAndGlyphs" textLength="154" x="268" y="232.895">return(terminalSession)</text><line style="stroke: #000000; stroke-width: 1.0; stroke-dasharray: 2.0,2.0;" x1="198.5" x2="874" y1="246.9609" y2="246.9609"/><polygon fill="#383838" points="604.5,264.9609,614.5,268.9609,604.5,272.9609,608.5,268.9609" style="stroke: #383838; stroke-width: 1.0;"/><line style="stroke: #383838; stroke-width: 1.0;" x1="438.5" x2="610.5" y1="268.9609" y2="268.9609"/><text fill="#000000" font-family="sans-serif" font-size="13" font-weight="bold" lengthAdjust="spacingAndGlyphs" textLength="9" x="449.5" y="264.0278">5</text><text fill="#000000" font-family="sans-serif" font-size="13" lengthAdjust="spacingAndGlyphs" textLength="143" x="462.5" y="264.0278">openTerminal(device)</text><line style="stroke: #383838; stroke-width: 1.0;" x1="626.5" x2="668.5" y1="298.2266" y2="298.2266"/><line style="stroke: #383838; stroke-width: 1.0;" x1="668.5" x2="668.5" y1="298.2266" y2="311.2266"/><line style="stroke: #383838; stroke-width: 1.0;" x1="627.5" x2="668.5" y1="311.2266" y2="311.2266"/><polygon fill="#383838" points="637.5,307.2266,627.5,311.2266,637.5,315.2266,633.5,311.2266" style="stroke: #383838; stroke-width: 1.0;"/><text fill="#000000" font-family="sans-serif" font-size="13" font-weight="bold" lengthAdjust="spacingAndGlyphs" textLength="9" x="633.5" y="293.1606">6</text><text fill="#000000" font-family="sans-serif" font-size="13" lengthAdjust="spacingAndGlyphs" textLength="104" x="646.5" y="293.1606">prepareSocket()</text><polygon fill="#383838" points="780.5,336.2266,790.5,340.2266,780.5,344.2266,784.5,340.2266" style="stroke: #383838; stroke-width: 1.0;"/><line style="stroke: #383838; stroke-width: 1.0;" x1="621.5" x2="786.5" y1="340.2266" y2="340.2266"/><text fill="#000000" font-family="sans-serif" font-size="13" font-weight="bold" lengthAdjust="spacingAndGlyphs" textLength="9" x="641.5" y="335.2935">7</text><text fill="#000000" font-family="sans-serif" font-size="13" lengthAdjust="spacingAndGlyphs" textLength="118" x="654.5" y="335.2935">getContainerTTY()</text><polygon fill="#383838" points="637.5,365.3594,627.5,369.3594,637.5,373.3594,633.5,369.3594" style="stroke: #383838; stroke-width: 1.0;"/><line style="stroke: #383838; stroke-width: 1.0; stroke-dasharray: 2.0,2.0;" x1="631.5" x2="796.5" y1="369.3594" y2="369.3594"/><text fill="#000000" font-family="sans-serif" font-size="13" font-weight="bold" lengthAdjust="spacingAndGlyphs" textLength="9" x="638.5" y="364.4263">8</text><text fill="#000000" font-family="sans-serif" font-size="13" lengthAdjust="spacingAndGlyphs" textLength="134" x="651.5" y="364.4263">return(containerTTY)</text><line style="stroke: #383838; stroke-width: 1.0;" x1="626.5" x2="668.5" y1="398.625" y2="398.625"/><line style="stroke: #383838; stroke-width: 1.0;" x1="668.5" x2="668.5" y1="398.625" y2="411.625"/><line style="stroke: #383838; stroke-width: 1.0;" x1="627.5" x2="668.5" y1="411.625" y2="411.625"/><polygon fill="#383838" points="637.5,407.625,627.5,411.625,637.5,415.625,633.5,411.625" style="stroke: #383838; stroke-width: 1.0;"/><text fill="#000000" font-family="sans-serif" font-size="13" font-weight="bold" lengthAdjust="spacingAndGlyphs" textLength="9" x="633.5" y="393.5591">9</text><text fill="#000000" font-family="sans-serif" font-size="13" lengthAdjust="spacingAndGlyphs" textLength="135" x="646.5" y="393.5591">attachTTYToSocket()</text><polygon fill="#383838" points="449.5,436.625,439.5,440.625,449.5,444.625,445.5,440.625" style="stroke: #383838; stroke-width: 1.0;"/><line style="stroke: #383838; stroke-width: 1.0; stroke-dasharray: 2.0,2.0;" x1="443.5" x2="620.5" y1="440.625" y2="440.625"/><text fill="#000000" font-family="sans-serif" font-size="13" font-weight="bold" lengthAdjust="spacingAndGlyphs" textLength="18" x="473" y="435.6919">10</text><text fill="#000000" font-family="sans-serif" font-size="13" lengthAdjust="spacingAndGlyphs" textLength="92" x="495" y="435.6919">return(socket)</text><polygon fill="#383838" points="249.5,465.7578,239.5,469.7578,249.5,473.7578,245.5,469.7578" style="stroke: #383838; stroke-width: 1.0;"/><line style="stroke: #383838; stroke-width: 1.0; stroke-dasharray: 2.0,2.0;" x1="243.5" x2="437.5" y1="469.7578" y2="469.7578"/><text fill="#000000" font-family="sans-serif" font-size="13" font-weight="bold" lengthAdjust="spacingAndGlyphs" textLength="18" x="250.5" y="464.8247">11</text><text fill="#000000" font-family="sans-serif" font-size="13" lengthAdjust="spacingAndGlyphs" textLength="154" x="272.5" y="464.8247">return(terminalSession)</text><polygon fill="#383838" points="45.5,501.8906,35.5,505.8906,45.5,509.8906,41.5,505.8906" style="stroke: #383838; stroke-width: 1.0;"/><line style="stroke: #383838; stroke-width: 1.0; stroke-dasharray: 2.0,2.0;" x1="39.5" x2="237.5" y1="505.8906" y2="505.8906"/><text fill="#000000" font-family="sans-serif" font-size="13" font-weight="bold" lengthAdjust="spacingAndGlyphs" textLength="18" x="50" y="500.9575">12</text><text fill="#000000" font-family="sans-serif" font-size="13" lengthAdjust="spacingAndGlyphs" textLength="151" x="72" y="500.9575">show(terminalWindow)</text></g></svg>